<svg width="35" height="25" viewBox="0 0 35 25" fill="none" xmlns="http://www.w3.org/2000/svg">
<path d="M34.4062 17.1758C34.4062 18.2383 34.2031 19.2383 33.7969 20.1758C33.4219 21.082 32.8906 21.8945 32.2031 22.6133C31.5156 23.3008 30.7031 23.8477 29.7656 24.2539C28.8594 24.6602 27.875 24.8633 26.8125 24.8633C25.4688 24.8633 24.2812 24.5664 23.25 23.9727C22.25 23.3789 21.3906 22.6133 20.6719 21.6758C19.9844 20.707 19.4531 19.6133 19.0781 18.3945C18.7344 17.1445 18.5625 15.8789 18.5625 14.5977C18.5625 13.1914 18.75 11.8008 19.125 10.4258C19.5 9.05078 20.0312 7.76953 20.7188 6.58203C21.4375 5.39453 22.3125 4.31641 23.3438 3.34766C24.375 2.37891 25.5312 1.58203 26.8125 0.957031L30.9375 3.16016C30.125 3.97266 29.4219 4.91016 28.8281 5.97266C28.2656 7.03516 27.9844 8.14453 27.9844 9.30078V9.72266C28.8906 9.87891 29.7344 10.1758 30.5156 10.6133C31.2969 11.0508 31.9688 11.5977 32.5312 12.2539C33.125 12.9102 33.5781 13.6602 33.8906 14.5039C34.2344 15.3477 34.4062 16.2383 34.4062 17.1758ZM16.1719 17.1758C16.1719 18.2383 15.9688 19.2383 15.5625 20.1758C15.1875 21.082 14.6562 21.8945 13.9688 22.6133C13.2812 23.3008 12.4688 23.8477 11.5312 24.2539C10.625 24.6602 9.64062 24.8633 8.57812 24.8633C7.23438 24.8633 6.04688 24.5664 5.01562 23.9727C4.01562 23.3789 3.15625 22.6133 2.4375 21.6758C1.75 20.707 1.21875 19.6133 0.84375 18.3945C0.5 17.1445 0.328125 15.8789 0.328125 14.5977C0.328125 13.1914 0.515625 11.8008 0.890625 10.4258C1.26562 9.05078 1.79688 7.76953 2.48438 6.58203C3.20312 5.39453 4.07812 4.31641 5.10938 3.34766C6.14062 2.37891 7.29688 1.58203 8.57812 0.957031L12.7031 3.16016C11.8906 3.97266 11.1875 4.91016 10.5938 5.97266C10.0312 7.03516 9.75 8.14453 9.75 9.30078V9.72266C10.6562 9.87891 11.5 10.1758 12.2812 10.6133C13.0625 11.0508 13.7344 11.5977 14.2969 12.2539C14.8906 12.9102 15.3438 13.6602 15.6562 14.5039C16 15.3477 16.1719 16.2383 16.1719 17.1758Z" fill="white"/>
</svg>
