<svg width="433" height="27" viewBox="0 0 433 27" fill="none" xmlns="http://www.w3.org/2000/svg">
<mask id="path-1-outside-1_507_718" maskUnits="userSpaceOnUse" x="-6" y="-4" width="445" height="35" fill="black">
<rect fill="white" x="-6" y="-4" width="445" height="35"/>
<path d="M5.816 12.112H0.216L3.8 3.536H7.48L5.816 12.112ZM13.08 12.112H7.512L11.096 3.536H14.744L13.08 12.112ZM35.0965 3.536V7.92H29.1445V26H23.6725V7.92H17.7205V3.536H35.0965ZM49.4587 7.952C51.5068 7.952 53.1494 8.63467 54.3867 10C55.6241 11.344 56.2428 13.2 56.2428 15.568V26H50.8027V16.304C50.8027 15.1093 50.4934 14.1813 49.8747 13.52C49.2561 12.8587 48.4241 12.528 47.3787 12.528C46.3334 12.528 45.5014 12.8587 44.8827 13.52C44.2641 14.1813 43.9547 15.1093 43.9547 16.304V26H38.4827V2.32H43.9547V10.544C44.5094 9.75467 45.2667 9.12533 46.2267 8.656C47.1867 8.18667 48.2641 7.952 49.4587 7.952ZM77.5172 16.784C77.5172 17.296 77.4852 17.8293 77.4212 18.384H65.0372C65.1226 19.4933 65.4746 20.3467 66.0932 20.944C66.7332 21.52 67.5119 21.808 68.4292 21.808C69.7946 21.808 70.7439 21.232 71.2772 20.08H77.1012C76.8026 21.2533 76.2586 22.3093 75.4692 23.248C74.7012 24.1867 73.7306 24.9227 72.5572 25.456C71.3839 25.9893 70.0719 26.256 68.6212 26.256C66.8719 26.256 65.3146 25.8827 63.9492 25.136C62.5839 24.3893 61.5172 23.3227 60.7492 21.936C59.9812 20.5493 59.5972 18.928 59.5972 17.072C59.5972 15.216 59.9706 13.5947 60.7172 12.208C61.4852 10.8213 62.5519 9.75467 63.9172 9.008C65.2826 8.26133 66.8506 7.888 68.6212 7.888C70.3492 7.888 71.8852 8.25067 73.2292 8.976C74.5732 9.70133 75.6186 10.736 76.3652 12.08C77.1332 13.424 77.5172 14.992 77.5172 16.784ZM71.9172 15.344C71.9172 14.4053 71.5972 13.6587 70.9572 13.104C70.3172 12.5493 69.5172 12.272 68.5572 12.272C67.6399 12.272 66.8612 12.5387 66.2212 13.072C65.6026 13.6053 65.2186 14.3627 65.0692 15.344H71.9172ZM103.377 10.64C102.972 9.89333 102.385 9.328 101.617 8.944C100.871 8.53867 99.9852 8.336 98.9612 8.336C97.1906 8.336 95.7719 8.92267 94.7052 10.096C93.6386 11.248 93.1052 12.7947 93.1052 14.736C93.1052 16.8053 93.6599 18.4267 94.7692 19.6C95.8999 20.752 97.4466 21.328 99.4092 21.328C100.753 21.328 101.884 20.9867 102.801 20.304C103.74 19.6213 104.423 18.64 104.849 17.36H97.9052V13.328H109.809V18.416C109.404 19.7813 108.711 21.0507 107.729 22.224C106.769 23.3973 105.543 24.3467 104.049 25.072C102.556 25.7973 100.871 26.16 98.9932 26.16C96.7746 26.16 94.7906 25.68 93.0412 24.72C91.3132 23.7387 89.9586 22.384 88.9772 20.656C88.0172 18.928 87.5372 16.9547 87.5372 14.736C87.5372 12.5173 88.0172 10.544 88.9772 8.816C89.9586 7.06667 91.3132 5.712 93.0412 4.752C94.7692 3.77067 96.7426 3.28 98.9612 3.28C101.649 3.28 103.911 3.93067 105.745 5.232C107.601 6.53333 108.828 8.336 109.425 10.64H103.377ZM118.952 11.12C119.592 10.1387 120.392 9.37067 121.352 8.816C122.312 8.24 123.379 7.952 124.552 7.952V13.744H123.048C121.683 13.744 120.659 14.0427 119.976 14.64C119.294 15.216 118.952 16.24 118.952 17.712V26H113.48V8.144H118.952V11.12ZM126.72 17.04C126.72 15.2053 127.061 13.5947 127.744 12.208C128.448 10.8213 129.397 9.75467 130.592 9.008C131.786 8.26133 133.12 7.888 134.592 7.888C135.85 7.888 136.949 8.144 137.888 8.656C138.848 9.168 139.584 9.84 140.096 10.672V8.144H145.568V26H140.096V23.472C139.562 24.304 138.816 24.976 137.856 25.488C136.917 26 135.818 26.256 134.56 26.256C133.109 26.256 131.786 25.8827 130.592 25.136C129.397 24.368 128.448 23.2907 127.744 21.904C127.061 20.496 126.72 18.8747 126.72 17.04ZM140.096 17.072C140.096 15.7067 139.712 14.6293 138.944 13.84C138.197 13.0507 137.28 12.656 136.192 12.656C135.104 12.656 134.176 13.0507 133.408 13.84C132.661 14.608 132.288 15.6747 132.288 17.04C132.288 18.4053 132.661 19.4933 133.408 20.304C134.176 21.0933 135.104 21.488 136.192 21.488C137.28 21.488 138.197 21.0933 138.944 20.304C139.712 19.5147 140.096 18.4373 140.096 17.072ZM161.046 7.952C163.137 7.952 164.801 8.63467 166.038 10C167.297 11.344 167.926 13.2 167.926 15.568V26H162.486V16.304C162.486 15.1093 162.177 14.1813 161.558 13.52C160.94 12.8587 160.108 12.528 159.062 12.528C158.017 12.528 157.185 12.8587 156.566 13.52C155.948 14.1813 155.638 15.1093 155.638 16.304V26H150.166V8.144H155.638V10.512C156.193 9.72267 156.94 9.104 157.878 8.656C158.817 8.18667 159.873 7.952 161.046 7.952ZM182.321 21.36V26H179.537C177.553 26 176.006 25.52 174.897 24.56C173.788 23.5787 173.233 21.9893 173.233 19.792V12.688H171.057V8.144H173.233V3.792H178.705V8.144H182.289V12.688H178.705V19.856C178.705 20.3893 178.833 20.7733 179.089 21.008C179.345 21.2427 179.772 21.36 180.369 21.36H182.321ZM194.137 26.256C192.388 26.256 190.809 25.8827 189.401 25.136C188.014 24.3893 186.916 23.3227 186.105 21.936C185.316 20.5493 184.921 18.928 184.921 17.072C184.921 15.2373 185.326 13.6267 186.137 12.24C186.948 10.832 188.057 9.75467 189.465 9.008C190.873 8.26133 192.452 7.888 194.201 7.888C195.95 7.888 197.529 8.26133 198.937 9.008C200.345 9.75467 201.454 10.832 202.265 12.24C203.076 13.6267 203.481 15.2373 203.481 17.072C203.481 18.9067 203.065 20.528 202.233 21.936C201.422 23.3227 200.302 24.3893 198.873 25.136C197.465 25.8827 195.886 26.256 194.137 26.256ZM194.137 21.52C195.182 21.52 196.068 21.136 196.793 20.368C197.54 19.6 197.913 18.5013 197.913 17.072C197.913 15.6427 197.55 14.544 196.825 13.776C196.121 13.008 195.246 12.624 194.201 12.624C193.134 12.624 192.249 13.008 191.545 13.776C190.841 14.5227 190.489 15.6213 190.489 17.072C190.489 18.5013 190.83 19.6 191.513 20.368C192.217 21.136 193.092 21.52 194.137 21.52ZM212.496 11.12C213.136 10.1387 213.936 9.37067 214.896 8.816C215.856 8.24 216.923 7.952 218.096 7.952V13.744H216.592C215.227 13.744 214.203 14.0427 213.52 14.64C212.837 15.216 212.496 16.24 212.496 17.712V26H207.024V8.144H212.496V11.12ZM236.901 26.256C235.151 26.256 233.573 25.8827 232.165 25.136C230.778 24.3893 229.679 23.3227 228.869 21.936C228.079 20.5493 227.685 18.928 227.685 17.072C227.685 15.2373 228.09 13.6267 228.901 12.24C229.711 10.832 230.821 9.75467 232.229 9.008C233.637 8.26133 235.215 7.888 236.965 7.888C238.714 7.888 240.293 8.26133 241.701 9.008C243.109 9.75467 244.218 10.832 245.029 12.24C245.839 13.6267 246.245 15.2373 246.245 17.072C246.245 18.9067 245.829 20.528 244.997 21.936C244.186 23.3227 243.066 24.3893 241.637 25.136C240.229 25.8827 238.65 26.256 236.901 26.256ZM236.901 21.52C237.946 21.52 238.831 21.136 239.557 20.368C240.303 19.6 240.677 18.5013 240.677 17.072C240.677 15.6427 240.314 14.544 239.589 13.776C238.885 13.008 238.01 12.624 236.965 12.624C235.898 12.624 235.013 13.008 234.309 13.776C233.605 14.5227 233.253 15.6213 233.253 17.072C233.253 18.5013 233.594 19.6 234.277 20.368C234.981 21.136 235.855 21.52 236.901 21.52ZM258.748 12.688H255.804V26H250.332V12.688H248.348V8.144H250.332V7.632C250.332 5.43467 250.961 3.77067 252.22 2.64C253.478 1.488 255.324 0.911999 257.756 0.911999C258.161 0.911999 258.46 0.922665 258.652 0.943998V5.584C257.606 5.52 256.87 5.66933 256.444 6.032C256.017 6.39467 255.804 7.04533 255.804 7.984V8.144H258.748V12.688ZM286.5 10.768C286.5 12.0693 286.202 13.264 285.604 14.352C285.007 15.4187 284.09 16.2827 282.852 16.944C281.615 17.6053 280.079 17.936 278.244 17.936H274.852V26H269.38V3.536H278.244C280.036 3.536 281.551 3.84533 282.788 4.464C284.026 5.08267 284.954 5.936 285.572 7.024C286.191 8.112 286.5 9.36 286.5 10.768ZM277.828 13.584C278.874 13.584 279.652 13.3387 280.164 12.848C280.676 12.3573 280.932 11.664 280.932 10.768C280.932 9.872 280.676 9.17867 280.164 8.688C279.652 8.19733 278.874 7.952 277.828 7.952H274.852V13.584H277.828ZM295.461 2.32V26H289.989V2.32H295.461ZM316.898 16.784C316.898 17.296 316.866 17.8293 316.802 18.384H304.418C304.504 19.4933 304.856 20.3467 305.474 20.944C306.114 21.52 306.893 21.808 307.81 21.808C309.176 21.808 310.125 21.232 310.658 20.08H316.482C316.184 21.2533 315.64 22.3093 314.85 23.248C314.082 24.1867 313.112 24.9227 311.938 25.456C310.765 25.9893 309.453 26.256 308.002 26.256C306.253 26.256 304.696 25.8827 303.33 25.136C301.965 24.3893 300.898 23.3227 300.13 21.936C299.362 20.5493 298.978 18.928 298.978 17.072C298.978 15.216 299.352 13.5947 300.098 12.208C300.866 10.8213 301.933 9.75467 303.298 9.008C304.664 8.26133 306.232 7.888 308.002 7.888C309.73 7.888 311.266 8.25067 312.61 8.976C313.954 9.70133 315 10.736 315.746 12.08C316.514 13.424 316.898 14.992 316.898 16.784ZM311.298 15.344C311.298 14.4053 310.978 13.6587 310.338 13.104C309.698 12.5493 308.898 12.272 307.938 12.272C307.021 12.272 306.242 12.5387 305.602 13.072C304.984 13.6053 304.6 14.3627 304.45 15.344H311.298ZM319.337 17.04C319.337 15.2053 319.679 13.5947 320.361 12.208C321.065 10.8213 322.015 9.75467 323.209 9.008C324.404 8.26133 325.737 7.888 327.209 7.888C328.468 7.888 329.567 8.144 330.505 8.656C331.465 9.168 332.201 9.84 332.713 10.672V8.144H338.185V26H332.713V23.472C332.18 24.304 331.433 24.976 330.473 25.488C329.535 26 328.436 26.256 327.177 26.256C325.727 26.256 324.404 25.8827 323.209 25.136C322.015 24.368 321.065 23.2907 320.361 21.904C319.679 20.496 319.337 18.8747 319.337 17.04ZM332.713 17.072C332.713 15.7067 332.329 14.6293 331.561 13.84C330.815 13.0507 329.897 12.656 328.809 12.656C327.721 12.656 326.793 13.0507 326.025 13.84C325.279 14.608 324.905 15.6747 324.905 17.04C324.905 18.4053 325.279 19.4933 326.025 20.304C326.793 21.0933 327.721 21.488 328.809 21.488C329.897 21.488 330.815 21.0933 331.561 20.304C332.329 19.5147 332.713 18.4373 332.713 17.072ZM350.048 26.256C348.491 26.256 347.104 25.9893 345.888 25.456C344.672 24.9227 343.712 24.1973 343.008 23.28C342.304 22.3413 341.909 21.296 341.824 20.144H347.232C347.296 20.7627 347.584 21.264 348.096 21.648C348.608 22.032 349.237 22.224 349.984 22.224C350.667 22.224 351.189 22.096 351.552 21.84C351.936 21.5627 352.128 21.2107 352.128 20.784C352.128 20.272 351.861 19.8987 351.328 19.664C350.795 19.408 349.931 19.1307 348.736 18.832C347.456 18.5333 346.389 18.224 345.536 17.904C344.683 17.5627 343.947 17.04 343.328 16.336C342.709 15.6107 342.4 14.64 342.4 13.424C342.4 12.4 342.677 11.472 343.232 10.64C343.808 9.78667 344.64 9.11467 345.728 8.624C346.837 8.13333 348.149 7.888 349.664 7.888C351.904 7.888 353.664 8.44267 354.944 9.552C356.245 10.6613 356.992 12.1333 357.184 13.968H352.128C352.043 13.3493 351.765 12.8587 351.296 12.496C350.848 12.1333 350.251 11.952 349.504 11.952C348.864 11.952 348.373 12.08 348.032 12.336C347.691 12.5707 347.52 12.9013 347.52 13.328C347.52 13.84 347.787 14.224 348.32 14.48C348.875 14.736 349.728 14.992 350.88 15.248C352.203 15.5893 353.28 15.9307 354.112 16.272C354.944 16.592 355.669 17.1253 356.288 17.872C356.928 18.5973 357.259 19.5787 357.28 20.816C357.28 21.8613 356.981 22.8 356.384 23.632C355.808 24.4427 354.965 25.0827 353.856 25.552C352.768 26.0213 351.499 26.256 350.048 26.256ZM378.9 8.144V26H373.428V23.568C372.873 24.3573 372.116 24.9973 371.156 25.488C370.217 25.9573 369.172 26.192 368.02 26.192C366.654 26.192 365.449 25.8933 364.404 25.296C363.358 24.6773 362.548 23.792 361.972 22.64C361.396 21.488 361.108 20.1333 361.108 18.576V8.144H366.548V17.84C366.548 19.0347 366.857 19.9627 367.476 20.624C368.094 21.2853 368.926 21.616 369.972 21.616C371.038 21.616 371.881 21.2853 372.5 20.624C373.118 19.9627 373.428 19.0347 373.428 17.84V8.144H378.9ZM388.942 11.12C389.582 10.1387 390.382 9.37067 391.342 8.816C392.302 8.24 393.369 7.952 394.542 7.952V13.744H393.038C391.673 13.744 390.649 14.0427 389.966 14.64C389.284 15.216 388.942 16.24 388.942 17.712V26H383.47V8.144H388.942V11.12ZM414.63 16.784C414.63 17.296 414.598 17.8293 414.534 18.384H402.15C402.235 19.4933 402.587 20.3467 403.206 20.944C403.846 21.52 404.624 21.808 405.542 21.808C406.907 21.808 407.856 21.232 408.39 20.08H414.214C413.915 21.2533 413.371 22.3093 412.582 23.248C411.814 24.1867 410.843 24.9227 409.67 25.456C408.496 25.9893 407.184 26.256 405.734 26.256C403.984 26.256 402.427 25.8827 401.062 25.136C399.696 24.3893 398.63 23.3227 397.862 21.936C397.094 20.5493 396.71 18.928 396.71 17.072C396.71 15.216 397.083 13.5947 397.83 12.208C398.598 10.8213 399.664 9.75467 401.03 9.008C402.395 8.26133 403.963 7.888 405.734 7.888C407.462 7.888 408.998 8.25067 410.342 8.976C411.686 9.70133 412.731 10.736 413.478 12.08C414.246 13.424 414.63 14.992 414.63 16.784ZM409.03 15.344C409.03 14.4053 408.71 13.6587 408.07 13.104C407.43 12.5493 406.63 12.272 405.67 12.272C404.752 12.272 403.974 12.5387 403.334 13.072C402.715 13.6053 402.331 14.3627 402.182 15.344H409.03ZM419.404 3.536H425.004L421.42 12.112H417.74L419.404 3.536ZM426.668 3.536H432.268L428.684 12.112H425.004L426.668 3.536Z"/>
</mask>
<path d="M5.816 12.112H0.216L3.8 3.536H7.48L5.816 12.112ZM13.08 12.112H7.512L11.096 3.536H14.744L13.08 12.112ZM35.0965 3.536V7.92H29.1445V26H23.6725V7.92H17.7205V3.536H35.0965ZM49.4587 7.952C51.5068 7.952 53.1494 8.63467 54.3867 10C55.6241 11.344 56.2428 13.2 56.2428 15.568V26H50.8027V16.304C50.8027 15.1093 50.4934 14.1813 49.8747 13.52C49.2561 12.8587 48.4241 12.528 47.3787 12.528C46.3334 12.528 45.5014 12.8587 44.8827 13.52C44.2641 14.1813 43.9547 15.1093 43.9547 16.304V26H38.4827V2.32H43.9547V10.544C44.5094 9.75467 45.2667 9.12533 46.2267 8.656C47.1867 8.18667 48.2641 7.952 49.4587 7.952ZM77.5172 16.784C77.5172 17.296 77.4852 17.8293 77.4212 18.384H65.0372C65.1226 19.4933 65.4746 20.3467 66.0932 20.944C66.7332 21.52 67.5119 21.808 68.4292 21.808C69.7946 21.808 70.7439 21.232 71.2772 20.08H77.1012C76.8026 21.2533 76.2586 22.3093 75.4692 23.248C74.7012 24.1867 73.7306 24.9227 72.5572 25.456C71.3839 25.9893 70.0719 26.256 68.6212 26.256C66.8719 26.256 65.3146 25.8827 63.9492 25.136C62.5839 24.3893 61.5172 23.3227 60.7492 21.936C59.9812 20.5493 59.5972 18.928 59.5972 17.072C59.5972 15.216 59.9706 13.5947 60.7172 12.208C61.4852 10.8213 62.5519 9.75467 63.9172 9.008C65.2826 8.26133 66.8506 7.888 68.6212 7.888C70.3492 7.888 71.8852 8.25067 73.2292 8.976C74.5732 9.70133 75.6186 10.736 76.3652 12.08C77.1332 13.424 77.5172 14.992 77.5172 16.784ZM71.9172 15.344C71.9172 14.4053 71.5972 13.6587 70.9572 13.104C70.3172 12.5493 69.5172 12.272 68.5572 12.272C67.6399 12.272 66.8612 12.5387 66.2212 13.072C65.6026 13.6053 65.2186 14.3627 65.0692 15.344H71.9172ZM103.377 10.64C102.972 9.89333 102.385 9.328 101.617 8.944C100.871 8.53867 99.9852 8.336 98.9612 8.336C97.1906 8.336 95.7719 8.92267 94.7052 10.096C93.6386 11.248 93.1052 12.7947 93.1052 14.736C93.1052 16.8053 93.6599 18.4267 94.7692 19.6C95.8999 20.752 97.4466 21.328 99.4092 21.328C100.753 21.328 101.884 20.9867 102.801 20.304C103.74 19.6213 104.423 18.64 104.849 17.36H97.9052V13.328H109.809V18.416C109.404 19.7813 108.711 21.0507 107.729 22.224C106.769 23.3973 105.543 24.3467 104.049 25.072C102.556 25.7973 100.871 26.16 98.9932 26.16C96.7746 26.16 94.7906 25.68 93.0412 24.72C91.3132 23.7387 89.9586 22.384 88.9772 20.656C88.0172 18.928 87.5372 16.9547 87.5372 14.736C87.5372 12.5173 88.0172 10.544 88.9772 8.816C89.9586 7.06667 91.3132 5.712 93.0412 4.752C94.7692 3.77067 96.7426 3.28 98.9612 3.28C101.649 3.28 103.911 3.93067 105.745 5.232C107.601 6.53333 108.828 8.336 109.425 10.64H103.377ZM118.952 11.12C119.592 10.1387 120.392 9.37067 121.352 8.816C122.312 8.24 123.379 7.952 124.552 7.952V13.744H123.048C121.683 13.744 120.659 14.0427 119.976 14.64C119.294 15.216 118.952 16.24 118.952 17.712V26H113.48V8.144H118.952V11.12ZM126.72 17.04C126.72 15.2053 127.061 13.5947 127.744 12.208C128.448 10.8213 129.397 9.75467 130.592 9.008C131.786 8.26133 133.12 7.888 134.592 7.888C135.85 7.888 136.949 8.144 137.888 8.656C138.848 9.168 139.584 9.84 140.096 10.672V8.144H145.568V26H140.096V23.472C139.562 24.304 138.816 24.976 137.856 25.488C136.917 26 135.818 26.256 134.56 26.256C133.109 26.256 131.786 25.8827 130.592 25.136C129.397 24.368 128.448 23.2907 127.744 21.904C127.061 20.496 126.72 18.8747 126.72 17.04ZM140.096 17.072C140.096 15.7067 139.712 14.6293 138.944 13.84C138.197 13.0507 137.28 12.656 136.192 12.656C135.104 12.656 134.176 13.0507 133.408 13.84C132.661 14.608 132.288 15.6747 132.288 17.04C132.288 18.4053 132.661 19.4933 133.408 20.304C134.176 21.0933 135.104 21.488 136.192 21.488C137.28 21.488 138.197 21.0933 138.944 20.304C139.712 19.5147 140.096 18.4373 140.096 17.072ZM161.046 7.952C163.137 7.952 164.801 8.63467 166.038 10C167.297 11.344 167.926 13.2 167.926 15.568V26H162.486V16.304C162.486 15.1093 162.177 14.1813 161.558 13.52C160.94 12.8587 160.108 12.528 159.062 12.528C158.017 12.528 157.185 12.8587 156.566 13.52C155.948 14.1813 155.638 15.1093 155.638 16.304V26H150.166V8.144H155.638V10.512C156.193 9.72267 156.94 9.104 157.878 8.656C158.817 8.18667 159.873 7.952 161.046 7.952ZM182.321 21.36V26H179.537C177.553 26 176.006 25.52 174.897 24.56C173.788 23.5787 173.233 21.9893 173.233 19.792V12.688H171.057V8.144H173.233V3.792H178.705V8.144H182.289V12.688H178.705V19.856C178.705 20.3893 178.833 20.7733 179.089 21.008C179.345 21.2427 179.772 21.36 180.369 21.36H182.321ZM194.137 26.256C192.388 26.256 190.809 25.8827 189.401 25.136C188.014 24.3893 186.916 23.3227 186.105 21.936C185.316 20.5493 184.921 18.928 184.921 17.072C184.921 15.2373 185.326 13.6267 186.137 12.24C186.948 10.832 188.057 9.75467 189.465 9.008C190.873 8.26133 192.452 7.888 194.201 7.888C195.95 7.888 197.529 8.26133 198.937 9.008C200.345 9.75467 201.454 10.832 202.265 12.24C203.076 13.6267 203.481 15.2373 203.481 17.072C203.481 18.9067 203.065 20.528 202.233 21.936C201.422 23.3227 200.302 24.3893 198.873 25.136C197.465 25.8827 195.886 26.256 194.137 26.256ZM194.137 21.52C195.182 21.52 196.068 21.136 196.793 20.368C197.54 19.6 197.913 18.5013 197.913 17.072C197.913 15.6427 197.55 14.544 196.825 13.776C196.121 13.008 195.246 12.624 194.201 12.624C193.134 12.624 192.249 13.008 191.545 13.776C190.841 14.5227 190.489 15.6213 190.489 17.072C190.489 18.5013 190.83 19.6 191.513 20.368C192.217 21.136 193.092 21.52 194.137 21.52ZM212.496 11.12C213.136 10.1387 213.936 9.37067 214.896 8.816C215.856 8.24 216.923 7.952 218.096 7.952V13.744H216.592C215.227 13.744 214.203 14.0427 213.52 14.64C212.837 15.216 212.496 16.24 212.496 17.712V26H207.024V8.144H212.496V11.12ZM236.901 26.256C235.151 26.256 233.573 25.8827 232.165 25.136C230.778 24.3893 229.679 23.3227 228.869 21.936C228.079 20.5493 227.685 18.928 227.685 17.072C227.685 15.2373 228.09 13.6267 228.901 12.24C229.711 10.832 230.821 9.75467 232.229 9.008C233.637 8.26133 235.215 7.888 236.965 7.888C238.714 7.888 240.293 8.26133 241.701 9.008C243.109 9.75467 244.218 10.832 245.029 12.24C245.839 13.6267 246.245 15.2373 246.245 17.072C246.245 18.9067 245.829 20.528 244.997 21.936C244.186 23.3227 243.066 24.3893 241.637 25.136C240.229 25.8827 238.65 26.256 236.901 26.256ZM236.901 21.52C237.946 21.52 238.831 21.136 239.557 20.368C240.303 19.6 240.677 18.5013 240.677 17.072C240.677 15.6427 240.314 14.544 239.589 13.776C238.885 13.008 238.01 12.624 236.965 12.624C235.898 12.624 235.013 13.008 234.309 13.776C233.605 14.5227 233.253 15.6213 233.253 17.072C233.253 18.5013 233.594 19.6 234.277 20.368C234.981 21.136 235.855 21.52 236.901 21.52ZM258.748 12.688H255.804V26H250.332V12.688H248.348V8.144H250.332V7.632C250.332 5.43467 250.961 3.77067 252.22 2.64C253.478 1.488 255.324 0.911999 257.756 0.911999C258.161 0.911999 258.46 0.922665 258.652 0.943998V5.584C257.606 5.52 256.87 5.66933 256.444 6.032C256.017 6.39467 255.804 7.04533 255.804 7.984V8.144H258.748V12.688ZM286.5 10.768C286.5 12.0693 286.202 13.264 285.604 14.352C285.007 15.4187 284.09 16.2827 282.852 16.944C281.615 17.6053 280.079 17.936 278.244 17.936H274.852V26H269.38V3.536H278.244C280.036 3.536 281.551 3.84533 282.788 4.464C284.026 5.08267 284.954 5.936 285.572 7.024C286.191 8.112 286.5 9.36 286.5 10.768ZM277.828 13.584C278.874 13.584 279.652 13.3387 280.164 12.848C280.676 12.3573 280.932 11.664 280.932 10.768C280.932 9.872 280.676 9.17867 280.164 8.688C279.652 8.19733 278.874 7.952 277.828 7.952H274.852V13.584H277.828ZM295.461 2.32V26H289.989V2.32H295.461ZM316.898 16.784C316.898 17.296 316.866 17.8293 316.802 18.384H304.418C304.504 19.4933 304.856 20.3467 305.474 20.944C306.114 21.52 306.893 21.808 307.81 21.808C309.176 21.808 310.125 21.232 310.658 20.08H316.482C316.184 21.2533 315.64 22.3093 314.85 23.248C314.082 24.1867 313.112 24.9227 311.938 25.456C310.765 25.9893 309.453 26.256 308.002 26.256C306.253 26.256 304.696 25.8827 303.33 25.136C301.965 24.3893 300.898 23.3227 300.13 21.936C299.362 20.5493 298.978 18.928 298.978 17.072C298.978 15.216 299.352 13.5947 300.098 12.208C300.866 10.8213 301.933 9.75467 303.298 9.008C304.664 8.26133 306.232 7.888 308.002 7.888C309.73 7.888 311.266 8.25067 312.61 8.976C313.954 9.70133 315 10.736 315.746 12.08C316.514 13.424 316.898 14.992 316.898 16.784ZM311.298 15.344C311.298 14.4053 310.978 13.6587 310.338 13.104C309.698 12.5493 308.898 12.272 307.938 12.272C307.021 12.272 306.242 12.5387 305.602 13.072C304.984 13.6053 304.6 14.3627 304.45 15.344H311.298ZM319.337 17.04C319.337 15.2053 319.679 13.5947 320.361 12.208C321.065 10.8213 322.015 9.75467 323.209 9.008C324.404 8.26133 325.737 7.888 327.209 7.888C328.468 7.888 329.567 8.144 330.505 8.656C331.465 9.168 332.201 9.84 332.713 10.672V8.144H338.185V26H332.713V23.472C332.18 24.304 331.433 24.976 330.473 25.488C329.535 26 328.436 26.256 327.177 26.256C325.727 26.256 324.404 25.8827 323.209 25.136C322.015 24.368 321.065 23.2907 320.361 21.904C319.679 20.496 319.337 18.8747 319.337 17.04ZM332.713 17.072C332.713 15.7067 332.329 14.6293 331.561 13.84C330.815 13.0507 329.897 12.656 328.809 12.656C327.721 12.656 326.793 13.0507 326.025 13.84C325.279 14.608 324.905 15.6747 324.905 17.04C324.905 18.4053 325.279 19.4933 326.025 20.304C326.793 21.0933 327.721 21.488 328.809 21.488C329.897 21.488 330.815 21.0933 331.561 20.304C332.329 19.5147 332.713 18.4373 332.713 17.072ZM350.048 26.256C348.491 26.256 347.104 25.9893 345.888 25.456C344.672 24.9227 343.712 24.1973 343.008 23.28C342.304 22.3413 341.909 21.296 341.824 20.144H347.232C347.296 20.7627 347.584 21.264 348.096 21.648C348.608 22.032 349.237 22.224 349.984 22.224C350.667 22.224 351.189 22.096 351.552 21.84C351.936 21.5627 352.128 21.2107 352.128 20.784C352.128 20.272 351.861 19.8987 351.328 19.664C350.795 19.408 349.931 19.1307 348.736 18.832C347.456 18.5333 346.389 18.224 345.536 17.904C344.683 17.5627 343.947 17.04 343.328 16.336C342.709 15.6107 342.4 14.64 342.4 13.424C342.4 12.4 342.677 11.472 343.232 10.64C343.808 9.78667 344.64 9.11467 345.728 8.624C346.837 8.13333 348.149 7.888 349.664 7.888C351.904 7.888 353.664 8.44267 354.944 9.552C356.245 10.6613 356.992 12.1333 357.184 13.968H352.128C352.043 13.3493 351.765 12.8587 351.296 12.496C350.848 12.1333 350.251 11.952 349.504 11.952C348.864 11.952 348.373 12.08 348.032 12.336C347.691 12.5707 347.52 12.9013 347.52 13.328C347.52 13.84 347.787 14.224 348.32 14.48C348.875 14.736 349.728 14.992 350.88 15.248C352.203 15.5893 353.28 15.9307 354.112 16.272C354.944 16.592 355.669 17.1253 356.288 17.872C356.928 18.5973 357.259 19.5787 357.28 20.816C357.28 21.8613 356.981 22.8 356.384 23.632C355.808 24.4427 354.965 25.0827 353.856 25.552C352.768 26.0213 351.499 26.256 350.048 26.256ZM378.9 8.144V26H373.428V23.568C372.873 24.3573 372.116 24.9973 371.156 25.488C370.217 25.9573 369.172 26.192 368.02 26.192C366.654 26.192 365.449 25.8933 364.404 25.296C363.358 24.6773 362.548 23.792 361.972 22.64C361.396 21.488 361.108 20.1333 361.108 18.576V8.144H366.548V17.84C366.548 19.0347 366.857 19.9627 367.476 20.624C368.094 21.2853 368.926 21.616 369.972 21.616C371.038 21.616 371.881 21.2853 372.5 20.624C373.118 19.9627 373.428 19.0347 373.428 17.84V8.144H378.9ZM388.942 11.12C389.582 10.1387 390.382 9.37067 391.342 8.816C392.302 8.24 393.369 7.952 394.542 7.952V13.744H393.038C391.673 13.744 390.649 14.0427 389.966 14.64C389.284 15.216 388.942 16.24 388.942 17.712V26H383.47V8.144H388.942V11.12ZM414.63 16.784C414.63 17.296 414.598 17.8293 414.534 18.384H402.15C402.235 19.4933 402.587 20.3467 403.206 20.944C403.846 21.52 404.624 21.808 405.542 21.808C406.907 21.808 407.856 21.232 408.39 20.08H414.214C413.915 21.2533 413.371 22.3093 412.582 23.248C411.814 24.1867 410.843 24.9227 409.67 25.456C408.496 25.9893 407.184 26.256 405.734 26.256C403.984 26.256 402.427 25.8827 401.062 25.136C399.696 24.3893 398.63 23.3227 397.862 21.936C397.094 20.5493 396.71 18.928 396.71 17.072C396.71 15.216 397.083 13.5947 397.83 12.208C398.598 10.8213 399.664 9.75467 401.03 9.008C402.395 8.26133 403.963 7.888 405.734 7.888C407.462 7.888 408.998 8.25067 410.342 8.976C411.686 9.70133 412.731 10.736 413.478 12.08C414.246 13.424 414.63 14.992 414.63 16.784ZM409.03 15.344C409.03 14.4053 408.71 13.6587 408.07 13.104C407.43 12.5493 406.63 12.272 405.67 12.272C404.752 12.272 403.974 12.5387 403.334 13.072C402.715 13.6053 402.331 14.3627 402.182 15.344H409.03ZM419.404 3.536H425.004L421.42 12.112H417.74L419.404 3.536ZM426.668 3.536H432.268L428.684 12.112H425.004L426.668 3.536Z" fill="#ED88AC"/>
<path d="M5.816 12.112V16.112H9.11448L9.74277 12.8739L5.816 12.112ZM0.216 12.112L-3.47468 10.5696L-5.79089 16.112H0.216V12.112ZM3.8 3.536V-0.464001H1.13639L0.109324 1.99363L3.8 3.536ZM7.48 3.536L11.4068 4.29791L12.3307 -0.464001H7.48V3.536ZM13.08 12.112V16.112H16.3785L17.0068 12.8739L13.08 12.112ZM7.512 12.112L3.82132 10.5696L1.50511 16.112H7.512V12.112ZM11.096 3.536V-0.464001H8.43239L7.40532 1.99363L11.096 3.536ZM14.744 3.536L18.6708 4.29791L19.5947 -0.464001H14.744V3.536ZM5.816 8.112H0.216V16.112H5.816V8.112ZM3.90668 13.6544L7.49068 5.07837L0.109324 1.99363L-3.47468 10.5696L3.90668 13.6544ZM3.8 7.536H7.48V-0.464001H3.8V7.536ZM3.55323 2.77409L1.88923 11.3501L9.74277 12.8739L11.4068 4.29791L3.55323 2.77409ZM13.08 8.112H7.512V16.112H13.08V8.112ZM11.2027 13.6544L14.7867 5.07837L7.40532 1.99363L3.82132 10.5696L11.2027 13.6544ZM11.096 7.536H14.744V-0.464001H11.096V7.536ZM10.8172 2.77409L9.15323 11.3501L17.0068 12.8739L18.6708 4.29791L10.8172 2.77409ZM35.0965 3.536H39.0965V-0.464001H35.0965V3.536ZM35.0965 7.92V11.92H39.0965V7.92H35.0965ZM29.1445 7.92V3.92H25.1445V7.92H29.1445ZM29.1445 26V30H33.1445V26H29.1445ZM23.6725 26H19.6725V30H23.6725V26ZM23.6725 7.92H27.6725V3.92H23.6725V7.92ZM17.7205 7.92H13.7205V11.92H17.7205V7.92ZM17.7205 3.536V-0.464001H13.7205V3.536H17.7205ZM31.0965 3.536V7.92H39.0965V3.536H31.0965ZM35.0965 3.92H29.1445V11.92H35.0965V3.92ZM25.1445 7.92V26H33.1445V7.92H25.1445ZM29.1445 22H23.6725V30H29.1445V22ZM27.6725 26V7.92H19.6725V26H27.6725ZM23.6725 3.92H17.7205V11.92H23.6725V3.92ZM21.7205 7.92V3.536H13.7205V7.92H21.7205ZM17.7205 7.536H35.0965V-0.464001H17.7205V7.536ZM54.3867 10L51.4228 12.6861L51.4333 12.6977L51.444 12.7092L54.3867 10ZM56.2428 26V30H60.2428V26H56.2428ZM50.8027 26H46.8027V30H50.8027V26ZM49.8747 13.52L46.9537 16.2526V16.2526L49.8747 13.52ZM44.8828 13.52L47.8038 16.2526L47.8038 16.2526L44.8828 13.52ZM43.9548 26V30H47.9548V26H43.9548ZM38.4827 26H34.4827V30H38.4827V26ZM38.4827 2.32V-1.68H34.4827V2.32H38.4827ZM43.9548 2.32H47.9548V-1.68H43.9548V2.32ZM43.9548 10.544H39.9548V23.1935L47.2275 12.8438L43.9548 10.544ZM46.2267 8.656L44.4699 5.06246V5.06246L46.2267 8.656ZM49.4587 11.952C50.5177 11.952 51.033 12.2559 51.4228 12.6861L57.3507 7.31392C55.2659 5.01342 52.4958 3.952 49.4587 3.952V11.952ZM51.444 12.7092C51.8191 13.1167 52.2428 13.8973 52.2428 15.568H60.2428C60.2428 12.5027 59.4291 9.57132 57.3295 7.29076L51.444 12.7092ZM52.2428 15.568V26H60.2428V15.568H52.2428ZM56.2428 22H50.8027V30H56.2428V22ZM54.8027 26V16.304H46.8027V26H54.8027ZM54.8027 16.304C54.8027 14.4271 54.3057 12.4013 52.7958 10.7874L46.9537 16.2526C46.9012 16.1965 46.8585 16.1378 46.8265 16.0829C46.7949 16.0289 46.7805 15.9903 46.776 15.9769C46.7685 15.9543 46.8027 16.0449 46.8027 16.304H54.8027ZM52.7958 10.7874C51.3019 9.19038 49.3442 8.528 47.3787 8.528V16.528C47.479 16.528 47.4353 16.5432 47.3094 16.4932C47.2479 16.4687 47.1802 16.4338 47.1129 16.3878C47.0457 16.3419 46.9925 16.2941 46.9537 16.2526L52.7958 10.7874ZM47.3787 8.528C45.4133 8.528 43.4556 9.19038 41.9617 10.7874L47.8038 16.2526C47.765 16.2941 47.7118 16.3419 47.6446 16.3878C47.5773 16.4338 47.5096 16.4687 47.4481 16.4932C47.3222 16.5432 47.2785 16.528 47.3787 16.528V8.528ZM41.9617 10.7874C40.4518 12.4013 39.9548 14.4271 39.9548 16.304H47.9548C47.9548 16.0449 47.989 15.9543 47.9815 15.9769C47.977 15.9903 47.9626 16.0289 47.931 16.0829C47.899 16.1378 47.8563 16.1965 47.8038 16.2526L41.9617 10.7874ZM39.9548 16.304V26H47.9548V16.304H39.9548ZM43.9548 22H38.4827V30H43.9548V22ZM42.4827 26V2.32H34.4827V26H42.4827ZM38.4827 6.32H43.9548V-1.68H38.4827V6.32ZM39.9548 2.32V10.544H47.9548V2.32H39.9548ZM47.2275 12.8438C47.3536 12.6644 47.5633 12.455 47.9836 12.2495L44.4699 5.06246C42.9702 5.79566 41.6652 6.84496 40.682 8.24422L47.2275 12.8438ZM47.9836 12.2495C48.3349 12.0778 48.8005 11.952 49.4587 11.952V3.952C47.7277 3.952 46.0386 4.29556 44.4699 5.06246L47.9836 12.2495ZM77.4212 18.384V22.384H80.9863L81.3949 18.8425L77.4212 18.384ZM65.0372 18.384V14.384H60.7177L61.049 18.6908L65.0372 18.384ZM66.0932 20.944L63.3149 23.8216L63.3653 23.8703L63.4174 23.9172L66.0932 20.944ZM71.2773 20.08V16.08H68.7212L67.6474 18.3995L71.2773 20.08ZM77.1012 20.08L80.9776 21.0667L82.247 16.08H77.1012V20.08ZM75.4693 23.248L72.4078 20.6736L72.3905 20.6942L72.3734 20.715L75.4693 23.248ZM72.5573 25.456L74.2125 29.0975L72.5573 25.456ZM63.9492 25.136L62.03 28.6455L63.9492 25.136ZM60.7492 21.936L64.2484 19.998L60.7492 21.936ZM60.7172 12.208L57.2181 10.27L57.2066 10.2907L57.1954 10.3116L60.7172 12.208ZM63.9173 9.008L65.8365 12.5175L65.8365 12.5175L63.9173 9.008ZM73.2292 8.976L71.3295 12.4961H71.3295L73.2292 8.976ZM76.3652 12.08L72.8686 14.0226L72.8803 14.0436L72.8923 14.0646L76.3652 12.08ZM71.9173 15.344V19.344H75.9173V15.344H71.9173ZM70.9572 13.104L73.577 10.0812V10.0812L70.9572 13.104ZM66.2213 13.072L63.6605 9.99911L63.6348 10.0205L63.6095 10.0424L66.2213 13.072ZM65.0693 15.344L61.1148 14.7422L60.4145 19.344H65.0693V15.344ZM73.5173 16.784C73.5173 17.1298 73.4956 17.5095 73.4476 17.9255L81.3949 18.8425C81.4749 18.1491 81.5173 17.4622 81.5173 16.784H73.5173ZM77.4212 14.384H65.0372V22.384H77.4212V14.384ZM61.049 18.6908C61.1868 20.4821 61.8052 22.364 63.3149 23.8216L68.8716 18.0664C68.9247 18.1177 68.9691 18.1719 69.0037 18.2236C69.0378 18.2746 69.0558 18.3132 69.063 18.3307C69.0762 18.3627 69.0423 18.2961 69.0255 18.0772L61.049 18.6908ZM63.4174 23.9172C64.8427 25.1999 66.5942 25.808 68.4292 25.808V17.808C68.3946 17.808 68.4458 17.8037 68.5448 17.8404C68.6479 17.8785 68.727 17.933 68.7691 17.9708L63.4174 23.9172ZM68.4292 25.808C69.676 25.808 71.0107 25.5417 72.2402 24.7958C73.4883 24.0384 74.3558 22.9514 74.9071 21.7605L67.6474 18.3995C67.6511 18.3914 67.6835 18.3246 67.7635 18.2313C67.8464 18.1348 67.9572 18.037 68.0903 17.9562C68.3705 17.7863 68.5478 17.808 68.4292 17.808V25.808ZM71.2773 24.08H77.1012V16.08H71.2773V24.08ZM73.2249 19.0933C73.0768 19.675 72.8146 20.1898 72.4078 20.6736L78.5307 25.8224C79.7026 24.4288 80.5284 22.8317 80.9776 21.0667L73.2249 19.0933ZM72.3734 20.715C72.0184 21.1489 71.5524 21.5189 70.902 21.8145L74.2125 29.0975C75.9088 28.3264 77.3841 27.2244 78.5651 25.781L72.3734 20.715ZM70.902 21.8145C70.3102 22.0835 69.5728 22.256 68.6212 22.256V30.256C70.571 30.256 72.4576 29.8951 74.2125 29.0975L70.902 21.8145ZM68.6212 22.256C67.4581 22.256 66.5753 22.0131 65.8685 21.6265L62.03 28.6455C64.0539 29.7523 66.2858 30.256 68.6212 30.256V22.256ZM65.8685 21.6265C65.181 21.2505 64.6565 20.7348 64.2484 19.998L57.2501 23.874C58.378 25.9105 59.9868 27.5281 62.03 28.6455L65.8685 21.6265ZM64.2484 19.998C63.861 19.2986 63.5973 18.3664 63.5973 17.072H55.5972C55.5972 19.4896 56.1014 21.8001 57.2501 23.874L64.2484 19.998ZM63.5973 17.072C63.5973 15.7597 63.8579 14.8123 64.2391 14.1044L57.1954 10.3116C56.0832 12.377 55.5972 14.6723 55.5972 17.072H63.5973ZM64.2164 14.146C64.6245 13.4092 65.149 12.8935 65.8365 12.5175L61.998 5.49852C59.9548 6.61587 58.346 8.23348 57.2181 10.27L64.2164 14.146ZM65.8365 12.5175C66.5363 12.1348 67.4277 11.888 68.6212 11.888V3.888C66.2734 3.888 64.0288 4.38789 61.998 5.49852L65.8365 12.5175ZM68.6212 11.888C69.7743 11.888 70.6423 12.1252 71.3295 12.4961L75.129 5.45591C73.1282 4.37614 70.9241 3.888 68.6212 3.888V11.888ZM71.3295 12.4961C71.9968 12.8562 72.4901 13.3413 72.8686 14.0226L79.8619 10.1374C78.747 8.1307 77.1497 6.54646 75.129 5.45591L71.3295 12.4961ZM72.8923 14.0646C73.2637 14.7146 73.5173 15.5771 73.5173 16.784H81.5173C81.5173 14.4069 81.0028 12.1334 79.8382 10.0954L72.8923 14.0646ZM75.9173 15.344C75.9173 13.3863 75.1949 11.4834 73.577 10.0812L68.3375 16.1268C68.2203 16.0252 68.0892 15.8622 68.0007 15.6557C67.9167 15.4597 67.9173 15.3329 67.9173 15.344H75.9173ZM73.577 10.0812C72.1125 8.812 70.3426 8.272 68.5573 8.272V16.272C68.6502 16.272 68.6407 16.2849 68.5671 16.2593C68.5316 16.2471 68.4899 16.2287 68.4461 16.2035C68.4024 16.1782 68.3657 16.1512 68.3375 16.1268L73.577 10.0812ZM68.5573 8.272C66.8054 8.272 65.0935 8.80499 63.6605 9.99911L68.782 16.1449C68.7605 16.1628 68.7302 16.1847 68.692 16.2062C68.6538 16.2278 68.6157 16.2444 68.5812 16.2562C68.5085 16.2811 68.4894 16.272 68.5573 16.272V8.272ZM63.6095 10.0424C62.1208 11.3257 61.3755 13.029 61.1148 14.7422L69.0237 15.9458C69.045 15.8061 69.0665 15.7904 69.0368 15.8489C69.022 15.8783 68.9972 15.9201 68.9601 15.968C68.9227 16.0161 68.8794 16.0616 68.833 16.1016L63.6095 10.0424ZM65.0693 19.344H71.9173V11.344H65.0693V19.344ZM103.377 10.64L99.8618 12.5484L100.997 14.64H103.377V10.64ZM101.617 8.944L99.7089 12.4594L99.7681 12.4916L99.8284 12.5217L101.617 8.944ZM94.7052 10.096L97.6403 12.8136L97.6527 12.8002L97.665 12.7867L94.7052 10.096ZM94.7692 19.6L91.8627 22.348L91.8883 22.3752L91.9145 22.4019L94.7692 19.6ZM102.801 20.304L100.449 17.0691L100.431 17.082L100.413 17.0951L102.801 20.304ZM104.849 17.36L108.644 18.6249L110.399 13.36H104.849V17.36ZM97.9053 17.36H93.9053V21.36H97.9053V17.36ZM97.9053 13.328V9.328H93.9053V13.328H97.9053ZM109.809 13.328H113.809V9.328H109.809V13.328ZM109.809 18.416L113.644 19.5544L113.809 18.9972V18.416H109.809ZM107.729 22.224L104.661 19.6578L104.647 19.6743L104.633 19.691L107.729 22.224ZM104.049 25.072L102.302 21.474L104.049 25.072ZM93.0412 24.72L91.0659 28.1982L91.0913 28.2126L91.1169 28.2267L93.0412 24.72ZM88.9772 20.656L85.4806 22.5986L85.4897 22.615L85.499 22.6313L88.9772 20.656ZM88.9772 8.816L85.4887 6.859L85.4846 6.8662L85.4806 6.87343L88.9772 8.816ZM93.0412 4.752L94.9838 8.24863L95.0002 8.23951L95.0165 8.23024L93.0412 4.752ZM105.745 5.232L103.431 8.4946L103.44 8.5009L103.449 8.50715L105.745 5.232ZM109.425 10.64V14.64H114.595L113.297 9.63615L109.425 10.64ZM106.893 8.73163C106.092 7.25663 104.899 6.11257 103.406 5.36629L99.8284 12.5217C99.851 12.533 99.8616 12.5403 99.8637 12.5417C99.8656 12.543 99.8628 12.5412 99.8577 12.5363C99.8526 12.5314 99.8493 12.5274 99.8486 12.5264C99.848 12.5256 99.8529 12.5318 99.8618 12.5484L106.893 8.73163ZM103.526 5.42858C102.084 4.64609 100.516 4.336 98.9613 4.336V12.336C99.4548 12.336 99.657 12.4312 99.7089 12.4594L103.526 5.42858ZM98.9613 4.336C96.2096 4.336 93.6632 5.29581 91.7455 7.40531L97.665 12.7867C97.8806 12.5495 98.1715 12.336 98.9613 12.336V4.336ZM91.7702 7.37837C89.8663 9.4346 89.1052 12.0367 89.1052 14.736H97.1052C97.1052 13.5526 97.4109 13.0614 97.6403 12.8136L91.7702 7.37837ZM89.1052 14.736C89.1052 17.5286 89.8697 20.2401 91.8627 22.348L97.6758 16.852C97.4501 16.6132 97.1052 16.0821 97.1052 14.736H89.1052ZM91.9145 22.4019C93.9548 24.4807 96.6206 25.328 99.4092 25.328V17.328C98.2726 17.328 97.845 17.0233 97.624 16.7981L91.9145 22.4019ZM99.4092 25.328C101.458 25.328 103.466 24.7952 105.189 23.5129L100.413 17.0951C100.302 17.1781 100.049 17.328 99.4092 17.328V25.328ZM105.154 23.5389C106.872 22.2896 107.998 20.5631 108.644 18.6249L101.055 16.0951C100.847 16.7169 100.608 16.9531 100.449 17.0691L105.154 23.5389ZM104.849 13.36H97.9053V21.36H104.849V13.36ZM101.905 17.36V13.328H93.9053V17.36H101.905ZM97.9053 17.328H109.809V9.328H97.9053V17.328ZM105.809 13.328V18.416H113.809V13.328H105.809ZM105.975 17.2776C105.736 18.0819 105.318 18.8717 104.661 19.6578L110.798 24.7902C112.103 23.2296 113.072 21.4808 113.644 19.5544L105.975 17.2776ZM104.633 19.691C104.074 20.3747 103.324 20.9775 102.302 21.474L105.797 28.67C107.761 27.7159 109.464 26.42 110.825 24.757L104.633 19.691ZM102.302 21.474C101.42 21.9021 100.345 22.16 98.9932 22.16V30.16C101.396 30.16 103.692 29.6926 105.797 28.67L102.302 21.474ZM98.9932 22.16C97.3706 22.16 96.0614 21.8147 94.9656 21.2133L91.1169 28.2267C93.5198 29.5453 96.1786 30.16 98.9932 30.16V22.16ZM95.0165 21.2418C93.9159 20.6167 93.0806 19.7813 92.4555 18.6807L85.499 22.6313C86.8366 24.9867 88.7106 26.8606 91.0659 28.1982L95.0165 21.2418ZM92.4739 18.7134C91.8828 17.6495 91.5372 16.3596 91.5372 14.736H83.5372C83.5372 17.5498 84.1517 20.2065 85.4806 22.5986L92.4739 18.7134ZM91.5372 14.736C91.5372 13.1124 91.8828 11.8225 92.4739 10.7586L85.4806 6.87343C84.1517 9.26554 83.5372 11.9222 83.5372 14.736H91.5372ZM92.4658 10.773C93.0901 9.6602 93.9138 8.84306 94.9838 8.24863L91.0987 1.25537C88.7126 2.58094 86.8271 4.47313 85.4887 6.859L92.4658 10.773ZM95.0165 8.23024C96.0746 7.62939 97.3527 7.28 98.9613 7.28V-0.720001C96.1325 -0.720001 93.4639 -0.0880556 91.0659 1.27375L95.0165 8.23024ZM98.9613 7.28C100.986 7.28 102.396 7.76056 103.431 8.4946L108.059 1.96939C105.425 0.10077 102.313 -0.720001 98.9613 -0.720001V7.28ZM103.449 8.50715C104.485 9.23373 105.182 10.2101 105.553 11.6438L113.297 9.63615C112.474 6.4619 110.717 3.83294 108.042 1.95684L103.449 8.50715ZM109.425 6.64H103.377V14.64H109.425V6.64ZM118.952 11.12H114.952V24.5757L122.303 13.3051L118.952 11.12ZM121.352 8.816L123.353 12.2795L123.382 12.263L123.41 12.246L121.352 8.816ZM124.552 7.952H128.552V3.952H124.552V7.952ZM124.552 13.744V17.744H128.552V13.744H124.552ZM119.976 14.64L122.556 17.6972L122.583 17.674L122.61 17.6503L119.976 14.64ZM118.952 26V30H122.952V26H118.952ZM113.48 26H109.48V30H113.48V26ZM113.48 8.144V4.144H109.48V8.144H113.48ZM118.952 8.144H122.952V4.144H118.952V8.144ZM122.303 13.3051C122.62 12.8192 122.968 12.502 123.353 12.2795L119.351 5.35254C117.816 6.23929 116.565 7.45809 115.602 8.93493L122.303 13.3051ZM123.41 12.246C123.718 12.0613 124.068 11.952 124.552 11.952V3.952C122.69 3.952 120.906 4.41875 119.294 5.38603L123.41 12.246ZM120.552 7.952V13.744H128.552V7.952H120.552ZM124.552 9.744H123.048V17.744H124.552V9.744ZM123.048 9.744C121.188 9.744 119.045 10.1394 117.342 11.6297L122.61 17.6503C122.443 17.7968 122.326 17.8227 122.376 17.808C122.439 17.7896 122.644 17.744 123.048 17.744V9.744ZM117.397 11.5828C115.367 13.2951 114.952 15.8069 114.952 17.712H122.952C122.952 17.4959 122.965 17.3394 122.979 17.234C122.994 17.1281 123.008 17.0906 123.003 17.1049C122.998 17.1207 122.97 17.199 122.897 17.3122C122.823 17.429 122.711 17.5663 122.556 17.6972L117.397 11.5828ZM114.952 17.712V26H122.952V17.712H114.952ZM118.952 22H113.48V30H118.952V22ZM117.48 26V8.144H109.48V26H117.48ZM113.48 12.144H118.952V4.144H113.48V12.144ZM114.952 8.144V11.12H122.952V8.144H114.952ZM127.744 12.208L124.177 10.3972L124.166 10.4192L124.155 10.4413L127.744 12.208ZM130.592 9.008L132.712 12.4L130.592 9.008ZM137.888 8.656L135.972 12.1676L135.989 12.1766L136.005 12.1854L137.888 8.656ZM140.096 10.672L136.689 12.7684L144.096 24.8042V10.672H140.096ZM140.096 8.144V4.144H136.096V8.144H140.096ZM145.568 8.144H149.568V4.144H145.568V8.144ZM145.568 26V30H149.568V26H145.568ZM140.096 26H136.096V30H140.096V26ZM140.096 23.472H144.096V9.82L136.728 21.3133L140.096 23.472ZM137.856 25.488L135.973 21.9586L135.957 21.9674L135.94 21.9764L137.856 25.488ZM130.592 25.136L128.429 28.5007L128.45 28.5145L128.472 28.528L130.592 25.136ZM127.744 21.904L124.145 23.6491L124.16 23.6821L124.177 23.7148L127.744 21.904ZM138.944 13.84L136.038 16.5888L136.057 16.6092L136.077 16.6294L138.944 13.84ZM133.408 13.84L130.541 11.0506L130.54 11.0517L133.408 13.84ZM133.408 20.304L130.466 23.0139L130.503 23.0542L130.541 23.0934L133.408 20.304ZM138.944 20.304L136.077 17.5146L136.057 17.5348L136.038 17.5552L138.944 20.304ZM130.72 17.04C130.72 15.7043 130.966 14.7181 131.332 13.9747L124.155 10.4413C123.156 12.4712 122.72 14.7064 122.72 17.04H130.72ZM131.31 14.0188C131.72 13.2115 132.197 12.7217 132.712 12.4L128.472 5.61601C126.597 6.78762 125.175 8.43114 124.177 10.3972L131.31 14.0188ZM132.712 12.4C133.241 12.069 133.834 11.888 134.592 11.888V3.888C132.405 3.888 130.331 4.45371 128.472 5.61601L132.712 12.4ZM134.592 11.888C135.3 11.888 135.717 12.0285 135.972 12.1676L139.803 5.14442C138.181 4.25948 136.401 3.888 134.592 3.888V11.888ZM136.005 12.1854C136.412 12.4023 136.59 12.6076 136.689 12.7684L143.502 8.57561C142.577 7.07243 141.283 5.93366 139.77 5.12659L136.005 12.1854ZM144.096 10.672V8.144H136.096V10.672H144.096ZM140.096 12.144H145.568V4.144H140.096V12.144ZM141.568 8.144V26H149.568V8.144H141.568ZM145.568 22H140.096V30H145.568V22ZM144.096 26V23.472H136.096V26H144.096ZM136.728 21.3133C136.601 21.512 136.392 21.7355 135.973 21.9586L139.738 29.0174C141.24 28.2165 142.524 27.096 143.463 25.6307L136.728 21.3133ZM135.94 21.9764C135.685 22.1155 135.268 22.256 134.56 22.256V30.256C136.369 30.256 138.149 29.8845 139.771 28.9996L135.94 21.9764ZM134.56 22.256C133.835 22.256 133.251 22.0811 132.712 21.744L128.472 28.528C130.322 29.6842 132.383 30.256 134.56 30.256V22.256ZM132.755 21.7713C132.214 21.4233 131.724 20.9084 131.31 20.0932L124.177 23.7148C125.171 25.6729 126.581 27.3127 128.429 28.5007L132.755 21.7713ZM131.343 20.1589C130.966 19.381 130.72 18.3739 130.72 17.04H122.72C122.72 19.3755 123.156 21.611 124.145 23.6491L131.343 20.1589ZM144.096 17.072C144.096 14.9282 143.47 12.7563 141.811 11.0506L136.077 16.6294C136.066 16.6184 136.054 16.6029 136.044 16.5867C136.034 16.571 136.034 16.567 136.04 16.583C136.052 16.6162 136.096 16.7607 136.096 17.072H144.096ZM141.85 11.0912C140.346 9.50196 138.377 8.656 136.192 8.656V16.656C136.221 16.656 136.223 16.6586 136.203 16.6547C136.183 16.6507 136.151 16.6421 136.115 16.6264C136.078 16.6106 136.05 16.5936 136.033 16.5812C136.016 16.5692 136.018 16.5683 136.038 16.5888L141.85 11.0912ZM136.192 8.656C134.009 8.656 132.052 9.49796 130.541 11.0506L136.275 16.6294C136.302 16.6018 136.312 16.596 136.303 16.6018C136.294 16.6082 136.274 16.6206 136.245 16.6329C136.216 16.6453 136.191 16.6523 136.174 16.6555C136.159 16.6585 136.163 16.656 136.192 16.656V8.656ZM130.54 11.0517C128.883 12.7562 128.288 14.9321 128.288 17.04H136.288C136.288 16.7166 136.332 16.5681 136.343 16.5374C136.348 16.5234 136.346 16.5327 136.332 16.5562C136.317 16.5803 136.297 16.606 136.276 16.6283L130.54 11.0517ZM128.288 17.04C128.288 19.1585 128.886 21.2989 130.466 23.0139L136.35 17.5941C136.368 17.6138 136.366 17.6254 136.351 17.5818C136.332 17.5254 136.288 17.3613 136.288 17.04H128.288ZM130.541 23.0934C132.052 24.646 134.009 25.488 136.192 25.488V17.488C136.163 17.488 136.159 17.4855 136.174 17.4885C136.191 17.4917 136.216 17.4987 136.245 17.5111C136.274 17.5234 136.294 17.5358 136.303 17.5422C136.312 17.548 136.302 17.5422 136.275 17.5146L130.541 23.0934ZM136.192 25.488C138.377 25.488 140.346 24.642 141.85 23.0528L136.038 17.5552C136.018 17.5757 136.016 17.5748 136.033 17.5628C136.05 17.5504 136.078 17.5334 136.115 17.5176C136.151 17.5019 136.183 17.4933 136.203 17.4893C136.223 17.4854 136.221 17.488 136.192 17.488V25.488ZM141.811 23.0934C143.47 21.3877 144.096 19.2158 144.096 17.072H136.096C136.096 17.3833 136.052 17.5278 136.04 17.561C136.034 17.577 136.034 17.573 136.044 17.5573C136.054 17.5411 136.066 17.5256 136.077 17.5146L141.811 23.0934ZM166.038 10L163.075 12.6861L163.097 12.7103L163.119 12.7342L166.038 10ZM167.926 26V30H171.926V26H167.926ZM162.486 26H158.486V30H162.486V26ZM161.559 13.52L158.637 16.2526V16.2526L161.559 13.52ZM156.566 13.52L159.488 16.2526V16.2526L156.566 13.52ZM155.638 26V30H159.638V26H155.638ZM150.166 26H146.166V30H150.166V26ZM150.166 8.144V4.144H146.166V8.144H150.166ZM155.638 8.144H159.638V4.144H155.638V8.144ZM155.638 10.512H151.638V23.1615L158.911 12.8118L155.638 10.512ZM157.878 8.656L159.601 12.2659L159.635 12.2501L159.667 12.2337L157.878 8.656ZM161.046 11.952C162.176 11.952 162.702 12.2744 163.075 12.6861L169.002 7.31392C166.901 4.99489 164.098 3.952 161.046 3.952V11.952ZM163.119 12.7342C163.502 13.1432 163.926 13.9146 163.926 15.568H171.926C171.926 12.4854 171.092 9.54475 168.958 7.26578L163.119 12.7342ZM163.926 15.568V26H171.926V15.568H163.926ZM167.926 22H162.486V30H167.926V22ZM166.486 26V16.304H158.486V26H166.486ZM166.486 16.304C166.486 14.4271 165.989 12.4013 164.48 10.7874L158.637 16.2526C158.585 16.1965 158.542 16.1378 158.51 16.0829C158.479 16.0289 158.464 15.9903 158.46 15.9769C158.452 15.9543 158.486 16.0449 158.486 16.304H166.486ZM164.48 10.7874C162.986 9.19038 161.028 8.528 159.062 8.528V16.528C159.163 16.528 159.119 16.5432 158.993 16.4932C158.932 16.4687 158.864 16.4338 158.797 16.3878C158.729 16.3419 158.676 16.2941 158.637 16.2526L164.48 10.7874ZM159.062 8.528C157.097 8.528 155.139 9.19038 153.645 10.7874L159.488 16.2526C159.449 16.2941 159.396 16.3419 159.328 16.3878C159.261 16.4338 159.193 16.4687 159.132 16.4932C159.006 16.5432 158.962 16.528 159.062 16.528V8.528ZM153.645 10.7874C152.136 12.4013 151.638 14.4271 151.638 16.304H159.638C159.638 16.0449 159.673 15.9543 159.665 15.9769C159.661 15.9903 159.646 16.0289 159.615 16.0829C159.583 16.1378 159.54 16.1965 159.488 16.2526L153.645 10.7874ZM151.638 16.304V26H159.638V16.304H151.638ZM155.638 22H150.166V30H155.638V22ZM154.166 26V8.144H146.166V26H154.166ZM150.166 12.144H155.638V4.144H150.166V12.144ZM151.638 8.144V10.512H159.638V8.144H151.638ZM158.911 12.8118C159.04 12.6288 159.233 12.4416 159.601 12.2659L156.156 5.04607C154.646 5.76644 153.346 6.81656 152.366 8.21222L158.911 12.8118ZM159.667 12.2337C159.988 12.0734 160.42 11.952 161.046 11.952V3.952C159.326 3.952 157.646 4.29991 156.09 5.07829L159.667 12.2337ZM182.321 21.36H186.321V17.36H182.321V21.36ZM182.321 26V30H186.321V26H182.321ZM174.897 24.56L172.247 27.556L172.263 27.5704L172.279 27.5847L174.897 24.56ZM173.233 12.688H177.233V8.688H173.233V12.688ZM171.057 12.688H167.057V16.688H171.057V12.688ZM171.057 8.144V4.144H167.057V8.144H171.057ZM173.233 8.144V12.144H177.233V8.144H173.233ZM173.233 3.792V-0.208H169.233V3.792H173.233ZM178.705 3.792H182.705V-0.208H178.705V3.792ZM178.705 8.144H174.705V12.144H178.705V8.144ZM182.289 8.144H186.289V4.144H182.289V8.144ZM182.289 12.688V16.688H186.289V12.688H182.289ZM178.705 12.688V8.688H174.705V12.688H178.705ZM179.089 21.008L176.386 23.9566L179.089 21.008ZM178.321 21.36V26H186.321V21.36H178.321ZM182.321 22H179.537V30H182.321V22ZM179.537 22C178.173 22 177.675 21.6742 177.514 21.5353L172.279 27.5847C174.338 29.3658 176.933 30 179.537 30V22ZM177.547 21.564C177.642 21.6477 177.233 21.4043 177.233 19.792H169.233C169.233 22.5744 169.933 25.5096 172.247 27.556L177.547 21.564ZM177.233 19.792V12.688H169.233V19.792H177.233ZM173.233 8.688H171.057V16.688H173.233V8.688ZM175.057 12.688V8.144H167.057V12.688H175.057ZM171.057 12.144H173.233V4.144H171.057V12.144ZM177.233 8.144V3.792H169.233V8.144H177.233ZM173.233 7.792H178.705V-0.208H173.233V7.792ZM174.705 3.792V8.144H182.705V3.792H174.705ZM178.705 12.144H182.289V4.144H178.705V12.144ZM178.289 8.144V12.688H186.289V8.144H178.289ZM182.289 8.688H178.705V16.688H182.289V8.688ZM174.705 12.688V19.856H182.705V12.688H174.705ZM174.705 19.856C174.705 20.9145 174.948 22.6384 176.386 23.9566L181.792 18.0594C182.242 18.4723 182.481 18.9337 182.596 19.2791C182.703 19.6011 182.705 19.8211 182.705 19.856H174.705ZM176.386 23.9566C177.755 25.2113 179.434 25.36 180.369 25.36V17.36C180.312 17.36 180.433 17.3523 180.662 17.4152C180.897 17.4799 181.342 17.6467 181.792 18.0594L176.386 23.9566ZM180.369 25.36H182.321V17.36H180.369V25.36ZM189.401 25.136L187.505 28.6579L187.516 28.6639L187.527 28.6698L189.401 25.136ZM186.105 21.936L182.629 23.9148L182.64 23.9349L182.652 23.9548L186.105 21.936ZM186.137 12.24L189.59 14.2588L189.597 14.2473L189.603 14.2359L186.137 12.24ZM189.465 9.008L191.339 12.5418L189.465 9.008ZM198.937 9.008L197.063 12.5418L198.937 9.008ZM202.265 12.24L198.799 14.2359L198.805 14.2473L198.812 14.2588L202.265 12.24ZM202.233 21.936L198.789 19.9011L198.785 19.9091L198.78 19.9172L202.233 21.936ZM198.873 25.136L197.021 21.5906L197.01 21.5963L196.999 21.6022L198.873 25.136ZM196.793 20.368L193.925 17.5797L193.905 17.6005L193.885 17.6215L196.793 20.368ZM196.825 13.776L193.876 16.4789L193.896 16.5008L193.917 16.5225L196.825 13.776ZM191.545 13.776L194.455 16.5201L194.475 16.4996L194.494 16.4789L191.545 13.776ZM191.513 20.368L188.523 23.0255L188.544 23.0483L188.564 23.0709L191.513 20.368ZM194.137 22.256C192.976 22.256 192.051 22.0136 191.275 21.6022L187.527 28.6698C189.567 29.7517 191.799 30.256 194.137 30.256V22.256ZM191.297 21.6141C190.571 21.2232 190.006 20.6826 189.558 19.9172L182.652 23.9548C183.826 25.9627 185.457 27.5555 187.505 28.6579L191.297 21.6141ZM189.581 19.9572C189.188 19.2657 188.921 18.3484 188.921 17.072H180.921C180.921 19.5076 181.444 21.833 182.629 23.9148L189.581 19.9572ZM188.921 17.072C188.921 15.8442 189.186 14.95 189.59 14.2588L182.684 10.2212C181.467 12.3033 180.921 14.6305 180.921 17.072H188.921ZM189.603 14.2359C190.046 13.4667 190.609 12.9287 191.339 12.5418L187.591 5.47415C185.505 6.58062 183.849 8.19725 182.671 10.2441L189.603 14.2359ZM191.339 12.5418C192.115 12.1304 193.04 11.888 194.201 11.888V3.888C191.863 3.888 189.631 4.39227 187.591 5.47415L191.339 12.5418ZM194.201 11.888C195.362 11.888 196.287 12.1304 197.063 12.5418L200.811 5.47415C198.771 4.39227 196.539 3.888 194.201 3.888V11.888ZM197.063 12.5418C197.793 12.9287 198.356 13.4667 198.799 14.2359L205.731 10.2441C204.553 8.19725 202.897 6.58062 200.811 5.47415L197.063 12.5418ZM198.812 14.2588C199.216 14.95 199.481 15.8442 199.481 17.072H207.481C207.481 14.6305 206.935 12.3033 205.718 10.2212L198.812 14.2588ZM199.481 17.072C199.481 18.2801 199.214 19.1819 198.789 19.9011L205.677 23.9709C206.916 21.8741 207.481 19.5333 207.481 17.072H199.481ZM198.78 19.9172C198.35 20.6519 197.786 21.1907 197.021 21.5906L200.725 28.6814C202.818 27.588 204.494 25.9934 205.686 23.9548L198.78 19.9172ZM196.999 21.6022C196.223 22.0136 195.298 22.256 194.137 22.256V30.256C196.475 30.256 198.707 29.7517 200.747 28.6698L196.999 21.6022ZM194.137 25.52C196.296 25.52 198.229 24.673 199.701 23.1145L193.885 17.6215C193.869 17.6386 193.87 17.634 193.892 17.6185C193.914 17.6025 193.949 17.5816 193.993 17.5623C194.038 17.543 194.079 17.5312 194.111 17.5248C194.142 17.5187 194.152 17.52 194.137 17.52V25.52ZM199.661 23.1563C201.35 21.4192 201.913 19.1846 201.913 17.072H193.913C193.913 17.4465 193.863 17.6294 193.846 17.681C193.834 17.7155 193.851 17.6563 193.925 17.5797L199.661 23.1563ZM201.913 17.072C201.913 14.9887 201.377 12.7699 199.733 11.0295L193.917 16.5225C193.84 16.4409 193.827 16.3836 193.843 16.4298C193.863 16.4924 193.913 16.6871 193.913 17.072H201.913ZM199.774 11.0731C198.309 9.47543 196.363 8.624 194.201 8.624V16.624C194.217 16.624 194.204 16.6253 194.169 16.6183C194.133 16.6111 194.085 16.5975 194.033 16.5746C193.981 16.5517 193.938 16.5257 193.907 16.5032C193.877 16.4811 193.868 16.4693 193.876 16.4789L199.774 11.0731ZM194.201 8.624C192.043 8.624 190.078 9.45647 188.596 11.0731L194.494 16.4789C194.499 16.4732 194.487 16.4874 194.455 16.5107C194.422 16.5345 194.379 16.56 194.329 16.5817C194.279 16.6033 194.236 16.6151 194.207 16.6208C194.179 16.6263 194.175 16.624 194.201 16.624V8.624ZM188.635 11.0319C186.986 12.7801 186.489 15.0241 186.489 17.072H194.489C194.489 16.6592 194.54 16.4489 194.562 16.3804C194.579 16.3286 194.561 16.4078 194.455 16.5201L188.635 11.0319ZM186.489 17.072C186.489 19.098 186.974 21.2822 188.523 23.0255L194.503 17.7105C194.583 17.8004 194.587 17.8521 194.565 17.7812C194.538 17.6961 194.489 17.4775 194.489 17.072H186.489ZM188.564 23.0709C190.029 24.6686 191.975 25.52 194.137 25.52V17.52C194.121 17.52 194.134 17.5187 194.169 17.5257C194.205 17.5329 194.253 17.5465 194.305 17.5694C194.357 17.5923 194.4 17.6183 194.431 17.6408C194.461 17.6629 194.47 17.6747 194.462 17.6651L188.564 23.0709ZM212.496 11.12H208.496V24.5757L215.846 13.3051L212.496 11.12ZM214.896 8.816L216.897 12.2795L216.926 12.263L216.954 12.246L214.896 8.816ZM218.096 7.952H222.096V3.952H218.096V7.952ZM218.096 13.744V17.744H222.096V13.744H218.096ZM213.52 14.64L216.099 17.6972L216.127 17.674L216.154 17.6503L213.52 14.64ZM212.496 26V30H216.496V26H212.496ZM207.024 26H203.024V30H207.024V26ZM207.024 8.144V4.144H203.024V8.144H207.024ZM212.496 8.144H216.496V4.144H212.496V8.144ZM215.846 13.3051C216.163 12.8192 216.512 12.502 216.897 12.2795L212.895 5.35254C211.36 6.23929 210.109 7.45809 209.146 8.93493L215.846 13.3051ZM216.954 12.246C217.262 12.0613 217.611 11.952 218.096 11.952V3.952C216.234 3.952 214.45 4.41875 212.838 5.38603L216.954 12.246ZM214.096 7.952V13.744H222.096V7.952H214.096ZM218.096 9.744H216.592V17.744H218.096V9.744ZM216.592 9.744C214.732 9.744 212.589 10.1394 210.886 11.6297L216.154 17.6503C215.987 17.7968 215.87 17.8227 215.92 17.808C215.983 17.7896 216.188 17.744 216.592 17.744V9.744ZM210.941 11.5828C208.911 13.2951 208.496 15.8069 208.496 17.712H216.496C216.496 17.4959 216.509 17.3394 216.523 17.234C216.538 17.1281 216.551 17.0906 216.547 17.1049C216.541 17.1207 216.514 17.199 216.441 17.3122C216.366 17.429 216.255 17.5663 216.099 17.6972L210.941 11.5828ZM208.496 17.712V26H216.496V17.712H208.496ZM212.496 22H207.024V30H212.496V22ZM211.024 26V8.144H203.024V26H211.024ZM207.024 12.144H212.496V4.144H207.024V12.144ZM208.496 8.144V11.12H216.496V8.144H208.496ZM232.165 25.136L230.268 28.6579L230.28 28.6639L230.291 28.6698L232.165 25.136ZM228.869 21.936L225.393 23.9148L225.404 23.9349L225.416 23.9548L228.869 21.936ZM228.901 12.24L232.354 14.2588L232.361 14.2473L232.367 14.2359L228.901 12.24ZM232.229 9.008L234.103 12.5418L232.229 9.008ZM241.701 9.008L239.827 12.5418L241.701 9.008ZM245.029 12.24L241.562 14.2359L241.569 14.2473L241.576 14.2588L245.029 12.24ZM244.997 21.936L241.553 19.9011L241.548 19.9091L241.544 19.9172L244.997 21.936ZM241.637 25.136L239.785 21.5906L239.774 21.5963L239.763 21.6022L241.637 25.136ZM239.557 20.368L236.689 17.5797L236.669 17.6005L236.649 17.6215L239.557 20.368ZM239.589 13.776L236.64 16.4789L236.66 16.5008L236.681 16.5225L239.589 13.776ZM234.309 13.776L237.219 16.5201L237.238 16.4996L237.257 16.4789L234.309 13.776ZM234.277 20.368L231.287 23.0255L231.307 23.0483L231.328 23.0709L234.277 20.368ZM236.901 22.256C235.74 22.256 234.815 22.0136 234.039 21.6022L230.291 28.6698C232.331 29.7517 234.563 30.256 236.901 30.256V22.256ZM234.061 21.6141C233.335 21.2232 232.769 20.6826 232.322 19.9172L225.416 23.9548C226.589 25.9627 228.221 27.5555 230.268 28.6579L234.061 21.6141ZM232.345 19.9572C231.951 19.2657 231.685 18.3484 231.685 17.072H223.685C223.685 19.5076 224.207 21.833 225.393 23.9148L232.345 19.9572ZM231.685 17.072C231.685 15.8442 231.95 14.95 232.354 14.2588L225.448 10.2212C224.23 12.3033 223.685 14.6305 223.685 17.072H231.685ZM232.367 14.2359C232.81 13.4667 233.373 12.9287 234.103 12.5418L230.355 5.47415C228.268 6.58062 226.613 8.19725 225.434 10.2441L232.367 14.2359ZM234.103 12.5418C234.879 12.1304 235.804 11.888 236.965 11.888V3.888C234.627 3.888 232.395 4.39227 230.355 5.47415L234.103 12.5418ZM236.965 11.888C238.126 11.888 239.051 12.1304 239.827 12.5418L243.575 5.47415C241.535 4.39227 239.302 3.888 236.965 3.888V11.888ZM239.827 12.5418C240.556 12.9287 241.119 13.4667 241.562 14.2359L248.495 10.2441C247.317 8.19725 245.661 6.58062 243.575 5.47415L239.827 12.5418ZM241.576 14.2588C241.98 14.95 242.245 15.8442 242.245 17.072H250.245C250.245 14.6305 249.699 12.3033 248.482 10.2212L241.576 14.2588ZM242.245 17.072C242.245 18.2801 241.978 19.1819 241.553 19.9011L248.44 23.9709C249.68 21.8741 250.245 19.5333 250.245 17.072H242.245ZM241.544 19.9172C241.114 20.6519 240.55 21.1907 239.785 21.5906L243.489 28.6814C245.582 27.588 247.258 25.9934 248.45 23.9548L241.544 19.9172ZM239.763 21.6022C238.987 22.0136 238.062 22.256 236.901 22.256V30.256C239.238 30.256 241.471 29.7517 243.511 28.6698L239.763 21.6022ZM236.901 25.52C239.06 25.52 240.993 24.673 242.465 23.1145L236.649 17.6215C236.633 17.6386 236.634 17.634 236.656 17.6185C236.678 17.6025 236.713 17.5816 236.757 17.5623C236.802 17.543 236.843 17.5312 236.874 17.5248C236.905 17.5187 236.916 17.52 236.901 17.52V25.52ZM242.425 23.1563C244.114 21.4192 244.677 19.1846 244.677 17.072H236.677C236.677 17.4465 236.627 17.6294 236.609 17.681C236.598 17.7155 236.614 17.6563 236.689 17.5797L242.425 23.1563ZM244.677 17.072C244.677 14.9887 244.14 12.7699 242.497 11.0295L236.681 16.5225C236.604 16.4409 236.591 16.3836 236.606 16.4298C236.627 16.4924 236.677 16.6871 236.677 17.072H244.677ZM242.537 11.0731C241.073 9.47543 239.127 8.624 236.965 8.624V16.624C236.98 16.624 236.967 16.6253 236.932 16.6183C236.896 16.6111 236.849 16.5975 236.797 16.5746C236.745 16.5517 236.702 16.5257 236.671 16.5032C236.641 16.4811 236.631 16.4693 236.64 16.4789L242.537 11.0731ZM236.965 8.624C234.807 8.624 232.842 9.45647 231.36 11.0731L237.257 16.4789C237.263 16.4732 237.25 16.4874 237.218 16.5107C237.185 16.5345 237.142 16.56 237.092 16.5817C237.043 16.6033 237 16.6151 236.971 16.6208C236.943 16.6263 236.939 16.624 236.965 16.624V8.624ZM231.398 11.0319C229.75 12.7801 229.253 15.0241 229.253 17.072H237.253C237.253 16.6592 237.304 16.4489 237.326 16.3804C237.343 16.3286 237.325 16.4078 237.219 16.5201L231.398 11.0319ZM229.253 17.072C229.253 19.098 229.738 21.2822 231.287 23.0255L237.266 17.7105C237.346 17.8004 237.351 17.8521 237.329 17.7812C237.302 17.6961 237.253 17.4775 237.253 17.072H229.253ZM231.328 23.0709C232.793 24.6686 234.738 25.52 236.901 25.52V17.52C236.885 17.52 236.898 17.5187 236.933 17.5257C236.969 17.5329 237.017 17.5465 237.069 17.5694C237.121 17.5923 237.164 17.6183 237.195 17.6408C237.225 17.6629 237.234 17.6747 237.225 17.6651L231.328 23.0709ZM258.748 12.688V16.688H262.748V12.688H258.748ZM255.804 12.688V8.688H251.804V12.688H255.804ZM255.804 26V30H259.804V26H255.804ZM250.332 26H246.332V30H250.332V26ZM250.332 12.688H254.332V8.688H250.332V12.688ZM248.348 12.688H244.348V16.688H248.348V12.688ZM248.348 8.144V4.144H244.348V8.144H248.348ZM250.332 8.144V12.144H254.332V8.144H250.332ZM252.22 2.64L254.893 5.61568L254.907 5.60325L254.92 5.59069L252.22 2.64ZM258.652 0.943998H262.652V-2.63618L259.093 -3.03154L258.652 0.943998ZM258.652 5.584L258.407 9.57652L262.652 9.83639V5.584H258.652ZM256.444 6.032L259.034 9.07976L259.034 9.07976L256.444 6.032ZM255.804 8.144H251.804V12.144H255.804V8.144ZM258.748 8.144H262.748V4.144H258.748V8.144ZM258.748 8.688H255.804V16.688H258.748V8.688ZM251.804 12.688V26H259.804V12.688H251.804ZM255.804 22H250.332V30H255.804V22ZM254.332 26V12.688H246.332V26H254.332ZM250.332 8.688H248.348V16.688H250.332V8.688ZM252.348 12.688V8.144H244.348V12.688H252.348ZM248.348 12.144H250.332V4.144H248.348V12.144ZM254.332 8.144V7.632H246.332V8.144H254.332ZM254.332 7.632C254.332 6.21017 254.714 5.7766 254.893 5.61568L249.547 -0.335685C247.208 1.76473 246.332 4.65916 246.332 7.632H254.332ZM254.92 5.59069C255.18 5.35327 255.9 4.912 257.756 4.912V-3.088C254.747 -3.088 251.777 -2.37727 249.519 -0.310692L254.92 5.59069ZM257.756 4.912C257.926 4.912 258.053 4.91429 258.141 4.91745C258.238 4.92091 258.251 4.92414 258.21 4.91953L259.093 -3.03154C258.669 -3.07869 258.185 -3.088 257.756 -3.088V4.912ZM254.652 0.943998V5.584H262.652V0.943998H254.652ZM258.896 1.59148C257.62 1.51333 255.518 1.5691 253.853 2.98424L259.034 9.07976C258.587 9.4603 258.188 9.55244 258.111 9.56812C258.032 9.58409 258.107 9.55815 258.407 9.57652L258.896 1.59148ZM253.853 2.98424C252.078 4.49298 251.804 6.63973 251.804 7.984H259.804C259.804 7.79252 259.829 7.84311 259.765 8.0382C259.693 8.25729 259.496 8.68732 259.034 9.07976L253.853 2.98424ZM251.804 7.984V8.144H259.804V7.984H251.804ZM255.804 12.144H258.748V4.144H255.804V12.144ZM254.748 8.144V12.688H262.748V8.144H254.748ZM285.604 14.352L289.094 16.3064L289.102 16.2918L289.111 16.277L285.604 14.352ZM282.852 16.944L280.967 13.4163L282.852 16.944ZM274.852 17.936V13.936H270.852V17.936H274.852ZM274.852 26V30H278.852V26H274.852ZM269.38 26H265.38V30H269.38V26ZM269.38 3.536V-0.464001H265.38V3.536H269.38ZM282.788 4.464L284.577 0.88629L282.788 4.464ZM274.852 7.952V3.952H270.852V7.952H274.852ZM274.852 13.584H270.852V17.584H274.852V13.584ZM282.5 10.768C282.5 11.4301 282.355 11.9578 282.098 12.427L289.111 16.277C290.048 14.5702 290.5 12.7085 290.5 10.768H282.5ZM282.114 12.3976C281.943 12.7031 281.632 13.0608 280.967 13.4163L284.738 20.4717C286.547 19.5045 288.071 18.1342 289.094 16.3064L282.114 12.3976ZM280.967 13.4163C280.461 13.6868 279.617 13.936 278.244 13.936V21.936C280.541 21.936 282.769 21.5239 284.738 20.4717L280.967 13.4163ZM278.244 13.936H274.852V21.936H278.244V13.936ZM270.852 17.936V26H278.852V17.936H270.852ZM274.852 22H269.38V30H274.852V22ZM273.38 26V3.536H265.38V26H273.38ZM269.38 7.536H278.244V-0.464001H269.38V7.536ZM278.244 7.536C279.592 7.536 280.457 7.77038 280.999 8.04171L284.577 0.88629C282.645 -0.0797138 280.48 -0.464001 278.244 -0.464001V7.536ZM280.999 8.04171C281.605 8.34476 281.909 8.674 282.095 9.00121L289.049 5.04679C287.998 3.198 286.446 1.82057 284.577 0.88629L280.999 8.04171ZM282.095 9.00121C282.33 9.41421 282.5 9.96494 282.5 10.768H290.5C290.5 8.75506 290.052 6.80979 289.049 5.04679L282.095 9.00121ZM277.828 17.584C279.422 17.584 281.387 17.2163 282.932 15.736L277.397 9.96005C277.647 9.72013 277.886 9.61892 277.994 9.58488C278.085 9.55623 278.051 9.584 277.828 9.584V17.584ZM282.932 15.736C284.427 14.3034 284.932 12.45 284.932 10.768H276.932C276.932 10.8405 276.921 10.7544 276.988 10.5745C277.061 10.3769 277.196 10.1522 277.397 9.96005L282.932 15.736ZM284.932 10.768C284.932 9.08603 284.427 7.23263 282.932 5.80005L277.397 11.576C277.196 11.3838 277.061 11.1591 276.988 10.9615C276.921 10.7816 276.932 10.6955 276.932 10.768H284.932ZM282.932 5.80005C281.387 4.31966 279.422 3.952 277.828 3.952V11.952C278.051 11.952 278.085 11.9798 277.994 11.9511C277.886 11.9171 277.647 11.8159 277.397 11.576L282.932 5.80005ZM277.828 3.952H274.852V11.952H277.828V3.952ZM270.852 7.952V13.584H278.852V7.952H270.852ZM274.852 17.584H277.828V9.584H274.852V17.584ZM295.461 2.32H299.461V-1.68H295.461V2.32ZM295.461 26V30H299.461V26H295.461ZM289.989 26H285.989V30H289.989V26ZM289.989 2.32V-1.68H285.989V2.32H289.989ZM291.461 2.32V26H299.461V2.32H291.461ZM295.461 22H289.989V30H295.461V22ZM293.989 26V2.32H285.989V26H293.989ZM289.989 6.32H295.461V-1.68H289.989V6.32ZM316.802 18.384V22.384H320.367L320.776 18.8425L316.802 18.384ZM304.418 18.384V14.384H300.099L300.43 18.6908L304.418 18.384ZM305.474 20.944L302.696 23.8216L302.747 23.8703L302.799 23.9172L305.474 20.944ZM310.658 20.08V16.08H308.102L307.029 18.3995L310.658 20.08ZM316.482 20.08L320.359 21.0667L321.628 16.08H316.482V20.08ZM314.85 23.248L311.789 20.6736L311.772 20.6942L311.755 20.715L314.85 23.248ZM311.938 25.456L313.594 29.0975L311.938 25.456ZM303.33 25.136L301.411 28.6455L303.33 25.136ZM300.13 21.936L303.63 19.998L300.13 21.936ZM300.098 12.208L296.599 10.27L296.588 10.2907L296.577 10.3116L300.098 12.208ZM303.298 9.008L305.218 12.5175V12.5175L303.298 9.008ZM312.611 8.976L310.711 12.4961L312.611 8.976ZM315.746 12.08L312.25 14.0226L312.262 14.0436L312.274 14.0646L315.746 12.08ZM311.298 15.344V19.344H315.298V15.344H311.298ZM310.339 13.104L312.958 10.0812V10.0812L310.339 13.104ZM305.602 13.072L303.042 9.99911L303.016 10.0205L302.991 10.0424L305.602 13.072ZM304.451 15.344L300.496 14.7422L299.796 19.344H304.451V15.344ZM312.898 16.784C312.898 17.1298 312.877 17.5095 312.829 17.9255L320.776 18.8425C320.856 18.1491 320.898 17.4622 320.898 16.784H312.898ZM316.802 14.384H304.418V22.384H316.802V14.384ZM300.43 18.6908C300.568 20.4821 301.186 22.364 302.696 23.8216L308.253 18.0664C308.306 18.1177 308.35 18.1719 308.385 18.2236C308.419 18.2746 308.437 18.3132 308.444 18.3307C308.457 18.3627 308.424 18.2961 308.407 18.0772L300.43 18.6908ZM302.799 23.9172C304.224 25.1999 305.975 25.808 307.81 25.808V17.808C307.776 17.808 307.827 17.8037 307.926 17.8404C308.029 17.8785 308.108 17.933 308.15 17.9708L302.799 23.9172ZM307.81 25.808C309.057 25.808 310.392 25.5417 311.621 24.7958C312.87 24.0384 313.737 22.9514 314.288 21.7605L307.029 18.3995C307.032 18.3914 307.065 18.3246 307.145 18.2313C307.228 18.1348 307.338 18.037 307.472 17.9562C307.752 17.7863 307.929 17.808 307.81 17.808V25.808ZM310.658 24.08H316.482V16.08H310.658V24.08ZM312.606 19.0933C312.458 19.675 312.196 20.1898 311.789 20.6736L317.912 25.8224C319.084 24.4288 319.91 22.8317 320.359 21.0667L312.606 19.0933ZM311.755 20.715C311.4 21.1489 310.934 21.5189 310.283 21.8145L313.594 29.0975C315.29 28.3264 316.765 27.2244 317.946 25.781L311.755 20.715ZM310.283 21.8145C309.691 22.0835 308.954 22.256 308.003 22.256V30.256C309.952 30.256 311.839 29.8951 313.594 29.0975L310.283 21.8145ZM308.003 22.256C306.839 22.256 305.957 22.0131 305.25 21.6265L301.411 28.6455C303.435 29.7523 305.667 30.256 308.003 30.256V22.256ZM305.25 21.6265C304.562 21.2505 304.038 20.7348 303.63 19.998L296.631 23.874C297.759 25.9105 299.368 27.5281 301.411 28.6455L305.25 21.6265ZM303.63 19.998C303.242 19.2986 302.978 18.3664 302.978 17.072H294.978C294.978 19.4896 295.483 21.8001 296.631 23.874L303.63 19.998ZM302.978 17.072C302.978 15.7597 303.239 14.8123 303.62 14.1044L296.577 10.3116C295.464 12.377 294.978 14.6723 294.978 17.072H302.978ZM303.598 14.146C304.006 13.4092 304.53 12.8935 305.218 12.5175L301.379 5.49852C299.336 6.61587 297.727 8.23348 296.599 10.27L303.598 14.146ZM305.218 12.5175C305.918 12.1348 306.809 11.888 308.003 11.888V3.888C305.655 3.888 303.41 4.38789 301.379 5.49852L305.218 12.5175ZM308.003 11.888C309.156 11.888 310.023 12.1252 310.711 12.4961L314.51 5.45591C312.509 4.37614 310.305 3.888 308.003 3.888V11.888ZM310.711 12.4961C311.378 12.8562 311.871 13.3413 312.25 14.0226L319.243 10.1374C318.128 8.1307 316.531 6.54646 314.51 5.45591L310.711 12.4961ZM312.274 14.0646C312.645 14.7146 312.898 15.5771 312.898 16.784H320.898C320.898 14.4069 320.384 12.1334 319.219 10.0954L312.274 14.0646ZM315.298 15.344C315.298 13.3863 314.576 11.4834 312.958 10.0812L307.719 16.1268C307.602 16.0252 307.47 15.8622 307.382 15.6557C307.298 15.4597 307.298 15.3329 307.298 15.344H315.298ZM312.958 10.0812C311.494 8.812 309.724 8.272 307.938 8.272V16.272C308.031 16.272 308.022 16.2849 307.948 16.2593C307.913 16.2471 307.871 16.2287 307.827 16.2035C307.784 16.1782 307.747 16.1512 307.719 16.1268L312.958 10.0812ZM307.938 8.272C306.187 8.272 304.475 8.80499 303.042 9.99911L308.163 16.1449C308.142 16.1628 308.111 16.1847 308.073 16.2062C308.035 16.2278 307.997 16.2444 307.962 16.2562C307.89 16.2811 307.871 16.272 307.938 16.272V8.272ZM302.991 10.0424C301.502 11.3257 300.757 13.029 300.496 14.7422L308.405 15.9458C308.426 15.8061 308.448 15.7904 308.418 15.8489C308.403 15.8783 308.378 15.9201 308.341 15.968C308.304 16.0161 308.261 16.0616 308.214 16.1016L302.991 10.0424ZM304.451 19.344H311.298V11.344H304.451V19.344ZM320.361 12.208L316.795 10.3972L316.783 10.4192L316.773 10.4413L320.361 12.208ZM323.209 9.008L325.329 12.4L323.209 9.008ZM330.505 8.656L328.59 12.1676L328.606 12.1766L328.623 12.1854L330.505 8.656ZM332.713 10.672L329.307 12.7684L336.713 24.8042V10.672H332.713ZM332.713 8.144V4.144H328.713V8.144H332.713ZM338.185 8.144H342.185V4.144H338.185V8.144ZM338.185 26V30H342.185V26H338.185ZM332.713 26H328.713V30H332.713V26ZM332.713 23.472H336.713V9.82L329.346 21.3133L332.713 23.472ZM330.473 25.488L328.591 21.9586L328.574 21.9674L328.558 21.9764L330.473 25.488ZM323.209 25.136L321.046 28.5007L321.068 28.5145L321.089 28.528L323.209 25.136ZM320.361 21.904L316.762 23.6491L316.778 23.6821L316.795 23.7148L320.361 21.904ZM331.561 13.84L328.655 16.5888L328.675 16.6092L328.694 16.6294L331.561 13.84ZM326.025 13.84L323.158 11.0506L323.157 11.0517L326.025 13.84ZM326.025 20.304L323.083 23.0139L323.12 23.0542L323.158 23.0934L326.025 20.304ZM331.561 20.304L328.694 17.5146L328.675 17.5348L328.655 17.5552L331.561 20.304ZM323.337 17.04C323.337 15.7043 323.584 14.7181 323.95 13.9747L316.773 10.4413C315.773 12.4712 315.337 14.7064 315.337 17.04H323.337ZM323.928 14.0188C324.338 13.2115 324.815 12.7217 325.329 12.4L321.089 5.61601C319.215 6.78762 317.793 8.43114 316.795 10.3972L323.928 14.0188ZM325.329 12.4C325.859 12.069 326.452 11.888 327.209 11.888V3.888C325.023 3.888 322.949 4.45371 321.089 5.61601L325.329 12.4ZM327.209 11.888C327.917 11.888 328.335 12.0285 328.59 12.1676L332.421 5.14442C330.798 4.25948 329.018 3.888 327.209 3.888V11.888ZM328.623 12.1854C329.03 12.4023 329.208 12.6076 329.307 12.7684L336.12 8.57561C335.195 7.07243 333.901 5.93366 332.388 5.12659L328.623 12.1854ZM336.713 10.672V8.144H328.713V10.672H336.713ZM332.713 12.144H338.185V4.144H332.713V12.144ZM334.185 8.144V26H342.185V8.144H334.185ZM338.185 22H332.713V30H338.185V22ZM336.713 26V23.472H328.713V26H336.713ZM329.346 21.3133C329.218 21.512 329.009 21.7355 328.591 21.9586L332.356 29.0174C333.857 28.2165 335.141 27.096 336.081 25.6307L329.346 21.3133ZM328.558 21.9764C328.303 22.1155 327.885 22.256 327.177 22.256V30.256C328.986 30.256 330.766 29.8845 332.389 28.9996L328.558 21.9764ZM327.177 22.256C326.453 22.256 325.869 22.0811 325.329 21.744L321.089 28.528C322.939 29.6842 325 30.256 327.177 30.256V22.256ZM325.372 21.7713C324.831 21.4233 324.342 20.9084 323.928 20.0932L316.795 23.7148C317.789 25.6729 319.198 27.3127 321.046 28.5007L325.372 21.7713ZM323.961 20.1589C323.583 19.381 323.337 18.3739 323.337 17.04H315.337C315.337 19.3755 315.774 21.611 316.762 23.6491L323.961 20.1589ZM336.713 17.072C336.713 14.9282 336.088 12.7563 334.428 11.0506L328.694 16.6294C328.684 16.6184 328.671 16.6029 328.661 16.5867C328.652 16.571 328.652 16.567 328.657 16.583C328.669 16.6162 328.713 16.7607 328.713 17.072H336.713ZM334.467 11.0912C332.964 9.50196 330.995 8.656 328.809 8.656V16.656C328.839 16.656 328.84 16.6586 328.821 16.6547C328.8 16.6507 328.769 16.6421 328.732 16.6264C328.696 16.6106 328.668 16.5936 328.65 16.5812C328.633 16.5692 328.636 16.5683 328.655 16.5888L334.467 11.0912ZM328.809 8.656C326.627 8.656 324.669 9.49796 323.158 11.0506L328.892 16.6294C328.919 16.6018 328.929 16.596 328.921 16.6018C328.912 16.6082 328.892 16.6206 328.863 16.6329C328.834 16.6453 328.808 16.6523 328.792 16.6555C328.776 16.6585 328.78 16.656 328.809 16.656V8.656ZM323.157 11.0517C321.5 12.7562 320.905 14.9321 320.905 17.04H328.905C328.905 16.7166 328.95 16.5681 328.961 16.5374C328.966 16.5234 328.964 16.5327 328.949 16.5562C328.935 16.5803 328.915 16.606 328.893 16.6283L323.157 11.0517ZM320.905 17.04C320.905 19.1585 321.503 21.2989 323.083 23.0139L328.967 17.5941C328.986 17.6138 328.984 17.6254 328.969 17.5818C328.949 17.5254 328.905 17.3613 328.905 17.04H320.905ZM323.158 23.0934C324.669 24.646 326.627 25.488 328.809 25.488V17.488C328.78 17.488 328.776 17.4855 328.792 17.4885C328.808 17.4917 328.834 17.4987 328.863 17.5111C328.892 17.5234 328.912 17.5358 328.921 17.5422C328.929 17.548 328.919 17.5422 328.892 17.5146L323.158 23.0934ZM328.809 25.488C330.995 25.488 332.964 24.642 334.467 23.0528L328.655 17.5552C328.636 17.5757 328.633 17.5748 328.65 17.5628C328.668 17.5504 328.696 17.5334 328.732 17.5176C328.769 17.5019 328.8 17.4933 328.821 17.4893C328.84 17.4854 328.839 17.488 328.809 17.488V25.488ZM334.428 23.0934C336.088 21.3877 336.713 19.2158 336.713 17.072H328.713C328.713 17.3833 328.669 17.5278 328.657 17.561C328.652 17.577 328.652 17.573 328.661 17.5573C328.671 17.5411 328.684 17.5256 328.694 17.5146L334.428 23.0934ZM345.888 25.456L347.495 21.7928L345.888 25.456ZM343.008 23.28L339.808 25.68L339.821 25.6977L339.835 25.7153L343.008 23.28ZM341.824 20.144V16.144H337.517L337.835 20.4395L341.824 20.144ZM347.232 20.144L351.211 19.7324L350.84 16.144H347.232V20.144ZM348.096 21.648L350.496 18.448L348.096 21.648ZM351.552 21.84L353.859 25.1079L353.876 25.0954L353.894 25.0827L351.552 21.84ZM351.328 19.664L349.597 23.2701L349.657 23.2987L349.717 23.3253L351.328 19.664ZM348.736 18.832L349.706 14.9514L349.676 14.9438L349.645 14.9366L348.736 18.832ZM345.536 17.904L344.05 21.6179L344.091 21.6341L344.132 21.6493L345.536 17.904ZM343.328 16.336L340.285 18.9318L340.304 18.9543L340.323 18.9765L343.328 16.336ZM343.232 10.64L339.917 8.40211L339.91 8.41163L339.904 8.4212L343.232 10.64ZM345.728 8.624L344.11 4.96586L344.097 4.97171L344.084 4.97765L345.728 8.624ZM354.944 9.552L352.324 12.5748L352.337 12.5855L352.349 12.5961L354.944 9.552ZM357.184 13.968V17.968H361.624L361.162 13.5517L357.184 13.968ZM352.128 13.968L348.165 14.5145L348.642 17.968H352.128V13.968ZM351.296 12.496L348.779 15.605L348.814 15.6335L348.85 15.6611L351.296 12.496ZM348.032 12.336L350.298 15.6322L350.366 15.5855L350.432 15.536L348.032 12.336ZM348.32 14.48L346.589 18.0861L346.616 18.0992L346.644 18.1118L348.32 14.48ZM350.88 15.248L351.879 11.3749L351.814 11.358L351.748 11.3433L350.88 15.248ZM354.112 16.272L352.594 19.9727L352.635 19.9895L352.676 20.0054L354.112 16.272ZM356.288 17.872L353.208 20.4241L353.248 20.4719L353.289 20.5185L356.288 17.872ZM357.28 20.816H361.28V20.7815L361.279 20.747L357.28 20.816ZM356.384 23.632L353.135 21.2992L353.129 21.3072L353.123 21.3152L356.384 23.632ZM353.856 25.552L352.297 21.8681L352.285 21.8736L352.272 21.8792L353.856 25.552ZM350.048 22.256C348.949 22.256 348.124 22.069 347.495 21.7928L344.281 29.1192C346.084 29.9097 348.032 30.256 350.048 30.256V22.256ZM347.495 21.7928C346.803 21.4897 346.417 21.1525 346.181 20.8447L339.835 25.7153C341.007 27.2421 342.541 28.3556 344.281 29.1192L347.495 21.7928ZM346.208 20.88C345.955 20.5428 345.841 20.2254 345.813 19.8485L337.835 20.4395C337.978 22.3666 338.653 24.1399 339.808 25.68L346.208 20.88ZM341.824 24.144H347.232V16.144H341.824V24.144ZM343.253 20.5556C343.436 22.319 344.321 23.8171 345.696 24.848L350.496 18.448C350.628 18.5468 350.81 18.7233 350.964 18.9915C351.12 19.2622 351.19 19.5276 351.211 19.7324L343.253 20.5556ZM345.696 24.848C347.011 25.8344 348.521 26.224 349.984 26.224V18.224C349.954 18.224 350.009 18.2203 350.119 18.2541C350.236 18.2897 350.37 18.3536 350.496 18.448L345.696 24.848ZM349.984 26.224C351.077 26.224 352.547 26.0339 353.859 25.1079L349.245 18.5721C349.55 18.3572 349.812 18.2733 349.937 18.2428C350.057 18.2134 350.086 18.224 349.984 18.224V26.224ZM353.894 25.0827C355.186 24.1494 356.128 22.6508 356.128 20.784H348.128C348.128 20.3723 348.227 19.9018 348.472 19.4526C348.71 19.0177 349.005 18.7453 349.21 18.5973L353.894 25.0827ZM356.128 20.784C356.128 19.7954 355.856 18.738 355.183 17.795C354.533 16.8851 353.689 16.3326 352.939 16.0027L349.717 23.3253C349.501 23.2301 349.056 22.9816 348.673 22.445C348.266 21.8754 348.128 21.2606 348.128 20.784H356.128ZM353.059 16.0579C352.14 15.6168 350.945 15.2612 349.706 14.9514L347.766 22.7126C348.916 23.0002 349.449 23.1992 349.597 23.2701L353.059 16.0579ZM349.645 14.9366C348.467 14.6617 347.579 14.398 346.94 14.1587L344.132 21.6493C345.2 22.05 346.445 22.405 347.827 22.7274L349.645 14.9366ZM347.022 14.1901C346.764 14.087 346.545 13.937 346.333 13.6955L340.323 18.9765C341.348 20.143 342.602 21.0384 344.05 21.6179L347.022 14.1901ZM346.371 13.7402C346.397 13.7705 346.417 13.8007 346.431 13.826C346.445 13.8506 346.447 13.8609 346.443 13.8495C346.435 13.8243 346.4 13.6972 346.4 13.424H338.4C338.4 15.3228 338.894 17.3014 340.285 18.9318L346.371 13.7402ZM346.4 13.424C346.4 13.1695 346.455 13.0171 346.56 12.8588L339.904 8.4212C338.9 9.92686 338.4 11.6305 338.4 13.424H346.4ZM346.547 12.8779C346.645 12.7327 346.852 12.5052 347.372 12.2703L344.084 4.97765C342.428 5.7241 340.971 6.8406 339.917 8.40211L346.547 12.8779ZM347.346 12.2821C347.836 12.0656 348.572 11.888 349.664 11.888V3.888C347.726 3.888 345.839 4.20111 344.11 4.96586L347.346 12.2821ZM349.664 11.888C351.256 11.888 351.979 12.2752 352.324 12.5748L357.564 6.52924C355.349 4.61017 352.552 3.888 349.664 3.888V11.888ZM352.349 12.5961C352.804 12.9841 353.111 13.4825 353.206 14.3843L361.162 13.5517C360.873 10.7842 359.686 8.33859 357.539 6.50794L352.349 12.5961ZM357.184 9.968H352.128V17.968H357.184V9.968ZM356.09 13.4215C355.87 11.8259 355.087 10.3707 353.742 9.33086L348.85 15.6611C348.686 15.5339 348.511 15.347 348.374 15.1042C348.239 14.8651 348.184 14.6512 348.165 14.5145L356.09 13.4215ZM353.813 9.38702C352.465 8.29627 350.893 7.952 349.504 7.952V15.952C349.558 15.952 349.493 15.959 349.35 15.9155C349.196 15.8688 348.988 15.7744 348.779 15.605L353.813 9.38702ZM349.504 7.952C348.41 7.952 346.935 8.15875 345.632 9.136L350.432 15.536C350.117 15.7725 349.83 15.8756 349.666 15.9185C349.508 15.9595 349.44 15.952 349.504 15.952V7.952ZM345.766 9.03983C344.301 10.0471 343.52 11.6314 343.52 13.328H351.52C351.52 13.6589 351.45 14.1146 351.202 14.5946C350.952 15.0791 350.608 15.4189 350.298 15.6322L345.766 9.03983ZM343.52 13.328C343.52 14.3183 343.792 15.3559 344.435 16.2816C345.054 17.174 345.861 17.7367 346.589 18.0861L350.051 10.8739C350.246 10.9673 350.652 11.21 351.005 11.7184C351.382 12.2601 351.52 12.8497 351.52 13.328H343.52ZM346.644 18.1118C347.597 18.5518 348.789 18.8808 350.012 19.1527L351.748 11.3433C350.667 11.1032 350.152 10.9202 349.996 10.8482L346.644 18.1118ZM349.88 19.1211C351.107 19.4376 351.993 19.7263 352.594 19.9727L355.63 12.5713C354.567 12.1351 353.298 11.741 351.879 11.3749L349.88 19.1211ZM352.676 20.0054C352.812 20.0578 352.987 20.158 353.208 20.4241L359.368 15.3199C358.351 14.0927 357.076 13.1262 355.548 12.5386L352.676 20.0054ZM353.289 20.5185C353.232 20.4544 353.218 20.4071 353.225 20.4293C353.237 20.4629 353.276 20.5997 353.281 20.885L361.279 20.747C361.246 18.8309 360.716 16.8442 359.287 15.2255L353.289 20.5185ZM353.28 20.816C353.28 21.0428 353.233 21.1619 353.135 21.2992L359.633 25.9648C360.729 24.438 361.28 22.6798 361.28 20.816H353.28ZM353.123 21.3152C353.06 21.4046 352.868 21.6265 352.297 21.8681L355.415 29.2359C357.062 28.5388 358.556 27.4808 359.645 25.9488L353.123 21.3152ZM352.272 21.8792C351.783 22.09 351.073 22.256 350.048 22.256V30.256C351.924 30.256 353.753 29.9526 355.44 29.2248L352.272 21.8792ZM378.9 8.144H382.9V4.144H378.9V8.144ZM378.9 26V30H382.9V26H378.9ZM373.428 26H369.428V30H373.428V26ZM373.428 23.568H377.428V10.9185L370.155 21.2682L373.428 23.568ZM371.156 25.488L372.945 29.0657L372.96 29.0578L372.976 29.0497L371.156 25.488ZM364.404 25.296L362.366 28.7383L362.393 28.7538L362.419 28.769L364.404 25.296ZM361.972 22.64L358.394 24.4289L361.972 22.64ZM361.108 8.144V4.144H357.108V8.144H361.108ZM366.548 8.144H370.548V4.144H366.548V8.144ZM367.476 20.624L364.555 23.3566L367.476 20.624ZM373.428 8.144V4.144H369.428V8.144H373.428ZM374.9 8.144V26H382.9V8.144H374.9ZM378.9 22H373.428V30H378.9V22ZM377.428 26V23.568H369.428V26H377.428ZM370.155 21.2682C370.017 21.4649 369.785 21.6965 369.335 21.9263L372.976 29.0497C374.447 28.2982 375.729 27.2498 376.701 25.8678L370.155 21.2682ZM369.367 21.9103C369.036 22.0756 368.612 22.192 368.02 22.192V30.192C369.731 30.192 371.398 29.8391 372.945 29.0657L369.367 21.9103ZM368.02 22.192C367.256 22.192 366.752 22.0308 366.388 21.823L362.419 28.769C364.146 29.7559 366.053 30.192 368.02 30.192V22.192ZM366.441 21.8537C366.098 21.6507 365.803 21.3589 365.549 20.8511L358.394 24.4289C359.292 26.2251 360.619 27.7039 362.366 28.7383L366.441 21.8537ZM365.549 20.8511C365.303 20.3589 365.108 19.6406 365.108 18.576H357.108C357.108 20.6261 357.488 22.6171 358.394 24.4289L365.549 20.8511ZM365.108 18.576V8.144H357.108V18.576H365.108ZM361.108 12.144H366.548V4.144H361.108V12.144ZM362.548 8.144V17.84H370.548V8.144H362.548ZM362.548 17.84C362.548 19.7169 363.045 21.7427 364.555 23.3566L370.397 17.8914C370.449 17.9475 370.492 18.0062 370.524 18.0611C370.556 18.1151 370.57 18.1537 370.574 18.1671C370.582 18.1897 370.548 18.0991 370.548 17.84H362.548ZM364.555 23.3566C366.049 24.9536 368.006 25.616 369.972 25.616V17.616C369.872 17.616 369.915 17.6008 370.041 17.6508C370.103 17.6753 370.17 17.7102 370.238 17.7562C370.305 17.8021 370.358 17.8499 370.397 17.8914L364.555 23.3566ZM369.972 25.616C371.931 25.616 373.911 24.9707 375.421 23.3566L369.579 17.8914C369.622 17.8455 369.678 17.7954 369.747 17.7485C369.816 17.7016 369.884 17.6675 369.943 17.6444C370.062 17.5976 370.093 17.616 369.972 17.616V25.616ZM375.421 23.3566C376.931 21.7427 377.428 19.7169 377.428 17.84H369.428C369.428 18.0991 369.393 18.1897 369.401 18.1671C369.405 18.1537 369.42 18.1151 369.451 18.0611C369.484 18.0062 369.526 17.9475 369.579 17.8914L375.421 23.3566ZM377.428 17.84V8.144H369.428V17.84H377.428ZM373.428 12.144H378.9V4.144H373.428V12.144ZM388.942 11.12H384.942V24.5757L392.293 13.3051L388.942 11.12ZM391.342 8.816L393.343 12.2795L393.372 12.263L393.4 12.246L391.342 8.816ZM394.542 7.952H398.542V3.952H394.542V7.952ZM394.542 13.744V17.744H398.542V13.744H394.542ZM389.966 14.64L392.546 17.6972L392.573 17.674L392.6 17.6503L389.966 14.64ZM388.942 26V30H392.942V26H388.942ZM383.47 26H379.47V30H383.47V26ZM383.47 8.144V4.144H379.47V8.144H383.47ZM388.942 8.144H392.942V4.144H388.942V8.144ZM392.293 13.3051C392.61 12.8192 392.958 12.502 393.343 12.2795L389.341 5.35254C387.806 6.23929 386.555 7.45809 385.592 8.93493L392.293 13.3051ZM393.4 12.246C393.708 12.0613 394.057 11.952 394.542 11.952V3.952C392.68 3.952 390.896 4.41875 389.284 5.38603L393.4 12.246ZM390.542 7.952V13.744H398.542V7.952H390.542ZM394.542 9.744H393.038V17.744H394.542V9.744ZM393.038 9.744C391.178 9.744 389.035 10.1394 387.332 11.6297L392.6 17.6503C392.433 17.7968 392.316 17.8227 392.366 17.808C392.429 17.7896 392.634 17.744 393.038 17.744V9.744ZM387.387 11.5828C385.357 13.2951 384.942 15.8069 384.942 17.712H392.942C392.942 17.4959 392.955 17.3394 392.969 17.234C392.984 17.1281 392.998 17.0906 392.993 17.1049C392.988 17.1207 392.96 17.199 392.887 17.3122C392.813 17.429 392.701 17.5663 392.546 17.6972L387.387 11.5828ZM384.942 17.712V26H392.942V17.712H384.942ZM388.942 22H383.47V30H388.942V22ZM387.47 26V8.144H379.47V26H387.47ZM383.47 12.144H388.942V4.144H383.47V12.144ZM384.942 8.144V11.12H392.942V8.144H384.942ZM414.534 18.384V22.384H418.099L418.507 18.8425L414.534 18.384ZM402.15 18.384V14.384H397.83L398.162 18.6908L402.15 18.384ZM403.206 20.944L400.427 23.8216L400.478 23.8703L400.53 23.9172L403.206 20.944ZM408.39 20.08V16.08H405.834L404.76 18.3995L408.39 20.08ZM414.214 20.08L418.09 21.0667L419.359 16.08H414.214V20.08ZM412.582 23.248L409.52 20.6736L409.503 20.6942L409.486 20.715L412.582 23.248ZM409.67 25.456L411.325 29.0975L409.67 25.456ZM401.062 25.136L399.143 28.6455L401.062 25.136ZM397.862 21.936L401.361 19.998L397.862 21.936ZM397.83 12.208L394.331 10.27L394.319 10.2907L394.308 10.3116L397.83 12.208ZM401.03 9.008L402.949 12.5175V12.5175L401.03 9.008ZM410.342 8.976L408.442 12.4961L410.342 8.976ZM413.478 12.08L409.981 14.0226L409.993 14.0436L410.005 14.0646L413.478 12.08ZM409.03 15.344V19.344H413.03V15.344H409.03ZM408.07 13.104L410.689 10.0812V10.0812L408.07 13.104ZM403.334 13.072L400.773 9.99911L400.747 10.0205L400.722 10.0424L403.334 13.072ZM402.182 15.344L398.227 14.7422L397.527 19.344H402.182V15.344ZM410.63 16.784C410.63 17.1298 410.608 17.5095 410.56 17.9255L418.507 18.8425C418.587 18.1491 418.63 17.4622 418.63 16.784H410.63ZM414.534 14.384H402.15V22.384H414.534V14.384ZM398.162 18.6908C398.299 20.4821 398.918 22.364 400.427 23.8216L405.984 18.0664C406.037 18.1177 406.082 18.1719 406.116 18.2236C406.15 18.2746 406.168 18.3132 406.176 18.3307C406.189 18.3627 406.155 18.2961 406.138 18.0772L398.162 18.6908ZM400.53 23.9172C401.955 25.1999 403.707 25.808 405.542 25.808V17.808C405.507 17.808 405.558 17.8037 405.657 17.8404C405.76 17.8785 405.84 17.933 405.882 17.9708L400.53 23.9172ZM405.542 25.808C406.789 25.808 408.123 25.5417 409.353 24.7958C410.601 24.0384 411.468 22.9514 412.02 21.7605L404.76 18.3995C404.764 18.3914 404.796 18.3246 404.876 18.2313C404.959 18.1348 405.07 18.037 405.203 17.9562C405.483 17.7863 405.66 17.808 405.542 17.808V25.808ZM408.39 24.08H414.214V16.08H408.39V24.08ZM410.337 19.0933C410.189 19.675 409.927 20.1898 409.52 20.6736L415.643 25.8224C416.815 24.4288 417.641 22.8317 418.09 21.0667L410.337 19.0933ZM409.486 20.715C409.131 21.1489 408.665 21.5189 408.015 21.8145L411.325 29.0975C413.021 28.3264 414.497 27.2244 415.678 25.781L409.486 20.715ZM408.015 21.8145C407.423 22.0835 406.685 22.256 405.734 22.256V30.256C407.684 30.256 409.57 29.8951 411.325 29.0975L408.015 21.8145ZM405.734 22.256C404.571 22.256 403.688 22.0131 402.981 21.6265L399.143 28.6455C401.166 29.7523 403.398 30.256 405.734 30.256V22.256ZM402.981 21.6265C402.294 21.2505 401.769 20.7348 401.361 19.998L394.363 23.874C395.491 25.9105 397.099 27.5281 399.143 28.6455L402.981 21.6265ZM401.361 19.998C400.974 19.2986 400.71 18.3664 400.71 17.072H392.71C392.71 19.4896 393.214 21.8001 394.363 23.874L401.361 19.998ZM400.71 17.072C400.71 15.7597 400.97 14.8123 401.352 14.1044L394.308 10.3116C393.196 12.377 392.71 14.6723 392.71 17.072H400.71ZM401.329 14.146C401.737 13.4092 402.262 12.8935 402.949 12.5175L399.111 5.49852C397.067 6.61587 395.458 8.23348 394.331 10.27L401.329 14.146ZM402.949 12.5175C403.649 12.1348 404.54 11.888 405.734 11.888V3.888C403.386 3.888 401.141 4.38789 399.111 5.49852L402.949 12.5175ZM405.734 11.888C406.887 11.888 407.755 12.1252 408.442 12.4961L412.241 5.45591C410.241 4.37614 408.037 3.888 405.734 3.888V11.888ZM408.442 12.4961C409.109 12.8562 409.603 13.3413 409.981 14.0226L416.974 10.1374C415.86 8.1307 414.262 6.54646 412.241 5.45591L408.442 12.4961ZM410.005 14.0646C410.376 14.7146 410.63 15.5771 410.63 16.784H418.63C418.63 14.4069 418.115 12.1334 416.951 10.0954L410.005 14.0646ZM413.03 15.344C413.03 13.3863 412.307 11.4834 410.689 10.0812L405.45 16.1268C405.333 16.0252 405.202 15.8622 405.113 15.6557C405.029 15.4597 405.03 15.3329 405.03 15.344H413.03ZM410.689 10.0812C409.225 8.812 407.455 8.272 405.67 8.272V16.272C405.763 16.272 405.753 16.2849 405.68 16.2593C405.644 16.2471 405.602 16.2287 405.559 16.2035C405.515 16.1782 405.478 16.1512 405.45 16.1268L410.689 10.0812ZM405.67 8.272C403.918 8.272 402.206 8.80499 400.773 9.99911L405.895 16.1449C405.873 16.1628 405.843 16.1847 405.805 16.2062C405.766 16.2278 405.728 16.2444 405.694 16.2562C405.621 16.2811 405.602 16.272 405.67 16.272V8.272ZM400.722 10.0424C399.233 11.3257 398.488 13.029 398.227 14.7422L406.136 15.9458C406.157 15.8061 406.179 15.7904 406.149 15.8489C406.134 15.8783 406.11 15.9201 406.073 15.968C406.035 16.0161 405.992 16.0616 405.945 16.1016L400.722 10.0424ZM402.182 19.344H409.03V11.344H402.182V19.344ZM419.404 3.536V-0.464001H416.106L415.478 2.77409L419.404 3.536ZM425.004 3.536L428.695 5.07837L431.011 -0.464001H425.004V3.536ZM421.42 12.112V16.112H424.084L425.111 13.6544L421.42 12.112ZM417.74 12.112L413.814 11.3501L412.89 16.112H417.74V12.112ZM426.668 3.536V-0.464001H423.37L422.742 2.77409L426.668 3.536ZM432.268 3.536L435.959 5.07837L438.275 -0.464001H432.268V3.536ZM428.684 12.112V16.112H431.348L432.375 13.6544L428.684 12.112ZM425.004 12.112L421.078 11.3501L420.154 16.112H425.004V12.112ZM419.404 7.536H425.004V-0.464001H419.404V7.536ZM421.314 1.99363L417.73 10.5696L425.111 13.6544L428.695 5.07837L421.314 1.99363ZM421.42 8.112H417.74V16.112H421.42V8.112ZM421.667 12.8739L423.331 4.29791L415.478 2.77409L413.814 11.3501L421.667 12.8739ZM426.668 7.536H432.268V-0.464001H426.668V7.536ZM428.578 1.99363L424.994 10.5696L432.375 13.6544L435.959 5.07837L428.578 1.99363ZM428.684 8.112H425.004V16.112H428.684V8.112ZM428.931 12.8739L430.595 4.29791L422.742 2.77409L421.078 11.3501L428.931 12.8739Z" fill="black" mask="url(#path-1-outside-1_507_718)"/>
</svg>
