<svg width="134" height="128" viewBox="0 0 134 128" fill="none" xmlns="http://www.w3.org/2000/svg">
<path d="M101.934 18.9566C103.752 16.7974 103.487 13.5544 101.19 11.914C90.8736 4.54818 78.566 0.388237 65.8187 0.0258469C51.363 -0.385115 37.1942 4.1119 25.6213 12.784C14.0484 21.4562 5.75376 33.7922 2.08904 47.7817C-1.57568 61.7712 -0.394411 76.5896 5.44035 89.8218C11.2751 103.054 21.4194 113.92 34.22 120.649C47.0206 127.379 61.7229 129.574 75.931 126.878C90.1391 124.182 103.015 116.754 112.461 105.803C120.791 96.1471 126.02 84.2543 127.539 71.6698C127.877 68.8674 125.662 66.4841 122.841 66.3705C120.021 66.2569 117.667 68.4576 117.286 71.2546C115.888 81.5289 111.541 91.2199 104.721 99.1263C96.7836 108.328 85.9641 114.57 74.0253 116.835C62.0866 119.1 49.7326 117.256 38.9765 111.601C28.2205 105.947 19.6965 96.8163 14.7937 85.6975C9.89085 74.5787 8.89825 62.1272 11.9776 50.3721C15.057 38.617 22.0268 28.2514 31.7513 20.9644C41.4757 13.6774 53.3814 9.89866 65.5282 10.244C75.9656 10.5407 86.0523 13.8674 94.5815 19.764C96.9035 21.3693 100.116 21.1157 101.934 18.9566Z" fill="white"/>
<path d="M128 27.6362L75 81.4544L50.9091 56.9916" stroke="white" stroke-width="12" stroke-linecap="round" stroke-linejoin="round"/>
</svg>
