<svg width="575" height="219" viewBox="0 0 575 219" fill="none" xmlns="http://www.w3.org/2000/svg">
<g filter="url(#filter0_d_507_465)">
<mask id="path-1-outside-1_507_465" maskUnits="userSpaceOnUse" x="23.0384" y="-5.01327" width="566.214" height="198.625" fill="black">
<rect fill="white" x="23.0384" y="-5.01327" width="566.214" height="198.625"/>
<path d="M51.5914 51.6181L69.5114 51.6379L67.6601 62.0358L36.0601 62.0009L46.0409 5.85191L59.7209 5.86702L51.5914 51.6181ZM103.305 62.6352C98.5578 62.63 94.3722 61.6387 90.7477 59.6613C87.1765 57.684 84.4062 54.9077 82.4367 51.3321C80.4673 47.7566 79.485 43.6489 79.4901 39.0089C79.4972 32.4489 80.9168 26.6104 83.749 21.4936C86.5813 16.3234 90.5056 12.301 95.5221 9.42657C100.592 6.55217 106.327 5.1185 112.727 5.12557C117.527 5.13087 121.739 6.12219 125.364 8.09953C128.988 10.0235 131.785 12.7733 133.755 16.3488C135.724 19.871 136.706 23.9254 136.701 28.5121C136.694 35.0721 135.275 40.9638 132.442 46.1874C129.61 51.3576 125.659 55.4066 120.589 58.3343C115.519 61.2087 109.758 62.6423 103.305 62.6352ZM105.398 49.9975C108.918 50.0014 112.012 49.0981 114.681 47.2878C117.35 45.4774 119.406 43.053 120.849 40.0146C122.346 36.9229 123.096 33.5904 123.1 30.017C123.104 26.177 122.041 23.1625 119.91 20.9735C117.779 18.7845 114.793 17.6879 110.953 17.6836C107.433 17.6797 104.312 18.583 101.59 20.3933C98.9216 22.2037 96.839 24.628 95.3423 27.6664C93.8991 30.6515 93.1755 33.9573 93.1716 37.584C93.1675 41.424 94.2308 44.4652 96.3617 46.7075C98.4927 48.8965 101.505 49.9932 105.398 49.9975ZM144.626 33.9608C145.592 28.4152 147.651 23.4842 150.802 19.1676C154.007 14.7978 157.984 11.4156 162.733 9.02081C167.483 6.57272 172.631 5.35174 178.177 5.35786C184.897 5.36529 190.282 6.9979 194.332 10.2557C198.435 13.5136 200.67 18.0227 201.037 23.7831L185.997 23.7665C185.306 21.8991 184.081 20.4844 182.322 19.5225C180.616 18.5072 178.51 17.9982 176.003 17.9955C171.577 17.9906 167.762 19.453 164.559 22.3828C161.409 25.2594 159.405 29.1238 158.546 33.9762C158.278 35.5759 158.143 36.9624 158.142 38.1358C158.137 42.0824 159.281 45.1237 161.572 47.2596C163.863 49.3954 167.115 50.4657 171.328 50.4703C174.742 50.4741 177.756 49.6241 180.371 47.9203C182.986 46.1632 185.096 43.6855 186.699 40.4873L169.419 40.4682L171.11 30.4701L200.87 30.5029L198.616 43.2205C197.013 46.632 194.716 49.8028 191.726 52.7329C188.789 55.663 185.293 58.0324 181.238 59.8413C177.183 61.6501 172.809 62.552 168.115 62.5468C163.262 62.5414 158.996 61.6034 155.318 59.7327C151.694 57.8086 148.897 55.1389 146.927 51.7234C145.011 48.3079 144.055 44.3335 144.06 39.8002C144.062 38.2535 144.25 36.3071 144.626 33.9608ZM231.933 62.7773C227.186 62.772 223 61.7807 219.376 59.8034C215.805 57.8261 213.034 55.0497 211.065 51.4742C209.095 47.8987 208.113 43.791 208.118 39.151C208.125 32.591 209.545 26.7525 212.377 21.6357C215.209 16.4654 219.134 12.4431 224.15 9.56865C229.22 6.69425 234.955 5.26058 241.355 5.26765C246.155 5.27296 250.367 6.26428 253.992 8.24161C257.616 10.1656 260.413 12.9154 262.383 16.4909C264.352 20.0131 265.334 24.0675 265.329 28.6541C265.322 35.2141 263.903 41.1059 261.07 46.3295C258.238 51.4997 254.287 55.5486 249.217 58.4764C244.147 61.3508 238.386 62.7844 231.933 62.7773ZM234.026 50.1396C237.546 50.1435 240.641 49.2402 243.309 47.4298C245.978 45.6195 248.034 43.1951 249.477 40.1566C250.974 37.065 251.724 33.7325 251.728 30.1591C251.732 26.3191 250.669 23.3046 248.538 21.1156C246.407 18.9266 243.421 17.8299 239.581 17.8257C236.061 17.8218 232.94 18.725 230.218 20.5354C227.55 22.3457 225.467 24.7701 223.97 27.8085C222.527 30.7935 221.804 34.0994 221.8 37.7261C221.795 41.5661 222.859 44.6072 224.99 46.8496C227.121 49.0386 230.133 50.1353 234.026 50.1396ZM85.4915 143.976C84.9546 147.228 83.698 150.214 81.7218 152.931C79.7455 155.596 77.0499 157.753 73.6347 159.402C70.273 161.052 66.2987 161.874 61.7121 161.869L53.2321 161.86L49.6103 182.016L35.9303 182.001L45.911 125.852L68.071 125.876C73.9377 125.883 78.3629 127.194 81.3468 129.811C84.3307 132.374 85.8202 135.869 85.8154 140.296C85.814 141.629 85.706 142.856 85.4915 143.976ZM62.5237 151.15C67.6437 151.156 70.6596 148.759 71.5715 143.96C71.6791 143.107 71.733 142.494 71.7335 142.12C71.7353 140.414 71.1767 139.106 70.0577 138.199C68.9921 137.237 67.3393 136.756 65.0993 136.753L57.6593 136.745L55.1637 151.142L62.5237 151.15ZM146.873 125.963L136.892 182.112L123.212 182.097L127.317 158.822L106.037 158.798L101.932 182.074L88.2521 182.059L98.2329 125.91L111.913 125.925L107.969 148L129.249 148.024L133.193 125.948L146.873 125.963ZM172.828 125.992L162.848 182.141L149.168 182.126L159.148 125.977L172.828 125.992ZM190.693 171.772L208.613 171.792L206.761 182.19L175.161 182.155L185.142 126.006L198.822 126.021L190.693 171.772ZM242.406 182.789C237.659 182.784 233.474 181.792 229.849 179.815C226.278 177.838 223.507 175.061 221.538 171.486C219.569 167.91 218.586 163.803 218.591 159.163C218.598 152.603 220.018 146.764 222.85 141.647C225.683 136.477 229.607 132.455 234.623 129.58C239.693 126.706 245.428 125.272 251.828 125.279C256.628 125.285 260.84 126.276 264.465 128.253C268.089 130.177 270.886 132.927 272.856 136.503C274.825 140.025 275.808 144.079 275.803 148.666C275.796 155.226 274.376 161.118 271.544 166.341C268.711 171.511 264.76 175.56 259.69 178.488C254.621 181.362 248.859 182.796 242.406 182.789ZM244.499 170.151C248.019 170.155 251.114 169.252 253.782 167.441C256.451 165.631 258.507 163.207 259.95 160.168C261.447 157.077 262.197 153.744 262.201 150.171C262.205 146.331 261.142 143.316 259.011 141.127C256.88 138.938 253.894 137.842 250.054 137.837C246.534 137.833 243.413 138.737 240.692 140.547C238.023 142.357 235.94 144.782 234.444 147.82C233 150.805 232.277 154.111 232.273 157.738C232.269 161.578 233.332 164.619 235.463 166.861C237.594 169.05 240.606 170.147 244.499 170.151ZM303.296 182.856C297.216 182.849 292.258 181.537 288.421 178.92C284.637 176.249 282.748 172.487 282.753 167.633C282.753 167.153 282.807 166.434 282.915 165.474L297.155 165.489C296.993 167.516 297.471 169.116 298.59 170.291C299.709 171.466 301.415 172.054 303.708 172.057C305.788 172.059 307.415 171.607 308.59 170.702C309.817 169.797 310.432 168.517 310.434 166.864C310.436 165.157 309.664 163.77 308.118 162.701C306.626 161.633 304.281 160.431 301.082 159.094C297.99 157.81 295.458 156.608 293.486 155.485C291.567 154.31 289.889 152.735 288.451 150.76C287.013 148.785 286.296 146.304 286.299 143.317C286.25 139.637 287.16 136.438 289.03 133.72C290.899 131.002 293.488 128.925 296.796 127.489C300.105 126.053 303.892 125.337 308.159 125.342C311.999 125.346 315.411 125.963 318.397 127.193C321.382 128.369 323.7 130.105 325.351 132.401C327.002 134.642 327.826 137.31 327.822 140.403C327.821 141.203 327.794 141.79 327.74 142.163L313.18 142.147C313.234 141.934 313.261 141.614 313.261 141.187C313.263 139.694 312.731 138.493 311.665 137.585C310.653 136.624 309.24 136.143 307.427 136.141C305.507 136.139 303.933 136.617 302.705 137.575C301.531 138.481 300.943 139.734 300.941 141.334C300.94 142.934 301.685 144.294 303.177 145.416C304.669 146.484 306.988 147.74 310.133 149.184C313.278 150.627 315.836 151.963 317.808 153.192C319.834 154.421 321.565 156.076 323.003 158.158C324.441 160.186 325.158 162.694 325.155 165.68C325.151 168.987 324.268 171.946 322.505 174.557C320.743 177.169 318.207 179.219 314.899 180.709C311.59 182.145 307.723 182.861 303.296 182.856ZM359.862 182.919C355.115 182.913 350.93 181.922 347.305 179.945C343.734 177.968 340.964 175.191 338.994 171.616C337.025 168.04 336.042 163.932 336.048 159.292C336.055 152.732 337.474 146.894 340.306 141.777C343.139 136.607 347.063 132.584 352.08 129.71C357.149 126.836 362.884 125.402 369.284 125.409C374.084 125.414 378.296 126.406 381.921 128.383C385.546 130.307 388.343 133.057 390.312 136.632C392.282 140.154 393.264 144.209 393.259 148.796C393.252 155.356 391.832 161.247 389 166.471C386.168 171.641 382.216 175.69 377.147 178.618C372.077 181.492 366.315 182.926 359.862 182.919ZM361.956 170.281C365.476 170.285 368.57 169.382 371.239 167.571C373.907 165.761 375.963 163.336 377.406 160.298C378.903 157.206 379.653 153.874 379.657 150.301C379.661 146.461 378.598 143.446 376.467 141.257C374.336 139.068 371.351 137.971 367.511 137.967C363.991 137.963 360.87 138.866 358.148 140.677C355.479 142.487 353.396 144.911 351.9 147.95C350.457 150.935 349.733 154.241 349.729 157.867C349.725 161.707 350.788 164.749 352.919 166.991C355.05 169.18 358.062 170.277 361.956 170.281ZM447.994 144.376C447.457 147.629 446.201 150.614 444.225 153.332C442.248 155.996 439.553 158.153 436.138 159.803C432.776 161.453 428.802 162.275 424.215 162.27L415.735 162.26L412.113 182.416L398.433 182.401L408.414 126.252L430.574 126.277C436.441 126.283 440.866 127.595 443.85 130.211C446.834 132.775 448.323 136.27 448.318 140.696C448.317 142.03 448.209 143.256 447.994 144.376ZM425.027 151.551C430.147 151.556 433.162 149.16 434.074 144.361C434.182 143.507 434.236 142.894 434.236 142.521C434.238 140.814 433.68 139.507 432.561 138.599C431.495 137.638 429.842 137.156 427.602 137.153L420.162 137.145L417.667 151.542L425.027 151.551ZM509.376 126.364L499.395 182.513L485.715 182.498L489.82 159.222L468.54 159.199L464.435 182.474L450.755 182.459L460.736 126.31L474.416 126.325L470.472 148.401L491.752 148.424L495.696 126.349L509.376 126.364ZM569.811 126.431L543.771 164.002L540.391 182.558L526.711 182.543L530.091 163.987L517.251 126.372L532.771 126.39L539.466 149.837L554.451 126.414L569.811 126.431Z"/>
</mask>
<path d="M51.5914 51.6181L69.5114 51.6379L67.6601 62.0358L36.0601 62.0009L46.0409 5.85191L59.7209 5.86702L51.5914 51.6181ZM103.305 62.6352C98.5578 62.63 94.3722 61.6387 90.7477 59.6613C87.1765 57.684 84.4062 54.9077 82.4367 51.3321C80.4673 47.7566 79.485 43.6489 79.4901 39.0089C79.4972 32.4489 80.9168 26.6104 83.749 21.4936C86.5813 16.3234 90.5056 12.301 95.5221 9.42657C100.592 6.55217 106.327 5.1185 112.727 5.12557C117.527 5.13087 121.739 6.12219 125.364 8.09953C128.988 10.0235 131.785 12.7733 133.755 16.3488C135.724 19.871 136.706 23.9254 136.701 28.5121C136.694 35.0721 135.275 40.9638 132.442 46.1874C129.61 51.3576 125.659 55.4066 120.589 58.3343C115.519 61.2087 109.758 62.6423 103.305 62.6352ZM105.398 49.9975C108.918 50.0014 112.012 49.0981 114.681 47.2878C117.35 45.4774 119.406 43.053 120.849 40.0146C122.346 36.9229 123.096 33.5904 123.1 30.017C123.104 26.177 122.041 23.1625 119.91 20.9735C117.779 18.7845 114.793 17.6879 110.953 17.6836C107.433 17.6797 104.312 18.583 101.59 20.3933C98.9216 22.2037 96.839 24.628 95.3423 27.6664C93.8991 30.6515 93.1755 33.9573 93.1716 37.584C93.1675 41.424 94.2308 44.4652 96.3617 46.7075C98.4927 48.8965 101.505 49.9932 105.398 49.9975ZM144.626 33.9608C145.592 28.4152 147.651 23.4842 150.802 19.1676C154.007 14.7978 157.984 11.4156 162.733 9.02081C167.483 6.57272 172.631 5.35174 178.177 5.35786C184.897 5.36529 190.282 6.9979 194.332 10.2557C198.435 13.5136 200.67 18.0227 201.037 23.7831L185.997 23.7665C185.306 21.8991 184.081 20.4844 182.322 19.5225C180.616 18.5072 178.51 17.9982 176.003 17.9955C171.577 17.9906 167.762 19.453 164.559 22.3828C161.409 25.2594 159.405 29.1238 158.546 33.9762C158.278 35.5759 158.143 36.9624 158.142 38.1358C158.137 42.0824 159.281 45.1237 161.572 47.2596C163.863 49.3954 167.115 50.4657 171.328 50.4703C174.742 50.4741 177.756 49.6241 180.371 47.9203C182.986 46.1632 185.096 43.6855 186.699 40.4873L169.419 40.4682L171.11 30.4701L200.87 30.5029L198.616 43.2205C197.013 46.632 194.716 49.8028 191.726 52.7329C188.789 55.663 185.293 58.0324 181.238 59.8413C177.183 61.6501 172.809 62.552 168.115 62.5468C163.262 62.5414 158.996 61.6034 155.318 59.7327C151.694 57.8086 148.897 55.1389 146.927 51.7234C145.011 48.3079 144.055 44.3335 144.06 39.8002C144.062 38.2535 144.25 36.3071 144.626 33.9608ZM231.933 62.7773C227.186 62.772 223 61.7807 219.376 59.8034C215.805 57.8261 213.034 55.0497 211.065 51.4742C209.095 47.8987 208.113 43.791 208.118 39.151C208.125 32.591 209.545 26.7525 212.377 21.6357C215.209 16.4654 219.134 12.4431 224.15 9.56865C229.22 6.69425 234.955 5.26058 241.355 5.26765C246.155 5.27296 250.367 6.26428 253.992 8.24161C257.616 10.1656 260.413 12.9154 262.383 16.4909C264.352 20.0131 265.334 24.0675 265.329 28.6541C265.322 35.2141 263.903 41.1059 261.07 46.3295C258.238 51.4997 254.287 55.5486 249.217 58.4764C244.147 61.3508 238.386 62.7844 231.933 62.7773ZM234.026 50.1396C237.546 50.1435 240.641 49.2402 243.309 47.4298C245.978 45.6195 248.034 43.1951 249.477 40.1566C250.974 37.065 251.724 33.7325 251.728 30.1591C251.732 26.3191 250.669 23.3046 248.538 21.1156C246.407 18.9266 243.421 17.8299 239.581 17.8257C236.061 17.8218 232.94 18.725 230.218 20.5354C227.55 22.3457 225.467 24.7701 223.97 27.8085C222.527 30.7935 221.804 34.0994 221.8 37.7261C221.795 41.5661 222.859 44.6072 224.99 46.8496C227.121 49.0386 230.133 50.1353 234.026 50.1396ZM85.4915 143.976C84.9546 147.228 83.698 150.214 81.7218 152.931C79.7455 155.596 77.0499 157.753 73.6347 159.402C70.273 161.052 66.2987 161.874 61.7121 161.869L53.2321 161.86L49.6103 182.016L35.9303 182.001L45.911 125.852L68.071 125.876C73.9377 125.883 78.3629 127.194 81.3468 129.811C84.3307 132.374 85.8202 135.869 85.8154 140.296C85.814 141.629 85.706 142.856 85.4915 143.976ZM62.5237 151.15C67.6437 151.156 70.6596 148.759 71.5715 143.96C71.6791 143.107 71.733 142.494 71.7335 142.12C71.7353 140.414 71.1767 139.106 70.0577 138.199C68.9921 137.237 67.3393 136.756 65.0993 136.753L57.6593 136.745L55.1637 151.142L62.5237 151.15ZM146.873 125.963L136.892 182.112L123.212 182.097L127.317 158.822L106.037 158.798L101.932 182.074L88.2521 182.059L98.2329 125.91L111.913 125.925L107.969 148L129.249 148.024L133.193 125.948L146.873 125.963ZM172.828 125.992L162.848 182.141L149.168 182.126L159.148 125.977L172.828 125.992ZM190.693 171.772L208.613 171.792L206.761 182.19L175.161 182.155L185.142 126.006L198.822 126.021L190.693 171.772ZM242.406 182.789C237.659 182.784 233.474 181.792 229.849 179.815C226.278 177.838 223.507 175.061 221.538 171.486C219.569 167.91 218.586 163.803 218.591 159.163C218.598 152.603 220.018 146.764 222.85 141.647C225.683 136.477 229.607 132.455 234.623 129.58C239.693 126.706 245.428 125.272 251.828 125.279C256.628 125.285 260.84 126.276 264.465 128.253C268.089 130.177 270.886 132.927 272.856 136.503C274.825 140.025 275.808 144.079 275.803 148.666C275.796 155.226 274.376 161.118 271.544 166.341C268.711 171.511 264.76 175.56 259.69 178.488C254.621 181.362 248.859 182.796 242.406 182.789ZM244.499 170.151C248.019 170.155 251.114 169.252 253.782 167.441C256.451 165.631 258.507 163.207 259.95 160.168C261.447 157.077 262.197 153.744 262.201 150.171C262.205 146.331 261.142 143.316 259.011 141.127C256.88 138.938 253.894 137.842 250.054 137.837C246.534 137.833 243.413 138.737 240.692 140.547C238.023 142.357 235.94 144.782 234.444 147.82C233 150.805 232.277 154.111 232.273 157.738C232.269 161.578 233.332 164.619 235.463 166.861C237.594 169.05 240.606 170.147 244.499 170.151ZM303.296 182.856C297.216 182.849 292.258 181.537 288.421 178.92C284.637 176.249 282.748 172.487 282.753 167.633C282.753 167.153 282.807 166.434 282.915 165.474L297.155 165.489C296.993 167.516 297.471 169.116 298.59 170.291C299.709 171.466 301.415 172.054 303.708 172.057C305.788 172.059 307.415 171.607 308.59 170.702C309.817 169.797 310.432 168.517 310.434 166.864C310.436 165.157 309.664 163.77 308.118 162.701C306.626 161.633 304.281 160.431 301.082 159.094C297.99 157.81 295.458 156.608 293.486 155.485C291.567 154.31 289.889 152.735 288.451 150.76C287.013 148.785 286.296 146.304 286.299 143.317C286.25 139.637 287.16 136.438 289.03 133.72C290.899 131.002 293.488 128.925 296.796 127.489C300.105 126.053 303.892 125.337 308.159 125.342C311.999 125.346 315.411 125.963 318.397 127.193C321.382 128.369 323.7 130.105 325.351 132.401C327.002 134.642 327.826 137.31 327.822 140.403C327.821 141.203 327.794 141.79 327.74 142.163L313.18 142.147C313.234 141.934 313.261 141.614 313.261 141.187C313.263 139.694 312.731 138.493 311.665 137.585C310.653 136.624 309.24 136.143 307.427 136.141C305.507 136.139 303.933 136.617 302.705 137.575C301.531 138.481 300.943 139.734 300.941 141.334C300.94 142.934 301.685 144.294 303.177 145.416C304.669 146.484 306.988 147.74 310.133 149.184C313.278 150.627 315.836 151.963 317.808 153.192C319.834 154.421 321.565 156.076 323.003 158.158C324.441 160.186 325.158 162.694 325.155 165.68C325.151 168.987 324.268 171.946 322.505 174.557C320.743 177.169 318.207 179.219 314.899 180.709C311.59 182.145 307.723 182.861 303.296 182.856ZM359.862 182.919C355.115 182.913 350.93 181.922 347.305 179.945C343.734 177.968 340.964 175.191 338.994 171.616C337.025 168.04 336.042 163.932 336.048 159.292C336.055 152.732 337.474 146.894 340.306 141.777C343.139 136.607 347.063 132.584 352.08 129.71C357.149 126.836 362.884 125.402 369.284 125.409C374.084 125.414 378.296 126.406 381.921 128.383C385.546 130.307 388.343 133.057 390.312 136.632C392.282 140.154 393.264 144.209 393.259 148.796C393.252 155.356 391.832 161.247 389 166.471C386.168 171.641 382.216 175.69 377.147 178.618C372.077 181.492 366.315 182.926 359.862 182.919ZM361.956 170.281C365.476 170.285 368.57 169.382 371.239 167.571C373.907 165.761 375.963 163.336 377.406 160.298C378.903 157.206 379.653 153.874 379.657 150.301C379.661 146.461 378.598 143.446 376.467 141.257C374.336 139.068 371.351 137.971 367.511 137.967C363.991 137.963 360.87 138.866 358.148 140.677C355.479 142.487 353.396 144.911 351.9 147.95C350.457 150.935 349.733 154.241 349.729 157.867C349.725 161.707 350.788 164.749 352.919 166.991C355.05 169.18 358.062 170.277 361.956 170.281ZM447.994 144.376C447.457 147.629 446.201 150.614 444.225 153.332C442.248 155.996 439.553 158.153 436.138 159.803C432.776 161.453 428.802 162.275 424.215 162.27L415.735 162.26L412.113 182.416L398.433 182.401L408.414 126.252L430.574 126.277C436.441 126.283 440.866 127.595 443.85 130.211C446.834 132.775 448.323 136.27 448.318 140.696C448.317 142.03 448.209 143.256 447.994 144.376ZM425.027 151.551C430.147 151.556 433.162 149.16 434.074 144.361C434.182 143.507 434.236 142.894 434.236 142.521C434.238 140.814 433.68 139.507 432.561 138.599C431.495 137.638 429.842 137.156 427.602 137.153L420.162 137.145L417.667 151.542L425.027 151.551ZM509.376 126.364L499.395 182.513L485.715 182.498L489.82 159.222L468.54 159.199L464.435 182.474L450.755 182.459L460.736 126.31L474.416 126.325L470.472 148.401L491.752 148.424L495.696 126.349L509.376 126.364ZM569.811 126.431L543.771 164.002L540.391 182.558L526.711 182.543L530.091 163.987L517.251 126.372L532.771 126.39L539.466 149.837L554.451 126.414L569.811 126.431Z" fill="black"/>
<path d="M51.5914 51.6181L41.7456 49.8684L39.6601 61.6049L51.5806 61.6181L51.5914 51.6181ZM69.5114 51.6379L79.3566 53.3909L81.4467 41.651L69.5222 41.6379L69.5114 51.6379ZM67.6601 62.0358L67.6493 72.0358L76.0354 72.0451L77.5053 63.7889L67.6601 62.0358ZM36.0601 62.0009L26.2145 60.2506L24.1281 71.9877L36.0493 72.0009L36.0601 62.0009ZM46.0409 5.85191L46.0517 -4.14809L37.6633 -4.15735L36.1953 4.10158L46.0409 5.85191ZM59.7209 5.86702L69.5667 7.61673L71.6522 -4.11981L59.7317 -4.13297L59.7209 5.86702ZM51.5806 61.6181L69.5006 61.6379L69.5222 41.6379L51.6022 41.6181L51.5806 61.6181ZM59.6662 49.8848L57.8149 60.2828L77.5053 63.7889L79.3566 53.3909L59.6662 49.8848ZM67.671 52.0358L36.071 52.0009L36.0493 72.0009L67.6493 72.0358L67.671 52.0358ZM45.9058 63.7513L55.8866 7.60224L36.1953 4.10158L26.2145 60.2506L45.9058 63.7513ZM46.0301 15.8519L59.7101 15.867L59.7317 -4.13297L46.0517 -4.14809L46.0301 15.8519ZM49.8751 4.11731L41.7456 49.8684L61.4372 53.3678L69.5667 7.61673L49.8751 4.11731ZM90.7477 59.6613L85.904 68.4099L85.9313 68.425L85.9587 68.4399L90.7477 59.6613ZM82.4367 51.3321L91.1958 46.5076L82.4367 51.3321ZM83.749 21.4936L92.4982 26.3364L92.5088 26.3173L92.5193 26.2981L83.749 21.4936ZM95.5221 9.42657L90.5898 0.727439L90.57 0.738682L90.5502 0.750015L95.5221 9.42657ZM125.364 8.09953L120.575 16.8781L120.625 16.9055L120.675 16.9322L125.364 8.09953ZM133.755 16.3488L124.996 21.1734L125.011 21.2013L125.027 21.2292L133.755 16.3488ZM132.442 46.1874L141.213 50.9919L141.223 50.973L141.233 50.9541L132.442 46.1874ZM120.589 58.3343L125.521 67.0334L125.556 67.0139L125.59 66.9941L120.589 58.3343ZM114.681 47.2878L120.295 55.5632L120.295 55.5632L114.681 47.2878ZM120.849 40.0146L111.848 35.6571L111.832 35.6904L111.816 35.7237L120.849 40.0146ZM119.91 20.9735L127.075 13.9982L127.075 13.9982L119.91 20.9735ZM101.59 20.3933L96.0522 12.0666L96.014 12.0921L95.9761 12.1178L101.59 20.3933ZM95.3423 27.6664L86.3716 23.2474L86.3553 23.2804L86.3394 23.3134L95.3423 27.6664ZM96.3617 46.7075L89.1129 53.5961L89.1544 53.6397L89.1964 53.6828L96.3617 46.7075ZM103.315 52.6352C99.9862 52.6315 97.489 51.9478 95.5367 50.8827L85.9587 68.4399C91.2555 71.3296 97.1295 72.6284 103.294 72.6352L103.315 52.6352ZM95.5914 50.9128C93.669 49.8484 92.256 48.4323 91.1958 46.5076L73.6776 56.1567C76.5564 61.383 80.684 65.5197 85.904 68.4099L95.5914 50.9128ZM91.1958 46.5076C90.1482 44.6056 89.4866 42.2034 89.49 39.0199L69.4901 38.9978C69.4835 45.0944 70.7863 50.9076 73.6776 56.1567L91.1958 46.5076ZM89.49 39.0199C89.4955 33.9411 90.5803 29.8014 92.4982 26.3364L74.9998 16.6507C71.2533 23.4195 69.4988 30.9567 69.4901 38.9978L89.49 39.0199ZM92.5193 26.2981C94.4847 22.7104 97.109 20.0427 100.494 18.1031L90.5502 0.750015C83.9023 4.55931 78.6779 9.93628 74.9787 16.689L92.5193 26.2981ZM100.454 18.1257C103.872 16.1879 107.874 15.1202 112.716 15.1256L112.738 -4.87442C104.78 -4.88321 97.3117 -3.08361 90.5898 0.727439L100.454 18.1257ZM112.716 15.1256C116.119 15.1293 118.638 15.8217 120.575 16.8781L130.153 -0.679071C124.84 -3.57733 118.934 -4.86758 112.738 -4.87442L112.716 15.1256ZM120.675 16.9322C122.592 17.9495 123.97 19.3108 124.996 21.1734L142.514 11.5243C139.601 6.23575 135.385 2.09752 130.052 -0.733178L120.675 16.9322ZM125.027 21.2292C126.052 23.0623 126.705 25.3894 126.701 28.501L146.701 28.5231C146.708 22.4614 145.397 16.6797 142.483 11.4684L125.027 21.2292ZM126.701 28.501C126.696 33.5762 125.612 37.8048 123.651 41.4206L141.233 50.9541C144.937 44.1229 146.693 36.5679 146.701 28.5231L126.701 28.501ZM123.672 41.3828C121.713 44.9589 119.061 47.6692 115.588 49.6745L125.59 66.9941C132.257 63.1439 137.507 57.7563 141.213 50.9919L123.672 41.3828ZM115.657 49.6352C112.252 51.5658 108.226 52.6406 103.315 52.6352L103.294 72.6352C111.289 72.644 118.787 70.8515 125.521 67.0334L115.657 49.6352ZM105.387 59.9975C110.721 60.0034 115.815 58.6027 120.295 55.5632L109.067 39.0123C108.21 39.5936 107.116 39.9994 105.409 39.9975L105.387 59.9975ZM120.295 55.5632C124.503 52.7088 127.709 48.8804 129.882 44.3054L111.816 35.7237C111.103 37.2255 110.197 38.246 109.067 39.0123L120.295 55.5632ZM129.85 44.372C132.029 39.8702 133.094 35.0446 133.1 30.0281L113.1 30.006C113.098 32.1362 112.662 33.9756 111.848 35.6571L129.85 44.372ZM133.1 30.0281C133.106 24.283 131.465 18.5073 127.075 13.9982L112.744 27.9488C112.752 27.9573 112.802 27.9965 112.875 28.2027C112.961 28.4467 113.101 29.0006 113.1 30.006L133.1 30.0281ZM127.075 13.9982C122.608 9.40939 116.766 7.69003 110.964 7.68362L110.942 27.6836C111.926 27.6847 112.434 27.8262 112.624 27.896C112.673 27.9137 112.704 27.928 112.722 27.9368C112.739 27.9456 112.747 27.9506 112.748 27.9509C112.748 27.9513 112.746 27.9498 112.743 27.9472C112.74 27.9446 112.74 27.9445 112.744 27.9488L127.075 13.9982ZM110.964 7.68362C105.629 7.67773 100.545 9.07828 96.0522 12.0666L107.128 28.7199C108.079 28.0876 109.238 27.6817 110.942 27.6836L110.964 7.68362ZM95.9761 12.1178C91.8002 14.9507 88.594 18.7357 86.3716 23.2474L104.313 32.0853C105.084 30.5204 106.043 29.4566 107.204 28.6687L95.9761 12.1178ZM86.3394 23.3134C84.182 27.7756 83.177 32.5855 83.1716 37.5729L103.172 37.595C103.174 35.3291 103.616 33.5273 104.345 32.0193L86.3394 23.3134ZM83.1716 37.5729C83.1654 43.3294 84.8103 49.0684 89.1129 53.5961L103.611 39.819C103.562 39.7679 103.489 39.6841 103.406 39.4444C103.31 39.1703 103.171 38.598 103.172 37.595L83.1716 37.5729ZM89.1964 53.6828C93.6889 58.2978 99.5782 59.9911 105.387 59.9975L105.409 39.9975C104.384 39.9964 103.847 39.8505 103.64 39.7752C103.588 39.7564 103.554 39.7411 103.535 39.7317C103.526 39.7269 103.519 39.7232 103.515 39.721C103.511 39.7187 103.509 39.7175 103.509 39.7174C103.509 39.7173 103.51 39.718 103.512 39.7195C103.514 39.7211 103.516 39.7229 103.519 39.725C103.525 39.7297 103.528 39.7328 103.527 39.7322L89.1964 53.6828ZM144.626 33.9608L134.775 32.2445L134.763 32.3116L134.752 32.3788L144.626 33.9608ZM150.802 19.1676L142.738 13.2536L142.732 13.2623L142.726 13.2711L150.802 19.1676ZM162.733 9.02081L167.236 17.9499L167.275 17.9299L167.315 17.9095L162.733 9.02081ZM194.332 10.2557L188.064 18.0475L188.089 18.0674L188.114 18.0872L194.332 10.2557ZM201.037 23.7831L201.026 33.7831L211.696 33.7949L211.017 23.1474L201.037 23.7831ZM185.997 23.7665L176.619 27.238L179.033 33.7588L185.986 33.7665L185.997 23.7665ZM182.322 19.5225L177.207 28.1154L177.364 28.2086L177.524 28.2961L182.322 19.5225ZM164.559 22.3828L171.302 29.767L171.308 29.7618L164.559 22.3828ZM158.546 33.9762L148.699 32.2336L148.691 32.2774L148.684 32.3213L158.546 33.9762ZM161.572 47.2596L154.753 54.5739L154.753 54.5739L161.572 47.2596ZM180.371 47.9203L185.83 56.2991L185.889 56.2604L185.948 56.2208L180.371 47.9203ZM186.699 40.4873L195.639 44.9693L202.89 30.5052L186.71 30.4873L186.699 40.4873ZM169.419 40.4682L159.559 38.8005L157.588 50.4552L169.408 50.4682L169.419 40.4682ZM171.11 30.4701L171.121 20.4701L162.661 20.4607L161.25 28.8024L171.11 30.4701ZM200.87 30.5029L210.717 32.2481L212.796 20.5161L200.881 20.503L200.87 30.5029ZM198.616 43.2205L207.666 47.4748L208.231 46.2731L208.463 44.9657L198.616 43.2205ZM191.726 52.7329L184.727 45.5906L184.694 45.6222L184.662 45.654L191.726 52.7329ZM181.238 59.8413L177.164 50.7086L181.238 59.8413ZM155.318 59.7326L150.63 68.5654L150.707 68.6063L150.785 68.6459L155.318 59.7326ZM146.927 51.7234L138.206 56.6164L138.235 56.6678L138.264 56.7188L146.927 51.7234ZM154.478 35.6771C155.195 31.56 156.68 28.0759 158.879 25.0642L142.726 13.2711C138.622 18.8924 135.989 25.2704 134.775 32.2445L154.478 35.6771ZM158.866 25.0816C161.156 21.9588 163.922 19.6208 167.236 17.9499L158.231 0.0917016C152.046 3.21032 146.858 7.63686 142.738 13.2536L158.866 25.0816ZM167.315 17.9095C170.589 16.2217 174.154 15.3534 178.166 15.3579L178.188 -4.64213C171.107 -4.64995 164.376 -3.07625 158.151 0.132162L167.315 17.9095ZM178.166 15.3579C183.285 15.3635 186.251 16.5886 188.064 18.0475L200.6 2.46396C194.314 -2.59284 186.509 -4.63294 178.188 -4.64213L178.166 15.3579ZM188.114 18.0872C189.762 19.3961 190.85 21.1605 191.057 24.4189L211.017 23.1474C210.49 14.8849 207.108 7.63107 200.55 2.42418L188.114 18.0872ZM201.048 13.7831L186.008 13.7665L185.986 33.7665L201.026 33.7831L201.048 13.7831ZM195.375 20.295C193.84 16.1489 190.979 12.8593 187.12 10.7488L177.524 28.2961C177.432 28.2462 177.222 28.1074 177.001 27.8513C176.778 27.5944 176.663 27.3574 176.619 27.238L195.375 20.295ZM187.437 10.9295C183.83 8.78295 179.851 7.99972 176.014 7.99548L175.993 27.9955C177.169 27.9968 177.402 28.2315 177.207 28.1154L187.437 10.9295ZM176.014 7.99548C169.14 7.98788 162.899 10.349 157.809 15.0038L171.308 29.7618C172.625 28.5571 174.013 27.9933 175.993 27.9955L176.014 7.99548ZM157.815 14.9987C152.792 19.5863 149.88 25.5617 148.699 32.2336L168.393 35.7188C168.93 32.6859 170.026 30.9325 171.302 29.767L157.815 14.9987ZM148.684 32.3213C148.356 34.2749 148.144 36.2371 148.142 38.1247L168.142 38.1468C168.142 37.6877 168.199 36.8769 168.408 35.6311L148.684 32.3213ZM148.142 38.1247C148.135 44.0792 149.928 50.0761 154.753 54.5739L168.391 39.9452C168.386 39.9409 168.394 39.949 168.402 39.96C168.408 39.9698 168.389 39.9443 168.356 39.8578C168.289 39.679 168.141 39.1657 168.142 38.1468L148.142 38.1247ZM154.753 54.5739C159.453 58.9561 165.466 60.4639 171.318 60.4703L171.339 40.4703C170.056 40.4689 169.275 40.3035 168.855 40.1653C168.651 40.0983 168.534 40.0383 168.477 40.0053C168.422 39.9737 168.4 39.9536 168.391 39.9452L154.753 54.5739ZM171.318 60.4703C176.484 60.476 181.436 59.1616 185.83 56.2991L174.912 39.5416C174.076 40.0866 173 40.4722 171.339 40.4703L171.318 60.4703ZM185.948 56.2208C190.18 53.3778 193.369 49.4968 195.639 44.9693L177.76 36.0053C176.823 37.8743 175.793 38.9486 174.794 39.6198L185.948 56.2208ZM186.71 30.4873L169.43 30.4682L169.408 50.4682L186.688 50.4873L186.71 30.4873ZM179.279 42.1359L180.97 32.1377L161.25 28.8024L159.559 38.8005L179.279 42.1359ZM171.099 40.4701L200.859 40.5029L200.881 20.503L171.121 20.4701L171.099 40.4701ZM191.023 28.7578L188.77 41.4753L208.463 44.9657L210.717 32.2481L191.023 28.7578ZM189.566 38.9661C188.522 41.1882 186.96 43.4019 184.727 45.5906L198.725 59.8751C202.472 56.2038 205.503 52.0758 207.666 47.4748L189.566 38.9661ZM184.662 45.654C182.648 47.6639 180.185 49.3611 177.164 50.7086L185.312 68.974C190.402 66.7037 194.931 63.662 198.789 59.8117L184.662 45.654ZM177.164 50.7086C174.467 51.9118 171.494 52.5505 168.126 52.5468L168.104 72.5468C174.123 72.5534 179.899 71.3885 185.312 68.974L177.164 50.7086ZM168.126 52.5468C164.569 52.5429 161.902 51.862 159.852 50.8194L150.785 68.6459C156.091 71.3448 161.955 72.54 168.104 72.5468L168.126 52.5468ZM160.007 50.8999C157.97 49.8187 156.582 48.4482 155.59 46.7279L138.264 56.7188C141.211 61.8296 145.418 65.7986 150.63 68.5654L160.007 50.8999ZM155.648 46.8304C154.696 45.1342 154.057 42.9005 154.06 39.8112L134.06 39.7892C134.053 45.7666 135.325 51.4816 138.206 56.6164L155.648 46.8304ZM154.06 39.8112C154.061 38.9907 154.169 37.6136 154.5 35.5429L134.752 32.3788C134.332 35.0005 134.062 37.5164 134.06 39.7892L154.06 39.8112ZM219.376 59.8034L214.532 68.5519L214.559 68.5671L214.587 68.582L219.376 59.8034ZM211.065 51.4742L219.824 46.6497L211.065 51.4742ZM212.377 21.6357L221.126 26.4785L221.137 26.4594L221.147 26.4402L212.377 21.6357ZM224.15 9.56865L219.218 0.869522L219.198 0.880765L219.178 0.892097L224.15 9.56865ZM253.992 8.24161L249.203 17.0202L249.253 17.0476L249.303 17.0743L253.992 8.24161ZM262.383 16.4909L253.624 21.3154L253.639 21.3434L253.655 21.3713L262.383 16.4909ZM261.07 46.3295L269.841 51.134L269.851 51.1151L269.861 51.0962L261.07 46.3295ZM249.217 58.4764L254.149 67.1755L254.184 67.156L254.218 67.1362L249.217 58.4764ZM243.309 47.4298L248.923 55.7053L248.923 55.7053L243.309 47.4298ZM249.477 40.1566L240.476 35.7992L240.46 35.8324L240.444 35.8658L249.477 40.1566ZM248.538 21.1156L255.703 14.1403L255.703 14.1403L248.538 21.1156ZM230.218 20.5354L224.68 12.2087L224.642 12.2341L224.604 12.2599L230.218 20.5354ZM223.97 27.8085L215 23.3895L214.983 23.4225L214.967 23.4555L223.97 27.8085ZM224.99 46.8496L217.741 53.7382L217.782 53.7818L217.824 53.8249L224.99 46.8496ZM231.943 52.7773C228.614 52.7736 226.117 52.0899 224.165 51.0248L214.587 68.582C219.884 71.4716 225.758 72.7705 231.922 72.7773L231.943 52.7773ZM224.219 51.0549C222.297 49.9905 220.884 48.5744 219.824 46.6497L202.306 56.2988C205.184 61.5251 209.312 65.6617 214.532 68.5519L224.219 51.0549ZM219.824 46.6497C218.776 44.7477 218.115 42.3455 218.118 39.162L198.118 39.1399C198.112 45.2365 199.414 51.0497 202.306 56.2988L219.824 46.6497ZM218.118 39.162C218.124 34.0832 219.208 29.9435 221.126 26.4785L203.628 16.7928C199.881 23.5616 198.127 31.0988 198.118 39.1399L218.118 39.162ZM221.147 26.4402C223.113 22.8525 225.737 20.1848 229.122 18.2452L219.178 0.892097C212.53 4.7014 207.306 10.0784 203.607 16.8311L221.147 26.4402ZM229.082 18.2678C232.5 16.33 236.502 15.2623 241.344 15.2676L241.366 -4.73234C233.408 -4.74113 225.94 -2.94153 219.218 0.869522L229.082 18.2678ZM241.344 15.2676C244.747 15.2714 247.266 15.9638 249.203 17.0202L258.781 -0.536989C253.468 -3.43525 247.562 -4.7255 241.366 -4.73234L241.344 15.2676ZM249.303 17.0743C251.22 18.0916 252.598 19.4529 253.624 21.3154L271.142 11.6663C268.229 6.37783 264.013 2.2396 258.68 -0.591095L249.303 17.0743ZM253.655 21.3713C254.68 23.2044 255.333 25.5315 255.33 28.6431L275.329 28.6652C275.336 22.6035 274.025 16.8217 271.111 11.6105L253.655 21.3713ZM255.33 28.6431C255.324 33.7183 254.24 37.9469 252.279 41.5627L269.861 51.0962C273.565 44.265 275.321 36.71 275.329 28.6652L255.33 28.6431ZM252.3 41.5249C250.341 45.1009 247.689 47.8113 244.216 49.8166L254.218 67.1362C260.885 63.286 266.135 57.8984 269.841 51.134L252.3 41.5249ZM244.285 49.7772C240.88 51.7079 236.854 52.7827 231.943 52.7773L231.922 72.7773C239.917 72.7861 247.415 70.9936 254.149 67.1755L244.285 49.7772ZM234.015 60.1396C239.349 60.1455 244.443 58.7448 248.923 55.7053L237.695 39.1544C236.838 39.7357 235.744 40.1415 234.037 40.1396L234.015 60.1396ZM248.923 55.7053C253.131 52.8508 256.337 49.0225 258.51 44.4475L240.444 35.8658C239.731 37.3676 238.825 38.3881 237.695 39.1544L248.923 55.7053ZM258.478 44.5141C260.657 40.0122 261.722 35.1867 261.728 30.1702L241.728 30.1481C241.726 32.2783 241.29 34.1177 240.476 35.7992L258.478 44.5141ZM261.728 30.1702C261.734 24.4251 260.093 18.6494 255.703 14.1403L241.372 28.0909C241.381 28.0994 241.43 28.1386 241.503 28.3448C241.589 28.5887 241.729 29.1427 241.728 30.1481L261.728 30.1702ZM255.703 14.1403C251.236 9.55147 245.394 7.83212 239.592 7.82571L239.57 27.8257C240.554 27.8268 241.062 27.9683 241.253 28.0381C241.301 28.0558 241.332 28.0701 241.35 28.0789C241.367 28.0876 241.375 28.0926 241.376 28.093C241.376 28.0933 241.374 28.0919 241.371 28.0893C241.368 28.0867 241.368 28.0866 241.372 28.0909L255.703 14.1403ZM239.592 7.82571C234.257 7.81981 229.174 9.22036 224.68 12.2087L235.756 28.862C236.707 28.2297 237.866 27.8238 239.57 27.8257L239.592 7.82571ZM224.604 12.2599C220.428 15.0928 217.222 18.8777 215 23.3895L232.941 32.2274C233.712 30.6625 234.671 29.5987 235.832 28.8108L224.604 12.2599ZM214.967 23.4555C212.81 27.9177 211.805 32.7276 211.8 37.715L231.8 37.7371C231.802 35.4712 232.244 33.6694 232.973 32.1614L214.967 23.4555ZM211.8 37.715C211.793 43.4715 213.438 49.2105 217.741 53.7382L232.239 39.9611C232.19 39.9099 232.117 39.8262 232.034 39.5865C231.938 39.3123 231.799 38.7401 231.8 37.7371L211.8 37.715ZM217.824 53.8249C222.317 58.4399 228.206 60.1332 234.015 60.1396L234.037 40.1396C233.012 40.1385 232.475 39.9926 232.268 39.9173C232.216 39.8985 232.183 39.8831 232.163 39.8737C232.154 39.869 232.147 39.8653 232.143 39.8631C232.139 39.8608 232.137 39.8596 232.137 39.8595C232.137 39.8594 232.138 39.8601 232.14 39.8616C232.142 39.8631 232.144 39.865 232.147 39.8671C232.153 39.8718 232.156 39.8749 232.155 39.8743L217.824 53.8249ZM85.4915 143.976L75.6701 142.094L75.6459 142.22L75.6249 142.347L85.4915 143.976ZM81.7218 152.931L89.7537 158.889L89.7818 158.851L89.8096 158.813L81.7218 152.931ZM73.6347 159.402L69.2852 150.398L69.2573 150.411L69.2294 150.425L73.6347 159.402ZM53.2321 161.86L53.2429 151.86L44.8704 151.851L43.3897 160.091L53.2321 161.86ZM49.6103 182.016L49.5994 192.016L57.9719 192.025L59.4526 183.785L49.6103 182.016ZM35.9303 182.001L26.0846 180.251L23.9983 191.988L35.9194 192.001L35.9303 182.001ZM45.911 125.852L45.9219 115.852L37.5334 115.843L36.0654 124.102L45.911 125.852ZM81.3468 129.811L74.7536 137.329L74.792 137.363L74.8306 137.396L81.3468 129.811ZM71.5715 143.96L81.3957 145.827L81.4539 145.521L81.4929 145.212L71.5715 143.96ZM70.0577 138.199L63.36 145.624L63.5542 145.799L63.7573 145.964L70.0577 138.199ZM57.6593 136.745L57.6701 126.745L49.2451 126.736L47.8062 135.037L57.6593 136.745ZM55.1637 151.142L45.3106 149.434L43.2834 161.129L55.1529 161.142L55.1637 151.142ZM75.6249 142.347C75.3467 144.032 74.7125 145.567 73.6339 147.05L89.8096 158.813C92.6835 154.86 94.5625 150.424 95.358 145.604L75.6249 142.347ZM73.6898 146.974C72.8067 148.165 71.4547 149.35 69.2852 150.398L77.9843 168.407C82.645 166.156 86.6844 163.027 89.7537 158.889L73.6898 146.974ZM69.2294 150.425C67.5163 151.266 65.1167 151.873 61.7229 151.869L61.7012 171.869C67.4808 171.876 73.0296 170.839 78.0401 168.38L69.2294 150.425ZM61.7229 151.869L53.2429 151.86L53.2213 171.86L61.7012 171.869L61.7229 151.869ZM43.3897 160.091L39.7679 180.247L59.4526 183.785L63.0744 163.629L43.3897 160.091ZM49.6211 172.016L35.9411 172.001L35.9194 192.001L49.5994 192.016L49.6211 172.016ZM45.7759 183.751L55.7567 127.602L36.0654 124.102L26.0846 180.251L45.7759 183.751ZM45.9002 135.852L68.0602 135.876L68.0819 115.876L45.9219 115.852L45.9002 135.852ZM68.0602 135.876C72.634 135.881 74.2908 136.924 74.7536 137.329L87.94 122.292C82.4351 117.465 75.2414 115.884 68.0819 115.876L68.0602 135.876ZM74.8306 137.396C75.3072 137.806 75.8175 138.368 75.8154 140.285L95.8154 140.307C95.8229 133.371 93.3541 126.943 87.8629 122.226L74.8306 137.396ZM75.8154 140.285C75.8146 141.093 75.7486 141.684 75.6701 142.094L95.3128 145.858C95.6634 144.028 95.8134 142.166 95.8154 140.307L75.8154 140.285ZM62.5128 161.15C66.5902 161.155 71.0603 160.195 74.8472 157.186C78.6915 154.131 80.6157 149.932 81.3957 145.827L61.7472 142.093C61.6776 142.46 61.6224 142.488 61.7155 142.318C61.8234 142.12 62.0457 141.813 62.404 141.528C62.7567 141.248 63.0541 141.138 63.1494 141.11C63.2189 141.089 63.0479 141.151 62.5345 141.15L62.5128 161.15ZM81.4929 145.212C81.6032 144.337 81.7323 143.183 81.7334 142.131L61.7335 142.109C61.7336 141.976 61.7381 141.897 61.7383 141.895C61.7387 141.886 61.7373 141.913 61.7312 141.983C61.7185 142.127 61.6938 142.362 61.65 142.709L81.4929 145.212ZM81.7334 142.131C81.7379 138.027 80.2625 133.601 76.3581 130.433L63.7573 145.964C63.0721 145.408 62.4888 144.652 62.1202 143.789C61.7719 142.974 61.7332 142.344 61.7335 142.109L81.7334 142.131ZM76.7554 130.773C73.0642 127.444 68.4936 126.757 65.1101 126.753L65.0884 146.753C65.532 146.754 65.5245 146.805 65.2204 146.717C64.8851 146.619 64.1479 146.335 63.36 145.624L76.7554 130.773ZM65.1101 126.753L57.6701 126.745L57.6484 146.745L65.0884 146.753L65.1101 126.753ZM47.8062 135.037L45.3106 149.434L65.0168 152.85L67.5123 138.453L47.8062 135.037ZM55.1529 161.142L62.5128 161.15L62.5345 141.15L55.1745 141.142L55.1529 161.142ZM146.873 125.963L156.719 127.714L158.805 115.977L146.884 115.963L146.873 125.963ZM136.892 182.112L136.881 192.112L145.27 192.122L146.738 183.863L136.892 182.112ZM123.212 182.097L113.364 180.36L111.296 192.084L123.201 192.097L123.212 182.097ZM127.317 158.822L137.165 160.559L139.233 148.835L127.328 148.822L127.317 158.822ZM106.037 158.798L106.048 148.798L97.6483 148.789L96.1893 157.061L106.037 158.798ZM101.932 182.074L101.921 192.074L110.321 192.083L111.78 183.811L101.932 182.074ZM88.2521 182.059L78.4064 180.308L76.3201 192.045L88.2413 192.059L88.2521 182.059ZM98.2329 125.91L98.2437 115.91L89.8553 115.9L88.3872 124.159L98.2329 125.91ZM111.913 125.925L121.757 127.684L123.855 115.938L111.924 115.925L111.913 125.925ZM107.969 148L98.1248 146.241L96.0264 157.987L107.958 158L107.969 148ZM129.249 148.024L129.238 158.024L137.619 158.033L139.093 149.783L129.249 148.024ZM133.193 125.948L133.204 115.948L124.823 115.939L123.349 124.189L133.193 125.948ZM137.027 124.213L127.046 180.362L146.738 183.863L156.719 127.714L137.027 124.213ZM136.903 172.112L123.223 172.097L123.201 192.097L136.881 192.112L136.903 172.112ZM133.06 183.834L137.165 160.559L117.469 157.085L113.364 180.36L133.06 183.834ZM127.328 148.822L106.048 148.798L106.026 168.798L127.306 168.822L127.328 148.822ZM96.1893 157.061L92.0841 180.337L111.78 183.811L115.885 160.535L96.1893 157.061ZM101.943 172.074L88.2629 172.059L88.2413 192.059L101.921 192.074L101.943 172.074ZM98.0978 183.809L108.079 127.66L88.3872 124.159L78.4064 180.308L98.0978 183.809ZM98.2221 135.91L111.902 135.925L111.924 115.925L98.2437 115.91L98.2221 135.91ZM102.069 124.166L98.1248 146.241L117.813 149.759L121.757 127.684L102.069 124.166ZM107.958 158L129.238 158.024L129.26 138.024L107.98 138L107.958 158ZM139.093 149.783L143.037 127.707L123.349 124.189L119.405 146.265L139.093 149.783ZM133.182 135.948L146.862 135.963L146.884 115.963L133.204 115.948L133.182 135.948ZM172.828 125.992L182.674 127.742L184.76 116.005L172.839 115.992L172.828 125.992ZM162.848 182.141L162.837 192.141L171.225 192.15L172.693 183.891L162.848 182.141ZM149.168 182.126L139.322 180.376L137.236 192.113L149.157 192.126L149.168 182.126ZM159.148 125.977L159.159 115.977L150.771 115.968L149.303 124.227L159.148 125.977ZM162.983 124.242L153.002 180.391L172.693 183.891L182.674 127.742L162.983 124.242ZM162.859 172.141L149.179 172.126L149.157 192.126L162.837 192.141L162.859 172.141ZM159.013 183.876L168.994 127.727L149.303 124.227L139.322 180.376L159.013 183.876ZM159.138 135.977L172.818 135.992L172.839 115.992L159.159 115.977L159.138 135.977ZM190.693 171.772L180.847 170.022L178.761 181.759L190.682 181.772L190.693 171.772ZM208.613 171.792L218.458 173.545L220.548 161.805L208.623 161.792L208.613 171.792ZM206.761 182.19L206.751 192.19L215.137 192.199L216.607 183.943L206.761 182.19ZM175.161 182.155L165.316 180.404L163.229 192.141L175.151 192.155L175.161 182.155ZM185.142 126.006L185.153 116.006L176.765 115.996L175.297 124.255L185.142 126.006ZM198.822 126.021L208.668 127.77L210.753 116.034L198.833 116.021L198.822 126.021ZM190.682 181.772L208.602 181.792L208.623 161.792L190.703 161.772L190.682 181.772ZM198.767 170.039L196.916 180.436L216.607 183.943L218.458 173.545L198.767 170.039ZM206.772 172.19L175.172 172.155L175.151 192.155L206.751 192.19L206.772 172.19ZM185.007 183.905L194.988 127.756L175.297 124.255L165.316 180.404L185.007 183.905ZM185.131 136.006L198.811 136.021L198.833 116.021L185.153 116.006L185.131 136.006ZM188.976 124.271L180.847 170.022L200.538 173.522L208.668 127.77L188.976 124.271ZM229.849 179.815L225.005 188.564L225.033 188.579L225.06 188.594L229.849 179.815ZM221.538 171.486L230.297 166.661L221.538 171.486ZM222.85 141.647L231.6 146.49L231.61 146.471L231.621 146.452L222.85 141.647ZM234.623 129.58L229.691 120.881L229.671 120.892L229.652 120.904L234.623 129.58ZM264.465 128.253L259.676 137.032L259.726 137.059L259.776 137.086L264.465 128.253ZM272.856 136.503L264.097 141.327L264.112 141.355L264.128 141.383L272.856 136.503ZM271.544 166.341L280.314 171.146L280.324 171.127L280.335 171.108L271.544 166.341ZM259.69 178.488L264.623 187.187L264.657 187.168L264.691 187.148L259.69 178.488ZM253.782 167.441L259.397 175.717L253.782 167.441ZM259.95 160.168L250.949 155.811L250.933 155.844L250.918 155.877L259.95 160.168ZM259.011 141.127L266.176 134.152L259.011 141.127ZM240.692 140.547L235.154 132.22L235.115 132.246L235.077 132.272L240.692 140.547ZM234.444 147.82L225.473 143.401L225.457 143.434L225.441 143.467L234.444 147.82ZM235.463 166.861L228.214 173.75L228.256 173.793L228.298 173.837L235.463 166.861ZM242.417 172.789C239.087 172.785 236.59 172.102 234.638 171.036L225.06 188.594C230.357 191.483 236.231 192.782 242.395 192.789L242.417 172.789ZM234.693 171.067C232.77 170.002 231.357 168.586 230.297 166.661L212.779 176.31C215.658 181.537 219.785 185.673 225.005 188.564L234.693 171.067ZM230.297 166.661C229.249 164.759 228.588 162.357 228.591 159.174L208.591 159.152C208.585 165.248 209.888 171.061 212.779 176.31L230.297 166.661ZM228.591 159.174C228.597 154.095 229.682 149.955 231.6 146.49L214.101 136.804C210.355 143.573 208.6 151.11 208.591 159.152L228.591 159.174ZM231.621 146.452C233.586 142.864 236.21 140.196 239.595 138.257L229.652 120.904C223.004 124.713 217.779 130.09 214.08 136.843L231.621 146.452ZM239.556 138.279C242.973 136.342 246.975 135.274 251.817 135.279L251.839 115.279C243.881 115.271 236.413 117.07 229.691 120.881L239.556 138.279ZM251.817 135.279C255.221 135.283 257.739 135.975 259.676 137.032L269.254 119.475C263.941 116.576 258.036 115.286 251.839 115.279L251.817 135.279ZM259.776 137.086C261.693 138.103 263.071 139.465 264.097 141.327L281.615 131.678C278.702 126.389 274.486 122.251 269.153 119.421L259.776 137.086ZM264.128 141.383C265.153 143.216 265.806 145.543 265.803 148.655L285.803 148.677C285.809 142.615 284.498 136.833 281.584 131.622L264.128 141.383ZM265.803 148.655C265.797 153.73 264.713 157.959 262.753 161.574L280.335 171.108C284.039 164.277 285.794 156.722 285.803 148.677L265.803 148.655ZM262.773 161.537C260.814 165.113 258.162 167.823 254.689 169.828L264.691 187.148C271.359 183.298 276.608 177.91 280.314 171.146L262.773 161.537ZM254.758 169.789C251.353 171.72 247.328 172.794 242.417 172.789L242.395 192.789C250.391 192.798 257.888 191.005 264.623 187.187L254.758 169.789ZM244.489 180.151C249.822 180.157 254.916 178.756 259.397 175.717L248.168 159.166C247.311 159.747 246.217 160.153 244.51 160.151L244.489 180.151ZM259.397 175.717C263.604 172.862 266.81 169.034 268.983 164.459L250.918 155.877C250.204 157.379 249.298 158.4 248.168 159.166L259.397 175.717ZM268.951 164.526C271.13 160.024 272.196 155.198 272.201 150.182L252.201 150.16C252.199 152.29 251.763 154.129 250.949 155.811L268.951 164.526ZM272.201 150.182C272.207 144.437 270.566 138.661 266.176 134.152L251.846 148.103C251.854 148.111 251.904 148.15 251.976 148.356C252.062 148.6 252.202 149.154 252.201 150.16L272.201 150.182ZM266.176 134.152C261.709 129.563 255.867 127.844 250.065 127.837L250.044 147.837C251.027 147.838 251.536 147.98 251.726 148.05C251.774 148.067 251.805 148.082 251.823 148.091C251.841 148.099 251.848 148.104 251.849 148.105C251.85 148.105 251.847 148.104 251.844 148.101C251.841 148.098 251.841 148.098 251.846 148.103L266.176 134.152ZM250.065 127.837C244.73 127.831 239.647 129.232 235.154 132.22L246.229 148.874C247.18 148.241 248.339 147.835 250.044 147.837L250.065 127.837ZM235.077 132.272C230.901 135.104 227.695 138.889 225.473 143.401L243.414 152.239C244.185 150.674 245.144 149.61 246.306 148.822L235.077 132.272ZM225.441 143.467C223.283 147.929 222.278 152.739 222.273 157.727L242.273 157.749C242.275 155.483 242.718 153.681 243.447 152.173L225.441 143.467ZM222.273 157.727C222.267 163.483 223.912 169.222 228.214 173.75L242.712 159.973C242.663 159.922 242.591 159.838 242.507 159.598C242.411 159.324 242.272 158.752 242.273 157.749L222.273 157.727ZM228.298 173.837C232.79 178.452 238.68 180.145 244.489 180.151L244.51 160.151C243.485 160.15 242.948 160.004 242.741 159.929C242.69 159.91 242.656 159.895 242.637 159.885C242.627 159.881 242.62 159.877 242.616 159.875C242.612 159.872 242.61 159.871 242.61 159.871C242.61 159.871 242.611 159.872 242.613 159.873C242.615 159.875 242.618 159.877 242.62 159.879C242.626 159.883 242.629 159.887 242.628 159.886L228.298 173.837ZM288.421 178.92L282.654 187.089L282.719 187.136L282.785 187.181L288.421 178.92ZM282.915 165.474L282.926 155.474L273.976 155.464L272.978 164.358L282.915 165.474ZM297.155 165.489L307.123 166.287L307.987 155.501L297.166 155.489L297.155 165.489ZM308.59 170.702L302.654 162.654L302.568 162.717L302.484 162.782L308.59 170.702ZM308.118 162.701L302.297 170.832L302.364 170.88L302.432 170.927L308.118 162.701ZM301.082 159.094L304.938 149.867L304.927 149.862L304.916 149.858L301.082 159.094ZM293.486 155.485L288.262 164.012L288.4 164.097L288.541 164.177L293.486 155.485ZM288.451 150.76L280.367 156.646L288.451 150.76ZM286.299 143.317L296.299 143.328L296.299 143.256L296.298 143.184L286.299 143.317ZM296.796 127.489L292.814 118.316L296.796 127.489ZM318.397 127.193L314.587 136.439L314.659 136.468L314.73 136.496L318.397 127.193ZM325.351 132.401L317.233 138.24L317.266 138.285L317.299 138.33L325.351 132.401ZM327.74 142.163L327.73 152.163L336.403 152.173L337.638 143.588L327.74 142.163ZM313.18 142.147L303.482 139.711L300.362 152.133L313.17 152.147L313.18 142.147ZM311.665 137.585L304.78 144.837L304.976 145.023L305.181 145.198L311.665 137.585ZM302.705 137.575L308.811 145.495L308.836 145.476L308.86 145.457L302.705 137.575ZM303.177 145.416L297.168 153.409L297.261 153.479L297.356 153.547L303.177 145.416ZM310.133 149.184L314.304 140.095L314.304 140.095L310.133 149.184ZM317.808 153.192L312.52 161.679L312.57 161.711L312.621 161.741L317.808 153.192ZM323.003 158.158L314.775 163.841L314.81 163.891L314.845 163.941L323.003 158.158ZM322.505 174.557L330.794 180.153L322.505 174.557ZM314.899 180.709L318.881 189.882L318.943 189.855L319.005 189.827L314.899 180.709ZM303.307 172.856C298.621 172.851 295.792 171.843 294.056 170.659L282.785 187.181C288.723 191.231 295.812 192.848 303.286 192.856L303.307 172.856ZM294.187 170.75C293.208 170.059 292.751 169.429 292.753 167.645L272.753 167.622C272.744 175.544 276.065 182.439 282.654 187.089L294.187 170.75ZM292.753 167.645C292.753 167.74 292.749 167.706 292.766 167.483C292.781 167.278 292.808 166.985 292.853 166.589L272.978 164.358C272.861 165.396 272.754 166.567 272.753 167.622L292.753 167.645ZM282.904 175.474L297.144 175.489L297.166 155.489L282.926 155.474L282.904 175.474ZM287.187 164.691C286.86 168.782 287.791 173.452 291.349 177.188L305.831 163.394C306.392 163.983 306.775 164.683 306.974 165.347C307.157 165.959 307.12 166.327 307.123 166.287L287.187 164.691ZM291.349 177.188C295.022 181.044 299.823 182.052 303.697 182.057L303.719 162.057C303.393 162.056 303.538 162.011 303.97 162.16C304.456 162.328 305.168 162.698 305.831 163.394L291.349 177.188ZM303.697 182.057C307.118 182.06 311.185 181.328 314.695 178.622L302.484 162.782C303.051 162.345 303.555 162.156 303.814 162.084C304.05 162.019 304.053 162.057 303.719 162.057L303.697 182.057ZM314.525 178.75C318.544 175.786 320.429 171.391 320.434 166.875L300.434 166.853C300.434 166.43 300.519 165.646 300.958 164.732C301.41 163.791 302.055 163.096 302.654 162.654L314.525 178.75ZM320.434 166.875C320.439 161.51 317.735 157.193 313.804 154.476L302.432 170.927C302.172 170.748 301.602 170.276 301.117 169.404C300.613 168.497 300.433 167.573 300.434 166.853L320.434 166.875ZM313.939 154.571C311.514 152.834 308.334 151.286 304.938 149.867L297.226 168.32C300.228 169.575 301.738 170.432 302.297 170.832L313.939 154.571ZM304.916 149.858C302.044 148.666 299.92 147.641 298.431 146.794L288.541 164.177C290.997 165.574 293.936 166.955 297.249 168.33L304.916 149.858ZM298.71 146.958C298.001 146.524 297.269 145.881 296.535 144.874L280.367 156.646C282.509 159.588 285.134 162.096 288.262 164.012L298.71 146.958ZM296.535 144.874C296.532 144.869 296.523 144.857 296.51 144.83C296.497 144.802 296.471 144.742 296.441 144.64C296.382 144.435 296.298 144.022 296.299 143.328L276.299 143.306C276.294 147.931 277.426 152.606 280.367 156.646L296.535 144.874ZM296.298 143.184C296.273 141.323 296.706 140.206 297.269 139.388L280.791 128.053C277.614 132.671 276.226 137.952 276.3 143.451L296.298 143.184ZM297.269 139.388C297.978 138.357 299.024 137.424 300.779 136.662L292.814 118.316C287.952 120.427 283.821 123.648 280.791 128.053L297.269 139.388ZM300.779 136.662C302.618 135.863 305.007 135.338 308.148 135.342L308.169 115.342C302.777 115.336 297.591 116.242 292.814 118.316L300.779 136.662ZM308.148 135.342C310.927 135.345 313.012 135.79 314.587 136.439L322.206 117.947C317.81 116.136 313.071 115.347 308.169 115.342L308.148 135.342ZM314.73 136.496C316.178 137.067 316.849 137.706 317.233 138.24L333.469 126.561C330.552 122.505 326.586 119.672 322.063 117.889L314.73 136.496ZM317.299 138.33C317.542 138.66 317.824 139.187 317.822 140.392L337.822 140.414C337.828 135.433 336.462 130.624 333.403 126.471L317.299 138.33ZM317.822 140.392C317.822 140.691 317.817 140.879 317.812 140.978C317.81 141.025 317.809 141.031 317.811 141.002C317.813 140.977 317.822 140.883 317.842 140.738L337.638 143.588C337.799 142.47 337.821 141.285 337.822 140.414L317.822 140.392ZM327.751 132.163L313.191 132.147L313.17 152.147L327.73 152.163L327.751 132.163ZM322.879 144.583C323.24 143.146 323.261 141.83 323.261 141.198L303.261 141.176C303.261 141.196 303.26 141.094 303.276 140.906C303.29 140.749 303.332 140.306 303.482 139.711L322.879 144.583ZM323.261 141.198C323.266 136.994 321.613 132.923 318.15 129.973L305.181 145.198C304.649 144.745 304.103 144.079 303.721 143.218C303.347 142.375 303.261 141.637 303.261 141.176L323.261 141.198ZM318.551 130.333C315.179 127.132 311.018 126.145 307.438 126.141L307.416 146.141C307.456 146.141 307.144 146.147 306.62 145.969C306.058 145.777 305.391 145.418 304.78 144.837L318.551 130.333ZM307.438 126.141C303.816 126.137 299.918 127.065 296.551 129.694L308.86 145.457C308.451 145.777 308.037 145.968 307.714 146.066C307.412 146.158 307.284 146.141 307.416 146.141L307.438 126.141ZM296.599 129.656C292.757 132.618 290.946 136.908 290.941 141.323L310.941 141.345C310.941 141.782 310.855 142.551 310.436 143.443C310.006 144.36 309.392 145.047 308.811 145.495L296.599 129.656ZM290.941 141.323C290.936 146.621 293.636 150.754 297.168 153.409L309.186 137.423C309.35 137.546 309.835 137.957 310.27 138.751C310.731 139.594 310.942 140.517 310.941 141.345L290.941 141.323ZM297.356 153.547C299.637 155.18 302.65 156.752 305.962 158.272L314.304 140.095C311.325 138.728 309.701 137.788 308.998 137.285L297.356 153.547ZM305.962 158.272C308.889 159.616 311.035 160.754 312.52 161.679L323.097 144.705C320.638 143.173 317.667 141.639 314.304 140.095L305.962 158.272ZM312.621 161.741C313.362 162.191 314.082 162.838 314.775 163.841L331.231 152.475C329.048 149.314 326.306 146.651 322.996 144.643L312.621 161.741ZM314.845 163.941C314.857 163.958 315.156 164.331 315.155 165.669L335.155 165.691C335.16 161.056 334.025 156.414 331.161 152.375L314.845 163.941ZM315.155 165.669C315.153 167.09 314.81 168.085 314.217 168.962L330.794 180.153C333.727 175.807 335.149 170.884 335.155 165.691L315.155 165.669ZM314.217 168.962C313.644 169.812 312.669 170.746 310.793 171.591L319.005 189.827C323.745 187.693 327.841 184.526 330.794 180.153L314.217 168.962ZM310.916 171.536C309.12 172.316 306.664 172.86 303.307 172.856L303.286 192.856C308.782 192.862 314.061 191.975 318.881 189.882L310.916 171.536ZM347.305 179.945L342.461 188.693L342.489 188.708L342.516 188.723L347.305 179.945ZM338.994 171.616L347.753 166.791L338.994 171.616ZM340.306 141.777L349.056 146.62L349.066 146.601L349.077 146.582L340.306 141.777ZM352.08 129.71L347.147 121.011L347.127 121.022L347.108 121.033L352.08 129.71ZM381.921 128.383L377.132 137.162L377.182 137.189L377.233 137.216L381.921 128.383ZM390.312 136.632L381.553 141.457L381.568 141.485L381.584 141.513L390.312 136.632ZM389 166.471L397.77 171.275L397.78 171.257L397.791 171.238L389 166.471ZM377.147 178.618L382.079 187.317L382.113 187.297L382.148 187.278L377.147 178.618ZM371.239 167.571L376.853 175.847L371.239 167.571ZM377.406 160.298L368.406 155.941L368.39 155.974L368.374 156.007L377.406 160.298ZM376.467 141.257L383.632 134.282L376.467 141.257ZM358.148 140.677L352.61 132.35L352.571 132.376L352.534 132.401L358.148 140.677ZM351.9 147.95L342.929 143.531L342.913 143.564L342.897 143.597L351.9 147.95ZM352.919 166.991L345.67 173.88L345.712 173.923L345.754 173.966L352.919 166.991ZM359.873 172.919C356.544 172.915 354.046 172.231 352.094 171.166L342.516 188.723C347.813 191.613 353.687 192.912 359.851 192.919L359.873 172.919ZM352.149 171.196C350.226 170.132 348.813 168.716 347.753 166.791L330.235 176.44C333.114 181.666 337.241 185.803 342.461 188.693L352.149 171.196ZM347.753 166.791C346.706 164.889 346.044 162.487 346.048 159.303L326.048 159.281C326.041 165.378 327.344 171.191 330.235 176.44L347.753 166.791ZM346.048 159.303C346.053 154.225 347.138 150.085 349.056 146.62L331.557 136.934C327.811 143.703 326.056 151.24 326.048 159.281L346.048 159.303ZM349.077 146.582C351.042 142.994 353.666 140.326 357.051 138.387L347.108 121.033C340.46 124.843 335.235 130.22 331.536 136.972L349.077 146.582ZM357.012 138.409C360.43 136.471 364.431 135.404 369.273 135.409L369.295 115.409C361.337 115.4 353.869 117.2 347.147 121.011L357.012 138.409ZM369.273 135.409C372.677 135.413 375.196 136.105 377.132 137.162L386.71 119.604C381.397 116.706 375.492 115.416 369.295 115.409L369.273 135.409ZM377.233 137.216C379.149 138.233 380.527 139.594 381.553 141.457L399.071 131.808C396.158 126.519 391.942 122.381 386.609 119.55L377.233 137.216ZM381.584 141.513C382.609 143.346 383.262 145.673 383.259 148.784L403.259 148.807C403.265 142.745 401.954 136.963 399.04 131.752L381.584 141.513ZM383.259 148.784C383.253 153.86 382.169 158.088 380.209 161.704L397.791 171.238C401.495 164.406 403.25 156.851 403.259 148.807L383.259 148.784ZM380.229 161.666C378.271 165.242 375.618 167.953 372.146 169.958L382.148 187.278C388.815 183.427 394.065 178.04 397.77 171.275L380.229 161.666ZM372.214 169.919C368.809 171.849 364.784 172.924 359.873 172.919L359.851 192.919C367.847 192.927 375.345 191.135 382.079 187.317L372.214 169.919ZM361.945 180.281C367.278 180.287 372.372 178.886 376.853 175.847L365.624 159.296C364.768 159.877 363.673 160.283 361.966 160.281L361.945 180.281ZM376.853 175.847C381.06 172.992 384.266 169.164 386.439 164.589L368.374 156.007C367.66 157.509 366.754 158.529 365.624 159.296L376.853 175.847ZM386.407 164.655C388.587 160.154 389.652 155.328 389.657 150.312L369.657 150.289C369.655 152.42 369.22 154.259 368.406 155.941L386.407 164.655ZM389.657 150.312C389.664 144.566 388.022 138.791 383.632 134.282L369.302 148.232C369.31 148.241 369.36 148.28 369.432 148.486C369.518 148.73 369.658 149.284 369.657 150.289L389.657 150.312ZM383.632 134.282C379.165 129.693 373.323 127.974 367.521 127.967L367.5 147.967C368.483 147.968 368.992 148.11 369.182 148.179C369.23 148.197 369.261 148.211 369.279 148.22C369.297 148.229 369.305 148.234 369.305 148.234C369.306 148.235 369.304 148.233 369.3 148.231C369.297 148.228 369.297 148.228 369.302 148.232L383.632 134.282ZM367.521 127.967C362.186 127.961 357.103 129.362 352.61 132.35L363.686 149.003C364.636 148.371 365.795 147.965 367.5 147.967L367.521 127.967ZM352.534 132.401C348.358 135.234 345.151 139.019 342.929 143.531L360.871 152.369C361.641 150.804 362.6 149.74 363.762 148.952L352.534 132.401ZM342.897 143.597C340.739 148.059 339.734 152.869 339.729 157.856L359.729 157.879C359.732 155.613 360.174 153.811 360.903 152.303L342.897 143.597ZM339.729 157.856C339.723 163.613 341.368 169.352 345.67 173.88L360.168 160.102C360.119 160.051 360.047 159.968 359.963 159.728C359.867 159.454 359.728 158.882 359.729 157.879L339.729 157.856ZM345.754 173.966C350.246 178.581 356.136 180.275 361.945 180.281L361.966 160.281C360.941 160.28 360.404 160.134 360.197 160.059C360.146 160.04 360.112 160.025 360.093 160.015C360.083 160.01 360.076 160.007 360.072 160.004C360.068 160.002 360.066 160.001 360.066 160.001C360.066 160.001 360.067 160.002 360.069 160.003C360.071 160.005 360.074 160.006 360.076 160.009C360.082 160.013 360.085 160.016 360.085 160.016L345.754 173.966ZM447.994 144.376L438.173 142.494L438.149 142.62L438.128 142.747L447.994 144.376ZM444.225 153.332L452.257 159.289L452.285 159.251L452.313 159.213L444.225 153.332ZM436.138 159.803L431.788 150.798L431.76 150.812L431.732 150.825L436.138 159.803ZM415.735 162.26L415.746 152.26L407.373 152.251L405.893 160.492L415.735 162.26ZM412.113 182.416L412.102 192.416L420.475 192.426L421.956 184.185L412.113 182.416ZM398.433 182.401L388.587 180.651L386.501 192.388L398.422 192.401L398.433 182.401ZM408.414 126.252L408.425 116.252L400.036 116.243L398.568 124.502L408.414 126.252ZM443.85 130.211L437.257 137.73L437.295 137.764L437.334 137.797L443.85 130.211ZM434.074 144.361L443.899 146.228L443.957 145.921L443.996 145.612L434.074 144.361ZM432.561 138.599L425.863 146.024L426.057 146.2L426.26 146.364L432.561 138.599ZM420.162 137.145L420.173 127.145L411.748 127.136L410.309 135.437L420.162 137.145ZM417.667 151.542L407.814 149.834L405.786 161.529L417.656 161.542L417.667 151.542ZM438.128 142.747C437.85 144.433 437.215 145.967 436.137 147.451L452.313 159.213C455.186 155.261 457.065 150.825 457.861 146.005L438.128 142.747ZM436.193 147.375C435.31 148.565 433.958 149.75 431.788 150.798L440.487 168.808C445.148 166.556 449.187 163.427 452.257 159.289L436.193 147.375ZM431.732 150.825C430.019 151.666 427.62 152.273 424.226 152.27L424.204 172.27C429.984 172.276 435.533 171.239 440.543 168.78L431.732 150.825ZM424.226 152.27L415.746 152.26L415.724 172.26L424.204 172.27L424.226 152.27ZM405.893 160.492L402.271 180.648L421.956 184.185L425.577 164.029L405.893 160.492ZM412.124 172.416L398.444 172.401L398.422 192.401L412.102 192.416L412.124 172.416ZM408.279 184.152L418.26 128.003L398.568 124.502L388.587 180.651L408.279 184.152ZM408.403 136.252L430.563 136.277L430.585 116.277L408.425 116.252L408.403 136.252ZM430.563 136.277C435.137 136.282 436.794 137.324 437.257 137.73L450.443 122.693C444.938 117.865 437.744 116.285 430.585 116.277L430.563 136.277ZM437.334 137.797C437.81 138.206 438.32 138.768 438.318 140.685L458.318 140.707C458.326 133.771 455.857 127.343 450.366 122.626L437.334 137.797ZM438.318 140.685C438.317 141.493 438.252 142.084 438.173 142.494L457.816 146.258C458.166 144.428 458.316 142.566 458.318 140.707L438.318 140.685ZM425.016 161.551C429.093 161.555 433.563 160.596 437.35 157.586C441.194 154.531 443.119 150.333 443.899 146.228L424.25 142.494C424.18 142.86 424.125 142.889 424.218 142.718C424.326 142.52 424.549 142.213 424.907 141.928C425.26 141.648 425.557 141.538 425.652 141.51C425.722 141.49 425.551 141.551 425.037 141.551L425.016 161.551ZM443.996 145.612C444.106 144.737 444.235 143.583 444.236 142.532L424.236 142.51C424.237 142.376 424.241 142.298 424.241 142.295C424.242 142.287 424.24 142.314 424.234 142.383C424.221 142.527 424.197 142.762 424.153 143.109L443.996 145.612ZM444.236 142.532C444.241 138.427 442.765 134.001 438.861 130.833L426.26 146.364C425.575 145.809 424.992 145.052 424.623 144.189C424.275 143.374 424.236 142.745 424.236 142.51L444.236 142.532ZM439.258 131.173C435.567 127.844 430.997 127.157 427.613 127.153L427.591 147.153C428.035 147.154 428.027 147.206 427.723 147.117C427.388 147.019 426.651 146.735 425.863 146.024L439.258 131.173ZM427.613 127.153L420.173 127.145L420.151 147.145L427.591 147.153L427.613 127.153ZM410.309 135.437L407.814 149.834L427.52 153.251L430.015 138.853L410.309 135.437ZM417.656 161.542L425.016 161.551L425.037 141.551L417.677 141.542L417.656 161.542ZM509.376 126.364L519.221 128.114L521.308 116.377L509.387 116.364L509.376 126.364ZM499.395 182.513L499.384 192.513L507.773 192.522L509.241 184.263L499.395 182.513ZM485.715 182.498L475.867 180.761L473.799 192.485L485.704 192.498L485.715 182.498ZM489.82 159.222L499.668 160.959L501.736 149.235L489.831 149.222L489.82 159.222ZM468.54 159.199L468.551 149.199L460.151 149.189L458.692 157.462L468.54 159.199ZM464.435 182.474L464.424 192.474L472.824 192.483L474.283 184.211L464.435 182.474ZM450.755 182.459L440.909 180.709L438.823 192.446L450.744 192.459L450.755 182.459ZM460.736 126.31L460.747 116.31L452.358 116.301L450.89 124.56L460.736 126.31ZM474.416 126.325L484.26 128.084L486.358 116.338L474.427 116.325L474.416 126.325ZM470.472 148.401L460.628 146.642L458.529 158.388L470.461 158.401L470.472 148.401ZM491.752 148.424L491.741 158.424L500.122 158.434L501.596 150.183L491.752 148.424ZM495.696 126.349L495.707 116.349L487.326 116.339L485.852 124.59L495.696 126.349ZM499.53 124.613L489.549 180.762L509.241 184.263L519.221 128.114L499.53 124.613ZM499.406 172.513L485.726 172.498L485.704 192.498L499.384 192.513L499.406 172.513ZM495.563 184.235L499.668 160.959L479.972 157.485L475.867 180.761L495.563 184.235ZM489.831 149.222L468.551 149.199L468.529 169.199L489.809 169.222L489.831 149.222ZM458.692 157.462L454.587 180.737L474.283 184.211L478.388 160.936L458.692 157.462ZM464.446 172.474L450.766 172.459L450.744 192.459L464.424 192.474L464.446 172.474ZM460.601 184.209L470.581 128.06L450.89 124.56L440.909 180.709L460.601 184.209ZM460.725 136.31L474.405 136.325L474.427 116.325L460.747 116.31L460.725 136.31ZM464.572 124.566L460.628 146.642L480.316 150.16L484.26 128.084L464.572 124.566ZM470.461 158.401L491.741 158.424L491.763 138.424L470.483 138.401L470.461 158.401ZM501.596 150.183L505.54 128.108L485.852 124.59L481.908 146.665L501.596 150.183ZM495.685 136.349L509.365 136.364L509.387 116.364L495.707 116.349L495.685 136.349ZM569.811 126.431L578.03 132.127L588.895 116.452L569.822 116.431L569.811 126.431ZM543.771 164.002L535.552 158.305L534.32 160.082L533.933 162.21L543.771 164.002ZM540.391 182.558L540.38 192.558L548.732 192.567L550.229 184.35L540.391 182.558ZM526.711 182.543L516.872 180.751L514.727 192.53L526.7 192.543L526.711 182.543ZM530.091 163.987L539.929 165.779L540.395 163.219L539.555 160.756L530.091 163.987ZM517.251 126.372L517.262 116.372L503.266 116.357L507.788 129.603L517.251 126.372ZM532.771 126.39L542.387 123.644L540.318 116.398L532.782 116.39L532.771 126.39ZM539.466 149.837L529.85 152.582L535.939 173.907L547.89 155.226L539.466 149.837ZM554.451 126.414L554.462 116.414L548.981 116.408L546.028 121.024L554.451 126.414ZM561.592 120.734L535.552 158.305L551.99 169.698L578.03 132.127L561.592 120.734ZM533.933 162.21L530.552 180.766L550.229 184.35L553.609 165.794L533.933 162.21ZM540.401 172.558L526.721 172.543L526.7 192.543L540.38 192.558L540.401 172.558ZM536.549 184.335L539.929 165.779L520.253 162.194L516.872 180.751L536.549 184.335ZM539.555 160.756L526.715 123.142L507.788 129.603L520.627 167.217L539.555 160.756ZM517.241 136.372L532.761 136.39L532.782 116.39L517.262 116.372L517.241 136.372ZM523.156 129.135L529.85 152.582L549.082 147.092L542.387 123.644L523.156 129.135ZM547.89 155.226L562.875 131.803L546.028 121.024L531.042 144.448L547.89 155.226ZM554.441 136.414L569.801 136.431L569.822 116.431L554.462 116.414L554.441 136.414Z" fill="#FF3A85" mask="url(#path-1-outside-1_507_465)"/>
</g>
<defs>
<filter id="filter0_d_507_465" x="0.929688" y="0.0408936" width="574.012" height="218.11" filterUnits="userSpaceOnUse" color-interpolation-filters="sRGB">
<feFlood flood-opacity="0" result="BackgroundImageFix"/>
<feColorMatrix in="SourceAlpha" type="matrix" values="0 0 0 0 0 0 0 0 0 0 0 0 0 0 0 0 0 0 127 0" result="hardAlpha"/>
<feOffset dx="-15" dy="15"/>
<feGaussianBlur stdDeviation="10"/>
<feComposite in2="hardAlpha" operator="out"/>
<feColorMatrix type="matrix" values="0 0 0 0 0 0 0 0 0 0 0 0 0 0 0 0 0 0 0.25 0"/>
<feBlend mode="normal" in2="BackgroundImageFix" result="effect1_dropShadow_507_465"/>
<feBlend mode="normal" in="SourceGraphic" in2="effect1_dropShadow_507_465" result="shape"/>
</filter>
</defs>
</svg>
