<svg width="329" height="36" viewBox="0 0 329 36" fill="none" xmlns="http://www.w3.org/2000/svg">
<mask id="path-1-outside-1_507_462" maskUnits="userSpaceOnUse" x="-7" y="-6" width="341" height="47" fill="black">
<rect fill="white" x="-7" y="-6" width="341" height="47"/>
<path d="M48.344 1.304L39.56 35H29.624L24.248 12.824L18.68 35H8.744L0.2 1.304H8.984L13.832 25.832L19.832 1.304H28.856L34.616 25.832L39.512 1.304H48.344ZM60.6684 7.88V14.696H71.6604V21.032H60.6684V28.424H73.1004V35H52.4604V1.304H73.1004V7.88H60.6684ZM109.577 29.048H97.001L94.985 35H86.393L98.585 1.304H108.089L120.281 35H111.593L109.577 29.048ZM107.465 22.712L103.289 10.376L99.161 22.712H107.465ZM141.176 35L134.168 22.28H132.2V35H123.992V1.304H137.768C140.424 1.304 142.68 1.768 144.536 2.696C146.424 3.624 147.832 4.904 148.76 6.536C149.688 8.136 150.152 9.928 150.152 11.912C150.152 14.152 149.512 16.152 148.232 17.912C146.984 19.672 145.128 20.92 142.664 21.656L150.44 35H141.176ZM132.2 16.472H137.288C138.792 16.472 139.912 16.104 140.648 15.368C141.416 14.632 141.8 13.592 141.8 12.248C141.8 10.968 141.416 9.96 140.648 9.224C139.912 8.488 138.792 8.12 137.288 8.12H132.2V16.472ZM163.512 7.88V14.696H174.504V21.032H163.512V28.424H175.944V35H155.304V1.304H175.944V7.88H163.512ZM208.629 35L201.621 22.28H199.653V35H191.445V1.304H205.221C207.877 1.304 210.133 1.768 211.989 2.696C213.877 3.624 215.285 4.904 216.213 6.536C217.141 8.136 217.605 9.928 217.605 11.912C217.605 14.152 216.965 16.152 215.685 17.912C214.437 19.672 212.581 20.92 210.117 21.656L217.893 35H208.629ZM199.653 16.472H204.741C206.245 16.472 207.365 16.104 208.101 15.368C208.869 14.632 209.253 13.592 209.253 12.248C209.253 10.968 208.869 9.96 208.101 9.224C207.365 8.488 206.245 8.12 204.741 8.12H199.653V16.472ZM243.733 29.048H231.157L229.141 35H220.549L232.741 1.304H242.245L254.437 35H245.749L243.733 29.048ZM241.621 22.712L237.445 10.376L233.317 22.712H241.621ZM283.828 12.152C283.828 14.104 283.38 15.896 282.484 17.528C281.588 19.128 280.212 20.424 278.356 21.416C276.5 22.408 274.196 22.904 271.444 22.904H266.356V35H258.148V1.304H271.444C274.132 1.304 276.404 1.768 278.26 2.696C280.116 3.624 281.508 4.904 282.436 6.536C283.364 8.168 283.828 10.04 283.828 12.152ZM270.82 16.376C272.388 16.376 273.556 16.008 274.324 15.272C275.092 14.536 275.476 13.496 275.476 12.152C275.476 10.808 275.092 9.768 274.324 9.032C273.556 8.296 272.388 7.928 270.82 7.928H266.356V16.376H270.82ZM296.837 28.28H311.333V35H287.525V28.76L301.925 8.024H287.525V1.304H311.333V7.544L296.837 28.28ZM327.495 0.103997L326.535 23.096H319.575L318.615 0.103997H327.495ZM323.175 35.384C321.735 35.384 320.551 34.968 319.623 34.136C318.727 33.272 318.279 32.216 318.279 30.968C318.279 29.688 318.727 28.616 319.623 27.752C320.551 26.888 321.735 26.456 323.175 26.456C324.583 26.456 325.735 26.888 326.631 27.752C327.559 28.616 328.023 29.688 328.023 30.968C328.023 32.216 327.559 33.272 326.631 34.136C325.735 34.968 324.583 35.384 323.175 35.384Z"/>
</mask>
<path d="M48.344 1.304L39.56 35H29.624L24.248 12.824L18.68 35H8.744L0.2 1.304H8.984L13.832 25.832L19.832 1.304H28.856L34.616 25.832L39.512 1.304H48.344ZM60.6684 7.88V14.696H71.6604V21.032H60.6684V28.424H73.1004V35H52.4604V1.304H73.1004V7.88H60.6684ZM109.577 29.048H97.001L94.985 35H86.393L98.585 1.304H108.089L120.281 35H111.593L109.577 29.048ZM107.465 22.712L103.289 10.376L99.161 22.712H107.465ZM141.176 35L134.168 22.28H132.2V35H123.992V1.304H137.768C140.424 1.304 142.68 1.768 144.536 2.696C146.424 3.624 147.832 4.904 148.76 6.536C149.688 8.136 150.152 9.928 150.152 11.912C150.152 14.152 149.512 16.152 148.232 17.912C146.984 19.672 145.128 20.92 142.664 21.656L150.44 35H141.176ZM132.2 16.472H137.288C138.792 16.472 139.912 16.104 140.648 15.368C141.416 14.632 141.8 13.592 141.8 12.248C141.8 10.968 141.416 9.96 140.648 9.224C139.912 8.488 138.792 8.12 137.288 8.12H132.2V16.472ZM163.512 7.88V14.696H174.504V21.032H163.512V28.424H175.944V35H155.304V1.304H175.944V7.88H163.512ZM208.629 35L201.621 22.28H199.653V35H191.445V1.304H205.221C207.877 1.304 210.133 1.768 211.989 2.696C213.877 3.624 215.285 4.904 216.213 6.536C217.141 8.136 217.605 9.928 217.605 11.912C217.605 14.152 216.965 16.152 215.685 17.912C214.437 19.672 212.581 20.92 210.117 21.656L217.893 35H208.629ZM199.653 16.472H204.741C206.245 16.472 207.365 16.104 208.101 15.368C208.869 14.632 209.253 13.592 209.253 12.248C209.253 10.968 208.869 9.96 208.101 9.224C207.365 8.488 206.245 8.12 204.741 8.12H199.653V16.472ZM243.733 29.048H231.157L229.141 35H220.549L232.741 1.304H242.245L254.437 35H245.749L243.733 29.048ZM241.621 22.712L237.445 10.376L233.317 22.712H241.621ZM283.828 12.152C283.828 14.104 283.38 15.896 282.484 17.528C281.588 19.128 280.212 20.424 278.356 21.416C276.5 22.408 274.196 22.904 271.444 22.904H266.356V35H258.148V1.304H271.444C274.132 1.304 276.404 1.768 278.26 2.696C280.116 3.624 281.508 4.904 282.436 6.536C283.364 8.168 283.828 10.04 283.828 12.152ZM270.82 16.376C272.388 16.376 273.556 16.008 274.324 15.272C275.092 14.536 275.476 13.496 275.476 12.152C275.476 10.808 275.092 9.768 274.324 9.032C273.556 8.296 272.388 7.928 270.82 7.928H266.356V16.376H270.82ZM296.837 28.28H311.333V35H287.525V28.76L301.925 8.024H287.525V1.304H311.333V7.544L296.837 28.28ZM327.495 0.103997L326.535 23.096H319.575L318.615 0.103997H327.495ZM323.175 35.384C321.735 35.384 320.551 34.968 319.623 34.136C318.727 33.272 318.279 32.216 318.279 30.968C318.279 29.688 318.727 28.616 319.623 27.752C320.551 26.888 321.735 26.456 323.175 26.456C324.583 26.456 325.735 26.888 326.631 27.752C327.559 28.616 328.023 29.688 328.023 30.968C328.023 32.216 327.559 33.272 326.631 34.136C325.735 34.968 324.583 35.384 323.175 35.384Z" fill="#FF3A85"/>
<path d="M48.344 1.304L53.1823 2.56527L54.8145 -3.696H48.344V1.304ZM39.56 35V40H43.4237L44.3983 36.2613L39.56 35ZM29.624 35L24.7647 36.178L25.6913 40H29.624V35ZM24.248 12.824L29.1073 11.646L19.3985 11.6064L24.248 12.824ZM18.68 35V40H22.5798L23.5295 36.2176L18.68 35ZM8.744 35L3.89738 36.2289L4.85358 40H8.744V35ZM0.2 1.304V-3.696H-6.22604L-4.64662 2.53292L0.2 1.304ZM8.984 1.304L13.8891 0.334496L13.0925 -3.696H8.984V1.304ZM13.832 25.832L8.9269 26.8015L18.6888 27.0201L13.832 25.832ZM19.832 1.304V-3.696H15.9077L14.9752 0.115936L19.832 1.304ZM28.856 1.304L33.7236 0.160927L32.8179 -3.696H28.856V1.304ZM34.616 25.832L29.7484 26.9751L39.5193 26.8107L34.616 25.832ZM39.512 1.304V-3.696H35.4114L34.6087 0.325264L39.512 1.304ZM43.5057 0.0427322L34.7217 33.7387L44.3983 36.2613L53.1823 2.56527L43.5057 0.0427322ZM39.56 30H29.624V40H39.56V30ZM34.4832 33.822L29.1073 11.646L19.3888 14.002L24.7647 36.178L34.4832 33.822ZM19.3985 11.6064L13.8305 33.7824L23.5295 36.2176L29.0975 14.0416L19.3985 11.6064ZM18.68 30H8.744V40H18.68V30ZM13.5906 33.7711L5.04662 0.0750828L-4.64662 2.53292L3.89738 36.2289L13.5906 33.7711ZM0.2 6.304H8.984V-3.696H0.2V6.304ZM4.07889 2.2735L8.9269 26.8015L18.7371 24.8625L13.8891 0.334496L4.07889 2.2735ZM18.6888 27.0201L24.6888 2.49206L14.9752 0.115936L8.9752 24.6439L18.6888 27.0201ZM19.832 6.304H28.856V-3.696H19.832V6.304ZM23.9884 2.44707L29.7484 26.9751L39.4836 24.6889L33.7236 0.160927L23.9884 2.44707ZM39.5193 26.8107L44.4153 2.28273L34.6087 0.325264L29.7127 24.8533L39.5193 26.8107ZM39.512 6.304H48.344V-3.696H39.512V6.304ZM60.6684 7.88V2.88H55.6684V7.88H60.6684ZM60.6684 14.696H55.6684V19.696H60.6684V14.696ZM71.6604 14.696H76.6604V9.696H71.6604V14.696ZM71.6604 21.032V26.032H76.6604V21.032H71.6604ZM60.6684 21.032V16.032H55.6684V21.032H60.6684ZM60.6684 28.424H55.6684V33.424H60.6684V28.424ZM73.1004 28.424H78.1004V23.424H73.1004V28.424ZM73.1004 35V40H78.1004V35H73.1004ZM52.4604 35H47.4604V40H52.4604V35ZM52.4604 1.304V-3.696H47.4604V1.304H52.4604ZM73.1004 1.304H78.1004V-3.696H73.1004V1.304ZM73.1004 7.88V12.88H78.1004V7.88H73.1004ZM55.6684 7.88V14.696H65.6684V7.88H55.6684ZM60.6684 19.696H71.6604V9.696H60.6684V19.696ZM66.6604 14.696V21.032H76.6604V14.696H66.6604ZM71.6604 16.032H60.6684V26.032H71.6604V16.032ZM55.6684 21.032V28.424H65.6684V21.032H55.6684ZM60.6684 33.424H73.1004V23.424H60.6684V33.424ZM68.1004 28.424V35H78.1004V28.424H68.1004ZM73.1004 30H52.4604V40H73.1004V30ZM57.4604 35V1.304H47.4604V35H57.4604ZM52.4604 6.304H73.1004V-3.696H52.4604V6.304ZM68.1004 1.304V7.88H78.1004V1.304H68.1004ZM73.1004 2.88H60.6684V12.88H73.1004V2.88ZM109.577 29.048L114.313 27.444L113.162 24.048H109.577V29.048ZM97.001 29.048V24.048H93.4155L92.2653 27.444L97.001 29.048ZM94.985 35V40H98.5705L99.7207 36.604L94.985 35ZM86.393 35L81.6913 33.2988L79.2667 40H86.393V35ZM98.585 1.304V-3.696H95.0769L93.8833 -0.397186L98.585 1.304ZM108.089 1.304L112.791 -0.397186L111.597 -3.696H108.089V1.304ZM120.281 35V40H127.407L124.983 33.2988L120.281 35ZM111.593 35L106.857 36.604L108.008 40H111.593V35ZM107.465 22.712V27.712H114.436L112.201 21.1088L107.465 22.712ZM103.289 10.376L108.025 8.77276L103.262 -5.29839L98.5474 8.78933L103.289 10.376ZM99.161 22.712L94.4194 21.1253L92.2153 27.712H99.161V22.712ZM109.577 24.048H97.001V34.048H109.577V24.048ZM92.2653 27.444L90.2493 33.396L99.7207 36.604L101.737 30.652L92.2653 27.444ZM94.985 30H86.393V40H94.985V30ZM91.0947 36.7012L103.287 3.00518L93.8833 -0.397186L81.6913 33.2988L91.0947 36.7012ZM98.585 6.304H108.089V-3.696H98.585V6.304ZM103.387 3.00518L115.579 36.7012L124.983 33.2988L112.791 -0.397186L103.387 3.00518ZM120.281 30H111.593V40H120.281V30ZM116.329 33.396L114.313 27.444L104.841 30.652L106.857 36.604L116.329 33.396ZM112.201 21.1088L108.025 8.77276L98.553 11.9792L102.729 24.3152L112.201 21.1088ZM98.5474 8.78933L94.4194 21.1253L103.903 24.2987L108.031 11.9627L98.5474 8.78933ZM99.161 27.712H107.465V17.712H99.161V27.712ZM141.176 35L136.796 37.4128L138.222 40H141.176V35ZM134.168 22.28L138.547 19.8672L137.122 17.28H134.168V22.28ZM132.2 22.28V17.28H127.2V22.28H132.2ZM132.2 35V40H137.2V35H132.2ZM123.992 35H118.992V40H123.992V35ZM123.992 1.304V-3.696H118.992V1.304H123.992ZM144.536 2.696L142.3 7.16813L142.315 7.17574L142.33 7.18324L144.536 2.696ZM148.76 6.536L144.413 9.00751L144.424 9.02609L144.434 9.04459L148.76 6.536ZM148.232 17.912L144.188 14.9711L144.17 14.9954L144.153 15.0199L148.232 17.912ZM142.664 21.656L141.233 16.8652L135.145 18.6837L138.344 24.1734L142.664 21.656ZM150.44 35V40H159.14L154.76 32.4826L150.44 35ZM132.2 16.472H127.2V21.472H132.2V16.472ZM140.648 15.368L137.188 11.7581L137.15 11.7949L137.112 11.8325L140.648 15.368ZM140.648 9.224L137.112 12.7595L137.15 12.7971L137.188 12.8339L140.648 9.224ZM132.2 8.12V3.12H127.2V8.12H132.2ZM145.555 32.5872L138.547 19.8672L129.788 24.6928L136.796 37.4128L145.555 32.5872ZM134.168 17.28H132.2V27.28H134.168V17.28ZM127.2 22.28V35H137.2V22.28H127.2ZM132.2 30H123.992V40H132.2V30ZM128.992 35V1.304H118.992V35H128.992ZM123.992 6.304H137.768V-3.696H123.992V6.304ZM137.768 6.304C139.858 6.304 141.304 6.67059 142.3 7.16813L146.772 -1.77614C144.055 -3.13459 140.989 -3.696 137.768 -3.696V6.304ZM142.33 7.18324C143.431 7.72444 144.039 8.34984 144.413 9.00751L153.106 4.06449C151.624 1.45816 149.416 -0.476444 146.741 -1.79125L142.33 7.18324ZM144.434 9.04459C144.888 9.82714 145.152 10.7428 145.152 11.912H155.152C155.152 9.11317 154.487 6.44485 153.085 4.0274L144.434 9.04459ZM145.152 11.912C145.152 13.1284 144.827 14.0922 144.188 14.9711L152.275 20.8529C154.196 18.2118 155.152 15.1756 155.152 11.912H145.152ZM144.153 15.0199C143.668 15.7032 142.839 16.3852 141.233 16.8652L144.095 26.4468C147.416 25.4548 150.299 23.6408 152.31 20.8041L144.153 15.0199ZM138.344 24.1734L146.12 37.5174L154.76 32.4826L146.984 19.1386L138.344 24.1734ZM150.44 30H141.176V40H150.44V30ZM132.2 21.472H137.288V11.472H132.2V21.472ZM137.288 21.472C139.526 21.472 142.161 20.9259 144.183 18.9035L137.112 11.8325C137.232 11.7121 137.356 11.6201 137.468 11.5538C137.577 11.4887 137.659 11.4576 137.695 11.4458C137.755 11.4259 137.648 11.472 137.288 11.472V21.472ZM144.107 18.9779C146.104 17.0645 146.8 14.5745 146.8 12.248H136.8C136.8 12.4507 136.77 12.4423 136.821 12.3041C136.847 12.2335 136.89 12.1407 136.957 12.038C137.024 11.9347 137.103 11.8397 137.188 11.7581L144.107 18.9779ZM146.8 12.248C146.8 9.90337 146.056 7.48134 144.107 5.61406L137.188 12.8339C137.03 12.682 136.907 12.4902 136.839 12.312C136.778 12.1523 136.8 12.1053 136.8 12.248H146.8ZM144.183 5.68847C142.161 3.66609 139.526 3.12 137.288 3.12V13.12C137.648 13.12 137.755 13.1661 137.695 13.1462C137.659 13.1344 137.577 13.1033 137.468 13.0382C137.356 12.9719 137.232 12.8799 137.112 12.7595L144.183 5.68847ZM137.288 3.12H132.2V13.12H137.288V3.12ZM127.2 8.12V16.472H137.2V8.12H127.2ZM163.512 7.88V2.88H158.512V7.88H163.512ZM163.512 14.696H158.512V19.696H163.512V14.696ZM174.504 14.696H179.504V9.696H174.504V14.696ZM174.504 21.032V26.032H179.504V21.032H174.504ZM163.512 21.032V16.032H158.512V21.032H163.512ZM163.512 28.424H158.512V33.424H163.512V28.424ZM175.944 28.424H180.944V23.424H175.944V28.424ZM175.944 35V40H180.944V35H175.944ZM155.304 35H150.304V40H155.304V35ZM155.304 1.304V-3.696H150.304V1.304H155.304ZM175.944 1.304H180.944V-3.696H175.944V1.304ZM175.944 7.88V12.88H180.944V7.88H175.944ZM158.512 7.88V14.696H168.512V7.88H158.512ZM163.512 19.696H174.504V9.696H163.512V19.696ZM169.504 14.696V21.032H179.504V14.696H169.504ZM174.504 16.032H163.512V26.032H174.504V16.032ZM158.512 21.032V28.424H168.512V21.032H158.512ZM163.512 33.424H175.944V23.424H163.512V33.424ZM170.944 28.424V35H180.944V28.424H170.944ZM175.944 30H155.304V40H175.944V30ZM160.304 35V1.304H150.304V35H160.304ZM155.304 6.304H175.944V-3.696H155.304V6.304ZM170.944 1.304V7.88H180.944V1.304H170.944ZM175.944 2.88H163.512V12.88H175.944V2.88ZM208.629 35L204.249 37.4128L205.675 40H208.629V35ZM201.621 22.28L206 19.8672L204.575 17.28H201.621V22.28ZM199.653 22.28V17.28H194.653V22.28H199.653ZM199.653 35V40H204.653V35H199.653ZM191.445 35H186.445V40H191.445V35ZM191.445 1.304V-3.696H186.445V1.304H191.445ZM211.989 2.696L209.753 7.16813L209.768 7.17574L209.783 7.18324L211.989 2.696ZM216.213 6.536L211.866 9.00751L211.877 9.02609L211.888 9.04459L216.213 6.536ZM215.685 17.912L211.641 14.9711L211.623 14.9954L211.606 15.0199L215.685 17.912ZM210.117 21.656L208.686 16.8652L202.598 18.6837L205.797 24.1734L210.117 21.656ZM217.893 35V40H226.593L222.213 32.4826L217.893 35ZM199.653 16.472H194.653V21.472H199.653V16.472ZM208.101 15.368L204.641 11.7581L204.603 11.7949L204.565 11.8325L208.101 15.368ZM208.101 9.224L204.565 12.7595L204.603 12.7971L204.641 12.8339L208.101 9.224ZM199.653 8.12V3.12H194.653V8.12H199.653ZM213.008 32.5872L206 19.8672L197.241 24.6928L204.249 37.4128L213.008 32.5872ZM201.621 17.28H199.653V27.28H201.621V17.28ZM194.653 22.28V35H204.653V22.28H194.653ZM199.653 30H191.445V40H199.653V30ZM196.445 35V1.304H186.445V35H196.445ZM191.445 6.304H205.221V-3.696H191.445V6.304ZM205.221 6.304C207.311 6.304 208.758 6.67059 209.753 7.16813L214.225 -1.77614C211.508 -3.13459 208.442 -3.696 205.221 -3.696V6.304ZM209.783 7.18324C210.884 7.72444 211.492 8.34984 211.866 9.00751L220.559 4.06449C219.077 1.45816 216.869 -0.476444 214.194 -1.79125L209.783 7.18324ZM211.888 9.04459C212.341 9.82714 212.605 10.7428 212.605 11.912H222.605C222.605 9.11317 221.94 6.44485 220.538 4.0274L211.888 9.04459ZM212.605 11.912C212.605 13.1284 212.28 14.0922 211.641 14.9711L219.728 20.8529C221.649 18.2118 222.605 15.1756 222.605 11.912H212.605ZM211.606 15.0199C211.122 15.7032 210.293 16.3852 208.686 16.8652L211.548 26.4468C214.869 25.4548 217.752 23.6408 219.763 20.8041L211.606 15.0199ZM205.797 24.1734L213.573 37.5174L222.213 32.4826L214.437 19.1386L205.797 24.1734ZM217.893 30H208.629V40H217.893V30ZM199.653 21.472H204.741V11.472H199.653V21.472ZM204.741 21.472C206.979 21.472 209.614 20.9259 211.636 18.9035L204.565 11.8325C204.686 11.7121 204.809 11.6201 204.921 11.5538C205.03 11.4887 205.112 11.4576 205.148 11.4458C205.209 11.4259 205.101 11.472 204.741 11.472V21.472ZM211.56 18.9779C213.557 17.0645 214.253 14.5745 214.253 12.248H204.253C204.253 12.4507 204.223 12.4423 204.274 12.3041C204.3 12.2335 204.343 12.1407 204.41 12.038C204.477 11.9347 204.556 11.8397 204.641 11.7581L211.56 18.9779ZM214.253 12.248C214.253 9.90337 213.509 7.48134 211.56 5.61406L204.641 12.8339C204.483 12.682 204.36 12.4902 204.292 12.312C204.231 12.1523 204.253 12.1053 204.253 12.248H214.253ZM211.636 5.68847C209.614 3.66609 206.979 3.12 204.741 3.12V13.12C205.101 13.12 205.209 13.1661 205.148 13.1462C205.112 13.1344 205.03 13.1033 204.921 13.0382C204.809 12.9719 204.686 12.8799 204.565 12.7595L211.636 5.68847ZM204.741 3.12H199.653V13.12H204.741V3.12ZM194.653 8.12V16.472H204.653V8.12H194.653ZM243.733 29.048L248.469 27.444L247.319 24.048H243.733V29.048ZM231.157 29.048V24.048H227.572L226.422 27.444L231.157 29.048ZM229.141 35V40H232.727L233.877 36.604L229.141 35ZM220.549 35L215.848 33.2988L213.423 40H220.549V35ZM232.741 1.304V-3.696H229.233L228.04 -0.397186L232.741 1.304ZM242.245 1.304L246.947 -0.397186L245.753 -3.696H242.245V1.304ZM254.437 35V40H261.564L259.139 33.2988L254.437 35ZM245.749 35L241.014 36.604L242.164 40H245.749V35ZM241.621 22.712V27.712H248.593L246.357 21.1088L241.621 22.712ZM237.445 10.376L242.181 8.77276L237.418 -5.29839L232.704 8.78933L237.445 10.376ZM233.317 22.712L228.576 21.1253L226.372 27.712H233.317V22.712ZM243.733 24.048H231.157V34.048H243.733V24.048ZM226.422 27.444L224.406 33.396L233.877 36.604L235.893 30.652L226.422 27.444ZM229.141 30H220.549V40H229.141V30ZM225.251 36.7012L237.443 3.00518L228.04 -0.397186L215.848 33.2988L225.251 36.7012ZM232.741 6.304H242.245V-3.696H232.741V6.304ZM237.544 3.00518L249.736 36.7012L259.139 33.2988L246.947 -0.397186L237.544 3.00518ZM254.437 30H245.749V40H254.437V30ZM250.485 33.396L248.469 27.444L238.998 30.652L241.014 36.604L250.485 33.396ZM246.357 21.1088L242.181 8.77276L232.709 11.9792L236.885 24.3152L246.357 21.1088ZM232.704 8.78933L228.576 21.1253L238.059 24.2987L242.187 11.9627L232.704 8.78933ZM233.317 27.712H241.621V17.712H233.317V27.712ZM282.484 17.528L286.846 19.971L286.857 19.9527L286.867 19.9343L282.484 17.528ZM278.356 21.416L275.999 17.0063L278.356 21.416ZM266.356 22.904V17.904H261.356V22.904H266.356ZM266.356 35V40H271.356V35H266.356ZM258.148 35H253.148V40H258.148V35ZM258.148 1.304V-3.696H253.148V1.304H258.148ZM278.26 2.696L280.496 -1.77614L278.26 2.696ZM266.356 7.928V2.928H261.356V7.928H266.356ZM266.356 16.376H261.356V21.376H266.356V16.376ZM278.828 12.152C278.828 13.305 278.572 14.2633 278.101 15.1217L286.867 19.9343C288.187 17.5287 288.828 14.903 288.828 12.152H278.828ZM278.121 15.085C277.758 15.7336 277.14 16.3967 275.999 17.0063L280.713 25.8257C283.284 24.4513 285.418 22.5224 286.846 19.971L278.121 15.085ZM275.999 17.0063C275.057 17.5098 273.618 17.904 271.444 17.904V27.904C274.773 27.904 277.943 27.3062 280.713 25.8257L275.999 17.0063ZM271.444 17.904H266.356V27.904H271.444V17.904ZM261.356 22.904V35H271.356V22.904H261.356ZM266.356 30H258.148V40H266.356V30ZM263.148 35V1.304H253.148V35H263.148ZM258.148 6.304H271.444V-3.696H258.148V6.304ZM271.444 6.304C273.577 6.304 275.036 6.67431 276.024 7.16813L280.496 -1.77614C277.772 -3.13831 274.687 -3.696 271.444 -3.696V6.304ZM276.024 7.16813C277.091 7.70161 277.702 8.32649 278.089 9.00751L286.782 4.06449C285.314 1.4815 283.141 -0.453617 280.496 -1.77614L276.024 7.16813ZM278.089 9.00751C278.538 9.79576 278.828 10.7962 278.828 12.152H288.828C288.828 9.28382 288.19 6.54024 286.782 4.06449L278.089 9.00751ZM270.82 21.376C273.073 21.376 275.724 20.8551 277.783 18.8819L270.864 11.6621C270.982 11.549 271.099 11.4672 271.196 11.4116C271.291 11.3572 271.355 11.3355 271.369 11.3311C271.382 11.3271 271.348 11.339 271.254 11.3516C271.161 11.3642 271.018 11.376 270.82 11.376V21.376ZM277.783 18.8819C279.78 16.9685 280.476 14.4785 280.476 12.152H270.476C270.476 12.3547 270.446 12.3463 270.497 12.2081C270.523 12.1375 270.566 12.0447 270.633 11.942C270.7 11.8387 270.779 11.7437 270.864 11.6621L277.783 18.8819ZM280.476 12.152C280.476 9.82554 279.78 7.33545 277.783 5.42206L270.864 12.6419C270.779 12.5603 270.7 12.4653 270.633 12.362C270.566 12.2593 270.523 12.1665 270.497 12.0959C270.446 11.9577 270.476 11.9493 270.476 12.152H280.476ZM277.783 5.42206C275.724 3.44891 273.073 2.928 270.82 2.928V12.928C271.018 12.928 271.161 12.9398 271.254 12.9524C271.348 12.965 271.382 12.9769 271.369 12.9729C271.355 12.9685 271.291 12.9468 271.196 12.8924C271.099 12.8368 270.982 12.755 270.864 12.6419L277.783 5.42206ZM270.82 2.928H266.356V12.928H270.82V2.928ZM261.356 7.928V16.376H271.356V7.928H261.356ZM266.356 21.376H270.82V11.376H266.356V21.376ZM296.837 28.28L292.739 25.4152L287.241 33.28H296.837V28.28ZM311.333 28.28H316.333V23.28H311.333V28.28ZM311.333 35V40H316.333V35H311.333ZM287.525 35H282.525V40H287.525V35ZM287.525 28.76L283.418 25.908L282.525 27.1942V28.76H287.525ZM301.925 8.024L306.032 10.876L311.485 3.024H301.925V8.024ZM287.525 8.024H282.525V13.024H287.525V8.024ZM287.525 1.304V-3.696H282.525V1.304H287.525ZM311.333 1.304H316.333V-3.696H311.333V1.304ZM311.333 7.544L315.431 10.4088L316.333 9.1184V7.544H311.333ZM296.837 33.28H311.333V23.28H296.837V33.28ZM306.333 28.28V35H316.333V28.28H306.333ZM311.333 30H287.525V40H311.333V30ZM292.525 35V28.76H282.525V35H292.525ZM291.632 31.612L306.032 10.876L297.818 5.17202L283.418 25.908L291.632 31.612ZM301.925 3.024H287.525V13.024H301.925V3.024ZM292.525 8.024V1.304H282.525V8.024H292.525ZM287.525 6.304H311.333V-3.696H287.525V6.304ZM306.333 1.304V7.544H316.333V1.304H306.333ZM307.235 4.67923L292.739 25.4152L300.935 31.1448L315.431 10.4088L307.235 4.67923ZM327.495 0.103996L332.49 0.312584L332.708 -4.896H327.495V0.103996ZM326.535 23.096V28.096H331.33L331.53 23.3046L326.535 23.096ZM319.575 23.096L314.579 23.3046L314.779 28.096H319.575V23.096ZM318.615 0.103996V-4.896H313.402L313.619 0.312584L318.615 0.103996ZM319.623 34.136L316.152 37.7352L316.217 37.7982L316.285 37.8588L319.623 34.136ZM319.623 27.752L316.216 24.0925L316.184 24.1224L316.152 24.1528L319.623 27.752ZM326.631 27.752L323.16 31.3512L323.192 31.3816L323.224 31.4115L326.631 27.752ZM326.631 34.136L330.033 37.8L330.038 37.7955L326.631 34.136ZM322.499 -0.104589L321.539 22.8874L331.53 23.3046L332.49 0.312584L322.499 -0.104589ZM326.535 18.096H319.575V28.096H326.535V18.096ZM324.57 22.8874L323.61 -0.104589L313.619 0.312584L314.579 23.3046L324.57 22.8874ZM318.615 5.104H327.495V-4.896H318.615V5.104ZM323.175 30.384C322.937 30.384 322.851 30.3502 322.864 30.3547C322.869 30.3565 322.887 30.3634 322.91 30.3774C322.934 30.3914 322.952 30.4051 322.96 30.4132L316.285 37.8588C318.272 39.6399 320.707 40.384 323.175 40.384V30.384ZM323.093 30.5368C323.088 30.5317 323.157 30.6008 323.218 30.7433C323.278 30.8854 323.279 30.9805 323.279 30.968H313.279C313.279 33.5695 314.276 35.926 316.152 37.7352L323.093 30.5368ZM323.279 30.968C323.279 30.9223 323.284 30.9978 323.228 31.132C323.202 31.1933 323.172 31.2474 323.142 31.2903C323.113 31.3326 323.092 31.3522 323.093 31.3512L316.152 24.1528C314.248 25.9888 313.279 28.3737 313.279 30.968H323.279ZM323.03 31.4115C323.024 31.4167 323.008 31.4307 322.982 31.4466C322.956 31.4626 322.933 31.4724 322.921 31.4771C322.891 31.4879 322.957 31.456 323.175 31.456V21.456C320.655 21.456 318.196 22.2489 316.216 24.0925L323.03 31.4115ZM323.175 31.456C323.271 31.456 323.328 31.4634 323.351 31.4673C323.373 31.471 323.366 31.4718 323.339 31.4616C323.311 31.4512 323.275 31.4341 323.237 31.4101C323.199 31.3861 323.173 31.3639 323.16 31.3512L330.101 24.1528C328.149 22.27 325.693 21.456 323.175 21.456V31.456ZM323.224 31.4115C323.226 31.4138 323.151 31.34 323.086 31.1901C323.022 31.0413 323.023 30.9453 323.023 30.968H333.023C333.023 28.315 331.993 25.9126 330.038 24.0925L323.224 31.4115ZM323.023 30.968C323.023 30.9689 323.023 30.9372 323.034 30.8809C323.046 30.8235 323.066 30.7556 323.097 30.6846C323.165 30.5299 323.239 30.4621 323.224 30.4765L330.038 37.7955C331.963 36.0028 333.023 33.629 333.023 30.968H323.023ZM323.228 30.472C323.245 30.4563 323.273 30.4343 323.309 30.4123C323.345 30.3903 323.376 30.3765 323.397 30.3692C323.416 30.3622 323.413 30.3655 323.381 30.3707C323.347 30.3762 323.281 30.384 323.175 30.384V40.384C325.64 40.384 328.072 39.6207 330.033 37.8L323.228 30.472Z" fill="black" mask="url(#path-1-outside-1_507_462)"/>
</svg>
