<svg width="238" height="36" viewBox="0 0 238 36" fill="none" xmlns="http://www.w3.org/2000/svg">
<mask id="path-1-outside-1_507_763" maskUnits="userSpaceOnUse" x="-5" y="-5" width="248" height="46" fill="black">
<rect fill="white" x="-5" y="-5" width="248" height="46"/>
<path d="M26.656 12.152C26.656 14.104 26.208 15.896 25.312 17.528C24.416 19.128 23.04 20.424 21.184 21.416C19.328 22.408 17.024 22.904 14.272 22.904H9.184V35H0.976V1.304H14.272C16.96 1.304 19.232 1.768 21.088 2.696C22.944 3.624 24.336 4.904 25.264 6.536C26.192 8.168 26.656 10.04 26.656 12.152ZM13.648 16.376C15.216 16.376 16.384 16.008 17.152 15.272C17.92 14.536 18.304 13.496 18.304 12.152C18.304 10.808 17.92 9.768 17.152 9.032C16.384 8.296 15.216 7.928 13.648 7.928H9.184V16.376H13.648ZM49.0731 35L42.0651 22.28H40.0971V35H31.8891V1.304H45.6651C48.3211 1.304 50.5771 1.768 52.4331 2.696C54.3211 3.624 55.7291 4.904 56.6571 6.536C57.5851 8.136 58.0491 9.928 58.0491 11.912C58.0491 14.152 57.4091 16.152 56.1291 17.912C54.8811 19.672 53.0251 20.92 50.5611 21.656L58.3371 35H49.0731ZM40.0971 16.472H45.1851C46.6891 16.472 47.8091 16.104 48.5451 15.368C49.3131 14.632 49.6971 13.592 49.6971 12.248C49.6971 10.968 49.3131 9.96 48.5451 9.224C47.8091 8.488 46.6891 8.12 45.1851 8.12H40.0971V16.472ZM72.3696 1.304V35H64.1616V1.304H72.3696ZM77.8859 18.104C77.8859 14.776 78.6059 11.816 80.0459 9.224C81.4859 6.6 83.4859 4.568 86.0459 3.128C88.6379 1.656 91.5659 0.919998 94.8299 0.919998C98.8299 0.919998 102.254 1.976 105.102 4.088C107.95 6.2 109.854 9.08 110.814 12.728H101.79C101.118 11.32 100.158 10.248 98.9099 9.512C97.6939 8.776 96.3019 8.408 94.7339 8.408C92.2059 8.408 90.1579 9.288 88.5899 11.048C87.0219 12.808 86.2379 15.16 86.2379 18.104C86.2379 21.048 87.0219 23.4 88.5899 25.16C90.1579 26.92 92.2059 27.8 94.7339 27.8C96.3019 27.8 97.6939 27.432 98.9099 26.696C100.158 25.96 101.118 24.888 101.79 23.48H110.814C109.854 27.128 107.95 30.008 105.102 32.12C102.254 34.2 98.8299 35.24 94.8299 35.24C91.5659 35.24 88.6379 34.52 86.0459 33.08C83.4859 31.608 81.4859 29.576 80.0459 26.984C78.6059 24.392 77.8859 21.432 77.8859 18.104ZM125.008 7.88V14.696H136V21.032H125.008V28.424H137.44V35H116.8V1.304H137.44V7.88H125.008ZM151.937 28.664H162.689V35H143.729V1.304H151.937V28.664ZM175.772 1.304V35H167.564V1.304H175.772ZM194.872 35.336C192.408 35.336 190.2 34.936 188.248 34.136C186.296 33.336 184.728 32.152 183.544 30.584C182.392 29.016 181.784 27.128 181.72 24.92H190.456C190.584 26.168 191.016 27.128 191.752 27.8C192.488 28.44 193.448 28.76 194.632 28.76C195.848 28.76 196.808 28.488 197.512 27.944C198.216 27.368 198.568 26.584 198.568 25.592C198.568 24.76 198.28 24.072 197.704 23.528C197.16 22.984 196.472 22.536 195.64 22.184C194.84 21.832 193.688 21.432 192.184 20.984C190.008 20.312 188.232 19.64 186.856 18.968C185.48 18.296 184.296 17.304 183.304 15.992C182.312 14.68 181.816 12.968 181.816 10.856C181.816 7.72 182.952 5.272 185.224 3.512C187.496 1.72 190.456 0.823999 194.104 0.823999C197.816 0.823999 200.808 1.72 203.08 3.512C205.352 5.272 206.568 7.736 206.728 10.904H197.848C197.784 9.816 197.384 8.968 196.648 8.36C195.912 7.72 194.968 7.4 193.816 7.4C192.824 7.4 192.024 7.672 191.416 8.216C190.808 8.728 190.504 9.48 190.504 10.472C190.504 11.56 191.016 12.408 192.04 13.016C193.064 13.624 194.664 14.28 196.84 14.984C199.016 15.72 200.776 16.424 202.12 17.096C203.496 17.768 204.68 18.744 205.672 20.024C206.664 21.304 207.16 22.952 207.16 24.968C207.16 26.888 206.664 28.632 205.672 30.2C204.712 31.768 203.304 33.016 201.448 33.944C199.592 34.872 197.4 35.336 194.872 35.336ZM237.412 1.304V7.88H228.484V35H220.276V7.88H211.348V1.304H237.412Z"/>
</mask>
<path d="M26.656 12.152C26.656 14.104 26.208 15.896 25.312 17.528C24.416 19.128 23.04 20.424 21.184 21.416C19.328 22.408 17.024 22.904 14.272 22.904H9.184V35H0.976V1.304H14.272C16.96 1.304 19.232 1.768 21.088 2.696C22.944 3.624 24.336 4.904 25.264 6.536C26.192 8.168 26.656 10.04 26.656 12.152ZM13.648 16.376C15.216 16.376 16.384 16.008 17.152 15.272C17.92 14.536 18.304 13.496 18.304 12.152C18.304 10.808 17.92 9.768 17.152 9.032C16.384 8.296 15.216 7.928 13.648 7.928H9.184V16.376H13.648ZM49.0731 35L42.0651 22.28H40.0971V35H31.8891V1.304H45.6651C48.3211 1.304 50.5771 1.768 52.4331 2.696C54.3211 3.624 55.7291 4.904 56.6571 6.536C57.5851 8.136 58.0491 9.928 58.0491 11.912C58.0491 14.152 57.4091 16.152 56.1291 17.912C54.8811 19.672 53.0251 20.92 50.5611 21.656L58.3371 35H49.0731ZM40.0971 16.472H45.1851C46.6891 16.472 47.8091 16.104 48.5451 15.368C49.3131 14.632 49.6971 13.592 49.6971 12.248C49.6971 10.968 49.3131 9.96 48.5451 9.224C47.8091 8.488 46.6891 8.12 45.1851 8.12H40.0971V16.472ZM72.3696 1.304V35H64.1616V1.304H72.3696ZM77.8859 18.104C77.8859 14.776 78.6059 11.816 80.0459 9.224C81.4859 6.6 83.4859 4.568 86.0459 3.128C88.6379 1.656 91.5659 0.919998 94.8299 0.919998C98.8299 0.919998 102.254 1.976 105.102 4.088C107.95 6.2 109.854 9.08 110.814 12.728H101.79C101.118 11.32 100.158 10.248 98.9099 9.512C97.6939 8.776 96.3019 8.408 94.7339 8.408C92.2059 8.408 90.1579 9.288 88.5899 11.048C87.0219 12.808 86.2379 15.16 86.2379 18.104C86.2379 21.048 87.0219 23.4 88.5899 25.16C90.1579 26.92 92.2059 27.8 94.7339 27.8C96.3019 27.8 97.6939 27.432 98.9099 26.696C100.158 25.96 101.118 24.888 101.79 23.48H110.814C109.854 27.128 107.95 30.008 105.102 32.12C102.254 34.2 98.8299 35.24 94.8299 35.24C91.5659 35.24 88.6379 34.52 86.0459 33.08C83.4859 31.608 81.4859 29.576 80.0459 26.984C78.6059 24.392 77.8859 21.432 77.8859 18.104ZM125.008 7.88V14.696H136V21.032H125.008V28.424H137.44V35H116.8V1.304H137.44V7.88H125.008ZM151.937 28.664H162.689V35H143.729V1.304H151.937V28.664ZM175.772 1.304V35H167.564V1.304H175.772ZM194.872 35.336C192.408 35.336 190.2 34.936 188.248 34.136C186.296 33.336 184.728 32.152 183.544 30.584C182.392 29.016 181.784 27.128 181.72 24.92H190.456C190.584 26.168 191.016 27.128 191.752 27.8C192.488 28.44 193.448 28.76 194.632 28.76C195.848 28.76 196.808 28.488 197.512 27.944C198.216 27.368 198.568 26.584 198.568 25.592C198.568 24.76 198.28 24.072 197.704 23.528C197.16 22.984 196.472 22.536 195.64 22.184C194.84 21.832 193.688 21.432 192.184 20.984C190.008 20.312 188.232 19.64 186.856 18.968C185.48 18.296 184.296 17.304 183.304 15.992C182.312 14.68 181.816 12.968 181.816 10.856C181.816 7.72 182.952 5.272 185.224 3.512C187.496 1.72 190.456 0.823999 194.104 0.823999C197.816 0.823999 200.808 1.72 203.08 3.512C205.352 5.272 206.568 7.736 206.728 10.904H197.848C197.784 9.816 197.384 8.968 196.648 8.36C195.912 7.72 194.968 7.4 193.816 7.4C192.824 7.4 192.024 7.672 191.416 8.216C190.808 8.728 190.504 9.48 190.504 10.472C190.504 11.56 191.016 12.408 192.04 13.016C193.064 13.624 194.664 14.28 196.84 14.984C199.016 15.72 200.776 16.424 202.12 17.096C203.496 17.768 204.68 18.744 205.672 20.024C206.664 21.304 207.16 22.952 207.16 24.968C207.16 26.888 206.664 28.632 205.672 30.2C204.712 31.768 203.304 33.016 201.448 33.944C199.592 34.872 197.4 35.336 194.872 35.336ZM237.412 1.304V7.88H228.484V35H220.276V7.88H211.348V1.304H237.412Z" fill="#FF3A85"/>
<path d="M25.312 17.528L29.6745 19.971L29.6848 19.9527L29.6949 19.9343L25.312 17.528ZM21.184 21.416L18.8271 17.0063L18.8271 17.0063L21.184 21.416ZM9.184 22.904V17.904H4.184V22.904H9.184ZM9.184 35V40H14.184V35H9.184ZM0.976 35H-4.024V40H0.976V35ZM0.976 1.304V-3.696H-4.024V1.304H0.976ZM21.088 2.696L23.3241 -1.77614L23.3241 -1.77614L21.088 2.696ZM9.184 7.928V2.928H4.184V7.928H9.184ZM9.184 16.376H4.184V21.376H9.184V16.376ZM21.656 12.152C21.656 13.305 21.4004 14.2633 20.9291 15.1217L29.6949 19.9343C31.0156 17.5287 31.656 14.903 31.656 12.152H21.656ZM20.9495 15.085C20.5863 15.7336 19.9678 16.3967 18.8271 17.0063L23.5409 25.8257C26.1122 24.4513 28.2457 22.5224 29.6745 19.971L20.9495 15.085ZM18.8271 17.0063C17.8851 17.5098 16.4465 17.904 14.272 17.904V27.904C17.6015 27.904 20.7709 27.3062 23.5409 25.8257L18.8271 17.0063ZM14.272 17.904H9.184V27.904H14.272V17.904ZM4.184 22.904V35H14.184V22.904H4.184ZM9.184 30H0.976V40H9.184V30ZM5.976 35V1.304H-4.024V35H5.976ZM0.976 6.304H14.272V-3.696H0.976V6.304ZM14.272 6.304C16.4051 6.304 17.8643 6.67431 18.8519 7.16814L23.3241 -1.77614C20.5997 -3.13831 17.5149 -3.696 14.272 -3.696V6.304ZM18.8519 7.16813C19.9189 7.70161 20.5303 8.32649 20.9175 9.00751L29.6105 4.06449C28.1417 1.4815 25.9691 -0.453618 23.3241 -1.77614L18.8519 7.16813ZM20.9175 9.00751C21.3658 9.79576 21.656 10.7962 21.656 12.152H31.656C31.656 9.28382 31.0182 6.54024 29.6105 4.06449L20.9175 9.00751ZM13.648 21.376C15.901 21.376 18.5526 20.8551 20.6115 18.8819L13.6925 11.6621C13.8105 11.549 13.9267 11.4672 14.0242 11.4116C14.1196 11.3572 14.1835 11.3355 14.1975 11.3311C14.2101 11.3271 14.1761 11.339 14.0825 11.3516C13.9887 11.3642 13.8465 11.376 13.648 11.376V21.376ZM20.6115 18.8819C22.6081 16.9685 23.304 14.4785 23.304 12.152H13.304C13.304 12.3547 13.2745 12.3463 13.3255 12.2081C13.3516 12.1375 13.3946 12.0447 13.4612 11.942C13.5282 11.8387 13.6073 11.7437 13.6925 11.6621L20.6115 18.8819ZM23.304 12.152C23.304 9.82554 22.6081 7.33545 20.6115 5.42206L13.6925 12.6419C13.6073 12.5603 13.5282 12.4653 13.4612 12.362C13.3946 12.2593 13.3516 12.1665 13.3255 12.0959C13.2745 11.9577 13.304 11.9493 13.304 12.152H23.304ZM20.6115 5.42206C18.5526 3.44891 15.901 2.928 13.648 2.928V12.928C13.8465 12.928 13.9887 12.9398 14.0825 12.9524C14.1761 12.965 14.2101 12.9769 14.1975 12.9729C14.1835 12.9685 14.1196 12.9468 14.0242 12.8924C13.9267 12.8368 13.8105 12.755 13.6925 12.6419L20.6115 5.42206ZM13.648 2.928H9.184V12.928H13.648V2.928ZM4.184 7.928V16.376H14.184V7.928H4.184ZM9.184 21.376H13.648V11.376H9.184V21.376ZM49.0731 35L44.6938 37.4128L46.1192 40H49.0731V35ZM42.0651 22.28L46.4445 19.8672L45.019 17.28H42.0651V22.28ZM40.0971 22.28V17.28H35.0971V22.28H40.0971ZM40.0971 35V40H45.0971V35H40.0971ZM31.8891 35H26.8891V40H31.8891V35ZM31.8891 1.304V-3.696H26.8891V1.304H31.8891ZM52.4331 2.696L50.1971 7.16813L50.2123 7.17574L50.2275 7.18324L52.4331 2.696ZM56.6571 6.536L52.3107 9.00751L52.3212 9.02609L52.332 9.04459L56.6571 6.536ZM56.1291 17.912L52.0854 14.9711L52.0678 14.9954L52.0505 15.0199L56.1291 17.912ZM50.5611 21.656L49.1301 16.8652L43.042 18.6837L46.2411 24.1734L50.5611 21.656ZM58.3371 35V40H67.0378L62.6571 32.4826L58.3371 35ZM40.0971 16.472H35.0971V21.472H40.0971V16.472ZM48.5451 15.368L45.0856 11.7581L45.0472 11.7949L45.0096 11.8325L48.5451 15.368ZM48.5451 9.224L45.0096 12.7595L45.0472 12.7971L45.0856 12.8339L48.5451 9.224ZM40.0971 8.12V3.12H35.0971V8.12H40.0971ZM53.4525 32.5872L46.4445 19.8672L37.6858 24.6928L44.6938 37.4128L53.4525 32.5872ZM42.0651 17.28H40.0971V27.28H42.0651V17.28ZM35.0971 22.28V35H45.0971V22.28H35.0971ZM40.0971 30H31.8891V40H40.0971V30ZM36.8891 35V1.304H26.8891V35H36.8891ZM31.8891 6.304H45.6651V-3.696H31.8891V6.304ZM45.6651 6.304C47.7556 6.304 49.202 6.67059 50.1971 7.16813L54.6692 -1.77614C51.9523 -3.13459 48.8867 -3.696 45.6651 -3.696V6.304ZM50.2275 7.18324C51.3286 7.72444 51.9367 8.34984 52.3107 9.00751L61.0036 4.06449C59.5215 1.45816 57.3137 -0.476445 54.6387 -1.79125L50.2275 7.18324ZM52.332 9.04459C52.7859 9.82714 53.0491 10.7428 53.0491 11.912H63.0491C63.0491 9.11317 62.3844 6.44485 60.9823 4.0274L52.332 9.04459ZM53.0491 11.912C53.0491 13.1284 52.7247 14.0922 52.0854 14.9711L60.1728 20.8529C62.0936 18.2118 63.0491 15.1756 63.0491 11.912H53.0491ZM52.0505 15.0199C51.5659 15.7032 50.737 16.3852 49.1301 16.8652L51.9922 26.4468C55.3133 25.4548 58.1964 23.6408 60.2078 20.8041L52.0505 15.0199ZM46.2411 24.1734L54.0171 37.5174L62.6571 32.4826L54.8811 19.1386L46.2411 24.1734ZM58.3371 30H49.0731V40H58.3371V30ZM40.0971 21.472H45.1851V11.472H40.0971V21.472ZM45.1851 21.472C47.4235 21.472 50.0583 20.9259 52.0807 18.9035L45.0096 11.8325C45.13 11.7121 45.2535 11.6201 45.365 11.5538C45.4745 11.4887 45.5565 11.4576 45.5924 11.4458C45.6529 11.4259 45.5458 11.472 45.1851 11.472V21.472ZM52.0047 18.9779C54.0012 17.0645 54.6971 14.5745 54.6971 12.248H44.6971C44.6971 12.4507 44.6676 12.4423 44.7186 12.3041C44.7447 12.2335 44.7877 12.1407 44.8543 12.038C44.9213 11.9347 45.0004 11.8397 45.0856 11.7581L52.0047 18.9779ZM54.6971 12.248C54.6971 9.90337 53.9531 7.48134 52.0047 5.61406L45.0856 12.8339C44.927 12.682 44.8046 12.4902 44.7367 12.312C44.6758 12.1523 44.6971 12.1053 44.6971 12.248H54.6971ZM52.0807 5.68847C50.0583 3.66609 47.4235 3.12 45.1851 3.12V13.12C45.5458 13.12 45.6529 13.1661 45.5924 13.1462C45.5565 13.1344 45.4745 13.1033 45.365 13.0382C45.2535 12.9719 45.13 12.8799 45.0096 12.7595L52.0807 5.68847ZM45.1851 3.12H40.0971V13.12H45.1851V3.12ZM35.0971 8.12V16.472H45.0971V8.12H35.0971ZM72.3696 1.304H77.3696V-3.696H72.3696V1.304ZM72.3696 35V40H77.3696V35H72.3696ZM64.1616 35H59.1616V40H64.1616V35ZM64.1616 1.304V-3.696H59.1616V1.304H64.1616ZM67.3696 1.304V35H77.3696V1.304H67.3696ZM72.3696 30H64.1616V40H72.3696V30ZM69.1616 35V1.304H59.1616V35H69.1616ZM64.1616 6.304H72.3696V-3.696H64.1616V6.304ZM80.0459 9.224L84.4167 11.6522L84.423 11.6409L84.4292 11.6295L80.0459 9.224ZM86.0459 3.128L88.4972 7.48588L88.5061 7.48086L88.515 7.4758L86.0459 3.128ZM105.102 4.088L108.08 0.071812L108.08 0.0718107L105.102 4.088ZM110.814 12.728V17.728H117.3L115.649 11.4555L110.814 12.728ZM101.79 12.728L97.2775 14.8816L98.636 17.728H101.79V12.728ZM98.9099 9.512L96.3209 13.7895L96.3453 13.8043L96.3699 13.8188L98.9099 9.512ZM88.5899 11.048L92.3232 14.374L92.3232 14.374L88.5899 11.048ZM98.9099 26.696L96.3699 22.3892L96.3453 22.4037L96.3209 22.4185L98.9099 26.696ZM101.79 23.48V18.48H98.636L97.2775 21.3264L101.79 23.48ZM110.814 23.48L115.649 24.7525L117.3 18.48H110.814V23.48ZM105.102 32.12L108.051 36.1578L108.066 36.147L108.08 36.1362L105.102 32.12ZM86.0459 33.08L83.5535 37.4145L83.5855 37.4329L83.6177 37.4508L86.0459 33.08ZM80.0459 26.984L84.4167 24.5558L84.4167 24.5558L80.0459 26.984ZM82.8859 18.104C82.8859 15.5199 83.4378 13.4141 84.4167 11.6522L75.6751 6.79578C73.7739 10.2179 72.8859 14.0321 72.8859 18.104H82.8859ZM84.4292 11.6295C85.4291 9.80743 86.767 8.45908 88.4972 7.48588L83.5946 -1.22988C80.2047 0.676913 77.5426 3.39257 75.6625 6.81851L84.4292 11.6295ZM88.515 7.4758C90.2841 6.47113 92.347 5.92 94.8299 5.92V-4.08C90.7847 -4.08 86.9916 -3.15913 83.5767 -1.21981L88.515 7.4758ZM94.8299 5.92C97.9011 5.92 100.246 6.71175 102.124 8.10418L108.08 0.0718107C104.262 -2.75975 99.7586 -4.08 94.8299 -4.08V5.92ZM102.124 8.10418C103.998 9.4942 105.288 11.3761 105.979 14.0005L115.649 11.4555C114.42 6.78391 111.902 2.9058 108.08 0.071812L102.124 8.10418ZM110.814 7.728H101.79V17.728H110.814V7.728ZM106.302 10.5744C105.236 8.34068 103.621 6.48588 101.45 5.20517L96.3699 13.8188C96.6943 14.0101 96.9995 14.2993 97.2775 14.8816L106.302 10.5744ZM101.499 5.2345C99.423 3.97802 97.1176 3.408 94.7339 3.408V13.408C95.4861 13.408 95.9648 13.574 96.3209 13.7895L101.499 5.2345ZM94.7339 3.408C90.8962 3.408 87.4482 4.81303 84.8566 7.72197L92.3232 14.374C92.8676 13.763 93.5155 13.408 94.7339 13.408V3.408ZM84.8566 7.72197C82.2839 10.6097 81.2379 14.2506 81.2379 18.104H91.2379C91.2379 16.0694 91.7599 15.0063 92.3232 14.374L84.8566 7.72197ZM81.2379 18.104C81.2379 21.9574 82.2839 25.5983 84.8566 28.486L92.3232 21.834C91.7599 21.2017 91.2379 20.1386 91.2379 18.104H81.2379ZM84.8566 28.486C87.4482 31.395 90.8962 32.8 94.7339 32.8V22.8C93.5155 22.8 92.8676 22.445 92.3232 21.834L84.8566 28.486ZM94.7339 32.8C97.1176 32.8 99.423 32.23 101.499 30.9735L96.3209 22.4185C95.9648 22.634 95.4861 22.8 94.7339 22.8V32.8ZM101.45 31.0028C103.621 29.7221 105.236 27.8673 106.302 25.6336L97.2775 21.3264C96.9995 21.9087 96.6943 22.1979 96.3699 22.3892L101.45 31.0028ZM101.79 28.48H110.814V18.48H101.79V28.48ZM105.979 22.2075C105.288 24.8319 103.998 26.7138 102.124 28.1038L108.08 36.1362C111.902 33.3022 114.42 29.4241 115.649 24.7525L105.979 22.2075ZM102.153 28.0822C100.274 29.4548 97.9181 30.24 94.8299 30.24V40.24C99.7416 40.24 104.234 38.9452 108.051 36.1578L102.153 28.0822ZM94.8299 30.24C92.3279 30.24 90.2503 29.696 88.4741 28.7092L83.6177 37.4508C87.0255 39.344 90.8038 40.24 94.8299 40.24V30.24ZM88.5382 28.7455C86.7694 27.7284 85.4173 26.3569 84.4167 24.5558L75.6751 29.4122C77.5545 32.7951 80.2024 35.4876 83.5535 37.4145L88.5382 28.7455ZM84.4167 24.5558C83.4378 22.7939 82.8859 20.6881 82.8859 18.104H72.8859C72.8859 22.1759 73.7739 25.9901 75.6751 29.4122L84.4167 24.5558ZM125.008 7.88V2.88H120.008V7.88H125.008ZM125.008 14.696H120.008V19.696H125.008V14.696ZM136 14.696H141V9.696H136V14.696ZM136 21.032V26.032H141V21.032H136ZM125.008 21.032V16.032H120.008V21.032H125.008ZM125.008 28.424H120.008V33.424H125.008V28.424ZM137.44 28.424H142.44V23.424H137.44V28.424ZM137.44 35V40H142.44V35H137.44ZM116.8 35H111.8V40H116.8V35ZM116.8 1.304V-3.696H111.8V1.304H116.8ZM137.44 1.304H142.44V-3.696H137.44V1.304ZM137.44 7.88V12.88H142.44V7.88H137.44ZM120.008 7.88V14.696H130.008V7.88H120.008ZM125.008 19.696H136V9.696H125.008V19.696ZM131 14.696V21.032H141V14.696H131ZM136 16.032H125.008V26.032H136V16.032ZM120.008 21.032V28.424H130.008V21.032H120.008ZM125.008 33.424H137.44V23.424H125.008V33.424ZM132.44 28.424V35H142.44V28.424H132.44ZM137.44 30H116.8V40H137.44V30ZM121.8 35V1.304H111.8V35H121.8ZM116.8 6.304H137.44V-3.696H116.8V6.304ZM132.44 1.304V7.88H142.44V1.304H132.44ZM137.44 2.88H125.008V12.88H137.44V2.88ZM151.937 28.664H146.937V33.664H151.937V28.664ZM162.689 28.664H167.689V23.664H162.689V28.664ZM162.689 35V40H167.689V35H162.689ZM143.729 35H138.729V40H143.729V35ZM143.729 1.304V-3.696H138.729V1.304H143.729ZM151.937 1.304H156.937V-3.696H151.937V1.304ZM151.937 33.664H162.689V23.664H151.937V33.664ZM157.689 28.664V35H167.689V28.664H157.689ZM162.689 30H143.729V40H162.689V30ZM148.729 35V1.304H138.729V35H148.729ZM143.729 6.304H151.937V-3.696H143.729V6.304ZM146.937 1.304V28.664H156.937V1.304H146.937ZM175.772 1.304H180.772V-3.696H175.772V1.304ZM175.772 35V40H180.772V35H175.772ZM167.564 35H162.564V40H167.564V35ZM167.564 1.304V-3.696H162.564V1.304H167.564ZM170.772 1.304V35H180.772V1.304H170.772ZM175.772 30H167.564V40H175.772V30ZM172.564 35V1.304H162.564V35H172.564ZM167.564 6.304H175.772V-3.696H167.564V6.304ZM188.248 34.136L186.352 38.7625L186.352 38.7625L188.248 34.136ZM183.544 30.584L179.515 33.5444L179.534 33.5708L179.554 33.597L183.544 30.584ZM181.72 24.92V19.92H176.573L176.722 25.0649L181.72 24.92ZM190.456 24.92L195.43 24.4099L194.97 19.92H190.456V24.92ZM191.752 27.8L188.381 31.4924L188.426 31.5333L188.471 31.573L191.752 27.8ZM197.512 27.944L200.57 31.9004L200.625 31.8579L200.679 31.8138L197.512 27.944ZM197.704 23.528L194.169 27.0635L194.219 27.114L194.271 27.1631L197.704 23.528ZM195.64 22.184L193.627 26.7606L193.659 26.7749L193.692 26.7888L195.64 22.184ZM192.184 20.984L190.709 25.7614L190.733 25.7688L190.757 25.7759L192.184 20.984ZM183.304 15.992L187.293 12.9765L187.293 12.9765L183.304 15.992ZM185.224 3.512L188.286 7.46475L188.304 7.45136L188.321 7.43783L185.224 3.512ZM203.08 3.512L199.984 7.43783L200.001 7.45136L200.018 7.46475L203.08 3.512ZM206.728 10.904V15.904H211.987L211.722 10.6518L206.728 10.904ZM197.848 10.904L192.857 11.1976L193.134 15.904H197.848V10.904ZM196.648 8.36L193.367 12.133L193.415 12.1745L193.464 12.2148L196.648 8.36ZM191.416 8.216L194.637 12.0406L194.694 11.9922L194.75 11.9422L191.416 8.216ZM192.04 13.016L194.593 8.71673L194.593 8.71672L192.04 13.016ZM196.84 14.984L198.442 10.2476L198.411 10.237L198.379 10.2268L196.84 14.984ZM202.12 17.096L199.884 21.5681L199.905 21.5786L199.926 21.5888L202.12 17.096ZM205.672 20.024L201.72 23.0869L201.72 23.0869L205.672 20.024ZM205.672 30.2L201.447 27.5268L201.427 27.5579L201.408 27.5892L205.672 30.2ZM201.448 33.944L199.212 29.4719L199.212 29.4719L201.448 33.944ZM194.872 30.336C192.951 30.336 191.403 30.0251 190.144 29.5095L186.352 38.7625C188.998 39.8469 191.866 40.336 194.872 40.336V30.336ZM190.144 29.5095C188.959 29.0237 188.138 28.3702 187.535 27.571L179.554 33.597C181.319 35.9338 183.634 37.6483 186.352 38.7625L190.144 29.5095ZM187.574 27.6236C187.102 26.9817 186.757 26.1103 186.718 24.7751L176.722 25.0649C176.812 28.1457 177.683 31.0503 179.515 33.5444L187.574 27.6236ZM181.72 29.92H190.456V19.92H181.72V29.92ZM185.482 25.4301C185.702 27.5722 186.521 29.7945 188.381 31.4924L195.124 24.1076C195.2 24.177 195.267 24.2536 195.323 24.332C195.379 24.4099 195.415 24.4772 195.436 24.5242C195.477 24.6159 195.45 24.6003 195.43 24.4099L185.482 25.4301ZM188.471 31.573C190.302 33.1648 192.512 33.76 194.632 33.76V23.76C194.489 23.76 194.497 23.7405 194.606 23.7766C194.727 23.8169 194.885 23.8985 195.033 24.027L188.471 31.573ZM194.632 33.76C196.554 33.76 198.718 33.3309 200.57 31.9004L194.455 23.9876C194.666 23.8247 194.842 23.7623 194.901 23.7454C194.949 23.7318 194.876 23.76 194.632 23.76V33.76ZM200.679 31.8138C202.658 30.1943 203.568 27.9289 203.568 25.592H193.568C193.568 25.4904 193.589 25.2201 193.743 24.876C193.903 24.5196 194.134 24.2477 194.346 24.0742L200.679 31.8138ZM203.568 25.592C203.568 23.4618 202.769 21.4334 201.137 19.8929L194.271 27.1631C194.084 26.9859 193.882 26.7225 193.74 26.3827C193.6 26.0483 193.568 25.7623 193.568 25.592H203.568ZM201.24 19.9925C200.169 18.9211 198.912 18.139 197.589 17.5792L193.692 26.7888C194.033 26.933 194.152 27.0469 194.169 27.0635L201.24 19.9925ZM197.654 17.6074C196.57 17.1304 195.185 16.6608 193.612 16.1921L190.757 25.7759C192.191 26.2032 193.111 26.5336 193.627 26.7606L197.654 17.6074ZM193.66 16.2066C191.624 15.5779 190.112 14.9937 189.051 14.4752L184.662 23.4608C186.352 24.2863 188.393 25.0461 190.709 25.7614L193.66 16.2066ZM189.051 14.4752C188.432 14.1731 187.847 13.7095 187.293 12.9765L179.316 19.0075C180.746 20.8985 182.529 22.4189 184.662 23.4608L189.051 14.4752ZM187.293 12.9765C187.123 12.752 186.816 12.1908 186.816 10.856H176.816C176.816 13.7452 177.502 16.608 179.316 19.0075L187.293 12.9765ZM186.816 10.856C186.816 9.10423 187.36 8.18268 188.286 7.46475L182.162 -0.44075C178.545 2.36132 176.816 6.33577 176.816 10.856H186.816ZM188.321 7.43783C189.502 6.50621 191.282 5.824 194.104 5.824V-4.176C189.631 -4.176 185.491 -3.06621 182.128 -0.41383L188.321 7.43783ZM194.104 5.824C197.015 5.824 198.817 6.51762 199.984 7.43783L206.177 -0.41383C202.799 -3.07762 198.618 -4.176 194.104 -4.176V5.824ZM200.018 7.46475C201.01 8.23265 201.64 9.27436 201.735 11.1562L211.722 10.6518C211.497 6.19764 209.695 2.31135 206.142 -0.44075L200.018 7.46475ZM206.728 5.904H197.848V15.904H206.728V5.904ZM202.84 10.6104C202.707 8.35183 201.796 6.12672 199.833 4.50519L193.464 12.2148C193.275 12.0591 193.098 11.8388 192.978 11.5851C192.865 11.3457 192.856 11.189 192.857 11.1976L202.84 10.6104ZM199.929 4.58698C198.124 3.0168 195.944 2.4 193.816 2.4V12.4C193.93 12.4 193.902 12.4155 193.783 12.3753C193.653 12.3313 193.501 12.2492 193.367 12.133L199.929 4.58698ZM193.816 2.4C191.873 2.4 189.795 2.9571 188.082 4.48979L194.75 11.9422C194.535 12.1347 194.295 12.2653 194.082 12.3379C193.882 12.4057 193.775 12.4 193.816 12.4V2.4ZM188.196 4.39144C186.187 6.08286 185.504 8.4028 185.504 10.472H195.504C195.504 10.4791 195.504 10.7018 195.368 11.0379C195.221 11.4017 194.97 11.7604 194.637 12.0406L188.196 4.39144ZM185.504 10.472C185.504 13.5172 187.12 15.9093 189.488 17.3153L194.593 8.71672C194.647 8.74875 194.921 8.92907 195.169 9.33965C195.429 9.77097 195.504 10.1975 195.504 10.472H185.504ZM189.488 17.3153C191.003 18.2149 193.032 19.007 195.301 19.7412L198.379 10.2268C196.297 9.55299 195.126 9.03314 194.593 8.71673L189.488 17.3153ZM195.238 19.7204C197.298 20.417 198.822 21.0372 199.884 21.5681L204.356 12.6239C202.73 11.8108 200.735 11.023 198.442 10.2476L195.238 19.7204ZM199.926 21.5888C200.575 21.9057 201.169 22.3761 201.72 23.0869L209.624 16.9611C208.191 15.1119 206.418 13.6303 204.315 12.6032L199.926 21.5888ZM201.72 23.0869C201.881 23.294 202.16 23.7838 202.16 24.968H212.16C212.16 22.1202 211.448 19.314 209.624 16.9611L201.72 23.0869ZM202.16 24.968C202.16 25.9763 201.915 26.7874 201.447 27.5268L209.898 32.8732C211.414 30.4766 212.16 27.7997 212.16 24.968H202.16ZM201.408 27.5892C200.997 28.26 200.342 28.907 199.212 29.4719L203.684 38.4161C206.267 37.125 208.427 35.276 209.937 32.8108L201.408 27.5892ZM199.212 29.4719C198.186 29.9851 196.791 30.336 194.872 30.336V40.336C198.01 40.336 200.999 39.7589 203.684 38.4161L199.212 29.4719ZM237.412 1.304H242.412V-3.696H237.412V1.304ZM237.412 7.88V12.88H242.412V7.88H237.412ZM228.484 7.88V2.88H223.484V7.88H228.484ZM228.484 35V40H233.484V35H228.484ZM220.276 35H215.276V40H220.276V35ZM220.276 7.88H225.276V2.88H220.276V7.88ZM211.348 7.88H206.348V12.88H211.348V7.88ZM211.348 1.304V-3.696H206.348V1.304H211.348ZM232.412 1.304V7.88H242.412V1.304H232.412ZM237.412 2.88H228.484V12.88H237.412V2.88ZM223.484 7.88V35H233.484V7.88H223.484ZM228.484 30H220.276V40H228.484V30ZM225.276 35V7.88H215.276V35H225.276ZM220.276 2.88H211.348V12.88H220.276V2.88ZM216.348 7.88V1.304H206.348V7.88H216.348ZM211.348 6.304H237.412V-3.696H211.348V6.304Z" fill="black" mask="url(#path-1-outside-1_507_763)"/>
</svg>
