<svg width="578" height="36" viewBox="0 0 578 36" fill="none" xmlns="http://www.w3.org/2000/svg">
<mask id="path-1-outside-1_611_438" maskUnits="userSpaceOnUse" x="-6" y="-5" width="589" height="48" fill="black">
<rect fill="white" x="-6" y="-5" width="589" height="48"/>
<path d="M13.168 35.336C10.704 35.336 8.496 34.936 6.544 34.136C4.592 33.336 3.024 32.152 1.84 30.584C0.688 29.016 0.0800002 27.128 0.0160002 24.92H8.752C8.88 26.168 9.312 27.128 10.048 27.8C10.784 28.44 11.744 28.76 12.928 28.76C14.144 28.76 15.104 28.488 15.808 27.944C16.512 27.368 16.864 26.584 16.864 25.592C16.864 24.76 16.576 24.072 16 23.528C15.456 22.984 14.768 22.536 13.936 22.184C13.136 21.832 11.984 21.432 10.48 20.984C8.304 20.312 6.528 19.64 5.152 18.968C3.776 18.296 2.592 17.304 1.6 15.992C0.608 14.68 0.112 12.968 0.112 10.856C0.112 7.72 1.248 5.272 3.52 3.512C5.792 1.72 8.752 0.823999 12.4 0.823999C16.112 0.823999 19.104 1.72 21.376 3.512C23.648 5.272 24.864 7.736 25.024 10.904H16.144C16.08 9.816 15.68 8.968 14.944 8.36C14.208 7.72 13.264 7.4 12.112 7.4C11.12 7.4 10.32 7.672 9.712 8.216C9.104 8.728 8.8 9.48 8.8 10.472C8.8 11.56 9.312 12.408 10.336 13.016C11.36 13.624 12.96 14.28 15.136 14.984C17.312 15.72 19.072 16.424 20.416 17.096C21.792 17.768 22.976 18.744 23.968 20.024C24.96 21.304 25.456 22.952 25.456 24.968C25.456 26.888 24.96 28.632 23.968 30.2C23.008 31.768 21.6 33.016 19.744 33.944C17.888 34.872 15.696 35.336 13.168 35.336ZM39.6752 7.88V14.696H50.6672V21.032H39.6752V28.424H52.1072V35H31.4672V1.304H52.1072V7.88H39.6752ZM75.58 35L68.572 22.28H66.604V35H58.396V1.304H72.172C74.828 1.304 77.084 1.768 78.94 2.696C80.828 3.624 82.236 4.904 83.164 6.536C84.092 8.136 84.556 9.928 84.556 11.912C84.556 14.152 83.916 16.152 82.636 17.912C81.388 19.672 79.532 20.92 77.068 21.656L84.844 35H75.58ZM66.604 16.472H71.692C73.196 16.472 74.316 16.104 75.052 15.368C75.82 14.632 76.204 13.592 76.204 12.248C76.204 10.968 75.82 9.96 75.052 9.224C74.316 8.488 73.196 8.12 71.692 8.12H66.604V16.472ZM122.3 1.304L110.348 35H100.076L88.1245 1.304H96.8605L105.212 26.744L113.612 1.304H122.3ZM134.899 1.304V35H126.691V1.304H134.899ZM140.415 18.104C140.415 14.776 141.135 11.816 142.575 9.224C144.015 6.6 146.015 4.568 148.575 3.128C151.167 1.656 154.095 0.919998 157.359 0.919998C161.359 0.919998 164.783 1.976 167.631 4.088C170.479 6.2 172.383 9.08 173.343 12.728H164.319C163.647 11.32 162.687 10.248 161.439 9.512C160.223 8.776 158.831 8.408 157.263 8.408C154.735 8.408 152.687 9.288 151.119 11.048C149.551 12.808 148.767 15.16 148.767 18.104C148.767 21.048 149.551 23.4 151.119 25.16C152.687 26.92 154.735 27.8 157.263 27.8C158.831 27.8 160.223 27.432 161.439 26.696C162.687 25.96 163.647 24.888 164.319 23.48H173.343C172.383 27.128 170.479 30.008 167.631 32.12C164.783 34.2 161.359 35.24 157.359 35.24C154.095 35.24 151.167 34.52 148.575 33.08C146.015 31.608 144.015 29.576 142.575 26.984C141.135 24.392 140.415 21.432 140.415 18.104ZM187.538 7.88V14.696H198.53V21.032H187.538V28.424H199.97V35H179.33V1.304H199.97V7.88H187.538ZM218.451 35.336C215.987 35.336 213.779 34.936 211.827 34.136C209.875 33.336 208.307 32.152 207.123 30.584C205.971 29.016 205.363 27.128 205.299 24.92H214.035C214.163 26.168 214.595 27.128 215.331 27.8C216.067 28.44 217.027 28.76 218.211 28.76C219.427 28.76 220.387 28.488 221.091 27.944C221.795 27.368 222.147 26.584 222.147 25.592C222.147 24.76 221.859 24.072 221.283 23.528C220.739 22.984 220.051 22.536 219.219 22.184C218.419 21.832 217.267 21.432 215.763 20.984C213.587 20.312 211.811 19.64 210.435 18.968C209.059 18.296 207.875 17.304 206.883 15.992C205.891 14.68 205.395 12.968 205.395 10.856C205.395 7.72 206.531 5.272 208.803 3.512C211.075 1.72 214.035 0.823999 217.683 0.823999C221.395 0.823999 224.387 1.72 226.659 3.512C228.931 5.272 230.147 7.736 230.307 10.904H221.427C221.363 9.816 220.963 8.968 220.227 8.36C219.491 7.72 218.547 7.4 217.395 7.4C216.403 7.4 215.603 7.672 214.995 8.216C214.387 8.728 214.083 9.48 214.083 10.472C214.083 11.56 214.595 12.408 215.619 13.016C216.643 13.624 218.243 14.28 220.419 14.984C222.595 15.72 224.355 16.424 225.699 17.096C227.075 17.768 228.259 18.744 229.251 20.024C230.243 21.304 230.739 22.952 230.739 24.968C230.739 26.888 230.243 28.632 229.251 30.2C228.291 31.768 226.883 33.016 225.027 33.944C223.171 34.872 220.979 35.336 218.451 35.336ZM294.25 1.304L285.466 35H275.53L270.154 12.824L264.586 35H254.65L246.106 1.304H254.89L259.738 25.832L265.738 1.304H274.762L280.522 25.832L285.418 1.304H294.25ZM307.534 7.88V14.696H318.526V21.032H307.534V28.424H319.966V35H299.326V1.304H319.966V7.88H307.534ZM363.067 12.152C363.067 14.104 362.619 15.896 361.723 17.528C360.827 19.128 359.451 20.424 357.595 21.416C355.739 22.408 353.435 22.904 350.683 22.904H345.595V35H337.387V1.304H350.683C353.371 1.304 355.643 1.768 357.499 2.696C359.355 3.624 360.747 4.904 361.675 6.536C362.603 8.168 363.067 10.04 363.067 12.152ZM350.059 16.376C351.627 16.376 352.795 16.008 353.563 15.272C354.331 14.536 354.715 13.496 354.715 12.152C354.715 10.808 354.331 9.768 353.563 9.032C352.795 8.296 351.627 7.928 350.059 7.928H345.595V16.376H350.059ZM385.484 35L378.476 22.28H376.508V35H368.3V1.304H382.076C384.732 1.304 386.988 1.768 388.844 2.696C390.732 3.624 392.14 4.904 393.068 6.536C393.996 8.136 394.46 9.928 394.46 11.912C394.46 14.152 393.82 16.152 392.54 17.912C391.292 19.672 389.436 20.92 386.972 21.656L394.748 35H385.484ZM376.508 16.472H381.596C383.1 16.472 384.22 16.104 384.956 15.368C385.724 14.632 386.108 13.592 386.108 12.248C386.108 10.968 385.724 9.96 384.956 9.224C384.22 8.488 383.1 8.12 381.596 8.12H376.508V16.472ZM416.508 35.336C413.34 35.336 410.428 34.6 407.772 33.128C405.148 31.656 403.052 29.608 401.484 26.984C399.948 24.328 399.18 21.352 399.18 18.056C399.18 14.76 399.948 11.8 401.484 9.176C403.052 6.552 405.148 4.504 407.772 3.032C410.428 1.56 413.34 0.823999 416.508 0.823999C419.676 0.823999 422.572 1.56 425.196 3.032C427.852 4.504 429.932 6.552 431.436 9.176C432.972 11.8 433.74 14.76 433.74 18.056C433.74 21.352 432.972 24.328 431.436 26.984C429.9 29.608 427.82 31.656 425.196 33.128C422.572 34.6 419.676 35.336 416.508 35.336ZM416.508 27.848C419.196 27.848 421.34 26.952 422.94 25.16C424.572 23.368 425.388 21 425.388 18.056C425.388 15.08 424.572 12.712 422.94 10.952C421.34 9.16 419.196 8.264 416.508 8.264C413.788 8.264 411.612 9.144 409.98 10.904C408.38 12.664 407.58 15.048 407.58 18.056C407.58 21.032 408.38 23.416 409.98 25.208C411.612 26.968 413.788 27.848 416.508 27.848ZM470.899 1.304L458.947 35H448.675L436.723 1.304H445.459L453.811 26.744L462.211 1.304H470.899ZM483.497 1.304V35H475.289V1.304H483.497ZM503.029 1.304C506.581 1.304 509.685 2.008 512.341 3.416C514.997 4.824 517.045 6.808 518.485 9.368C519.957 11.896 520.693 14.824 520.693 18.152C520.693 21.448 519.957 24.376 518.485 26.936C517.045 29.496 514.981 31.48 512.293 32.888C509.637 34.296 506.549 35 503.029 35H490.405V1.304H503.029ZM502.501 27.896C505.605 27.896 508.021 27.048 509.749 25.352C511.477 23.656 512.341 21.256 512.341 18.152C512.341 15.048 511.477 12.632 509.749 10.904C508.021 9.176 505.605 8.312 502.501 8.312H498.613V27.896H502.501ZM534.448 7.88V14.696H545.44V21.032H534.448V28.424H546.88V35H526.24V1.304H546.88V7.88H534.448ZM565.361 35.336C562.897 35.336 560.689 34.936 558.737 34.136C556.785 33.336 555.217 32.152 554.033 30.584C552.881 29.016 552.273 27.128 552.209 24.92H560.945C561.073 26.168 561.505 27.128 562.241 27.8C562.977 28.44 563.937 28.76 565.121 28.76C566.337 28.76 567.297 28.488 568.001 27.944C568.705 27.368 569.057 26.584 569.057 25.592C569.057 24.76 568.769 24.072 568.193 23.528C567.649 22.984 566.961 22.536 566.129 22.184C565.329 21.832 564.177 21.432 562.673 20.984C560.497 20.312 558.721 19.64 557.345 18.968C555.969 18.296 554.785 17.304 553.793 15.992C552.801 14.68 552.305 12.968 552.305 10.856C552.305 7.72 553.441 5.272 555.713 3.512C557.985 1.72 560.945 0.823999 564.593 0.823999C568.305 0.823999 571.297 1.72 573.569 3.512C575.841 5.272 577.057 7.736 577.217 10.904H568.337C568.273 9.816 567.873 8.968 567.137 8.36C566.401 7.72 565.457 7.4 564.305 7.4C563.313 7.4 562.513 7.672 561.905 8.216C561.297 8.728 560.993 9.48 560.993 10.472C560.993 11.56 561.505 12.408 562.529 13.016C563.553 13.624 565.153 14.28 567.329 14.984C569.505 15.72 571.265 16.424 572.609 17.096C573.985 17.768 575.169 18.744 576.161 20.024C577.153 21.304 577.649 22.952 577.649 24.968C577.649 26.888 577.153 28.632 576.161 30.2C575.201 31.768 573.793 33.016 571.937 33.944C570.081 34.872 567.889 35.336 565.361 35.336Z"/>
</mask>
<path d="M13.168 35.336C10.704 35.336 8.496 34.936 6.544 34.136C4.592 33.336 3.024 32.152 1.84 30.584C0.688 29.016 0.0800002 27.128 0.0160002 24.92H8.752C8.88 26.168 9.312 27.128 10.048 27.8C10.784 28.44 11.744 28.76 12.928 28.76C14.144 28.76 15.104 28.488 15.808 27.944C16.512 27.368 16.864 26.584 16.864 25.592C16.864 24.76 16.576 24.072 16 23.528C15.456 22.984 14.768 22.536 13.936 22.184C13.136 21.832 11.984 21.432 10.48 20.984C8.304 20.312 6.528 19.64 5.152 18.968C3.776 18.296 2.592 17.304 1.6 15.992C0.608 14.68 0.112 12.968 0.112 10.856C0.112 7.72 1.248 5.272 3.52 3.512C5.792 1.72 8.752 0.823999 12.4 0.823999C16.112 0.823999 19.104 1.72 21.376 3.512C23.648 5.272 24.864 7.736 25.024 10.904H16.144C16.08 9.816 15.68 8.968 14.944 8.36C14.208 7.72 13.264 7.4 12.112 7.4C11.12 7.4 10.32 7.672 9.712 8.216C9.104 8.728 8.8 9.48 8.8 10.472C8.8 11.56 9.312 12.408 10.336 13.016C11.36 13.624 12.96 14.28 15.136 14.984C17.312 15.72 19.072 16.424 20.416 17.096C21.792 17.768 22.976 18.744 23.968 20.024C24.96 21.304 25.456 22.952 25.456 24.968C25.456 26.888 24.96 28.632 23.968 30.2C23.008 31.768 21.6 33.016 19.744 33.944C17.888 34.872 15.696 35.336 13.168 35.336ZM39.6752 7.88V14.696H50.6672V21.032H39.6752V28.424H52.1072V35H31.4672V1.304H52.1072V7.88H39.6752ZM75.58 35L68.572 22.28H66.604V35H58.396V1.304H72.172C74.828 1.304 77.084 1.768 78.94 2.696C80.828 3.624 82.236 4.904 83.164 6.536C84.092 8.136 84.556 9.928 84.556 11.912C84.556 14.152 83.916 16.152 82.636 17.912C81.388 19.672 79.532 20.92 77.068 21.656L84.844 35H75.58ZM66.604 16.472H71.692C73.196 16.472 74.316 16.104 75.052 15.368C75.82 14.632 76.204 13.592 76.204 12.248C76.204 10.968 75.82 9.96 75.052 9.224C74.316 8.488 73.196 8.12 71.692 8.12H66.604V16.472ZM122.3 1.304L110.348 35H100.076L88.1245 1.304H96.8605L105.212 26.744L113.612 1.304H122.3ZM134.899 1.304V35H126.691V1.304H134.899ZM140.415 18.104C140.415 14.776 141.135 11.816 142.575 9.224C144.015 6.6 146.015 4.568 148.575 3.128C151.167 1.656 154.095 0.919998 157.359 0.919998C161.359 0.919998 164.783 1.976 167.631 4.088C170.479 6.2 172.383 9.08 173.343 12.728H164.319C163.647 11.32 162.687 10.248 161.439 9.512C160.223 8.776 158.831 8.408 157.263 8.408C154.735 8.408 152.687 9.288 151.119 11.048C149.551 12.808 148.767 15.16 148.767 18.104C148.767 21.048 149.551 23.4 151.119 25.16C152.687 26.92 154.735 27.8 157.263 27.8C158.831 27.8 160.223 27.432 161.439 26.696C162.687 25.96 163.647 24.888 164.319 23.48H173.343C172.383 27.128 170.479 30.008 167.631 32.12C164.783 34.2 161.359 35.24 157.359 35.24C154.095 35.24 151.167 34.52 148.575 33.08C146.015 31.608 144.015 29.576 142.575 26.984C141.135 24.392 140.415 21.432 140.415 18.104ZM187.538 7.88V14.696H198.53V21.032H187.538V28.424H199.97V35H179.33V1.304H199.97V7.88H187.538ZM218.451 35.336C215.987 35.336 213.779 34.936 211.827 34.136C209.875 33.336 208.307 32.152 207.123 30.584C205.971 29.016 205.363 27.128 205.299 24.92H214.035C214.163 26.168 214.595 27.128 215.331 27.8C216.067 28.44 217.027 28.76 218.211 28.76C219.427 28.76 220.387 28.488 221.091 27.944C221.795 27.368 222.147 26.584 222.147 25.592C222.147 24.76 221.859 24.072 221.283 23.528C220.739 22.984 220.051 22.536 219.219 22.184C218.419 21.832 217.267 21.432 215.763 20.984C213.587 20.312 211.811 19.64 210.435 18.968C209.059 18.296 207.875 17.304 206.883 15.992C205.891 14.68 205.395 12.968 205.395 10.856C205.395 7.72 206.531 5.272 208.803 3.512C211.075 1.72 214.035 0.823999 217.683 0.823999C221.395 0.823999 224.387 1.72 226.659 3.512C228.931 5.272 230.147 7.736 230.307 10.904H221.427C221.363 9.816 220.963 8.968 220.227 8.36C219.491 7.72 218.547 7.4 217.395 7.4C216.403 7.4 215.603 7.672 214.995 8.216C214.387 8.728 214.083 9.48 214.083 10.472C214.083 11.56 214.595 12.408 215.619 13.016C216.643 13.624 218.243 14.28 220.419 14.984C222.595 15.72 224.355 16.424 225.699 17.096C227.075 17.768 228.259 18.744 229.251 20.024C230.243 21.304 230.739 22.952 230.739 24.968C230.739 26.888 230.243 28.632 229.251 30.2C228.291 31.768 226.883 33.016 225.027 33.944C223.171 34.872 220.979 35.336 218.451 35.336ZM294.25 1.304L285.466 35H275.53L270.154 12.824L264.586 35H254.65L246.106 1.304H254.89L259.738 25.832L265.738 1.304H274.762L280.522 25.832L285.418 1.304H294.25ZM307.534 7.88V14.696H318.526V21.032H307.534V28.424H319.966V35H299.326V1.304H319.966V7.88H307.534ZM363.067 12.152C363.067 14.104 362.619 15.896 361.723 17.528C360.827 19.128 359.451 20.424 357.595 21.416C355.739 22.408 353.435 22.904 350.683 22.904H345.595V35H337.387V1.304H350.683C353.371 1.304 355.643 1.768 357.499 2.696C359.355 3.624 360.747 4.904 361.675 6.536C362.603 8.168 363.067 10.04 363.067 12.152ZM350.059 16.376C351.627 16.376 352.795 16.008 353.563 15.272C354.331 14.536 354.715 13.496 354.715 12.152C354.715 10.808 354.331 9.768 353.563 9.032C352.795 8.296 351.627 7.928 350.059 7.928H345.595V16.376H350.059ZM385.484 35L378.476 22.28H376.508V35H368.3V1.304H382.076C384.732 1.304 386.988 1.768 388.844 2.696C390.732 3.624 392.14 4.904 393.068 6.536C393.996 8.136 394.46 9.928 394.46 11.912C394.46 14.152 393.82 16.152 392.54 17.912C391.292 19.672 389.436 20.92 386.972 21.656L394.748 35H385.484ZM376.508 16.472H381.596C383.1 16.472 384.22 16.104 384.956 15.368C385.724 14.632 386.108 13.592 386.108 12.248C386.108 10.968 385.724 9.96 384.956 9.224C384.22 8.488 383.1 8.12 381.596 8.12H376.508V16.472ZM416.508 35.336C413.34 35.336 410.428 34.6 407.772 33.128C405.148 31.656 403.052 29.608 401.484 26.984C399.948 24.328 399.18 21.352 399.18 18.056C399.18 14.76 399.948 11.8 401.484 9.176C403.052 6.552 405.148 4.504 407.772 3.032C410.428 1.56 413.34 0.823999 416.508 0.823999C419.676 0.823999 422.572 1.56 425.196 3.032C427.852 4.504 429.932 6.552 431.436 9.176C432.972 11.8 433.74 14.76 433.74 18.056C433.74 21.352 432.972 24.328 431.436 26.984C429.9 29.608 427.82 31.656 425.196 33.128C422.572 34.6 419.676 35.336 416.508 35.336ZM416.508 27.848C419.196 27.848 421.34 26.952 422.94 25.16C424.572 23.368 425.388 21 425.388 18.056C425.388 15.08 424.572 12.712 422.94 10.952C421.34 9.16 419.196 8.264 416.508 8.264C413.788 8.264 411.612 9.144 409.98 10.904C408.38 12.664 407.58 15.048 407.58 18.056C407.58 21.032 408.38 23.416 409.98 25.208C411.612 26.968 413.788 27.848 416.508 27.848ZM470.899 1.304L458.947 35H448.675L436.723 1.304H445.459L453.811 26.744L462.211 1.304H470.899ZM483.497 1.304V35H475.289V1.304H483.497ZM503.029 1.304C506.581 1.304 509.685 2.008 512.341 3.416C514.997 4.824 517.045 6.808 518.485 9.368C519.957 11.896 520.693 14.824 520.693 18.152C520.693 21.448 519.957 24.376 518.485 26.936C517.045 29.496 514.981 31.48 512.293 32.888C509.637 34.296 506.549 35 503.029 35H490.405V1.304H503.029ZM502.501 27.896C505.605 27.896 508.021 27.048 509.749 25.352C511.477 23.656 512.341 21.256 512.341 18.152C512.341 15.048 511.477 12.632 509.749 10.904C508.021 9.176 505.605 8.312 502.501 8.312H498.613V27.896H502.501ZM534.448 7.88V14.696H545.44V21.032H534.448V28.424H546.88V35H526.24V1.304H546.88V7.88H534.448ZM565.361 35.336C562.897 35.336 560.689 34.936 558.737 34.136C556.785 33.336 555.217 32.152 554.033 30.584C552.881 29.016 552.273 27.128 552.209 24.92H560.945C561.073 26.168 561.505 27.128 562.241 27.8C562.977 28.44 563.937 28.76 565.121 28.76C566.337 28.76 567.297 28.488 568.001 27.944C568.705 27.368 569.057 26.584 569.057 25.592C569.057 24.76 568.769 24.072 568.193 23.528C567.649 22.984 566.961 22.536 566.129 22.184C565.329 21.832 564.177 21.432 562.673 20.984C560.497 20.312 558.721 19.64 557.345 18.968C555.969 18.296 554.785 17.304 553.793 15.992C552.801 14.68 552.305 12.968 552.305 10.856C552.305 7.72 553.441 5.272 555.713 3.512C557.985 1.72 560.945 0.823999 564.593 0.823999C568.305 0.823999 571.297 1.72 573.569 3.512C575.841 5.272 577.057 7.736 577.217 10.904H568.337C568.273 9.816 567.873 8.968 567.137 8.36C566.401 7.72 565.457 7.4 564.305 7.4C563.313 7.4 562.513 7.672 561.905 8.216C561.297 8.728 560.993 9.48 560.993 10.472C560.993 11.56 561.505 12.408 562.529 13.016C563.553 13.624 565.153 14.28 567.329 14.984C569.505 15.72 571.265 16.424 572.609 17.096C573.985 17.768 575.169 18.744 576.161 20.024C577.153 21.304 577.649 22.952 577.649 24.968C577.649 26.888 577.153 28.632 576.161 30.2C575.201 31.768 573.793 33.016 571.937 33.944C570.081 34.872 567.889 35.336 565.361 35.336Z" fill="#FF3A85"/>
<path d="M6.544 34.136L4.64788 38.7625L4.64788 38.7625L6.544 34.136ZM1.84 30.584L-2.18941 33.5444L-2.16998 33.5708L-2.15021 33.597L1.84 30.584ZM0.0160002 24.92V19.92H-5.13103L-4.9819 25.0649L0.0160002 24.92ZM8.752 24.92L13.7259 24.4099L13.2654 19.92H8.752V24.92ZM10.048 27.8L6.67665 31.4924L6.72139 31.5333L6.76711 31.573L10.048 27.8ZM15.808 27.944L18.8652 31.9004L18.9203 31.8579L18.9742 31.8138L15.808 27.944ZM16 23.528L12.4645 27.0635L12.515 27.114L12.5669 27.1631L16 23.528ZM13.936 22.184L11.9223 26.7606L11.955 26.7749L11.9878 26.7888L13.936 22.184ZM10.48 20.984L9.00464 25.7614L9.02859 25.7688L9.05262 25.7759L10.48 20.984ZM1.6 15.992L5.5883 12.9765L5.5883 12.9765L1.6 15.992ZM3.52 3.512L6.58199 7.46475L6.59927 7.45136L6.61643 7.43783L3.52 3.512ZM21.376 3.512L18.2796 7.43783L18.2967 7.45136L18.314 7.46475L21.376 3.512ZM25.024 10.904V15.904H30.2829L30.0176 10.6518L25.024 10.904ZM16.144 10.904L11.1526 11.1976L11.4295 15.904H16.144V10.904ZM14.944 8.36L11.6631 12.133L11.7108 12.1745L11.7596 12.2148L14.944 8.36ZM9.712 8.216L12.9327 12.0406L12.9901 11.9922L13.046 11.9422L9.712 8.216ZM10.336 13.016L12.8887 8.71673L12.8887 8.71672L10.336 13.016ZM15.136 14.984L16.738 10.2476L16.7066 10.237L16.6751 10.2268L15.136 14.984ZM20.416 17.096L18.1799 21.5681L18.2008 21.5786L18.2218 21.5888L20.416 17.096ZM23.968 20.024L20.0159 23.0869L20.0159 23.0869L23.968 20.024ZM23.968 30.2L19.7426 27.5268L19.7229 27.5579L19.7037 27.5892L23.968 30.2ZM19.744 33.944L17.5079 29.4719L17.5079 29.4719L19.744 33.944ZM13.168 30.336C11.2466 30.336 9.69814 30.0251 8.44012 29.5095L4.64788 38.7625C7.29386 39.8469 10.1614 40.336 13.168 40.336V30.336ZM8.44012 29.5095C7.25487 29.0237 6.43373 28.3702 5.83021 27.571L-2.15021 33.597C-0.385729 35.9338 1.92914 37.6483 4.64788 38.7625L8.44012 29.5095ZM5.86941 27.6236C5.39777 26.9817 5.0526 26.1103 5.0139 24.7751L-4.9819 25.0649C-4.8926 28.1457 -4.02177 31.0503 -2.18941 33.5444L5.86941 27.6236ZM0.0160002 29.92H8.752V19.92H0.0160002V29.92ZM3.77809 25.4301C3.99779 27.5722 4.81701 29.7945 6.67665 31.4924L13.4193 24.1076C13.4954 24.177 13.5628 24.2536 13.619 24.332C13.6747 24.4099 13.7105 24.4772 13.7316 24.5242C13.7729 24.6159 13.7454 24.6003 13.7259 24.4099L3.77809 25.4301ZM6.76711 31.573C8.59761 33.1648 10.8077 33.76 12.928 33.76V23.76C12.7842 23.76 12.793 23.7405 12.9011 23.7766C13.0222 23.8169 13.1811 23.8985 13.3289 24.027L6.76711 31.573ZM12.928 33.76C14.8496 33.76 17.0141 33.3309 18.8652 31.9004L12.7508 23.9876C12.9616 23.8247 13.1373 23.7623 13.197 23.7454C13.2447 23.7318 13.1718 23.76 12.928 23.76V33.76ZM18.9742 31.8138C20.9535 30.1943 21.864 27.9289 21.864 25.592H11.864C11.864 25.4904 11.8842 25.2201 12.0387 24.876C12.1987 24.5196 12.4298 24.2477 12.6418 24.0742L18.9742 31.8138ZM21.864 25.592C21.864 23.4618 21.0642 21.4334 19.4331 19.8929L12.5669 27.1631C12.3793 26.9859 12.1781 26.7225 12.0358 26.3827C11.8958 26.0483 11.864 25.7623 11.864 25.592H21.864ZM19.5355 19.9925C18.4642 18.9211 17.2076 18.139 15.8842 17.5792L11.9878 26.7888C12.3284 26.933 12.4478 27.0469 12.4645 27.0635L19.5355 19.9925ZM15.9497 17.6074C14.8656 17.1304 13.4809 16.6608 11.9074 16.1921L9.05262 25.7759C10.4871 26.2032 11.4064 26.5336 11.9223 26.7606L15.9497 17.6074ZM11.9554 16.2066C9.91942 15.5779 8.40796 14.9937 7.34618 14.4752L2.95782 23.4608C4.64804 24.2863 6.68858 25.0461 9.00464 25.7614L11.9554 16.2066ZM7.34618 14.4752C6.72759 14.1731 6.14252 13.7095 5.5883 12.9765L-2.3883 19.0075C-0.958515 20.8985 0.824408 22.4189 2.95782 23.4608L7.34618 14.4752ZM5.5883 12.9765C5.41858 12.752 5.112 12.1908 5.112 10.856H-4.888C-4.888 13.7452 -4.20258 16.608 -2.3883 19.0075L5.5883 12.9765ZM5.112 10.856C5.112 9.10423 5.6552 8.18268 6.58199 7.46475L0.458011 -0.44075C-3.1592 2.36132 -4.888 6.33577 -4.888 10.856H5.112ZM6.61643 7.43783C7.79759 6.50621 9.5772 5.824 12.4 5.824V-4.176C7.9268 -4.176 3.78641 -3.06621 0.423572 -0.41383L6.61643 7.43783ZM12.4 5.824C15.3102 5.824 17.1129 6.51762 18.2796 7.43783L24.4724 -0.41383C21.0951 -3.07762 16.9138 -4.176 12.4 -4.176V5.824ZM18.314 7.46475C19.3053 8.23265 19.9353 9.27436 20.0304 11.1562L30.0176 10.6518C29.7927 6.19764 27.9907 2.31135 24.438 -0.44075L18.314 7.46475ZM25.024 5.904H16.144V15.904H25.024V5.904ZM21.1354 10.6104C21.0025 8.35183 20.0913 6.12672 18.1284 4.50519L11.7596 12.2148C11.5711 12.0591 11.3935 11.8388 11.2738 11.5851C11.1609 11.3457 11.1521 11.189 11.1526 11.1976L21.1354 10.6104ZM18.2249 4.58698C16.4192 3.0168 14.2397 2.4 12.112 2.4V12.4C12.2255 12.4 12.1973 12.4155 12.0788 12.3753C11.9488 12.3313 11.7967 12.2492 11.6631 12.133L18.2249 4.58698ZM12.112 2.4C10.1682 2.4 8.09103 2.9571 6.37802 4.48979L13.046 11.9422C12.8308 12.1347 12.591 12.2653 12.3775 12.3379C12.1779 12.4057 12.0705 12.4 12.112 12.4V2.4ZM6.49133 4.39144C4.48276 6.08286 3.8 8.4028 3.8 10.472H13.8C13.8 10.4791 13.7994 10.7018 13.6636 11.0379C13.5165 11.4017 13.2654 11.7604 12.9327 12.0406L6.49133 4.39144ZM3.8 10.472C3.8 13.5172 5.41537 15.9093 7.78331 17.3153L12.8887 8.71672C12.9426 8.74875 13.2164 8.92907 13.4643 9.33965C13.7247 9.77097 13.8 10.1975 13.8 10.472H3.8ZM7.7833 17.3153C9.29839 18.2149 11.3275 19.007 13.5969 19.7412L16.6751 10.2268C14.5925 9.55299 13.4216 9.03314 12.8887 8.71673L7.7833 17.3153ZM13.534 19.7204C15.5935 20.417 17.118 21.0372 18.1799 21.5681L22.6521 12.6239C21.026 11.8108 19.0305 11.023 16.738 10.2476L13.534 19.7204ZM18.2218 21.5888C18.8707 21.9057 19.4651 22.3761 20.0159 23.0869L27.9201 16.9611C26.4869 15.1119 24.7133 13.6303 22.6102 12.6032L18.2218 21.5888ZM20.0159 23.0869C20.1764 23.294 20.456 23.7838 20.456 24.968H30.456C30.456 22.1202 29.7436 19.314 27.9201 16.9611L20.0159 23.0869ZM20.456 24.968C20.456 25.9763 20.2104 26.7874 19.7426 27.5268L28.1934 32.8732C29.7096 30.4766 30.456 27.7997 30.456 24.968H20.456ZM19.7037 27.5892C19.2931 28.26 18.6376 28.907 17.5079 29.4719L21.9801 38.4161C24.5624 37.125 26.7229 35.276 28.2323 32.8108L19.7037 27.5892ZM17.5079 29.4719C16.4815 29.9851 15.0867 30.336 13.168 30.336V40.336C16.3053 40.336 19.2945 39.7589 21.9801 38.4161L17.5079 29.4719ZM39.6752 7.88V2.88H34.6752V7.88H39.6752ZM39.6752 14.696H34.6752V19.696H39.6752V14.696ZM50.6672 14.696H55.6672V9.696H50.6672V14.696ZM50.6672 21.032V26.032H55.6672V21.032H50.6672ZM39.6752 21.032V16.032H34.6752V21.032H39.6752ZM39.6752 28.424H34.6752V33.424H39.6752V28.424ZM52.1072 28.424H57.1072V23.424H52.1072V28.424ZM52.1072 35V40H57.1072V35H52.1072ZM31.4672 35H26.4672V40H31.4672V35ZM31.4672 1.304V-3.696H26.4672V1.304H31.4672ZM52.1072 1.304H57.1072V-3.696H52.1072V1.304ZM52.1072 7.88V12.88H57.1072V7.88H52.1072ZM34.6752 7.88V14.696H44.6752V7.88H34.6752ZM39.6752 19.696H50.6672V9.696H39.6752V19.696ZM45.6672 14.696V21.032H55.6672V14.696H45.6672ZM50.6672 16.032H39.6752V26.032H50.6672V16.032ZM34.6752 21.032V28.424H44.6752V21.032H34.6752ZM39.6752 33.424H52.1072V23.424H39.6752V33.424ZM47.1072 28.424V35H57.1072V28.424H47.1072ZM52.1072 30H31.4672V40H52.1072V30ZM36.4672 35V1.304H26.4672V35H36.4672ZM31.4672 6.304H52.1072V-3.696H31.4672V6.304ZM47.1072 1.304V7.88H57.1072V1.304H47.1072ZM52.1072 2.88H39.6752V12.88H52.1072V2.88ZM75.58 35L71.2007 37.4128L72.6261 40H75.58V35ZM68.572 22.28L72.9513 19.8672L71.5259 17.28H68.572V22.28ZM66.604 22.28V17.28H61.604V22.28H66.604ZM66.604 35V40H71.604V35H66.604ZM58.396 35H53.396V40H58.396V35ZM58.396 1.304V-3.696H53.396V1.304H58.396ZM78.94 2.696L76.7039 7.16813L76.7191 7.17574L76.7344 7.18324L78.94 2.696ZM83.164 6.536L78.8175 9.00751L78.8281 9.02609L78.8388 9.04459L83.164 6.536ZM82.636 17.912L78.5923 14.9711L78.5747 14.9954L78.5573 15.0199L82.636 17.912ZM77.068 21.656L75.637 16.8652L69.5489 18.6837L72.748 24.1734L77.068 21.656ZM84.844 35V40H93.5447L89.164 32.4826L84.844 35ZM66.604 16.472H61.604V21.472H66.604V16.472ZM75.052 15.368L71.5925 11.7581L71.5541 11.7949L71.5165 11.8325L75.052 15.368ZM75.052 9.224L71.5165 12.7595L71.5541 12.7971L71.5925 12.8339L75.052 9.224ZM66.604 8.12V3.12H61.604V8.12H66.604ZM79.9593 32.5872L72.9513 19.8672L64.1927 24.6928L71.2007 37.4128L79.9593 32.5872ZM68.572 17.28H66.604V27.28H68.572V17.28ZM61.604 22.28V35H71.604V22.28H61.604ZM66.604 30H58.396V40H66.604V30ZM63.396 35V1.304H53.396V35H63.396ZM58.396 6.304H72.172V-3.696H58.396V6.304ZM72.172 6.304C74.2624 6.304 75.7088 6.67059 76.7039 7.16813L81.1761 -1.77614C78.4592 -3.13459 75.3936 -3.696 72.172 -3.696V6.304ZM76.7344 7.18324C77.8355 7.72444 78.4436 8.34984 78.8175 9.00751L87.5104 4.06449C86.0284 1.45816 83.8205 -0.476445 81.1456 -1.79125L76.7344 7.18324ZM78.8388 9.04459C79.2927 9.82714 79.556 10.7428 79.556 11.912H89.556C89.556 9.11317 88.8913 6.44485 87.4892 4.0274L78.8388 9.04459ZM79.556 11.912C79.556 13.1284 79.2316 14.0922 78.5923 14.9711L86.6797 20.8529C88.6004 18.2118 89.556 15.1756 89.556 11.912H79.556ZM78.5573 15.0199C78.0728 15.7032 77.2438 16.3852 75.637 16.8652L78.499 26.4468C81.8202 25.4548 84.7032 23.6408 86.7147 20.8041L78.5573 15.0199ZM72.748 24.1734L80.524 37.5174L89.164 32.4826L81.388 19.1386L72.748 24.1734ZM84.844 30H75.58V40H84.844V30ZM66.604 21.472H71.692V11.472H66.604V21.472ZM71.692 21.472C73.9304 21.472 76.5652 20.9259 78.5875 18.9035L71.5165 11.8325C71.6368 11.7121 71.7604 11.6201 71.8719 11.5538C71.9813 11.4887 72.0633 11.4576 72.0992 11.4458C72.1598 11.4259 72.0527 11.472 71.692 11.472V21.472ZM78.5115 18.9779C80.5081 17.0645 81.204 14.5745 81.204 12.248H71.204C71.204 12.4507 71.1745 12.4423 71.2255 12.3041C71.2516 12.2335 71.2946 12.1407 71.3612 12.038C71.4282 11.9347 71.5073 11.8397 71.5925 11.7581L78.5115 18.9779ZM81.204 12.248C81.204 9.90337 80.46 7.48134 78.5115 5.61406L71.5925 12.8339C71.4339 12.682 71.3115 12.4902 71.2436 12.312C71.1827 12.1523 71.204 12.1053 71.204 12.248H81.204ZM78.5875 5.68847C76.5652 3.66609 73.9304 3.12 71.692 3.12V13.12C72.0527 13.12 72.1598 13.1661 72.0992 13.1462C72.0633 13.1344 71.9813 13.1033 71.8719 13.0382C71.7604 12.9719 71.6368 12.8799 71.5165 12.7595L78.5875 5.68847ZM71.692 3.12H66.604V13.12H71.692V3.12ZM61.604 8.12V16.472H71.604V8.12H61.604ZM122.3 1.304L127.013 2.97547L129.379 -3.696H122.3V1.304ZM110.348 35V40H113.88L115.061 36.6715L110.348 35ZM100.076 35L95.3642 36.6715L96.5448 40H100.076V35ZM88.1245 1.304V-3.696H81.0458L83.4122 2.97547L88.1245 1.304ZM96.8605 1.304L101.611 -0.255612L100.482 -3.696H96.8605V1.304ZM105.212 26.744L100.462 28.3036L105.199 42.7322L109.96 28.3117L105.212 26.744ZM113.612 1.304V-3.696H109.998L108.865 -0.263696L113.612 1.304ZM117.588 -0.367473L105.636 33.3285L115.061 36.6715L127.013 2.97547L117.588 -0.367473ZM110.348 30H100.076V40H110.348V30ZM104.789 33.3285L92.8368 -0.367473L83.4122 2.97547L95.3642 36.6715L104.789 33.3285ZM88.1245 6.304H96.8605V-3.696H88.1245V6.304ZM92.11 2.86361L100.462 28.3036L109.963 25.1844L101.611 -0.255612L92.11 2.86361ZM109.96 28.3117L118.36 2.87169L108.865 -0.263696L100.465 25.1763L109.96 28.3117ZM113.612 6.304H122.3V-3.696H113.612V6.304ZM134.899 1.304H139.899V-3.696H134.899V1.304ZM134.899 35V40H139.899V35H134.899ZM126.691 35H121.691V40H126.691V35ZM126.691 1.304V-3.696H121.691V1.304H126.691ZM129.899 1.304V35H139.899V1.304H129.899ZM134.899 30H126.691V40H134.899V30ZM131.691 35V1.304H121.691V35H131.691ZM126.691 6.304H134.899V-3.696H126.691V6.304ZM142.575 9.224L146.946 11.6522L146.952 11.6409L146.959 11.6295L142.575 9.224ZM148.575 3.128L151.027 7.48588L151.035 7.48086L151.044 7.4758L148.575 3.128ZM167.631 4.088L170.61 0.071812L170.61 0.0718107L167.631 4.088ZM173.343 12.728V17.728H179.829L178.179 11.4555L173.343 12.728ZM164.319 12.728L159.807 14.8816L161.165 17.728H164.319V12.728ZM161.439 9.512L158.85 13.7895L158.875 13.8043L158.899 13.8188L161.439 9.512ZM151.119 11.048L154.853 14.374L154.853 14.374L151.119 11.048ZM161.439 26.696L158.899 22.3892L158.875 22.4037L158.85 22.4185L161.439 26.696ZM164.319 23.48V18.48H161.165L159.807 21.3264L164.319 23.48ZM173.343 23.48L178.179 24.7525L179.829 18.48H173.343V23.48ZM167.631 32.12L170.58 36.1578L170.595 36.147L170.61 36.1362L167.631 32.12ZM148.575 33.08L146.083 37.4145L146.115 37.4329L146.147 37.4508L148.575 33.08ZM142.575 26.984L146.946 24.5558L146.946 24.5558L142.575 26.984ZM145.415 18.104C145.415 15.5199 145.967 13.4141 146.946 11.6522L138.204 6.79578C136.303 10.2179 135.415 14.0321 135.415 18.104H145.415ZM146.959 11.6295C147.958 9.80743 149.296 8.45908 151.027 7.48588L146.124 -1.22988C142.734 0.676913 140.072 3.39257 138.192 6.81851L146.959 11.6295ZM151.044 7.4758C152.813 6.47113 154.876 5.92 157.359 5.92V-4.08C153.314 -4.08 149.521 -3.15913 146.106 -1.21981L151.044 7.4758ZM157.359 5.92C160.43 5.92 162.775 6.71175 164.653 8.10418L170.61 0.0718107C166.791 -2.75975 162.288 -4.08 157.359 -4.08V5.92ZM164.653 8.10418C166.527 9.4942 167.817 11.3761 168.508 14.0005L178.179 11.4555C176.949 6.78391 174.431 2.9058 170.61 0.071812L164.653 8.10418ZM173.343 7.728H164.319V17.728H173.343V7.728ZM168.832 10.5744C167.766 8.34068 166.151 6.48588 163.979 5.20517L158.899 13.8188C159.224 14.0101 159.529 14.2993 159.807 14.8816L168.832 10.5744ZM164.028 5.2345C161.952 3.97802 159.647 3.408 157.263 3.408V13.408C158.016 13.408 158.494 13.574 158.85 13.7895L164.028 5.2345ZM157.263 3.408C153.426 3.408 149.978 4.81303 147.386 7.72197L154.853 14.374C155.397 13.763 156.045 13.408 157.263 13.408V3.408ZM147.386 7.72197C144.813 10.6097 143.767 14.2506 143.767 18.104H153.767C153.767 16.0694 154.289 15.0063 154.853 14.374L147.386 7.72197ZM143.767 18.104C143.767 21.9574 144.813 25.5983 147.386 28.486L154.853 21.834C154.289 21.2017 153.767 20.1386 153.767 18.104H143.767ZM147.386 28.486C149.978 31.395 153.426 32.8 157.263 32.8V22.8C156.045 22.8 155.397 22.445 154.853 21.834L147.386 28.486ZM157.263 32.8C159.647 32.8 161.952 32.23 164.028 30.9735L158.85 22.4185C158.494 22.634 158.016 22.8 157.263 22.8V32.8ZM163.979 31.0028C166.151 29.7221 167.766 27.8673 168.832 25.6336L159.807 21.3264C159.529 21.9087 159.224 22.1979 158.899 22.3892L163.979 31.0028ZM164.319 28.48H173.343V18.48H164.319V28.48ZM168.508 22.2075C167.817 24.8319 166.527 26.7138 164.653 28.1038L170.61 36.1362C174.431 33.3022 176.949 29.4241 178.179 24.7525L168.508 22.2075ZM164.682 28.0822C162.803 29.4548 160.448 30.24 157.359 30.24V40.24C162.271 40.24 166.764 38.9452 170.58 36.1578L164.682 28.0822ZM157.359 30.24C154.857 30.24 152.78 29.696 151.003 28.7092L146.147 37.4508C149.555 39.344 153.333 40.24 157.359 40.24V30.24ZM151.068 28.7455C149.299 27.7284 147.947 26.3569 146.946 24.5558L138.204 29.4122C140.084 32.7951 142.732 35.4876 146.083 37.4145L151.068 28.7455ZM146.946 24.5558C145.967 22.7939 145.415 20.6881 145.415 18.104H135.415C135.415 22.1759 136.303 25.9901 138.204 29.4122L146.946 24.5558ZM187.538 7.88V2.88H182.538V7.88H187.538ZM187.538 14.696H182.538V19.696H187.538V14.696ZM198.53 14.696H203.53V9.696H198.53V14.696ZM198.53 21.032V26.032H203.53V21.032H198.53ZM187.538 21.032V16.032H182.538V21.032H187.538ZM187.538 28.424H182.538V33.424H187.538V28.424ZM199.97 28.424H204.97V23.424H199.97V28.424ZM199.97 35V40H204.97V35H199.97ZM179.33 35H174.33V40H179.33V35ZM179.33 1.304V-3.696H174.33V1.304H179.33ZM199.97 1.304H204.97V-3.696H199.97V1.304ZM199.97 7.88V12.88H204.97V7.88H199.97ZM182.538 7.88V14.696H192.538V7.88H182.538ZM187.538 19.696H198.53V9.696H187.538V19.696ZM193.53 14.696V21.032H203.53V14.696H193.53ZM198.53 16.032H187.538V26.032H198.53V16.032ZM182.538 21.032V28.424H192.538V21.032H182.538ZM187.538 33.424H199.97V23.424H187.538V33.424ZM194.97 28.424V35H204.97V28.424H194.97ZM199.97 30H179.33V40H199.97V30ZM184.33 35V1.304H174.33V35H184.33ZM179.33 6.304H199.97V-3.696H179.33V6.304ZM194.97 1.304V7.88H204.97V1.304H194.97ZM199.97 2.88H187.538V12.88H199.97V2.88ZM211.827 34.136L209.93 38.7625L209.93 38.7625L211.827 34.136ZM207.123 30.584L203.093 33.5444L203.113 33.5708L203.132 33.597L207.123 30.584ZM205.299 24.92V19.92H200.151L200.301 25.0649L205.299 24.92ZM214.035 24.92L219.008 24.4099L218.548 19.92H214.035V24.92ZM215.331 27.8L211.959 31.4924L212.004 31.5333L212.05 31.573L215.331 27.8ZM221.091 27.944L224.148 31.9004L224.203 31.8579L224.257 31.8138L221.091 27.944ZM221.283 23.528L217.747 27.0635L217.797 27.114L217.849 27.1631L221.283 23.528ZM219.219 22.184L217.205 26.7606L217.237 26.7749L217.27 26.7888L219.219 22.184ZM215.763 20.984L214.287 25.7614L214.311 25.7688L214.335 25.7759L215.763 20.984ZM206.883 15.992L210.871 12.9765L210.871 12.9765L206.883 15.992ZM208.803 3.512L211.864 7.46475L211.882 7.45136L211.899 7.43783L208.803 3.512ZM226.659 3.512L223.562 7.43783L223.579 7.45136L223.597 7.46475L226.659 3.512ZM230.307 10.904V15.904H235.565L235.3 10.6518L230.307 10.904ZM221.427 10.904L216.435 11.1976L216.712 15.904H221.427V10.904ZM220.227 8.36L216.946 12.133L216.993 12.1745L217.042 12.2148L220.227 8.36ZM214.995 8.216L218.215 12.0406L218.273 11.9922L218.328 11.9422L214.995 8.216ZM215.619 13.016L218.171 8.71673L218.171 8.71672L215.619 13.016ZM220.419 14.984L222.021 10.2476L221.989 10.237L221.958 10.2268L220.419 14.984ZM225.699 17.096L223.462 21.5681L223.483 21.5786L223.504 21.5888L225.699 17.096ZM229.251 20.024L225.298 23.0869L225.298 23.0869L229.251 20.024ZM229.251 30.2L225.025 27.5268L225.005 27.5579L224.986 27.5892L229.251 30.2ZM225.027 33.944L222.79 29.4719L222.79 29.4719L225.027 33.944ZM218.451 30.336C216.529 30.336 214.981 30.0251 213.723 29.5095L209.93 38.7625C212.576 39.8469 215.444 40.336 218.451 40.336V30.336ZM213.723 29.5095C212.537 29.0237 211.716 28.3702 211.113 27.571L203.132 33.597C204.897 35.9338 207.212 37.6483 209.93 38.7625L213.723 29.5095ZM211.152 27.6236C210.68 26.9817 210.335 26.1103 210.296 24.7751L200.301 25.0649C200.39 28.1457 201.261 31.0503 203.093 33.5444L211.152 27.6236ZM205.299 29.92H214.035V19.92H205.299V29.92ZM209.061 25.4301C209.28 27.5722 210.1 29.7945 211.959 31.4924L218.702 24.1076C218.778 24.177 218.845 24.2536 218.901 24.332C218.957 24.4099 218.993 24.4772 219.014 24.5242C219.055 24.6159 219.028 24.6003 219.008 24.4099L209.061 25.4301ZM212.05 31.573C213.88 33.1648 216.09 33.76 218.211 33.76V23.76C218.067 23.76 218.076 23.7405 218.184 23.7766C218.305 23.8169 218.464 23.8985 218.611 24.027L212.05 31.573ZM218.211 33.76C220.132 33.76 222.297 33.3309 224.148 31.9004L218.033 23.9876C218.244 23.8247 218.42 23.7623 218.479 23.7454C218.527 23.7318 218.454 23.76 218.211 23.76V33.76ZM224.257 31.8138C226.236 30.1943 227.147 27.9289 227.147 25.592H217.147C217.147 25.4904 217.167 25.2201 217.321 24.876C217.481 24.5196 217.712 24.2477 217.924 24.0742L224.257 31.8138ZM227.147 25.592C227.147 23.4618 226.347 21.4334 224.716 19.8929L217.849 27.1631C217.662 26.9859 217.461 26.7225 217.318 26.3827C217.178 26.0483 217.147 25.7623 217.147 25.592H227.147ZM224.818 19.9925C223.747 18.9211 222.49 18.139 221.167 17.5792L217.27 26.7888C217.611 26.933 217.73 27.0469 217.747 27.0635L224.818 19.9925ZM221.232 17.6074C220.148 17.1304 218.763 16.6608 217.19 16.1921L214.335 25.7759C215.77 26.2032 216.689 26.5336 217.205 26.7606L221.232 17.6074ZM217.238 16.2066C215.202 15.5779 213.69 14.9937 212.629 14.4752L208.24 23.4608C209.931 24.2863 211.971 25.0461 214.287 25.7614L217.238 16.2066ZM212.629 14.4752C212.01 14.1731 211.425 13.7095 210.871 12.9765L202.894 19.0075C204.324 20.8985 206.107 22.4189 208.24 23.4608L212.629 14.4752ZM210.871 12.9765C210.701 12.752 210.395 12.1908 210.395 10.856H200.395C200.395 13.7452 201.08 16.608 202.894 19.0075L210.871 12.9765ZM210.395 10.856C210.395 9.10423 210.938 8.18268 211.864 7.46475L205.741 -0.44075C202.123 2.36132 200.395 6.33577 200.395 10.856H210.395ZM211.899 7.43783C213.08 6.50621 214.86 5.824 217.683 5.824V-4.176C213.209 -4.176 209.069 -3.06621 205.706 -0.41383L211.899 7.43783ZM217.683 5.824C220.593 5.824 222.395 6.51762 223.562 7.43783L229.755 -0.41383C226.378 -3.07762 222.196 -4.176 217.683 -4.176V5.824ZM223.597 7.46475C224.588 8.23265 225.218 9.27436 225.313 11.1562L235.3 10.6518C235.075 6.19764 233.273 2.31135 229.72 -0.44075L223.597 7.46475ZM230.307 5.904H221.427V15.904H230.307V5.904ZM226.418 10.6104C226.285 8.35183 225.374 6.12672 223.411 4.50519L217.042 12.2148C216.854 12.0591 216.676 11.8388 216.556 11.5851C216.443 11.3457 216.435 11.189 216.435 11.1976L226.418 10.6104ZM223.507 4.58698C221.702 3.0168 219.522 2.4 217.395 2.4V12.4C217.508 12.4 217.48 12.4155 217.361 12.3753C217.231 12.3313 217.079 12.2492 216.946 12.133L223.507 4.58698ZM217.395 2.4C215.451 2.4 213.374 2.9571 211.661 4.48979L218.328 11.9422C218.113 12.1347 217.874 12.2653 217.66 12.3379C217.46 12.4057 217.353 12.4 217.395 12.4V2.4ZM211.774 4.39144C209.765 6.08286 209.083 8.4028 209.083 10.472H219.083C219.083 10.4791 219.082 10.7018 218.946 11.0379C218.799 11.4017 218.548 11.7604 218.215 12.0406L211.774 4.39144ZM209.083 10.472C209.083 13.5172 210.698 15.9093 213.066 17.3153L218.171 8.71672C218.225 8.74875 218.499 8.92907 218.747 9.33965C219.007 9.77097 219.083 10.1975 219.083 10.472H209.083ZM213.066 17.3153C214.581 18.2149 216.61 19.007 218.879 19.7412L221.958 10.2268C219.875 9.55299 218.704 9.03314 218.171 8.71673L213.066 17.3153ZM218.816 19.7204C220.876 20.417 222.401 21.0372 223.462 21.5681L227.935 12.6239C226.308 11.8108 224.313 11.023 222.021 10.2476L218.816 19.7204ZM223.504 21.5888C224.153 21.9057 224.748 22.3761 225.298 23.0869L233.203 16.9611C231.769 15.1119 229.996 13.6303 227.893 12.6032L223.504 21.5888ZM225.298 23.0869C225.459 23.294 225.739 23.7838 225.739 24.968H235.739C235.739 22.1202 235.026 19.314 233.203 16.9611L225.298 23.0869ZM225.739 24.968C225.739 25.9763 225.493 26.7874 225.025 27.5268L233.476 32.8732C234.992 30.4766 235.739 27.7997 235.739 24.968H225.739ZM224.986 27.5892C224.576 28.26 223.92 28.907 222.79 29.4719L227.263 38.4161C229.845 37.125 232.005 35.276 233.515 32.8108L224.986 27.5892ZM222.79 29.4719C221.764 29.9851 220.369 30.336 218.451 30.336V40.336C221.588 40.336 224.577 39.7589 227.263 38.4161L222.79 29.4719ZM294.25 1.304L299.088 2.56527L300.72 -3.696H294.25V1.304ZM285.466 35V40H289.329L290.304 36.2613L285.466 35ZM275.53 35L270.67 36.178L271.597 40H275.53V35ZM270.154 12.824L275.013 11.646L265.304 11.6064L270.154 12.824ZM264.586 35V40H268.485L269.435 36.2176L264.586 35ZM254.65 35L249.803 36.2289L250.759 40H254.65V35ZM246.106 1.304V-3.696H239.68L241.259 2.53292L246.106 1.304ZM254.89 1.304L259.795 0.334496L258.998 -3.696H254.89V1.304ZM259.738 25.832L254.833 26.8015L264.594 27.0201L259.738 25.832ZM265.738 1.304V-3.696H261.813L260.881 0.115936L265.738 1.304ZM274.762 1.304L279.629 0.160926L278.723 -3.696H274.762V1.304ZM280.522 25.832L275.654 26.9751L285.425 26.8107L280.522 25.832ZM285.418 1.304V-3.696H281.317L280.514 0.325264L285.418 1.304ZM289.411 0.0427314L280.627 33.7387L290.304 36.2613L299.088 2.56527L289.411 0.0427314ZM285.466 30H275.53V40H285.466V30ZM280.389 33.822L275.013 11.646L265.294 14.002L270.67 36.178L280.389 33.822ZM265.304 11.6064L259.736 33.7824L269.435 36.2176L275.003 14.0416L265.304 11.6064ZM264.586 30H254.65V40H264.586V30ZM259.496 33.7711L250.952 0.0750828L241.259 2.53292L249.803 36.2289L259.496 33.7711ZM246.106 6.304H254.89V-3.696H246.106V6.304ZM249.985 2.2735L254.833 26.8015L264.643 24.8625L259.795 0.334496L249.985 2.2735ZM264.594 27.0201L270.594 2.49206L260.881 0.115936L254.881 24.6439L264.594 27.0201ZM265.738 6.304H274.762V-3.696H265.738V6.304ZM269.894 2.44707L275.654 26.9751L285.389 24.6889L279.629 0.160926L269.894 2.44707ZM285.425 26.8107L290.321 2.28273L280.514 0.325264L275.618 24.8533L285.425 26.8107ZM285.418 6.304H294.25V-3.696H285.418V6.304ZM307.534 7.88V2.88H302.534V7.88H307.534ZM307.534 14.696H302.534V19.696H307.534V14.696ZM318.526 14.696H323.526V9.696H318.526V14.696ZM318.526 21.032V26.032H323.526V21.032H318.526ZM307.534 21.032V16.032H302.534V21.032H307.534ZM307.534 28.424H302.534V33.424H307.534V28.424ZM319.966 28.424H324.966V23.424H319.966V28.424ZM319.966 35V40H324.966V35H319.966ZM299.326 35H294.326V40H299.326V35ZM299.326 1.304V-3.696H294.326V1.304H299.326ZM319.966 1.304H324.966V-3.696H319.966V1.304ZM319.966 7.88V12.88H324.966V7.88H319.966ZM302.534 7.88V14.696H312.534V7.88H302.534ZM307.534 19.696H318.526V9.696H307.534V19.696ZM313.526 14.696V21.032H323.526V14.696H313.526ZM318.526 16.032H307.534V26.032H318.526V16.032ZM302.534 21.032V28.424H312.534V21.032H302.534ZM307.534 33.424H319.966V23.424H307.534V33.424ZM314.966 28.424V35H324.966V28.424H314.966ZM319.966 30H299.326V40H319.966V30ZM304.326 35V1.304H294.326V35H304.326ZM299.326 6.304H319.966V-3.696H299.326V6.304ZM314.966 1.304V7.88H324.966V1.304H314.966ZM319.966 2.88H307.534V12.88H319.966V2.88ZM361.723 17.528L366.085 19.971L366.095 19.9527L366.106 19.9343L361.723 17.528ZM357.595 21.416L355.238 17.0063L355.238 17.0063L357.595 21.416ZM345.595 22.904V17.904H340.595V22.904H345.595ZM345.595 35V40H350.595V35H345.595ZM337.387 35H332.387V40H337.387V35ZM337.387 1.304V-3.696H332.387V1.304H337.387ZM357.499 2.696L359.735 -1.77614L359.735 -1.77614L357.499 2.696ZM345.595 7.928V2.928H340.595V7.928H345.595ZM345.595 16.376H340.595V21.376H345.595V16.376ZM358.067 12.152C358.067 13.305 357.811 14.2633 357.34 15.1217L366.106 19.9343C367.426 17.5287 368.067 14.903 368.067 12.152H358.067ZM357.36 15.085C356.997 15.7336 356.378 16.3967 355.238 17.0063L359.952 25.8257C362.523 24.4513 364.656 22.5224 366.085 19.971L357.36 15.085ZM355.238 17.0063C354.296 17.5098 352.857 17.904 350.683 17.904V27.904C354.012 27.904 357.182 27.3062 359.952 25.8257L355.238 17.0063ZM350.683 17.904H345.595V27.904H350.683V17.904ZM340.595 22.904V35H350.595V22.904H340.595ZM345.595 30H337.387V40H345.595V30ZM342.387 35V1.304H332.387V35H342.387ZM337.387 6.304H350.683V-3.696H337.387V6.304ZM350.683 6.304C352.816 6.304 354.275 6.67431 355.263 7.16814L359.735 -1.77614C357.01 -3.13831 353.925 -3.696 350.683 -3.696V6.304ZM355.263 7.16813C356.33 7.70161 356.941 8.32649 357.328 9.00751L366.021 4.06449C364.552 1.4815 362.38 -0.453618 359.735 -1.77614L355.263 7.16813ZM357.328 9.00751C357.776 9.79576 358.067 10.7962 358.067 12.152H368.067C368.067 9.28382 367.429 6.54024 366.021 4.06449L357.328 9.00751ZM350.059 21.376C352.312 21.376 354.963 20.8551 357.022 18.8819L350.103 11.6621C350.221 11.549 350.337 11.4672 350.435 11.4116C350.53 11.3572 350.594 11.3355 350.608 11.3311C350.621 11.3271 350.587 11.339 350.493 11.3516C350.399 11.3642 350.257 11.376 350.059 11.376V21.376ZM357.022 18.8819C359.019 16.9685 359.715 14.4785 359.715 12.152H349.715C349.715 12.3547 349.685 12.3463 349.736 12.2081C349.762 12.1375 349.805 12.0447 349.872 11.942C349.939 11.8387 350.018 11.7437 350.103 11.6621L357.022 18.8819ZM359.715 12.152C359.715 9.82554 359.019 7.33545 357.022 5.42206L350.103 12.6419C350.018 12.5603 349.939 12.4653 349.872 12.362C349.805 12.2593 349.762 12.1665 349.736 12.0959C349.685 11.9577 349.715 11.9493 349.715 12.152H359.715ZM357.022 5.42206C354.963 3.44891 352.312 2.928 350.059 2.928V12.928C350.257 12.928 350.399 12.9398 350.493 12.9524C350.587 12.965 350.621 12.9769 350.608 12.9729C350.594 12.9685 350.53 12.9468 350.435 12.8924C350.337 12.8368 350.221 12.755 350.103 12.6419L357.022 5.42206ZM350.059 2.928H345.595V12.928H350.059V2.928ZM340.595 7.928V16.376H350.595V7.928H340.595ZM345.595 21.376H350.059V11.376H345.595V21.376ZM385.484 35L381.104 37.4128L382.53 40H385.484V35ZM378.476 22.28L382.855 19.8672L381.43 17.28H378.476V22.28ZM376.508 22.28V17.28H371.508V22.28H376.508ZM376.508 35V40H381.508V35H376.508ZM368.3 35H363.3V40H368.3V35ZM368.3 1.304V-3.696H363.3V1.304H368.3ZM388.844 2.696L386.608 7.16813L386.623 7.17574L386.638 7.18324L388.844 2.696ZM393.068 6.536L388.721 9.00751L388.732 9.02609L388.743 9.04459L393.068 6.536ZM392.54 17.912L388.496 14.9711L388.478 14.9954L388.461 15.0199L392.54 17.912ZM386.972 21.656L385.541 16.8652L379.453 18.6837L382.652 24.1734L386.972 21.656ZM394.748 35V40H403.448L399.068 32.4826L394.748 35ZM376.508 16.472H371.508V21.472H376.508V16.472ZM384.956 15.368L381.496 11.7581L381.458 11.7949L381.42 11.8325L384.956 15.368ZM384.956 9.224L381.42 12.7595L381.458 12.7971L381.496 12.8339L384.956 9.224ZM376.508 8.12V3.12H371.508V8.12H376.508ZM389.863 32.5872L382.855 19.8672L374.096 24.6928L381.104 37.4128L389.863 32.5872ZM378.476 17.28H376.508V27.28H378.476V17.28ZM371.508 22.28V35H381.508V22.28H371.508ZM376.508 30H368.3V40H376.508V30ZM373.3 35V1.304H363.3V35H373.3ZM368.3 6.304H382.076V-3.696H368.3V6.304ZM382.076 6.304C384.166 6.304 385.613 6.67059 386.608 7.16813L391.08 -1.77614C388.363 -3.13459 385.297 -3.696 382.076 -3.696V6.304ZM386.638 7.18324C387.739 7.72444 388.347 8.34984 388.721 9.00751L397.414 4.06449C395.932 1.45816 393.724 -0.476445 391.049 -1.79125L386.638 7.18324ZM388.743 9.04459C389.196 9.82714 389.46 10.7428 389.46 11.912H399.46C399.46 9.11317 398.795 6.44485 397.393 4.0274L388.743 9.04459ZM389.46 11.912C389.46 13.1284 389.135 14.0922 388.496 14.9711L396.583 20.8529C398.504 18.2118 399.46 15.1756 399.46 11.912H389.46ZM388.461 15.0199C387.977 15.7032 387.148 16.3852 385.541 16.8652L388.403 26.4468C391.724 25.4548 394.607 23.6408 396.618 20.8041L388.461 15.0199ZM382.652 24.1734L390.428 37.5174L399.068 32.4826L391.292 19.1386L382.652 24.1734ZM394.748 30H385.484V40H394.748V30ZM376.508 21.472H381.596V11.472H376.508V21.472ZM381.596 21.472C383.834 21.472 386.469 20.9259 388.491 18.9035L381.42 11.8325C381.541 11.7121 381.664 11.6201 381.776 11.5538C381.885 11.4887 381.967 11.4576 382.003 11.4458C382.064 11.4259 381.956 11.472 381.596 11.472V21.472ZM388.415 18.9779C390.412 17.0645 391.108 14.5745 391.108 12.248H381.108C381.108 12.4507 381.078 12.4423 381.129 12.3041C381.155 12.2335 381.198 12.1407 381.265 12.038C381.332 11.9347 381.411 11.8397 381.496 11.7581L388.415 18.9779ZM391.108 12.248C391.108 9.90337 390.364 7.48134 388.415 5.61406L381.496 12.8339C381.338 12.682 381.215 12.4902 381.147 12.312C381.086 12.1523 381.108 12.1053 381.108 12.248H391.108ZM388.491 5.68847C386.469 3.66609 383.834 3.12 381.596 3.12V13.12C381.956 13.12 382.064 13.1661 382.003 13.1462C381.967 13.1344 381.885 13.1033 381.776 13.0382C381.664 12.9719 381.541 12.8799 381.42 12.7595L388.491 5.68847ZM381.596 3.12H376.508V13.12H381.596V3.12ZM371.508 8.12V16.472H381.508V8.12H371.508ZM407.772 33.128L405.326 37.4887L405.337 37.495L405.349 37.5013L407.772 33.128ZM401.484 26.984L397.156 29.4871L397.174 29.5181L397.192 29.5488L401.484 26.984ZM401.484 9.176L397.192 6.61122L397.181 6.63061L397.169 6.6501L401.484 9.176ZM407.772 3.032L405.349 -1.34127L405.337 -1.33502L405.326 -1.32872L407.772 3.032ZM425.196 3.032L422.75 7.39271L422.761 7.39902L422.773 7.40527L425.196 3.032ZM431.436 9.176L427.098 11.6624L427.11 11.6822L427.121 11.7019L431.436 9.176ZM431.436 26.984L435.751 29.5099L435.758 29.4985L435.765 29.4871L431.436 26.984ZM425.196 33.128L427.643 37.4887L427.643 37.4887L425.196 33.128ZM422.94 25.16L419.244 21.7933L419.227 21.8116L419.211 21.8299L422.94 25.16ZM422.94 10.952L419.211 14.2821L419.242 14.3172L419.274 14.3517L422.94 10.952ZM409.98 10.904L406.314 7.5043L406.297 7.52239L406.281 7.54063L409.98 10.904ZM409.98 25.208L406.251 28.5381L406.282 28.5732L406.314 28.6077L409.98 25.208ZM416.508 30.336C414.15 30.336 412.078 29.7976 410.196 28.7547L405.349 37.5013C408.779 39.4024 412.53 40.336 416.508 40.336V30.336ZM410.219 28.7673C408.369 27.7296 406.904 26.3062 405.776 24.4192L397.192 29.5488C399.201 32.9098 401.928 35.5824 405.326 37.4887L410.219 28.7673ZM405.813 24.4809C404.749 22.6421 404.18 20.5406 404.18 18.056H394.18C394.18 22.1634 395.147 26.0139 397.156 29.4871L405.813 24.4809ZM404.18 18.056C404.18 15.5708 404.749 13.4958 405.799 11.7019L397.169 6.6501C395.147 10.1042 394.18 13.9492 394.18 18.056H404.18ZM405.776 11.7408C406.904 9.85376 408.369 8.4304 410.219 7.39271L405.326 -1.32872C401.928 0.577596 399.201 3.25024 397.192 6.61122L405.776 11.7408ZM410.196 7.40527C412.078 6.36241 414.15 5.824 416.508 5.824V-4.176C412.53 -4.176 408.779 -3.24241 405.349 -1.34127L410.196 7.40527ZM416.508 5.824C418.867 5.824 420.913 6.3623 422.75 7.39271L427.643 -1.32872C424.231 -3.2423 420.486 -4.176 416.508 -4.176V5.824ZM422.773 7.40527C424.634 8.4367 426.05 9.83364 427.098 11.6624L435.774 6.68961C433.814 3.27036 431.071 0.5713 427.62 -1.34127L422.773 7.40527ZM427.121 11.7019C428.171 13.4958 428.74 15.5708 428.74 18.056H438.74C438.74 13.9492 437.773 10.1042 435.751 6.6501L427.121 11.7019ZM428.74 18.056C428.74 20.5406 428.171 22.6421 427.108 24.4809L435.765 29.4871C437.773 26.0139 438.74 22.1634 438.74 18.056H428.74ZM427.121 24.4581C426.029 26.3239 424.591 27.7348 422.75 28.7673L427.643 37.4887C431.05 35.5772 433.771 32.8921 435.751 29.5099L427.121 24.4581ZM422.75 28.7673C420.913 29.7977 418.867 30.336 416.508 30.336V40.336C420.486 40.336 424.231 39.4023 427.643 37.4887L422.75 28.7673ZM416.508 32.848C420.432 32.848 424.003 31.4776 426.67 28.4901L419.211 21.8299C418.678 22.4264 417.961 22.848 416.508 22.848V32.848ZM426.637 28.5267C429.279 25.6253 430.388 21.9644 430.388 18.056H420.388C420.388 20.0356 419.865 21.1107 419.244 21.7933L426.637 28.5267ZM430.388 18.056C430.388 14.1358 429.289 10.4455 426.607 7.5523L419.274 14.3517C419.855 14.9785 420.388 16.0242 420.388 18.056H430.388ZM426.67 7.62192C424.003 4.63444 420.432 3.264 416.508 3.264V13.264C417.961 13.264 418.678 13.6856 419.211 14.2821L426.67 7.62192ZM416.508 3.264C412.601 3.264 409.023 4.5831 406.314 7.5043L413.647 14.3037C414.202 13.7049 414.975 13.264 416.508 13.264V3.264ZM406.281 7.54063C403.64 10.4457 402.58 14.1456 402.58 18.056H412.58C412.58 15.9504 413.121 14.8823 413.68 14.2674L406.281 7.54063ZM402.58 18.056C402.58 21.9548 403.65 25.6249 406.251 28.5381L413.71 21.8779C413.111 21.2071 412.58 20.1092 412.58 18.056H402.58ZM406.314 28.6077C409.023 31.5289 412.601 32.848 416.508 32.848V22.848C414.975 22.848 414.202 22.4071 413.647 21.8083L406.314 28.6077ZM470.899 1.304L475.611 2.97547L477.977 -3.696H470.899V1.304ZM458.947 35V40H462.478L463.659 36.6715L458.947 35ZM448.675 35L443.962 36.6715L445.143 40H448.675V35ZM436.723 1.304V-3.696H429.644L432.01 2.97547L436.723 1.304ZM445.459 1.304L450.209 -0.255612L449.08 -3.696H445.459V1.304ZM453.811 26.744L449.06 28.3036L453.797 42.7322L458.558 28.3117L453.811 26.744ZM462.211 1.304V-3.696H458.596L457.463 -0.263696L462.211 1.304ZM466.186 -0.367473L454.234 33.3285L463.659 36.6715L475.611 2.97547L466.186 -0.367473ZM458.947 30H448.675V40H458.947V30ZM453.387 33.3285L441.435 -0.367473L432.01 2.97547L443.962 36.6715L453.387 33.3285ZM436.723 6.304H445.459V-3.696H436.723V6.304ZM440.708 2.86361L449.06 28.3036L458.561 25.1844L450.209 -0.255612L440.708 2.86361ZM458.558 28.3117L466.958 2.87169L457.463 -0.263696L449.063 25.1763L458.558 28.3117ZM462.211 6.304H470.899V-3.696H462.211V6.304ZM483.497 1.304H488.497V-3.696H483.497V1.304ZM483.497 35V40H488.497V35H483.497ZM475.289 35H470.289V40H475.289V35ZM475.289 1.304V-3.696H470.289V1.304H475.289ZM478.497 1.304V35H488.497V1.304H478.497ZM483.497 30H475.289V40H483.497V30ZM480.289 35V1.304H470.289V35H480.289ZM475.289 6.304H483.497V-3.696H475.289V6.304ZM512.341 3.416L514.683 -1.00165L514.683 -1.00165L512.341 3.416ZM518.485 9.368L514.128 11.8193L514.146 11.8518L514.165 11.884L518.485 9.368ZM518.485 26.936L514.151 24.4436L514.139 24.4641L514.128 24.4847L518.485 26.936ZM512.293 32.888L509.973 28.4588L509.962 28.4646L509.951 28.4704L512.293 32.888ZM490.405 35H485.405V40H490.405V35ZM490.405 1.304V-3.696H485.405V1.304H490.405ZM498.613 8.312V3.312H493.613V8.312H498.613ZM498.613 27.896H493.613V32.896H498.613V27.896ZM503.029 6.304C505.913 6.304 508.185 6.87187 510 7.83364L514.683 -1.00165C511.186 -2.85587 507.25 -3.696 503.029 -3.696V6.304ZM510 7.83364C511.83 8.80403 513.169 10.1149 514.128 11.8193L522.843 6.91669C520.922 3.50114 518.165 0.84397 514.683 -1.00165L510 7.83364ZM514.165 11.884C515.133 13.5477 515.693 15.5841 515.693 18.152H525.693C525.693 14.0639 524.781 10.2443 522.806 6.85204L514.165 11.884ZM515.693 18.152C515.693 20.6772 515.138 22.7272 514.151 24.4436L522.82 29.4284C524.777 26.0248 525.693 22.2188 525.693 18.152H515.693ZM514.128 24.4847C513.178 26.1733 511.835 27.4836 509.973 28.4588L514.613 37.3172C518.128 35.4764 520.913 32.8187 522.843 29.3873L514.128 24.4847ZM509.951 28.4704C508.131 29.4354 505.873 30 503.029 30V40C507.226 40 511.144 39.1566 514.635 37.3056L509.951 28.4704ZM503.029 30H490.405V40H503.029V30ZM495.405 35V1.304H485.405V35H495.405ZM490.405 6.304H503.029V-3.696H490.405V6.304ZM502.501 32.896C506.53 32.896 510.346 31.7727 513.252 28.9204L506.247 21.7836C505.697 22.3233 504.681 22.896 502.501 22.896V32.896ZM513.252 28.9204C516.188 26.0381 517.341 22.2007 517.341 18.152H507.341C507.341 20.3113 506.766 21.2739 506.247 21.7836L513.252 28.9204ZM517.341 18.152C517.341 14.0983 516.187 10.2704 513.285 7.36846L506.214 14.4395C506.768 14.9936 507.341 15.9977 507.341 18.152H517.341ZM513.285 7.36846C510.383 4.4665 506.555 3.312 502.501 3.312V13.312C504.656 13.312 505.66 13.8855 506.214 14.4395L513.285 7.36846ZM502.501 3.312H498.613V13.312H502.501V3.312ZM493.613 8.312V27.896H503.613V8.312H493.613ZM498.613 32.896H502.501V22.896H498.613V32.896ZM534.448 7.88V2.88H529.448V7.88H534.448ZM534.448 14.696H529.448V19.696H534.448V14.696ZM545.44 14.696H550.44V9.696H545.44V14.696ZM545.44 21.032V26.032H550.44V21.032H545.44ZM534.448 21.032V16.032H529.448V21.032H534.448ZM534.448 28.424H529.448V33.424H534.448V28.424ZM546.88 28.424H551.88V23.424H546.88V28.424ZM546.88 35V40H551.88V35H546.88ZM526.24 35H521.24V40H526.24V35ZM526.24 1.304V-3.696H521.24V1.304H526.24ZM546.88 1.304H551.88V-3.696H546.88V1.304ZM546.88 7.88V12.88H551.88V7.88H546.88ZM529.448 7.88V14.696H539.448V7.88H529.448ZM534.448 19.696H545.44V9.696H534.448V19.696ZM540.44 14.696V21.032H550.44V14.696H540.44ZM545.44 16.032H534.448V26.032H545.44V16.032ZM529.448 21.032V28.424H539.448V21.032H529.448ZM534.448 33.424H546.88V23.424H534.448V33.424ZM541.88 28.424V35H551.88V28.424H541.88ZM546.88 30H526.24V40H546.88V30ZM531.24 35V1.304H521.24V35H531.24ZM526.24 6.304H546.88V-3.696H526.24V6.304ZM541.88 1.304V7.88H551.88V1.304H541.88ZM546.88 2.88H534.448V12.88H546.88V2.88ZM558.737 34.136L556.841 38.7625L556.841 38.7625L558.737 34.136ZM554.033 30.584L550.004 33.5444L550.023 33.5708L550.043 33.597L554.033 30.584ZM552.209 24.92V19.92H547.062L547.211 25.0649L552.209 24.92ZM560.945 24.92L565.919 24.4099L565.459 19.92H560.945V24.92ZM562.241 27.8L558.87 31.4924L558.915 31.5333L558.96 31.573L562.241 27.8ZM568.001 27.944L571.058 31.9004L571.113 31.8579L571.167 31.8138L568.001 27.944ZM568.193 23.528L564.658 27.0635L564.708 27.114L564.76 27.1631L568.193 23.528ZM566.129 22.184L564.115 26.7606L564.148 26.7749L564.181 26.7888L566.129 22.184ZM562.673 20.984L561.198 25.7614L561.222 25.7688L561.246 25.7759L562.673 20.984ZM553.793 15.992L557.781 12.9765L557.781 12.9765L553.793 15.992ZM555.713 3.512L558.775 7.46475L558.792 7.45136L558.81 7.43783L555.713 3.512ZM573.569 3.512L570.473 7.43783L570.49 7.45136L570.507 7.46475L573.569 3.512ZM577.217 10.904V15.904H582.476L582.211 10.6518L577.217 10.904ZM568.337 10.904L563.346 11.1976L563.623 15.904H568.337V10.904ZM567.137 8.36L563.856 12.133L563.904 12.1745L563.953 12.2148L567.137 8.36ZM561.905 8.216L565.126 12.0406L565.183 11.9922L565.239 11.9422L561.905 8.216ZM562.529 13.016L565.082 8.71673L565.082 8.71672L562.529 13.016ZM567.329 14.984L568.931 10.2476L568.9 10.237L568.868 10.2268L567.329 14.984ZM572.609 17.096L570.373 21.5681L570.394 21.5786L570.415 21.5888L572.609 17.096ZM576.161 20.024L572.209 23.0869L572.209 23.0869L576.161 20.024ZM576.161 30.2L571.936 27.5268L571.916 27.5579L571.897 27.5892L576.161 30.2ZM571.937 33.944L569.701 29.4719L569.701 29.4719L571.937 33.944ZM565.361 30.336C563.44 30.336 561.891 30.0251 560.633 29.5095L556.841 38.7625C559.487 39.8469 562.355 40.336 565.361 40.336V30.336ZM560.633 29.5095C559.448 29.0237 558.627 28.3702 558.023 27.571L550.043 33.597C551.807 35.9338 554.122 37.6483 556.841 38.7625L560.633 29.5095ZM558.063 27.6236C557.591 26.9817 557.246 26.1103 557.207 24.7751L547.211 25.0649C547.301 28.1457 548.171 31.0503 550.004 33.5444L558.063 27.6236ZM552.209 29.92H560.945V19.92H552.209V29.92ZM555.971 25.4301C556.191 27.5722 557.01 29.7945 558.87 31.4924L565.612 24.1076C565.689 24.177 565.756 24.2536 565.812 24.332C565.868 24.4099 565.904 24.4772 565.925 24.5242C565.966 24.6159 565.939 24.6003 565.919 24.4099L555.971 25.4301ZM558.96 31.573C560.791 33.1648 563.001 33.76 565.121 33.76V23.76C564.977 23.76 564.986 23.7405 565.094 23.7766C565.215 23.8169 565.374 23.8985 565.522 24.027L558.96 31.573ZM565.121 33.76C567.043 33.76 569.207 33.3309 571.058 31.9004L564.944 23.9876C565.155 23.8247 565.33 23.7623 565.39 23.7454C565.438 23.7318 565.365 23.76 565.121 23.76V33.76ZM571.167 31.8138C573.147 30.1943 574.057 27.9289 574.057 25.592H564.057C564.057 25.4904 564.077 25.2201 564.232 24.876C564.392 24.5196 564.623 24.2477 564.835 24.0742L571.167 31.8138ZM574.057 25.592C574.057 23.4618 573.257 21.4334 571.626 19.8929L564.76 27.1631C564.572 26.9859 564.371 26.7225 564.229 26.3827C564.089 26.0483 564.057 25.7623 564.057 25.592H574.057ZM571.729 19.9925C570.657 18.9211 569.401 18.139 568.077 17.5792L564.181 26.7888C564.522 26.933 564.641 27.0469 564.658 27.0635L571.729 19.9925ZM568.143 17.6074C567.059 17.1304 565.674 16.6608 564.1 16.1921L561.246 25.7759C562.68 26.2032 563.6 26.5336 564.115 26.7606L568.143 17.6074ZM564.148 16.2066C562.113 15.5779 560.601 14.9937 559.539 14.4752L555.151 23.4608C556.841 24.2863 558.882 25.0461 561.198 25.7614L564.148 16.2066ZM559.539 14.4752C558.921 14.1731 558.336 13.7095 557.781 12.9765L549.805 19.0075C551.235 20.8985 553.018 22.4189 555.151 23.4608L559.539 14.4752ZM557.781 12.9765C557.612 12.752 557.305 12.1908 557.305 10.856H547.305C547.305 13.7452 547.991 16.608 549.805 19.0075L557.781 12.9765ZM557.305 10.856C557.305 9.10423 557.848 8.18268 558.775 7.46475L552.651 -0.44075C549.034 2.36132 547.305 6.33577 547.305 10.856H557.305ZM558.81 7.43783C559.991 6.50621 561.77 5.824 564.593 5.824V-4.176C560.12 -4.176 555.98 -3.06621 552.617 -0.41383L558.81 7.43783ZM564.593 5.824C567.503 5.824 569.306 6.51762 570.473 7.43783L576.666 -0.41383C573.288 -3.07762 569.107 -4.176 564.593 -4.176V5.824ZM570.507 7.46475C571.498 8.23265 572.128 9.27436 572.223 11.1562L582.211 10.6518C581.986 6.19764 580.184 2.31135 576.631 -0.44075L570.507 7.46475ZM577.217 5.904H568.337V15.904H577.217V5.904ZM573.328 10.6104C573.196 8.35183 572.284 6.12672 570.322 4.50519L563.953 12.2148C563.764 12.0591 563.587 11.8388 563.467 11.5851C563.354 11.3457 563.345 11.189 563.346 11.1976L573.328 10.6104ZM570.418 4.58698C568.612 3.0168 566.433 2.4 564.305 2.4V12.4C564.419 12.4 564.39 12.4155 564.272 12.3753C564.142 12.3313 563.99 12.2492 563.856 12.133L570.418 4.58698ZM564.305 2.4C562.361 2.4 560.284 2.9571 558.571 4.48979L565.239 11.9422C565.024 12.1347 564.784 12.2653 564.571 12.3379C564.371 12.4057 564.264 12.4 564.305 12.4V2.4ZM558.684 4.39144C556.676 6.08286 555.993 8.4028 555.993 10.472H565.993C565.993 10.4791 565.993 10.7018 565.857 11.0379C565.71 11.4017 565.459 11.7604 565.126 12.0406L558.684 4.39144ZM555.993 10.472C555.993 13.5172 557.608 15.9093 559.976 17.3153L565.082 8.71672C565.136 8.74875 565.41 8.92907 565.657 9.33965C565.918 9.77097 565.993 10.1975 565.993 10.472H555.993ZM559.976 17.3153C561.492 18.2149 563.521 19.007 565.79 19.7412L568.868 10.2268C566.786 9.55299 565.615 9.03314 565.082 8.71673L559.976 17.3153ZM565.727 19.7204C567.787 20.417 569.311 21.0372 570.373 21.5681L574.845 12.6239C573.219 11.8108 571.224 11.023 568.931 10.2476L565.727 19.7204ZM570.415 21.5888C571.064 21.9057 571.658 22.3761 572.209 23.0869L580.113 16.9611C578.68 15.1119 576.906 13.6303 574.803 12.6032L570.415 21.5888ZM572.209 23.0869C572.37 23.294 572.649 23.7838 572.649 24.968H582.649C582.649 22.1202 581.937 19.314 580.113 16.9611L572.209 23.0869ZM572.649 24.968C572.649 25.9763 572.403 26.7874 571.936 27.5268L580.387 32.8732C581.903 30.4766 582.649 27.7997 582.649 24.968H572.649ZM571.897 27.5892C571.486 28.26 570.831 28.907 569.701 29.4719L574.173 38.4161C576.756 37.125 578.916 35.276 580.425 32.8108L571.897 27.5892ZM569.701 29.4719C568.675 29.9851 567.28 30.336 565.361 30.336V40.336C568.498 40.336 571.488 39.7589 574.173 38.4161L569.701 29.4719Z" fill="black" mask="url(#path-1-outside-1_611_438)"/>
</svg>
