<svg width="541" height="236" viewBox="0 0 541 236" fill="none" xmlns="http://www.w3.org/2000/svg">
<mask id="path-1-outside-1_530_487" maskUnits="userSpaceOnUse" x="-5" y="25" width="267" height="91" fill="black">
<rect fill="white" x="-5" y="25" width="267" height="91"/>
<path d="M40.32 106L26.304 80.56H22.368V106H5.952V38.608H33.504C38.816 38.608 43.328 39.536 47.04 41.392C50.816 43.248 53.632 45.808 55.488 49.072C57.344 52.272 58.272 55.856 58.272 59.824C58.272 64.304 56.992 68.304 54.432 71.824C51.936 75.344 48.224 77.84 43.296 79.312L58.848 106H40.32ZM22.368 68.944H32.544C35.552 68.944 37.792 68.208 39.264 66.736C40.8 65.264 41.568 63.184 41.568 60.496C41.568 57.936 40.8 55.92 39.264 54.448C37.792 52.976 35.552 52.24 32.544 52.24H22.368V68.944ZM112.449 94.096H87.297L83.265 106H66.081L90.465 38.608H109.473L133.857 106H116.481L112.449 94.096ZM108.225 81.424L99.873 56.752L91.617 81.424H108.225ZM194.558 60.304C194.558 64.208 193.662 67.792 191.87 71.056C190.078 74.256 187.326 76.848 183.614 78.832C179.902 80.816 175.294 81.808 169.79 81.808H159.614V106H143.198V38.608H169.79C175.166 38.608 179.71 39.536 183.422 41.392C187.134 43.248 189.918 45.808 191.774 49.072C193.63 52.336 194.558 56.08 194.558 60.304ZM168.542 68.752C171.678 68.752 174.014 68.016 175.55 66.544C177.086 65.072 177.854 62.992 177.854 60.304C177.854 57.616 177.086 55.536 175.55 54.064C174.014 52.592 171.678 51.856 168.542 51.856H159.614V68.752H168.542ZM222.496 92.56H251.488V106H203.872V93.52L232.672 52.048H203.872V38.608H251.488V51.088L222.496 92.56Z"/>
</mask>
<path d="M40.32 106L26.304 80.56H22.368V106H5.952V38.608H33.504C38.816 38.608 43.328 39.536 47.04 41.392C50.816 43.248 53.632 45.808 55.488 49.072C57.344 52.272 58.272 55.856 58.272 59.824C58.272 64.304 56.992 68.304 54.432 71.824C51.936 75.344 48.224 77.84 43.296 79.312L58.848 106H40.32ZM22.368 68.944H32.544C35.552 68.944 37.792 68.208 39.264 66.736C40.8 65.264 41.568 63.184 41.568 60.496C41.568 57.936 40.8 55.92 39.264 54.448C37.792 52.976 35.552 52.24 32.544 52.24H22.368V68.944ZM112.449 94.096H87.297L83.265 106H66.081L90.465 38.608H109.473L133.857 106H116.481L112.449 94.096ZM108.225 81.424L99.873 56.752L91.617 81.424H108.225ZM194.558 60.304C194.558 64.208 193.662 67.792 191.87 71.056C190.078 74.256 187.326 76.848 183.614 78.832C179.902 80.816 175.294 81.808 169.79 81.808H159.614V106H143.198V38.608H169.79C175.166 38.608 179.71 39.536 183.422 41.392C187.134 43.248 189.918 45.808 191.774 49.072C193.63 52.336 194.558 56.08 194.558 60.304ZM168.542 68.752C171.678 68.752 174.014 68.016 175.55 66.544C177.086 65.072 177.854 62.992 177.854 60.304C177.854 57.616 177.086 55.536 175.55 54.064C174.014 52.592 171.678 51.856 168.542 51.856H159.614V68.752H168.542ZM222.496 92.56H251.488V106H203.872V93.52L232.672 52.048H203.872V38.608H251.488V51.088L222.496 92.56Z" fill="black"/>
<path d="M40.32 106L31.5613 110.826L34.4122 116H40.32V106ZM26.304 80.56L35.0627 75.7345L32.2118 70.56H26.304V80.56ZM22.368 80.56V70.56H12.368V80.56H22.368ZM22.368 106V116H32.368V106H22.368ZM5.952 106H-4.048V116H5.952V106ZM5.952 38.608V28.608H-4.048V38.608H5.952ZM47.04 41.392L42.5679 50.3363L42.5983 50.3515L42.6288 50.3665L47.04 41.392ZM55.488 49.072L46.7951 54.015L46.8162 54.0522L46.8377 54.0892L55.488 49.072ZM54.432 71.824L46.3446 65.9423L46.3094 65.9908L46.2747 66.0397L54.432 71.824ZM43.296 79.312L40.4339 69.7303L28.2578 73.3673L34.656 84.3468L43.296 79.312ZM58.848 106V116H76.2494L67.488 100.965L58.848 106ZM22.368 68.944H12.368V78.944H22.368V68.944ZM39.264 66.736L32.345 59.5161L32.2682 59.5897L32.1929 59.6649L39.264 66.736ZM39.264 54.448L32.1929 61.5191L32.2682 61.5943L32.345 61.6679L39.264 54.448ZM22.368 52.24V42.24H12.368V52.24H22.368ZM49.0787 101.174L35.0627 75.7345L17.5453 85.3855L31.5613 110.826L49.0787 101.174ZM26.304 70.56H22.368V90.56H26.304V70.56ZM12.368 80.56V106H32.368V80.56H12.368ZM22.368 96H5.952V116H22.368V96ZM15.952 106V38.608H-4.048V106H15.952ZM5.952 48.608H33.504V28.608H5.952V48.608ZM33.504 48.608C37.6849 48.608 40.5777 49.3412 42.5679 50.3363L51.5121 32.4477C46.0783 29.7308 39.9471 28.608 33.504 28.608V48.608ZM42.6288 50.3665C44.8309 51.4489 46.0472 52.6997 46.7951 54.015L64.1809 44.129C61.2168 38.9163 56.8011 35.0471 51.4512 32.4175L42.6288 50.3665ZM46.8377 54.0892C47.7455 55.6543 48.272 57.4856 48.272 59.824H68.272C68.272 54.2263 66.9426 48.8897 64.1383 44.0548L46.8377 54.0892ZM48.272 59.824C48.272 62.2569 47.6231 64.1843 46.3446 65.9423L62.5194 77.7057C66.3609 72.4237 68.272 66.3511 68.272 59.824H48.272ZM46.2747 66.0397C45.3055 67.4065 43.6477 68.7704 40.4339 69.7303L46.1581 88.8937C52.8003 86.9096 58.5665 83.2815 62.5893 77.6083L46.2747 66.0397ZM34.656 84.3468L50.208 111.035L67.488 100.965L51.936 74.2772L34.656 84.3468ZM58.848 96H40.32V116H58.848V96ZM22.368 78.944H32.544V58.944H22.368V78.944ZM32.544 78.944C37.0208 78.944 42.2903 77.8518 46.3351 73.8071L32.1929 59.6649C32.4337 59.4242 32.6808 59.2401 32.9038 59.1075C33.1227 58.9773 33.2867 58.9153 33.3585 58.8917C33.4796 58.8519 33.2653 58.944 32.544 58.944V78.944ZM46.1831 73.9559C50.1762 70.1291 51.568 65.1489 51.568 60.496H31.568C31.568 60.9013 31.509 60.8846 31.611 60.6083C31.6632 60.467 31.7492 60.2814 31.8824 60.0761C32.0164 59.8694 32.1746 59.6794 32.345 59.5161L46.1831 73.9559ZM51.568 60.496C51.568 55.8067 50.08 50.9627 46.1831 47.2281L32.345 61.6679C32.0278 61.3639 31.7829 60.9805 31.6471 60.624C31.5254 60.3045 31.568 60.2106 31.568 60.496H51.568ZM46.3351 47.3769C42.2903 43.3322 37.0208 42.24 32.544 42.24V62.24C33.2653 62.24 33.4796 62.3321 33.3585 62.2923C33.2867 62.2687 33.1227 62.2067 32.9038 62.0765C32.6808 61.9439 32.4337 61.7598 32.1929 61.5191L46.3351 47.3769ZM32.544 42.24H22.368V62.24H32.544V42.24ZM12.368 52.24V68.944H32.368V52.24H12.368ZM112.449 94.096L121.92 90.8879L119.62 84.096H112.449V94.096ZM87.297 94.096V84.096H80.126L77.8256 90.8879L87.297 94.096ZM83.265 106V116H90.436L92.7364 109.208L83.265 106ZM66.081 106L56.6776 102.598L51.8283 116H66.081V106ZM90.465 38.608V28.608H83.4488L81.0616 35.2056L90.465 38.608ZM109.473 38.608L118.876 35.2056L116.489 28.608H109.473V38.608ZM133.857 106V116H148.11L143.26 102.598L133.857 106ZM116.481 106L107.01 109.208L109.31 116H116.481V106ZM108.225 81.424V91.424H122.168L117.697 78.2175L108.225 81.424ZM99.873 56.752L109.345 53.5455L99.8182 25.4032L90.3899 53.5787L99.873 56.752ZM91.617 81.424L82.1339 78.2507L77.7257 91.424H91.617V81.424ZM112.449 84.096H87.297V104.096H112.449V84.096ZM77.8256 90.8879L73.7936 102.792L92.7364 109.208L96.7684 97.3041L77.8256 90.8879ZM83.265 96H66.081V116H83.265V96ZM75.4844 109.402L99.8684 42.0104L81.0616 35.2056L56.6776 102.598L75.4844 109.402ZM90.465 48.608H109.473V28.608H90.465V48.608ZM100.07 42.0104L124.454 109.402L143.26 102.598L118.876 35.2056L100.07 42.0104ZM133.857 96H116.481V116H133.857V96ZM125.952 102.792L121.92 90.8879L102.978 97.3041L107.01 109.208L125.952 102.792ZM117.697 78.2175L109.345 53.5455L90.401 59.9585L98.753 84.6305L117.697 78.2175ZM90.3899 53.5787L82.1339 78.2507L101.1 84.5973L109.356 59.9253L90.3899 53.5787ZM91.617 91.424H108.225V71.424H91.617V91.424ZM191.87 71.056L200.595 75.942L200.616 75.9054L200.636 75.8686L191.87 71.056ZM183.614 78.832L178.9 70.0127H178.9L183.614 78.832ZM159.614 81.808V71.808H149.614V81.808H159.614ZM159.614 106V116H169.614V106H159.614ZM143.198 106H133.198V116H143.198V106ZM143.198 38.608V28.608H133.198V38.608H143.198ZM183.422 41.392L187.894 32.4477L183.422 41.392ZM159.614 51.856V41.856H149.614V51.856H159.614ZM159.614 68.752H149.614V78.752H159.614V68.752ZM184.558 60.304C184.558 62.61 184.047 64.5266 183.104 66.2434L200.636 75.8686C203.277 71.0574 204.558 65.806 204.558 60.304H184.558ZM183.145 66.17C182.419 67.4671 181.182 68.7933 178.9 70.0127L188.328 87.6513C193.471 84.9027 197.738 81.0449 200.595 75.942L183.145 66.17ZM178.9 70.0127C177.016 71.0197 174.139 71.808 169.79 71.808V91.808C176.449 91.808 182.788 90.6123 188.328 87.6513L178.9 70.0127ZM169.79 71.808H159.614V91.808H169.79V71.808ZM149.614 81.808V106H169.614V81.808H149.614ZM159.614 96H143.198V116H159.614V96ZM153.198 106V38.608H133.198V106H153.198ZM143.198 48.608H169.79V28.608H143.198V48.608ZM169.79 48.608C174.057 48.608 176.975 49.3486 178.95 50.3363L187.894 32.4477C182.446 29.7234 176.276 28.608 169.79 28.608V48.608ZM178.95 50.3363C181.084 51.4032 182.307 52.653 183.081 54.015L200.467 44.129C197.53 38.963 193.184 35.0928 187.894 32.4477L178.95 50.3363ZM183.081 54.015C183.978 55.5915 184.558 57.5924 184.558 60.304H204.558C204.558 54.5676 203.283 49.0805 200.467 44.129L183.081 54.015ZM168.542 78.752C173.048 78.752 178.351 77.7102 182.469 73.7639L168.631 59.3241C168.867 59.098 169.1 58.9343 169.295 58.8232C169.485 58.7144 169.613 58.671 169.641 58.6622C169.666 58.6542 169.598 58.6781 169.411 58.7032C169.224 58.7285 168.939 58.752 168.542 58.752V78.752ZM182.469 73.7639C186.462 69.9371 187.854 64.9569 187.854 60.304H167.854C167.854 60.7093 167.795 60.6926 167.897 60.4163C167.949 60.275 168.035 60.0895 168.169 59.8841C168.303 59.6774 168.461 59.4874 168.631 59.3241L182.469 73.7639ZM187.854 60.304C187.854 55.6511 186.462 50.6709 182.469 46.8441L168.631 61.2839C168.461 61.1206 168.303 60.9306 168.169 60.7239C168.035 60.5185 167.949 60.333 167.897 60.1917C167.795 59.9154 167.854 59.8987 167.854 60.304H187.854ZM182.469 46.8441C178.351 42.8978 173.048 41.856 168.542 41.856V61.856C168.939 61.856 169.224 61.8795 169.411 61.9048C169.598 61.9299 169.666 61.9538 169.641 61.9458C169.613 61.937 169.485 61.8936 169.295 61.7848C169.1 61.6737 168.867 61.51 168.631 61.2839L182.469 46.8441ZM168.542 41.856H159.614V61.856H168.542V41.856ZM149.614 51.856V68.752H169.614V51.856H149.614ZM159.614 78.752H168.542V58.752H159.614V78.752ZM222.496 92.56L214.301 86.8305L203.305 102.56H222.496V92.56ZM251.488 92.56H261.488V82.56H251.488V92.56ZM251.488 106V116H261.488V106H251.488ZM203.872 106H193.872V116H203.872V106ZM203.872 93.52L195.659 87.816L193.872 90.3883V93.52H203.872ZM232.673 52.048L240.886 57.752L251.792 42.048H232.673V52.048ZM203.872 52.048H193.872V62.048H203.872V52.048ZM203.872 38.608V28.608H193.872V38.608H203.872ZM251.488 38.608H261.488V28.608H251.488V38.608ZM251.488 51.088L259.684 56.8175L261.488 54.2368V51.088H251.488ZM222.496 102.56H251.488V82.56H222.496V102.56ZM241.488 92.56V106H261.488V92.56H241.488ZM251.488 96H203.872V116H251.488V96ZM213.872 106V93.52H193.872V106H213.872ZM212.086 99.224L240.886 57.752L224.459 46.344L195.659 87.816L212.086 99.224ZM232.673 42.048H203.872V62.048H232.673V42.048ZM213.872 52.048V38.608H193.872V52.048H213.872ZM203.872 48.608H251.488V28.608H203.872V48.608ZM241.488 38.608V51.088H261.488V38.608H241.488ZM243.293 45.3585L214.301 86.8305L230.692 98.2895L259.684 56.8175L243.293 45.3585Z" fill="#FF3A85" mask="url(#path-1-outside-1_530_487)"/>
<mask id="path-3-outside-2_530_487" maskUnits="userSpaceOnUse" x="-2.92017" y="131" width="538" height="84" fill="black">
<rect fill="white" x="-2.92017" y="131" width="538" height="84"/>
<path d="M56.6798 147.84V204H42.9998V180.88H21.7198V204H8.03983V147.84H21.7198V169.84H42.9998V147.84H56.6798ZM103.115 194.08H82.1555L78.7955 204H64.4755L84.7955 147.84H100.635L120.955 204H106.475L103.115 194.08ZM99.5955 183.52L92.6355 162.96L85.7555 183.52H99.5955ZM142.42 147.84V204H128.74V147.84H142.42ZM182.574 204L170.894 182.8H167.614V204H153.934V147.84H176.894C181.32 147.84 185.08 148.613 188.174 150.16C191.32 151.707 193.667 153.84 195.214 156.56C196.76 159.227 197.534 162.213 197.534 165.52C197.534 169.253 196.467 172.587 194.334 175.52C192.254 178.453 189.16 180.533 185.054 181.76L198.014 204H182.574ZM167.614 173.12H176.094C178.6 173.12 180.467 172.507 181.694 171.28C182.974 170.053 183.614 168.32 183.614 166.08C183.614 163.947 182.974 162.267 181.694 161.04C180.467 159.813 178.6 159.2 176.094 159.2H167.614V173.12ZM246.594 204.56C242.488 204.56 238.808 203.893 235.554 202.56C232.301 201.227 229.688 199.253 227.714 196.64C225.794 194.027 224.781 190.88 224.674 187.2H239.234C239.448 189.28 240.168 190.88 241.394 192C242.621 193.067 244.221 193.6 246.194 193.6C248.221 193.6 249.821 193.147 250.994 192.24C252.168 191.28 252.754 189.973 252.754 188.32C252.754 186.933 252.274 185.787 251.314 184.88C250.408 183.973 249.261 183.227 247.874 182.64C246.541 182.053 244.621 181.387 242.114 180.64C238.488 179.52 235.528 178.4 233.234 177.28C230.941 176.16 228.968 174.507 227.314 172.32C225.661 170.133 224.834 167.28 224.834 163.76C224.834 158.533 226.728 154.453 230.514 151.52C234.301 148.533 239.234 147.04 245.314 147.04C251.501 147.04 256.488 148.533 260.274 151.52C264.061 154.453 266.088 158.56 266.354 163.84H251.554C251.448 162.027 250.781 160.613 249.554 159.6C248.328 158.533 246.754 158 244.834 158C243.181 158 241.848 158.453 240.834 159.36C239.821 160.213 239.314 161.467 239.314 163.12C239.314 164.933 240.168 166.347 241.874 167.36C243.581 168.373 246.248 169.467 249.874 170.64C253.501 171.867 256.434 173.04 258.674 174.16C260.968 175.28 262.941 176.907 264.594 179.04C266.248 181.173 267.074 183.92 267.074 187.28C267.074 190.48 266.248 193.387 264.594 196C262.994 198.613 260.648 200.693 257.554 202.24C254.461 203.787 250.808 204.56 246.594 204.56ZM317.493 147.84V158.8H302.613V204H288.933V158.8H274.053V147.84H317.493ZM339.399 147.84V181.44C339.399 184.8 340.225 187.387 341.879 189.2C343.532 191.013 345.959 191.92 349.159 191.92C352.359 191.92 354.812 191.013 356.519 189.2C358.225 187.387 359.079 184.8 359.079 181.44V147.84H372.759V181.36C372.759 186.373 371.692 190.613 369.559 194.08C367.425 197.547 364.545 200.16 360.919 201.92C357.345 203.68 353.345 204.56 348.919 204.56C344.492 204.56 340.519 203.707 336.999 202C333.532 200.24 330.785 197.627 328.759 194.16C326.732 190.64 325.719 186.373 325.719 181.36V147.84H339.399ZM405.005 147.84C410.925 147.84 416.098 149.013 420.525 151.36C424.951 153.707 428.365 157.013 430.765 161.28C433.218 165.493 434.445 170.373 434.445 175.92C434.445 181.413 433.218 186.293 430.765 190.56C428.365 194.827 424.925 198.133 420.445 200.48C416.018 202.827 410.871 204 405.005 204H383.965V147.84H405.005ZM404.125 192.16C409.298 192.16 413.325 190.747 416.205 187.92C419.085 185.093 420.525 181.093 420.525 175.92C420.525 170.747 419.085 166.72 416.205 163.84C413.325 160.96 409.298 159.52 404.125 159.52H397.645V192.16H404.125ZM457.37 147.84V204H443.69V147.84H457.37ZM495.444 204.56C490.164 204.56 485.31 203.333 480.884 200.88C476.51 198.427 473.017 195.013 470.404 190.64C467.844 186.213 466.564 181.253 466.564 175.76C466.564 170.267 467.844 165.333 470.404 160.96C473.017 156.587 476.51 153.173 480.884 150.72C485.31 148.267 490.164 147.04 495.444 147.04C500.724 147.04 505.55 148.267 509.924 150.72C514.35 153.173 517.817 156.587 520.324 160.96C522.884 165.333 524.164 170.267 524.164 175.76C524.164 181.253 522.884 186.213 520.324 190.64C517.764 195.013 514.297 198.427 509.924 200.88C505.55 203.333 500.724 204.56 495.444 204.56ZM495.444 192.08C499.924 192.08 503.497 190.587 506.164 187.6C508.884 184.613 510.244 180.667 510.244 175.76C510.244 170.8 508.884 166.853 506.164 163.92C503.497 160.933 499.924 159.44 495.444 159.44C490.91 159.44 487.284 160.907 484.564 163.84C481.897 166.773 480.564 170.747 480.564 175.76C480.564 180.72 481.897 184.693 484.564 187.68C487.284 190.613 490.91 192.08 495.444 192.08Z"/>
</mask>
<path d="M56.6798 147.84V204H42.9998V180.88H21.7198V204H8.03983V147.84H21.7198V169.84H42.9998V147.84H56.6798ZM103.115 194.08H82.1555L78.7955 204H64.4755L84.7955 147.84H100.635L120.955 204H106.475L103.115 194.08ZM99.5955 183.52L92.6355 162.96L85.7555 183.52H99.5955ZM142.42 147.84V204H128.74V147.84H142.42ZM182.574 204L170.894 182.8H167.614V204H153.934V147.84H176.894C181.32 147.84 185.08 148.613 188.174 150.16C191.32 151.707 193.667 153.84 195.214 156.56C196.76 159.227 197.534 162.213 197.534 165.52C197.534 169.253 196.467 172.587 194.334 175.52C192.254 178.453 189.16 180.533 185.054 181.76L198.014 204H182.574ZM167.614 173.12H176.094C178.6 173.12 180.467 172.507 181.694 171.28C182.974 170.053 183.614 168.32 183.614 166.08C183.614 163.947 182.974 162.267 181.694 161.04C180.467 159.813 178.6 159.2 176.094 159.2H167.614V173.12ZM246.594 204.56C242.488 204.56 238.808 203.893 235.554 202.56C232.301 201.227 229.688 199.253 227.714 196.64C225.794 194.027 224.781 190.88 224.674 187.2H239.234C239.448 189.28 240.168 190.88 241.394 192C242.621 193.067 244.221 193.6 246.194 193.6C248.221 193.6 249.821 193.147 250.994 192.24C252.168 191.28 252.754 189.973 252.754 188.32C252.754 186.933 252.274 185.787 251.314 184.88C250.408 183.973 249.261 183.227 247.874 182.64C246.541 182.053 244.621 181.387 242.114 180.64C238.488 179.52 235.528 178.4 233.234 177.28C230.941 176.16 228.968 174.507 227.314 172.32C225.661 170.133 224.834 167.28 224.834 163.76C224.834 158.533 226.728 154.453 230.514 151.52C234.301 148.533 239.234 147.04 245.314 147.04C251.501 147.04 256.488 148.533 260.274 151.52C264.061 154.453 266.088 158.56 266.354 163.84H251.554C251.448 162.027 250.781 160.613 249.554 159.6C248.328 158.533 246.754 158 244.834 158C243.181 158 241.848 158.453 240.834 159.36C239.821 160.213 239.314 161.467 239.314 163.12C239.314 164.933 240.168 166.347 241.874 167.36C243.581 168.373 246.248 169.467 249.874 170.64C253.501 171.867 256.434 173.04 258.674 174.16C260.968 175.28 262.941 176.907 264.594 179.04C266.248 181.173 267.074 183.92 267.074 187.28C267.074 190.48 266.248 193.387 264.594 196C262.994 198.613 260.648 200.693 257.554 202.24C254.461 203.787 250.808 204.56 246.594 204.56ZM317.493 147.84V158.8H302.613V204H288.933V158.8H274.053V147.84H317.493ZM339.399 147.84V181.44C339.399 184.8 340.225 187.387 341.879 189.2C343.532 191.013 345.959 191.92 349.159 191.92C352.359 191.92 354.812 191.013 356.519 189.2C358.225 187.387 359.079 184.8 359.079 181.44V147.84H372.759V181.36C372.759 186.373 371.692 190.613 369.559 194.08C367.425 197.547 364.545 200.16 360.919 201.92C357.345 203.68 353.345 204.56 348.919 204.56C344.492 204.56 340.519 203.707 336.999 202C333.532 200.24 330.785 197.627 328.759 194.16C326.732 190.64 325.719 186.373 325.719 181.36V147.84H339.399ZM405.005 147.84C410.925 147.84 416.098 149.013 420.525 151.36C424.951 153.707 428.365 157.013 430.765 161.28C433.218 165.493 434.445 170.373 434.445 175.92C434.445 181.413 433.218 186.293 430.765 190.56C428.365 194.827 424.925 198.133 420.445 200.48C416.018 202.827 410.871 204 405.005 204H383.965V147.84H405.005ZM404.125 192.16C409.298 192.16 413.325 190.747 416.205 187.92C419.085 185.093 420.525 181.093 420.525 175.92C420.525 170.747 419.085 166.72 416.205 163.84C413.325 160.96 409.298 159.52 404.125 159.52H397.645V192.16H404.125ZM457.37 147.84V204H443.69V147.84H457.37ZM495.444 204.56C490.164 204.56 485.31 203.333 480.884 200.88C476.51 198.427 473.017 195.013 470.404 190.64C467.844 186.213 466.564 181.253 466.564 175.76C466.564 170.267 467.844 165.333 470.404 160.96C473.017 156.587 476.51 153.173 480.884 150.72C485.31 148.267 490.164 147.04 495.444 147.04C500.724 147.04 505.55 148.267 509.924 150.72C514.35 153.173 517.817 156.587 520.324 160.96C522.884 165.333 524.164 170.267 524.164 175.76C524.164 181.253 522.884 186.213 520.324 190.64C517.764 195.013 514.297 198.427 509.924 200.88C505.55 203.333 500.724 204.56 495.444 204.56ZM495.444 192.08C499.924 192.08 503.497 190.587 506.164 187.6C508.884 184.613 510.244 180.667 510.244 175.76C510.244 170.8 508.884 166.853 506.164 163.92C503.497 160.933 499.924 159.44 495.444 159.44C490.91 159.44 487.284 160.907 484.564 163.84C481.897 166.773 480.564 170.747 480.564 175.76C480.564 180.72 481.897 184.693 484.564 187.68C487.284 190.613 490.91 192.08 495.444 192.08Z" fill="black"/>
<path d="M56.6798 147.84H66.6798V137.84H56.6798V147.84ZM56.6798 204V214H66.6798V204H56.6798ZM42.9998 204H32.9998V214H42.9998V204ZM42.9998 180.88H52.9998V170.88H42.9998V180.88ZM21.7198 180.88V170.88H11.7198V180.88H21.7198ZM21.7198 204V214H31.7198V204H21.7198ZM8.03983 204H-1.96017V214H8.03983V204ZM8.03983 147.84V137.84H-1.96017V147.84H8.03983ZM21.7198 147.84H31.7198V137.84H21.7198V147.84ZM21.7198 169.84H11.7198V179.84H21.7198V169.84ZM42.9998 169.84V179.84H52.9998V169.84H42.9998ZM42.9998 147.84V137.84H32.9998V147.84H42.9998ZM46.6798 147.84V204H66.6798V147.84H46.6798ZM56.6798 194H42.9998V214H56.6798V194ZM52.9998 204V180.88H32.9998V204H52.9998ZM42.9998 170.88H21.7198V190.88H42.9998V170.88ZM11.7198 180.88V204H31.7198V180.88H11.7198ZM21.7198 194H8.03983V214H21.7198V194ZM18.0398 204V147.84H-1.96017V204H18.0398ZM8.03983 157.84H21.7198V137.84H8.03983V157.84ZM11.7198 147.84V169.84H31.7198V147.84H11.7198ZM21.7198 179.84H42.9998V159.84H21.7198V179.84ZM52.9998 169.84V147.84H32.9998V169.84H52.9998ZM42.9998 157.84H56.6798V137.84H42.9998V157.84ZM103.115 194.08L112.587 190.872L110.286 184.08H103.115V194.08ZM82.1555 194.08V184.08H74.9845L72.684 190.872L82.1555 194.08ZM78.7955 204V214H85.9664L88.2669 207.208L78.7955 204ZM64.4755 204L55.0721 200.598L50.2228 214H64.4755V204ZM84.7955 147.84V137.84H77.7792L75.3921 144.438L84.7955 147.84ZM100.635 147.84L110.039 144.438L107.652 137.84H100.635V147.84ZM120.955 204V214H135.208L130.359 200.598L120.955 204ZM106.475 204L97.004 207.208L99.3045 214H106.475V204ZM99.5955 183.52V193.52H113.538L109.067 180.314L99.5955 183.52ZM92.6355 162.96L102.107 159.754L92.5807 131.611L83.1523 159.787L92.6355 162.96ZM85.7555 183.52L76.2723 180.347L71.8641 193.52H85.7555V183.52ZM103.115 184.08H82.1555V204.08H103.115V184.08ZM72.684 190.872L69.324 200.792L88.2669 207.208L91.6269 197.288L72.684 190.872ZM78.7955 194H64.4755V214H78.7955V194ZM73.8789 207.402L94.1989 151.242L75.3921 144.438L55.0721 200.598L73.8789 207.402ZM84.7955 157.84H100.635V137.84H84.7955V157.84ZM91.2321 151.242L111.552 207.402L130.359 200.598L110.039 144.438L91.2321 151.242ZM120.955 194H106.475V214H120.955V194ZM115.947 200.792L112.587 190.872L93.644 197.288L97.004 207.208L115.947 200.792ZM109.067 180.314L102.107 159.754L83.1635 166.166L90.1235 186.726L109.067 180.314ZM83.1523 159.787L76.2723 180.347L95.2386 186.693L102.119 166.133L83.1523 159.787ZM85.7555 193.52H99.5955V173.52H85.7555V193.52ZM142.42 147.84H152.42V137.84H142.42V147.84ZM142.42 204V214H152.42V204H142.42ZM128.74 204H118.74V214H128.74V204ZM128.74 147.84V137.84H118.74V147.84H128.74ZM132.42 147.84V204H152.42V147.84H132.42ZM142.42 194H128.74V214H142.42V194ZM138.74 204V147.84H118.74V204H138.74ZM128.74 157.84H142.42V137.84H128.74V157.84ZM182.574 204L173.815 208.826L176.666 214H182.574V204ZM170.894 182.8L179.652 177.974L176.801 172.8H170.894V182.8ZM167.614 182.8V172.8H157.614V182.8H167.614ZM167.614 204V214H177.614V204H167.614ZM153.934 204H143.934V214H153.934V204ZM153.934 147.84V137.84H143.934V147.84H153.934ZM188.174 150.16L183.701 159.104L183.732 159.119L183.762 159.134L188.174 150.16ZM195.214 156.56L186.521 161.503L186.542 161.54L186.563 161.577L195.214 156.56ZM194.334 175.52L186.246 169.638L186.211 169.687L186.176 169.736L194.334 175.52ZM185.054 181.76L182.192 172.178L170.015 175.815L176.414 186.795L185.054 181.76ZM198.014 204V214H215.415L206.654 198.965L198.014 204ZM167.614 173.12H157.614V183.12H167.614V173.12ZM181.694 171.28L174.775 164.06L174.698 164.134L174.623 164.209L181.694 171.28ZM181.694 161.04L174.623 168.111L174.698 168.186L174.775 168.26L181.694 161.04ZM167.614 159.2V149.2H157.614V159.2H167.614ZM191.332 199.174L179.652 177.974L162.135 187.626L173.815 208.826L191.332 199.174ZM170.894 172.8H167.614V192.8H170.894V172.8ZM157.614 182.8V204H177.614V182.8H157.614ZM167.614 194H153.934V214H167.614V194ZM163.934 204V147.84H143.934V204H163.934ZM153.934 157.84H176.894V137.84H153.934V157.84ZM176.894 157.84C180.189 157.84 182.33 158.419 183.701 159.104L192.646 141.216C187.831 138.808 182.451 137.84 176.894 137.84V157.84ZM183.762 159.134C185.335 159.908 186.082 160.732 186.521 161.503L203.906 151.617C201.252 146.948 197.305 143.506 192.585 141.186L183.762 159.134ZM186.563 161.577C187.162 162.609 187.534 163.843 187.534 165.52H207.534C207.534 160.584 206.359 155.844 203.864 151.543L186.563 161.577ZM187.534 165.52C187.534 167.206 187.098 168.467 186.246 169.638L202.421 181.402C205.836 176.706 207.534 171.3 207.534 165.52H187.534ZM186.176 169.736C185.623 170.516 184.584 171.464 182.192 172.178L187.916 191.342C193.737 189.603 198.884 186.391 202.491 181.304L186.176 169.736ZM176.414 186.795L189.374 209.035L206.654 198.965L193.694 176.725L176.414 186.795ZM198.014 194H182.574V214H198.014V194ZM167.614 183.12H176.094V163.12H167.614V183.12ZM176.094 183.12C180.069 183.12 184.965 182.15 188.765 178.351L174.623 164.209C175.256 163.575 175.896 163.277 176.252 163.16C176.56 163.059 176.564 163.12 176.094 163.12V183.12ZM188.613 178.5C192.35 174.918 193.614 170.285 193.614 166.08H173.614C173.614 166.261 173.587 166.046 173.753 165.596C173.935 165.102 174.273 164.541 174.775 164.06L188.613 178.5ZM193.614 166.08C193.614 161.817 192.254 157.309 188.613 153.82L174.775 168.26C174.329 167.833 173.989 167.304 173.789 166.78C173.603 166.293 173.614 166.008 173.614 166.08H193.614ZM188.765 153.969C184.965 150.17 180.069 149.2 176.094 149.2V169.2C176.564 169.2 176.56 169.261 176.252 169.16C175.896 169.043 175.256 168.745 174.623 168.111L188.765 153.969ZM176.094 149.2H167.614V169.2H176.094V149.2ZM157.614 159.2V173.12H177.614V159.2H157.614ZM235.554 202.56L231.762 211.813L235.554 202.56ZM227.714 196.64L219.655 202.561L219.694 202.614L219.734 202.666L227.714 196.64ZM224.674 187.2V177.2H214.38L214.678 187.49L224.674 187.2ZM239.234 187.2L249.182 186.18L248.261 177.2H239.234V187.2ZM241.394 192L234.652 199.385L234.741 199.467L234.832 199.546L241.394 192ZM250.994 192.24L257.109 200.153L257.219 200.068L257.327 199.98L250.994 192.24ZM251.314 184.88L244.243 191.951L244.344 192.052L244.448 192.15L251.314 184.88ZM247.874 182.64L243.847 191.793L243.912 191.822L243.978 191.85L247.874 182.64ZM242.114 180.64L239.163 190.195L239.211 190.21L239.259 190.224L242.114 180.64ZM233.234 177.28L228.846 186.266L233.234 177.28ZM227.314 172.32L235.291 166.289L227.314 172.32ZM230.514 151.52L236.638 159.425L236.673 159.399L236.707 159.372L230.514 151.52ZM260.274 151.52L254.081 159.372L254.116 159.399L254.15 159.425L260.274 151.52ZM266.354 163.84V173.84H276.872L276.341 163.336L266.354 163.84ZM251.554 163.84L241.571 164.427L242.125 173.84H251.554V163.84ZM249.554 159.6L242.992 167.146L243.088 167.229L243.185 167.31L249.554 159.6ZM240.834 159.36L247.276 167.009L247.39 166.912L247.502 166.812L240.834 159.36ZM241.874 167.36L246.98 158.761V158.761L241.874 167.36ZM249.874 170.64L253.078 161.167L253.015 161.146L252.952 161.126L249.874 170.64ZM258.674 174.16L254.202 183.104L254.244 183.125L254.286 183.146L258.674 174.16ZM264.594 179.04L256.69 185.166L256.69 185.166L264.594 179.04ZM264.594 196L256.143 190.654L256.104 190.716L256.066 190.778L264.594 196ZM257.554 202.24L253.082 193.296L257.554 202.24ZM246.594 194.56C243.573 194.56 241.212 194.071 239.346 193.307L231.762 211.813C236.403 213.715 241.402 214.56 246.594 214.56V194.56ZM239.346 193.307C237.627 192.602 236.507 191.69 235.695 190.614L219.734 202.666C222.868 206.817 226.975 209.851 231.762 211.813L239.346 193.307ZM235.773 190.719C235.214 189.958 234.726 188.845 234.67 186.91L214.678 187.49C214.836 192.915 216.375 198.095 219.655 202.561L235.773 190.719ZM224.674 197.2H239.234V177.2H224.674V197.2ZM229.286 188.22C229.683 192.088 231.178 196.213 234.652 199.385L248.137 184.615C248.587 185.027 248.885 185.483 249.053 185.856C249.208 186.2 249.2 186.353 249.182 186.18L229.286 188.22ZM234.832 199.546C238.248 202.516 242.348 203.6 246.194 203.6V183.6C246.104 183.6 246.3 183.588 246.676 183.713C247.079 183.847 247.538 184.09 247.956 184.454L234.832 199.546ZM246.194 203.6C249.632 203.6 253.641 202.832 257.109 200.153L244.88 184.327C246.001 183.461 246.81 183.6 246.194 183.6V203.6ZM257.327 199.98C261.051 196.933 262.754 192.663 262.754 188.32H242.754C242.754 187.951 242.824 187.263 243.192 186.444C243.57 185.601 244.12 184.943 244.662 184.5L257.327 199.98ZM262.754 188.32C262.754 184.337 261.251 180.509 258.18 177.61L244.448 192.15C243.977 191.705 243.502 191.076 243.17 190.281C242.842 189.498 242.754 188.799 242.754 188.32H262.754ZM258.385 177.809C256.424 175.848 254.14 174.433 251.771 173.43L243.978 191.85C244.181 191.936 244.285 191.999 244.317 192.02C244.347 192.039 244.313 192.021 244.243 191.951L258.385 177.809ZM251.902 173.487C250 172.65 247.615 171.844 244.969 171.056L239.259 190.224C241.627 190.929 243.082 191.457 243.847 191.793L251.902 173.487ZM245.065 171.085C241.718 170.052 239.287 169.107 237.623 168.294L228.846 186.266C231.768 187.693 235.257 188.988 239.163 190.195L245.065 171.085ZM237.623 168.294C236.844 167.914 236.069 167.318 235.291 166.289L219.338 178.351C221.867 181.696 225.038 184.406 228.846 186.266L237.623 168.294ZM235.291 166.289C235.282 166.277 234.834 165.726 234.834 163.76H214.834C214.834 168.834 216.04 173.989 219.338 178.351L235.291 166.289ZM234.834 163.76C234.834 161.302 235.542 160.275 236.638 159.425L224.39 143.615C217.913 148.632 214.834 155.765 214.834 163.76H234.834ZM236.707 159.372C238.312 158.106 240.885 157.04 245.314 157.04V137.04C237.584 137.04 230.29 138.961 224.321 143.668L236.707 159.372ZM245.314 157.04C249.897 157.04 252.505 158.129 254.081 159.372L266.467 143.668C260.47 138.938 253.104 137.04 245.314 137.04V157.04ZM254.15 159.425C255.375 160.375 256.23 161.637 256.367 164.344L276.341 163.336C275.945 155.483 272.746 148.532 266.398 143.615L254.15 159.425ZM266.354 153.84H251.554V173.84H266.354V153.84ZM261.537 163.253C261.293 159.098 259.603 154.931 255.923 151.89L243.185 167.31C242.686 166.897 242.236 166.335 241.93 165.686C241.637 165.066 241.581 164.591 241.571 164.427L261.537 163.253ZM256.116 152.054C252.75 149.127 248.706 148 244.834 148V168C244.869 168 244.638 168.004 244.244 167.871C243.827 167.729 243.382 167.485 242.992 167.146L256.116 152.054ZM244.834 148C241.277 148 237.39 149.024 234.166 151.908L247.502 166.812C246.97 167.288 246.374 167.617 245.813 167.808C245.281 167.989 244.916 168 244.834 168V148ZM234.393 151.711C230.578 154.923 229.314 159.312 229.314 163.12H249.314C249.314 163.3 249.288 163.89 248.965 164.688C248.621 165.541 248.042 166.363 247.276 167.009L234.393 151.711ZM229.314 163.12C229.314 168.848 232.374 173.349 236.769 175.959L246.98 158.761C247.258 158.927 247.934 159.409 248.515 160.371C249.121 161.375 249.314 162.39 249.314 163.12H229.314ZM236.769 175.959C239.458 177.555 242.983 178.921 246.796 180.154L252.952 161.126C249.513 160.013 247.704 159.192 246.98 158.761L236.769 175.959ZM246.67 180.113C250.064 181.261 252.526 182.266 254.202 183.104L263.146 165.216C260.342 163.814 256.938 162.473 253.078 161.167L246.67 180.113ZM254.286 183.146C255.125 183.555 255.919 184.171 256.69 185.166L272.498 172.914C269.963 169.642 266.81 167.005 263.063 165.174L254.286 183.146ZM256.69 185.166C256.719 185.203 256.796 185.309 256.879 185.582C256.967 185.876 257.074 186.413 257.074 187.28H277.074C277.074 182.256 275.815 177.193 272.498 172.914L256.69 185.166ZM257.074 187.28C257.074 188.657 256.748 189.697 256.143 190.654L273.045 201.346C275.747 197.076 277.074 192.303 277.074 187.28H257.074ZM256.066 190.778C255.564 191.597 254.723 192.475 253.082 193.296L262.026 211.184C266.572 208.911 270.424 205.629 273.123 201.222L256.066 190.778ZM253.082 193.296C251.648 194.013 249.589 194.56 246.594 194.56V214.56C252.026 214.56 257.274 213.56 262.026 211.184L253.082 193.296ZM317.493 147.84H327.493V137.84H317.493V147.84ZM317.493 158.8V168.8H327.493V158.8H317.493ZM302.613 158.8V148.8H292.613V158.8H302.613ZM302.613 204V214H312.613V204H302.613ZM288.933 204H278.933V214H288.933V204ZM288.933 158.8H298.933V148.8H288.933V158.8ZM274.053 158.8H264.053V168.8H274.053V158.8ZM274.053 147.84V137.84H264.053V147.84H274.053ZM307.493 147.84V158.8H327.493V147.84H307.493ZM317.493 148.8H302.613V168.8H317.493V148.8ZM292.613 158.8V204H312.613V158.8H292.613ZM302.613 194H288.933V214H302.613V194ZM298.933 204V158.8H278.933V204H298.933ZM288.933 148.8H274.053V168.8H288.933V148.8ZM284.053 158.8V147.84H264.053V158.8H284.053ZM274.053 157.84H317.493V137.84H274.053V157.84ZM339.399 147.84H349.399V137.84H339.399V147.84ZM341.879 189.2L334.489 195.938L341.879 189.2ZM356.519 189.2L363.801 196.054V196.054L356.519 189.2ZM359.079 147.84V137.84H349.079V147.84H359.079ZM372.759 147.84H382.759V137.84H372.759V147.84ZM369.559 194.08L378.075 199.321V199.321L369.559 194.08ZM360.919 201.92L356.553 192.923L356.526 192.936L356.5 192.949L360.919 201.92ZM336.999 202L332.472 210.917L332.553 210.958L332.636 210.998L336.999 202ZM328.759 194.16L320.092 199.15L320.109 199.178L320.126 199.207L328.759 194.16ZM325.719 147.84V137.84H315.719V147.84H325.719ZM329.399 147.84V181.44H349.399V147.84H329.399ZM329.399 181.44C329.399 186.364 330.621 191.695 334.489 195.938L349.268 182.462C349.51 182.728 349.566 182.926 349.544 182.856C349.509 182.748 349.399 182.322 349.399 181.44H329.399ZM334.489 195.938C338.571 200.414 344.05 201.92 349.159 201.92V181.92C348.482 181.92 348.304 181.822 348.439 181.872C348.512 181.9 348.646 181.96 348.811 182.069C348.977 182.181 349.134 182.316 349.268 182.462L334.489 195.938ZM349.159 201.92C354.285 201.92 359.702 200.409 363.801 196.054L349.237 182.346C349.35 182.226 349.484 182.113 349.626 182.02C349.767 181.928 349.878 181.88 349.932 181.86C350.032 181.823 349.831 181.92 349.159 181.92V201.92ZM363.801 196.054C367.789 191.816 369.079 186.44 369.079 181.44H349.079C349.079 182.294 348.968 182.689 348.942 182.767C348.931 182.8 348.942 182.757 348.995 182.666C349.049 182.573 349.13 182.46 349.237 182.346L363.801 196.054ZM369.079 181.44V147.84H349.079V181.44H369.079ZM359.079 157.84H372.759V137.84H359.079V157.84ZM362.759 147.84V181.36H382.759V147.84H362.759ZM362.759 181.36C362.759 184.951 362.003 187.277 361.042 188.839L378.075 199.321C381.381 193.95 382.759 187.796 382.759 181.36H362.759ZM361.042 188.839C359.896 190.701 358.449 192.003 356.553 192.923L365.285 210.917C370.642 208.317 374.954 204.392 378.075 199.321L361.042 188.839ZM356.5 192.949C354.448 193.96 351.986 194.56 348.919 194.56V214.56C354.705 214.56 360.242 213.4 365.337 210.891L356.5 192.949ZM348.919 194.56C345.803 194.56 343.352 193.967 341.361 193.002L332.636 210.998C337.685 213.446 343.181 214.56 348.919 214.56V194.56ZM341.526 193.083C339.829 192.222 338.483 190.98 337.392 189.113L320.126 199.207C323.088 204.273 327.235 208.258 332.472 210.917L341.526 193.083ZM337.425 189.17C336.455 187.486 335.719 185.029 335.719 181.36H315.719C315.719 187.718 317.009 193.794 320.092 199.15L337.425 189.17ZM335.719 181.36V147.84H315.719V181.36H335.719ZM325.719 157.84H339.399V137.84H325.719V157.84ZM420.525 151.36L425.209 142.525V142.525L420.525 151.36ZM430.765 161.28L422.049 166.183L422.086 166.248L422.123 166.312L430.765 161.28ZM430.765 190.56L422.096 185.575L422.072 185.616L422.049 185.657L430.765 190.56ZM420.445 200.48L415.805 191.622L415.783 191.633L415.761 191.645L420.445 200.48ZM383.965 204H373.965V214H383.965V204ZM383.965 147.84V137.84H373.965V147.84H383.965ZM397.645 159.52V149.52H387.645V159.52H397.645ZM397.645 192.16H387.645V202.16H397.645V192.16ZM405.005 157.84C409.588 157.84 413.098 158.741 415.841 160.195L425.209 142.525C419.098 139.286 412.262 137.84 405.005 137.84V157.84ZM415.841 160.195C418.617 161.667 420.612 163.627 422.049 166.183L439.481 156.377C436.118 150.4 431.286 145.747 425.209 142.525L415.841 160.195ZM422.123 166.312C423.57 168.797 424.445 171.893 424.445 175.92H444.445C444.445 168.853 442.866 162.19 439.407 156.248L422.123 166.312ZM424.445 175.92C424.445 179.872 423.579 182.996 422.096 185.575L439.434 195.545C442.857 189.591 444.445 182.955 444.445 175.92H424.445ZM422.049 185.657C420.629 188.181 418.632 190.141 415.805 191.622L425.085 209.338C431.217 206.126 436.1 201.472 439.481 195.463L422.049 185.657ZM415.761 191.645C413.005 193.106 409.518 194 405.005 194V214C412.225 214 419.031 212.548 425.129 209.315L415.761 191.645ZM405.005 194H383.965V214H405.005V194ZM393.965 204V147.84H373.965V204H393.965ZM383.965 157.84H405.005V137.84H383.965V157.84ZM404.125 202.16C411.146 202.16 417.973 200.196 423.21 195.057L409.2 180.783C408.676 181.297 407.45 182.16 404.125 182.16V202.16ZM423.21 195.057C428.507 189.858 430.525 182.983 430.525 175.92H410.525C410.525 179.204 409.663 180.329 409.2 180.783L423.21 195.057ZM430.525 175.92C430.525 168.847 428.504 161.997 423.276 156.769L409.134 170.911C409.666 171.443 410.525 172.646 410.525 175.92H430.525ZM423.276 156.769C418.048 151.541 411.198 149.52 404.125 149.52V169.52C407.399 169.52 408.602 170.379 409.134 170.911L423.276 156.769ZM404.125 149.52H397.645V169.52H404.125V149.52ZM387.645 159.52V192.16H407.645V159.52H387.645ZM397.645 202.16H404.125V182.16H397.645V202.16ZM457.37 147.84H467.37V137.84H457.37V147.84ZM457.37 204V214H467.37V204H457.37ZM443.69 204H433.69V214H443.69V204ZM443.69 147.84V137.84H433.69V147.84H443.69ZM447.37 147.84V204H467.37V147.84H447.37ZM457.37 194H443.69V214H457.37V194ZM453.69 204V147.84H433.69V204H453.69ZM443.69 157.84H457.37V137.84H443.69V157.84ZM480.884 200.88L475.991 209.601L476.014 209.614L476.036 209.627L480.884 200.88ZM470.404 190.64L461.747 195.646L461.783 195.708L461.819 195.77L470.404 190.64ZM470.404 160.96L461.819 155.83L461.796 155.869L461.773 155.908L470.404 160.96ZM480.884 150.72L476.036 141.973L476.014 141.986L475.991 141.999L480.884 150.72ZM509.924 150.72L505.031 159.441L505.054 159.454L505.076 159.467L509.924 150.72ZM520.324 160.96L511.648 165.933L511.67 165.972L511.693 166.012L520.324 160.96ZM520.324 190.64L528.954 195.692L528.967 195.669L528.98 195.646L520.324 190.64ZM509.924 200.88L514.816 209.601L509.924 200.88ZM506.164 187.6L498.77 180.867L498.737 180.903L498.704 180.94L506.164 187.6ZM506.164 163.92L498.704 170.58L498.767 170.65L498.831 170.719L506.164 163.92ZM484.564 163.84L477.231 157.041L477.197 157.077L477.164 157.113L484.564 163.84ZM484.564 187.68L477.104 194.34L477.167 194.41L477.231 194.479L484.564 187.68ZM495.444 194.56C491.783 194.56 488.609 193.729 485.731 192.133L476.036 209.627C482.011 212.938 488.544 214.56 495.444 214.56V194.56ZM485.776 192.159C482.951 190.574 480.72 188.41 478.988 185.51L461.819 195.77C465.314 201.617 470.069 206.279 475.991 209.601L485.776 192.159ZM479.06 185.634C477.445 182.841 476.564 179.631 476.564 175.76H456.564C456.564 182.876 458.242 189.585 461.747 195.646L479.06 185.634ZM476.564 175.76C476.564 171.888 477.446 168.725 479.034 166.012L461.773 155.908C458.242 161.942 456.564 168.645 456.564 175.76H476.564ZM478.988 166.09C480.72 163.19 482.951 161.026 485.776 159.441L475.991 141.999C470.069 145.321 465.314 149.983 461.819 155.83L478.988 166.09ZM485.731 159.467C488.609 157.871 491.783 157.04 495.444 157.04V137.04C488.544 137.04 482.011 138.662 476.036 141.973L485.731 159.467ZM495.444 157.04C499.104 157.04 502.232 157.871 505.031 159.441L514.816 141.999C508.868 138.662 502.343 137.04 495.444 137.04V157.04ZM505.076 159.467C507.913 161.039 510.053 163.15 511.648 165.933L529 155.987C525.581 150.023 520.788 145.308 514.771 141.973L505.076 159.467ZM511.693 166.012C513.282 168.725 514.164 171.888 514.164 175.76H534.164C534.164 168.645 532.486 161.942 528.954 155.908L511.693 166.012ZM514.164 175.76C514.164 179.631 513.282 182.841 511.667 185.634L528.98 195.646C532.485 189.585 534.164 182.876 534.164 175.76H514.164ZM511.693 185.588C510.021 188.445 507.837 190.584 505.031 192.159L514.816 209.601C520.756 206.269 525.506 201.582 528.954 195.692L511.693 185.588ZM505.031 192.159C502.232 193.729 499.104 194.56 495.444 194.56V214.56C502.343 214.56 508.868 212.938 514.816 209.601L505.031 192.159ZM495.444 202.08C502.395 202.08 508.822 199.638 513.623 194.26L498.704 180.94C498.172 181.536 497.452 182.08 495.444 182.08V202.08ZM513.557 194.333C518.298 189.128 520.244 182.595 520.244 175.76H500.244C500.244 178.738 499.47 180.099 498.77 180.867L513.557 194.333ZM520.244 175.76C520.244 168.912 518.318 162.32 513.496 157.121L498.831 170.719C499.449 171.386 500.244 172.688 500.244 175.76H520.244ZM513.623 157.26C508.822 151.882 502.395 149.44 495.444 149.44V169.44C497.452 169.44 498.172 169.984 498.704 170.58L513.623 157.26ZM495.444 149.44C488.536 149.44 482.104 151.785 477.231 157.041L491.896 170.639C492.463 170.028 493.285 169.44 495.444 169.44V149.44ZM477.164 157.113C472.416 162.337 470.564 168.942 470.564 175.76H490.564C490.564 172.552 491.378 171.21 491.963 170.567L477.164 157.113ZM470.564 175.76C470.564 182.566 472.436 189.111 477.104 194.34L492.023 181.02C491.358 180.275 490.564 178.874 490.564 175.76H470.564ZM477.231 194.479C482.104 199.735 488.536 202.08 495.444 202.08V182.08C493.285 182.08 492.463 181.492 491.896 180.881L477.231 194.479Z" fill="#FF3A85" mask="url(#path-3-outside-2_530_487)"/>
</svg>
